<?xml version="1.0" encoding="utf-8"?>
<!-- Generator: Adobe Illustrator 19.0.0, SVG Export Plug-In . SVG Version: 6.00 Build 0)  -->
<svg version="1.0" id="Layer_1" xmlns="http://www.w3.org/2000/svg" xmlns:xlink="http://www.w3.org/1999/xlink" x="0px" y="0px"
	 viewBox="0 0 500 500" style="enable-background:new 0 0 500 500;" xml:space="preserve">
<style type="text/css">
	.st0{fill:#3FA9F5;}
</style>
<g id="XMLID_2_">
	<path id="XMLID_21_" class="st0" d="M127.4,221.7c-7.4,0-14.5,5.1-16.7,13.4c-0.2,1.2-0.7,2.7-0.7,4.5v10.8c0,1.4,0.3,2.7,0.6,4
		c2.1,7.6,8.5,12.8,16.4,12.8c11.4,0,18.2-9.3,18.2-23.1C145.2,232,139.1,221.7,127.4,221.7z"/>
	<path id="XMLID_22_" class="st0" d="M195.1,221.2c-12.9,0-18.5,11.9-18.5,23.3c0,13.1,7.6,23.1,18.2,23.1
		c10.4,0,18.2-9.8,18.2-23.3C213.1,234.1,208,221.2,195.1,221.2z"/>
	<path id="XMLID_25_" class="st0" d="M250,0C111.9,0,0,111.9,0,250s111.9,250,250,250s250-111.9,250-250S388.1,0,250,0z M76.3,274
		l-8.9-26H37.7l-8.7,26H17.9l28.4-83h13l28.5,83H76.3z M129.3,275.5c-8.7,0-15.6-3.5-20.1-11.5h-0.4l-0.5,10h-9.4
		c0.2-4,0.1-9.8,0.1-15.1V186h11v38h0.4c3.8-7,10.8-11,20.5-11c14.9,0,25.4,12.3,25.3,30.5C156.2,265,142.6,275.5,129.3,275.5z
		 M194.4,275.8c-16.2,0-28.8-11.9-28.8-30.9c0-20.1,13.1-31.9,29.8-31.9c17.2,0,28.9,12.5,28.9,30.9
		C224.2,266.1,208.9,275.8,194.4,275.8z M279,274l-0.6-9h-0.2c-2.9,4-9,11-19.7,11c-9.4,0-20.5-5.4-20.5-26.5V214h11v33.6
		c0,11.4,3.2,19.1,13.2,19.1c7.3,0,12.1-5.1,14.1-9.9c0.6-1.6,0.7-3.6,0.7-5.6V214h11v44c0,6.2,0.3,12,0.7,16H279z M335,223h-16v32
		c0,7.4,2.3,11.7,8.4,11.7c2.9,0,5.1-0.4,6.4-0.7l0.6,8.2c-2.1,0.9-5.4,1.5-9.6,1.5c-5.1,0-9.1-1.6-11.7-4.6
		c-3.1-3.2-4.1-8.6-4.1-15.6V223h-9v-9h9v-14l10-2.9V214h16V223z M436,239.5c0,25.7-13.7,36.2-31.8,36.2c-17.1,0-30.2-9.8-30.2-35.7
		v-49h11v49.3c0,18.7,8.4,26.7,19.6,26.7c12.4,0,20.4-8.2,20.4-26.7V191h11V239.5z M465.8,275.6c-6.6,0-12.6-1.6-16.9-4.1l2.7-8.3
		c3.2,2.1,8.9,4.3,14.4,4.3c7.9,0,11.7-4,11.7-8.9c0-5.2-3.1-8.1-11.2-11c-10.8-3.8-15.9-9.8-15.9-17c0-9.7,7.8-17.6,20.7-17.6
		c6.1,0,11.4,1.7,14.8,3.7l-2.7,7.9c-2.4-1.5-6.7-3.5-12.3-3.5c-6.4,0-10,3.7-10,8.2c0,5,3.6,7.2,11.4,10.2
		c10.4,4,15.7,9.2,15.7,18.1C488.2,268.2,480,275.6,465.8,275.6z"/>
	<path id="XMLID_32_" class="st0" d="M52.6,200h-0.2c-1.2,5-2.6,10.4-4.2,15.5L40,240h25.2L57,215.6C55.1,210.1,53.9,205,52.6,200z"
		/>
</g>
</svg>
