<svg xmlns="http://www.w3.org/2000/svg" viewBox="0 0 744 744" width="5744" height="5744"><path d="M12 10.3c-.296-.001-.585.092-.825.266-.24.173-.419.419-.511.701-.091.281-.091.585 0 .866.092.282.271.528.511.701.24.174.529.267.825.266.296.001.585-.092.825-.266.24-.173.419-.419.511-.701.091-.281.091-.585 0-.866-.092-.282-.271-.528-.511-.701-.24-.174-.529-.267-.825-.266z" fill="#3fa9f5"/><path d="M8.1 8l14 14" fill="none" stroke="#3fa9f5" stroke-width="5" stroke-dasharray="0,19.79898987322333" stroke-dashoffset="19.79899" stroke-miterlimit="10"/><path d="M35.418305 9.718305c-.296-.001-.585.092-.825.266-.24.173-.419.419-.511.701-.091.281-.091.585 0 .866.092.282.271.528.511.701.24.174.529.267.825.266.296.001.585-.092.825-.266.24-.173.419-.419.511-.701.091-.281.091-.585 0-.866-.092-.282-.271-.528-.511-.701-.24-.174-.529-.267-.825-.266z" fill="#3fa9f5"/><path d="M32.1 8l14 14" fill="none" stroke="#3fa9f5" stroke-width="5" stroke-dasharray="0,19.79898987322333" stroke-dashoffset="19.79899" stroke-miterlimit="10"/><path d="M58.886207 9.186207c-.296-.001-.585.092-.825.266-.24.173-.419.419-.511.701-.091.281-.091.585 0 .866.092.282.271.528.511.701.24.174.529.267.825.266.296.001.585-.092.825-.266.24-.173.419-.419.511-.701.091-.281.091-.585 0-.866-.092-.282-.271-.528-.511-.701-.24-.174-.529-.267-.825-.266z" fill="#3fa9f5"/><path d="M56.1 8l14 14" fill="none" stroke="#3fa9f5" stroke-width="5" stroke-dasharray="0,19.79898987322333" stroke-dashoffset="19.79899" stroke-miterlimit="10"/><path d="M82.40169 8.70169c-.296-.001-.585.092-.825.266-.24.173-.419.419-.511.701-.091.281-.091.585 0 .866.092.282.271.528.511.701.24.174.529.267.825.266.296.001.585-.092.825-.266.24-.173.419-.419.511-.701.091-.281.091-.585 0-.866-.092-.282-.271-.528-.511-.701-.24-.174-.529-.267-.825-.266z" fill="#3fa9f5"/><path d="M80.1 8l14 14" fill="none" stroke="#3fa9f5" stroke-width="5" stroke-dasharray="0,19.79898987322333" stroke-dashoffset="19.79899" stroke-miterlimit="10"/><path d="M105.96274 8.26274c-.296-.001-.585.092-.825.266-.24.173-.419.419-.511.701-.091.281-.091.585 0 .866.092.282.271.528.511.701.24.174.529.267.825.266.296.001.585-.092.825-.266.24-.173.419-.419.511-.701.091-.281.091-.585 0-.866-.092-.282-.271-.528-.511-.701-.24-.174-.529-.267-.825-.266z" fill="#3fa9f5"/><path d="M104.1 8l14 14" fill="none" stroke="#3fa9f5" stroke-width="5" stroke-dasharray="0,19.79898987322333" stroke-dashoffset="19.79899" stroke-miterlimit="10"/><path d="M129.567344 7.867344c-.296-.001-.585.092-.825.266-.24.173-.419.419-.511.701-.091.281-.091.585 0 .866.092.282.271.528.511.701.24.174.529.267.825.266.296.001.585-.092.825-.266.24-.173.419-.419.511-.701.091-.281.091-.585 0-.866-.092-.282-.271-.528-.511-.701-.24-.174-.529-.267-.825-.266z" fill="#3fa9f5"/><path d="M128.1 8l14 14" fill="none" stroke="#3fa9f5" stroke-width="5" stroke-dasharray="0,19.79898987322333" stroke-dashoffset="19.79899" stroke-miterlimit="10"/><path d="M153.213487 7.513487c-.296-.001-.585.092-.825.266-.24.173-.419.419-.511.701-.091.281-.091.585 0 .866.092.282.271.528.511.701.24.174.529.267.825.266.296.001.585-.092.825-.266.24-.173.419-.419.511-.701.091-.281.091-.585 0-.866-.092-.282-.271-.528-.511-.701-.24-.174-.529-.267-.825-.266z" fill="#3fa9f5"/><path d="M152.1 8l14 14" fill="none" stroke="#3fa9f5" stroke-width="5" stroke-dasharray="0,19.79898987322333" stroke-dashoffset="19.79899" stroke-miterlimit="10"/><path d="M176.899153 7.199153c-.296-.001-.585.092-.825.266-.24.173-.419.419-.511.701-.091.281-.091.585 0 .866.092.282.271.528.511.701.24.174.529.267.825.266.296.001.585-.092.825-.266.24-.173.419-.419.511-.701.091-.281.091-.585 0-.866-.092-.282-.271-.528-.511-.701-.24-.174-.529-.267-.825-.266z" fill="#3fa9f5"/><path d="M176.1 8l14 14" fill="none" stroke="#3fa9f5" stroke-width="5" stroke-dasharray="0,19.79898987322333" stroke-dashoffset="19.79899" stroke-miterlimit="10"/><path d="M200.622328 6.922328c-.296-.001-.585.092-.825.266-.24.173-.419.419-.511.701-.091.281-.091.585 0 .866.092.282.271.528.511.701.24.174.529.267.825.266.296.001.585-.092.825-.266.24-.173.419-.419.511-.701.091-.281.091-.585 0-.866-.092-.282-.271-.528-.511-.701-.24-.174-.529-.267-.825-.266z" fill="#3fa9f5"/><path d="M200.1 8l14 14" fill="none" stroke="#3fa9f5" stroke-width="5" stroke-dasharray="0,19.79898987322333" stroke-dashoffset="19.79899" stroke-miterlimit="10"/><path d="M224.381 6.681c-.296-.001-.585.092-.825.266-.24.173-.419.419-.511.701-.091.281-.091.585 0 .866.092.282.271.528.511.701.24.174.529.267.825.266.296.001.585-.092.825-.266.24-.173.419-.419.511-.701.091-.281.091-.585 0-.866-.092-.282-.271-.528-.511-.701-.24-.174-.529-.267-.825-.266z" fill="#3fa9f5"/><path d="M224.1 8l14 14" fill="none" stroke="#3fa9f5" stroke-width="5" stroke-dasharray="0,19.79898987322333" stroke-dashoffset="19.79899" stroke-miterlimit="10"/><path d="M248.17315 6.47315c-.296-.001-.585.092-.825.266-.24.173-.419.419-.511.701-.091.281-.091.585 0 .866.092.282.271.528.511.701.24.174.529.267.825.266.296.001.585-.092.825-.266.24-.173.419-.419.511-.701.091-.281.091-.585 0-.866-.092-.282-.271-.528-.511-.701-.24-.174-.529-.267-.825-.266z" fill="#3fa9f5"/><path d="M248.1 8l14 14" fill="none" stroke="#3fa9f5" stroke-width="5" stroke-dasharray="0,19.79898987322333" stroke-dashoffset="19.79899" stroke-miterlimit="10"/><path d="M271.996768 6.296768c-.296-.001-.585.092-.825.266-.24.173-.419.419-.511.701-.091.281-.091.585 0 .866.092.282.271.528.511.701.24.174.529.267.825.266.296.001.585-.092.825-.266.24-.173.419-.419.511-.701.091-.281.091-.585 0-.866-.092-.282-.271-.528-.511-.701-.24-.174-.529-.267-.825-.266z" fill="#3fa9f5"/><path d="M272.1 8l14 14" fill="none" stroke="#3fa9f5" stroke-width="5" stroke-dasharray="0,19.79898987322333" stroke-dashoffset="19.79899" stroke-miterlimit="10"/><path d="M295.849837 6.149837c-.296-.001-.585.092-.825.266-.24.173-.419.419-.511.701-.091.281-.091.585 0 .866.092.282.271.528.511.701.24.174.529.267.825.266.296.001.585-.092.825-.266.24-.173.419-.419.511-.701.091-.281.091-.585 0-.866-.092-.282-.271-.528-.511-.701-.24-.174-.529-.267-.825-.266z" fill="#3fa9f5"/><path d="M296.1 8l14 14" fill="none" stroke="#3fa9f5" stroke-width="5" stroke-dasharray="0,19.79898987322333" stroke-dashoffset="19.79899" stroke-miterlimit="10"/><path d="M319.730343 6.030343c-.296-.001-.585.092-.825.266-.24.173-.419.419-.511.701-.091.281-.091.585 0 .866.092.282.271.528.511.701.24.174.529.267.825.266.296.001.585-.092.825-.266.24-.173.419-.419.511-.701.091-.281.091-.585 0-.866-.092-.282-.271-.528-.511-.701-.24-.174-.529-.267-.825-.266z" fill="#3fa9f5"/><path d="M320.1 8l14 14" fill="none" stroke="#3fa9f5" stroke-width="5" stroke-dasharray="0,19.79898987322333" stroke-dashoffset="19.79899" stroke-miterlimit="10"/><path d="M343.636271 5.936271c-.296-.001-.585.092-.825.266-.24.173-.419.419-.511.701-.091.281-.091.585 0 .866.092.282.271.528.511.701.24.174.529.267.825.266.296.001.585-.092.825-.266.24-.173.419-.419.511-.701.091-.281.091-.585 0-.866-.092-.282-.271-.528-.511-.701-.24-.174-.529-.267-.825-.266z" fill="#3fa9f5"/><path d="M344.1 8l14 14" fill="none" stroke="#3fa9f5" stroke-width="5" stroke-dasharray="0,19.79898987322333" stroke-dashoffset="19.79899" stroke-miterlimit="10"/><path d="M367.565608 5.865608c-.296-.001-.585.092-.825.266-.24.173-.419.419-.511.701-.091.281-.091.585 0 .866.092.282.271.528.511.701.24.174.529.267.825.266.296.001.585-.092.825-.266.24-.173.419-.419.511-.701.091-.281.091-.585 0-.866-.092-.282-.271-.528-.511-.701-.24-.174-.529-.267-.825-.266z" fill="#3fa9f5"/><path d="M368.1 8l14 14" fill="none" stroke="#3fa9f5" stroke-width="5" stroke-dasharray="0,19.79898987322333" stroke-dashoffset="19.79899" stroke-miterlimit="10"/><path d="M391.51634 5.81634c-.296-.001-.585.092-.825.266-.24.173-.419.419-.511.701-.091.281-.091.585 0 .866.092.282.271.528.511.701.24.174.529.267.825.266.296.001.585-.092.825-.266.24-.173.419-.419.511-.701.091-.281.091-.585 0-.866-.092-.282-.271-.528-.511-.701-.24-.174-.529-.267-.825-.266z" fill="#3fa9f5"/><path d="M392.1 8l14 14" fill="none" stroke="#3fa9f5" stroke-width="5" stroke-dasharray="0,19.79898987322333" stroke-dashoffset="19.79899" stroke-miterlimit="10"/><path d="M415.486449 5.786449c-.296-.001-.585.092-.825.266-.24.173-.419.419-.511.701-.091.281-.091.585 0 .866.092.282.271.528.511.701.24.174.529.267.825.266.296.001.585-.092.825-.266.24-.173.419-.419.511-.701.091-.281.091-.585 0-.866-.092-.282-.271-.528-.511-.701-.24-.174-.529-.267-.825-.266z" fill="#3fa9f5"/><path d="M416.1 8l14 14" fill="none" stroke="#3fa9f5" stroke-width="5" stroke-dasharray="0,19.79898987322333" stroke-dashoffset="19.79899" stroke-miterlimit="10"/><path d="M439.473924 5.773924c-.296-.001-.585.092-.825.266-.24.173-.419.419-.511.701-.091.281-.091.585 0 .866.092.282.271.528.511.701.24.174.529.267.825.266.296.001.585-.092.825-.266.24-.173.419-.419.511-.701.091-.281.091-.585 0-.866-.092-.282-.271-.528-.511-.701-.24-.174-.529-.267-.825-.266z" fill="#3fa9f5"/><path d="M440.1 8l14 14" fill="none" stroke="#3fa9f5" stroke-width="5" stroke-dasharray="0,19.79898987322333" stroke-dashoffset="19.79899" stroke-miterlimit="10"/><path d="M463.476749 5.776749c-.296-.001-.585.092-.825.266-.24.173-.419.419-.511.701-.091.281-.091.585 0 .866.092.282.271.528.511.701.24.174.529.267.825.266.296.001.585-.092.825-.266.24-.173.419-.419.511-.701.091-.281.091-.585 0-.866-.092-.282-.271-.528-.511-.701-.24-.174-.529-.267-.825-.266z" fill="#3fa9f5"/><path d="M464.1 8l14 14" fill="none" stroke="#3fa9f5" stroke-width="5" stroke-dasharray="0,19.79898987322333" stroke-dashoffset="19.79899" stroke-miterlimit="10"/><path d="M487.49291 5.79291c-.296-.001-.585.092-.825.266-.24.173-.419.419-.511.701-.091.281-.091.585 0 .866.092.282.271.528.511.701.24.174.529.267.825.266.296.001.585-.092.825-.266.24-.173.419-.419.511-.701.091-.281.091-.585 0-.866-.092-.282-.271-.528-.511-.701-.24-.174-.529-.267-.825-.266z" fill="#3fa9f5"/><path d="M488.1 8l14 14" fill="none" stroke="#3fa9f5" stroke-width="5" stroke-dasharray="0,19.79898987322333" stroke-dashoffset="19.79899" stroke-miterlimit="10"/><path d="M511.520392 5.820392c-.296-.001-.585.092-.825.266-.24.173-.419.419-.511.701-.091.281-.091.585 0 .866.092.282.271.528.511.701.24.174.529.267.825.266.296.001.585-.092.825-.266.24-.173.419-.419.511-.701.091-.281.091-.585 0-.866-.092-.282-.271-.528-.511-.701-.24-.174-.529-.267-.825-.266z" fill="#3fa9f5"/><path d="M512.1 8l14 14" fill="none" stroke="#3fa9f5" stroke-width="5" stroke-dasharray="0,19.79898987322333" stroke-dashoffset="19.79899" stroke-miterlimit="10"/><path d="M535.55718 5.85718c-.296-.001-.585.092-.825.266-.24.173-.419.419-.511.701-.091.281-.091.585 0 .866.092.282.271.528.511.701.24.174.529.267.825.266.296.001.585-.092.825-.266.24-.173.419-.419.511-.701.091-.281.091-.585 0-.866-.092-.282-.271-.528-.511-.701-.24-.174-.529-.267-.825-.266z" fill="#3fa9f5"/><path d="M536.1 8l14 14" fill="none" stroke="#3fa9f5" stroke-width="5" stroke-dasharray="0,19.79898987322333" stroke-dashoffset="19.79899" stroke-miterlimit="10"/><path d="M559.601262 5.901262c-.296-.001-.585.092-.825.266-.24.173-.419.419-.511.701-.091.281-.091.585 0 .866.092.282.271.528.511.701.24.174.529.267.825.266.296.001.585-.092.825-.266.24-.173.419-.419.511-.701.091-.281.091-.585 0-.866-.092-.282-.271-.528-.511-.701-.24-.174-.529-.267-.825-.266z" fill="#3fa9f5"/><path d="M560.1 8l14 14" fill="none" stroke="#3fa9f5" stroke-width="5" stroke-dasharray="0,19.79898987322333" stroke-dashoffset="19.79899" stroke-miterlimit="10"/><path d="M583.650621 5.950621c-.296-.001-.585.092-.825.266-.24.173-.419.419-.511.701-.091.281-.091.585 0 .866.092.282.271.528.511.701.24.174.529.267.825.266.296.001.585-.092.825-.266.24-.173.419-.419.511-.701.091-.281.091-.585 0-.866-.092-.282-.271-.528-.511-.701-.24-.174-.529-.267-.825-.266z" fill="#3fa9f5"/><path d="M584.1 8l14 14" fill="none" stroke="#3fa9f5" stroke-width="5" stroke-dasharray="0,19.79898987322333" stroke-dashoffset="19.79899" stroke-miterlimit="10"/><path d="M607.703244 6.003244c-.296-.001-.585.092-.825.266-.24.173-.419.419-.511.701-.091.281-.091.585 0 .866.092.282.271.528.511.701.24.174.529.267.825.266.296.001.585-.092.825-.266.24-.173.419-.419.511-.701.091-.281.091-.585 0-.866-.092-.282-.271-.528-.511-.701-.24-.174-.529-.267-.825-.266z" fill="#3fa9f5"/><path d="M608.1 8l14 14" fill="none" stroke="#3fa9f5" stroke-width="5" stroke-dasharray="0,19.79898987322333" stroke-dashoffset="19.79899" stroke-miterlimit="10"/><path d="M631.757116 6.057116c-.296-.001-.585.092-.825.266-.24.173-.419.419-.511.701-.091.281-.091.585 0 .866.092.282.271.528.511.701.24.174.529.267.825.266.296.001.585-.092.825-.266.24-.173.419-.419.511-.701.091-.281.091-.585 0-.866-.092-.282-.271-.528-.511-.701-.24-.174-.529-.267-.825-.266z" fill="#3fa9f5"/><path d="M632.1 8l14 14" fill="none" stroke="#3fa9f5" stroke-width="5" stroke-dasharray="0,19.79898987322333" stroke-dashoffset="19.79899" stroke-miterlimit="10"/><path d="M655.810222 6.110222c-.296-.001-.585.092-.825.266-.24.173-.419.419-.511.701-.091.281-.091.585 0 .866.092.282.271.528.511.701.24.174.529.267.825.266.296.001.585-.092.825-.266.24-.173.419-.419.511-.701.091-.281.091-.585 0-.866-.092-.282-.271-.528-.511-.701-.24-.174-.529-.267-.825-.266z" fill="#3fa9f5"/><path d="M656.1 8l14 14" fill="none" stroke="#3fa9f5" stroke-width="5" stroke-dasharray="0,19.79898987322333" stroke-dashoffset="19.79899" stroke-miterlimit="10"/><path d="M679.860548 6.160548c-.296-.001-.585.092-.825.266-.24.173-.419.419-.511.701-.091.281-.091.585 0 .866.092.282.271.528.511.701.24.174.529.267.825.266.296.001.585-.092.825-.266.24-.173.419-.419.511-.701.091-.281.091-.585 0-.866-.092-.282-.271-.528-.511-.701-.24-.174-.529-.267-.825-.266z" fill="#3fa9f5"/><path d="M680.1 8l14 14" fill="none" stroke="#3fa9f5" stroke-width="5" stroke-dasharray="0,19.79898987322333" stroke-dashoffset="19.79899" stroke-miterlimit="10"/><path d="M703.90608 6.20608c-.296-.001-.585.092-.825.266-.24.173-.419.419-.511.701-.091.281-.091.585 0 .866.092.282.271.528.511.701.24.174.529.267.825.266.296.001.585-.092.825-.266.24-.173.419-.419.511-.701.091-.281.091-.585 0-.866-.092-.282-.271-.528-.511-.701-.24-.174-.529-.267-.825-.266z" fill="#3fa9f5"/><path d="M704.1 8l14 14" fill="none" stroke="#3fa9f5" stroke-width="5" stroke-dasharray="0,19.79898987322333" stroke-dashoffset="19.79899" stroke-miterlimit="10"/><path d="M727.944803 6.244803c-.296-.001-.585.092-.825.266-.24.173-.419.419-.511.701-.091.281-.091.585 0 .866.092.282.271.528.511.701.24.174.529.267.825.266.296.001.585-.092.825-.266.24-.173.419-.419.511-.701.091-.281.091-.585 0-.866-.092-.282-.271-.528-.511-.701-.24-.174-.529-.267-.825-.266z" fill="#3fa9f5"/><path d="M728.1 8l14 14" fill="none" stroke="#3fa9f5" stroke-width="5" stroke-dasharray="0,19.79898987322333" stroke-dashoffset="19.79899" stroke-miterlimit="10"/><path d="M751.974702 6.274702c-.296-.001-.585.092-.825.266-.24.173-.419.419-.511.701-.091.281-.091.585 0 .866.092.282.271.528.511.701.24.174.529.267.825.266.296.001.585-.092.825-.266.24-.173.419-.419.511-.701.091-.281.091-.585 0-.866-.092-.282-.271-.528-.511-.701-.24-.174-.529-.267-.825-.266z" fill="#3fa9f5"/><path d="M752.1 8l14 14" fill="none" stroke="#3fa9f5" stroke-width="5" stroke-dasharray="0,19.79898987322333" stroke-dashoffset="19.79899" stroke-miterlimit="10"/><path d="M775.993764 6.293764c-.296-.001-.585.092-.825.266-.24.173-.419.419-.511.701-.091.281-.091.585 0 .866.092.282.271.528.511.701.24.174.529.267.825.266.296.001.585-.092.825-.266.24-.173.419-.419.511-.701.091-.281.091-.585 0-.866-.092-.282-.271-.528-.511-.701-.24-.174-.529-.267-.825-.266z" fill="#3fa9f5"/><path d="M776.1 8l14 14" fill="none" stroke="#3fa9f5" stroke-width="5" stroke-dasharray="0,19.79898987322333" stroke-dashoffset="19.79899" stroke-miterlimit="10"/><path d="M800 6.3c-.296-.001-.585.092-.825.266-.24.173-.419.419-.511.701-.091.281-.091.585 0 .866.092.282.271.528.511.701.24.174.529.267.825.266.296.001.585-.092.825-.266.24-.173.419-.419.511-.701.091-.281.091-.585 0-.866-.092-.282-.271-.528-.511-.701-.24-.174-.529-.267-.825-.266z" fill="#3fa9f5"/><path d="M800.1 8l14 14" fill="none" stroke="#3fa9f5" stroke-width="5" stroke-dasharray="0,19.79898987322333" stroke-dashoffset="19.79899" stroke-miterlimit="10"/><path d="M824 6.221c-.313-.001-.618.097-.871.281-.254.183-.443.443-.54.741-.096.296-.096.618 0 .914.097.298.286.558.54.741.253.184.558.282.871.281.318.001.628-.101.883-.291.246-.18.43-.434.525-.723.095-.289.097-.601.008-.891-.091-.305-.278-.572-.533-.762-.255-.19-.565-.292-.883-.291z" fill="#3fa9f5"/><path d="M824.1 8l14 14" fill="none" stroke="#3fa9f5" stroke-width="5" stroke-dasharray="0,19.79898987322333" stroke-dashoffset="19.79899" stroke-miterlimit="10"/><path d="M848 5.942c-.372-.001-.734.116-1.035.334-.301.218-.526.526-.641.88-.115.353-.115.735 0 1.088.115.354.34.662.641.88.301.218.663.335 1.035.334.396.001.781-.133 1.09-.381.266-.203.466-.483.574-.8.107-.316.119-.658.035-.98-.086-.383-.3-.728-.609-.974-.309-.248-.694-.382-1.09-.381z" fill="#3fa9f5"/><path d="M848.1 8l14 14" fill="none" stroke="#3fa9f5" stroke-width="5" stroke-dasharray="0,19.79898987322333" stroke-dashoffset="19.79899" stroke-miterlimit="10"/><path d="M872 5.338c-.499 0-.986.157-1.39.45-.404.293-.705.707-.86 1.182-.153.474-.153.986 0 1.46.155.475.456.889.86 1.182.404.293.891.45 1.39.45.565 0 1.112-.204 1.536-.575.31-.255.545-.591.68-.967.135-.375.167-.781.094-1.171-.075-.554-.349-1.066-.774-1.436-.424-.371-.971-.575-1.536-.575z" fill="#3fa9f5"/><path d="M872.1 8l14 14" fill="none" stroke="#3fa9f5" stroke-width="5" stroke-dasharray="0,19.79898987322333" stroke-dashoffset="19.79899" stroke-miterlimit="10"/><path d="M896 4.379c-.701-.001-1.385.221-1.954.633-.567.412-.99.994-1.207 1.661-.217.667-.217 1.387 0 2.054.217.667.64 1.249 1.207 1.661.569.412 1.253.634 1.954.633.834.001 1.637-.315 2.246-.883.379-.337.67-.761.849-1.231.178-.47.243-.977.186-1.477-.057-.825-.427-1.601-1.035-2.168-.609-.568-1.412-.884-2.246-.883z" fill="#3fa9f5"/><path d="M896.1 8l14 14" fill="none" stroke="#3fa9f5" stroke-width="5" stroke-dasharray="0,19.79898987322333" stroke-dashoffset="19.79899" stroke-miterlimit="10"/><g><path d="M920 3.409c-.906-.001-1.79.286-2.523.819-.734.532-1.28 1.284-1.56 2.146-.28.862-.28 1.79 0 2.652.28.862.826 1.614 1.56 2.146.733.533 1.617.82 2.523.819 1.105.001 2.168-.428 2.963-1.194.449-.421.797-.934 1.02-1.499.223-.565.32-1.175.28-1.786-.039-1.098-.505-2.143-1.3-2.909S921.105 3.408 920 3.409z" fill="#3fa9f5"/><path d="M920.1 8l14 14" fill="none" stroke="#3fa9f5" stroke-width="5" stroke-dasharray="0,19.79898987322333" stroke-dashoffset="19.79899" stroke-miterlimit="10"/></g><g><path d="M944 2.685c-1.059-.001-2.091.335-2.949.957-.857.622-1.495 1.501-1.822 2.508-.327 1.007-.327 2.093 0 3.1.327 1.007.965 1.886 1.822 2.508.858.622 1.89.958 2.949.957 1.308.001 2.565-.512 3.498-1.427.502-.482.892-1.063 1.148-1.699.256-.635.377-1.323.351-2.015-.027-1.304-.565-2.548-1.499-3.462-.933-.915-2.19-1.428-3.498-1.427z" fill="#3fa9f5"/><path d="M944.1 8l14 14" fill="none" stroke="#3fa9f5" stroke-width="5" stroke-dasharray="0,19.79898987322333" stroke-dashoffset="19.79899" stroke-miterlimit="10"/></g><g><path d="M968 2.178c-1.166 0-2.303.369-3.246 1.054-.944.685-1.646 1.652-2.007 2.761-.36 1.11-.36 2.304 0 3.414.361 1.109 1.063 2.076 2.007 2.761.943.685 2.08 1.054 3.246 1.054 1.449 0 2.842-.571 3.873-1.59.539-.525.958-1.153 1.237-1.839.279-.685.417-1.426.4-2.176-.018-1.447-.606-2.832-1.637-3.849-1.031-1.019-2.424-1.59-3.873-1.59z" fill="#3fa9f5"/><path d="M968.1 8l14 14" fill="none" stroke="#3fa9f5" stroke-width="5" stroke-dasharray="0,19.79898987322333" stroke-dashoffset="19.79899" stroke-miterlimit="10"/></g><g><path d="M992 1.823c-1.241 0-2.45.393-3.455 1.122-1.004.729-1.752 1.759-2.135 2.939-.383 1.18-.383 2.452 0 3.632.383 1.18 1.131 2.21 2.135 2.939 1.005.729 2.214 1.122 3.455 1.122 1.549 0 3.037-.613 4.135-1.704.565-.556 1.004-1.216 1.3-1.937.295-.72.445-1.498.434-2.289-.011-1.547-.634-3.03-1.734-4.12-1.098-1.091-2.586-1.704-4.135-1.704z" fill="#3fa9f5"/><path d="M992.1 8l14 14" fill="none" stroke="#3fa9f5" stroke-width="5" stroke-dasharray="0,19.79898987322333" stroke-dashoffset="19.79899" stroke-miterlimit="10"/></g><g><path d="M1016 1.574c-1.293 0-2.554.41-3.601 1.17-1.046.76-1.826 1.833-2.225 3.063-.4 1.23-.4 2.556 0 3.786.399 1.23 1.179 2.303 2.225 3.063 1.047.76 2.308 1.17 3.601 1.17 1.618 0 3.173-.642 4.319-1.784.582-.577 1.037-1.261 1.343-2.005.307-.745.466-1.55.459-2.369-.007-1.617-.655-3.169-1.802-4.31-1.146-1.142-2.701-1.784-4.319-1.784z" fill="#3fa9f5"/><path d="M1016.1 8l14 14" fill="none" stroke="#3fa9f5" stroke-width="5" stroke-dasharray="0.00013634337621702485,19.798853529847115" stroke-dashoffset="19.79899" stroke-miterlimit="10"/></g><g><path d="M1040 1.404c-1.329 0-2.625.421-3.701 1.202-1.076.781-1.877 1.884-2.287 3.148-.411 1.265-.411 2.627 0 3.892.41 1.264 1.211 2.367 2.287 3.148 1.076.781 2.372 1.202 3.701 1.202 1.666 0 3.266-.661 4.445-1.838.595-.592 1.059-1.291 1.374-2.053.314-.761.478-1.584.475-2.422-.004-1.666-.669-3.264-1.849-4.441-1.179-1.177-2.779-1.838-4.445-1.838z" fill="#3fa9f5"/><path d="M1040.1 8l14 14" fill="none" stroke="#3fa9f5" stroke-width="5" stroke-dasharray="0.04522731004043648,19.753762563182892" stroke-dashoffset="19.79899" stroke-miterlimit="10"/></g><g><path d="M1064 1.292c-1.352 0-2.671.429-3.767 1.224-1.094.795-1.909 1.917-2.327 3.204-.418 1.287-.418 2.673 0 3.96s1.233 2.409 2.327 3.204c1.096.795 2.415 1.224 3.767 1.224 1.697 0 3.327-.675 4.528-1.875.602-.601 1.073-1.311 1.392-2.083.32-.772.488-1.607.486-2.458-.001-1.697-.677-3.326-1.878-4.525-1.201-1.2-2.831-1.875-4.528-1.875z" fill="#3fa9f5"/><path d="M1064.1 8l14 14" fill="none" stroke="#3fa9f5" stroke-width="5" stroke-dasharray="0.1822704351375473,19.616719438085784" stroke-dashoffset="19.79899" stroke-miterlimit="10"/></g><g><path d="M1088 1.228c-1.366 0-2.698.433-3.805 1.236-1.105.803-1.928 1.936-2.35 3.236-.423 1.3-.423 2.7 0 4 .422 1.3 1.245 2.433 2.35 3.236 1.107.803 2.439 1.236 3.805 1.236 1.715 0 3.363-.682 4.575-1.895.608-.607 1.082-1.322 1.404-2.101.323-.779.493-1.62.493-2.478-.001-1.715-.683-3.363-1.897-4.575-1.212-1.213-2.86-1.895-4.575-1.895z" fill="#3fa9f5"/><path d="M1088.1 8l14 14" fill="none" stroke="#3fa9f5" stroke-width="5" stroke-dasharray="0.43099730955864346,19.36799256366469" stroke-dashoffset="19.79899" stroke-miterlimit="10"/></g><g><path d="M1112 1.202c-1.372 0-2.709.434-3.82 1.24-1.11.807-1.937 1.945-2.361 3.249-.423 1.306-.423 2.712 0 4.018.424 1.304 1.251 2.442 2.361 3.249 1.111.806 2.448 1.24 3.82 1.24 1.723 0 3.377-.684 4.595-1.903.609-.609 1.085-1.327 1.409-2.108.323-.781.494-1.626.494-2.487 0-1.723-.684-3.377-1.903-4.595-1.218-1.219-2.872-1.903-4.595-1.903z" fill="#3fa9f5"/><path d="M1112.1 8l14 14" fill="none" stroke="#3fa9f5" stroke-width="5" stroke-dasharray="0.8166461952681571,18.982343677955175" stroke-dashoffset="19.79899" stroke-miterlimit="10"/></g><g><path d="M1136 1.2c-1.371 0-2.709.435-3.819 1.24-.185.135-.361.279-.529.431-.167.154-.326.315-.476.484-.152.169-.295.345-.428.528-.133.184-.258.374-.372.571-.113.195-.217.396-.31.603-.094.206-.176.417-.248.634-.424 1.305-.424 2.71 0 4.016.423 1.305 1.25 2.444 2.36 3.251 1.111.807 2.449 1.242 3.822 1.242 1.722 0 3.376-.684 4.593-1.902.611-.609 1.087-1.328 1.412-2.111.324-.781.495-1.625.495-2.487 0-1.723-.685-3.377-1.903-4.595-1.218-1.22-2.873-1.905-4.597-1.905z" fill="#3fa9f5"/><path d="M1136.1 8l14 14" fill="none" stroke="#3fa9f5" stroke-width="5" stroke-dasharray="1.370836565173195,18.428153308050135" stroke-dashoffset="19.79899" stroke-miterlimit="10"/></g><g><path d="M1160 1.2c-1.367 0-2.702.433-3.81 1.235-.18.137-.352.282-.516.437-.16.159-.311.326-.453.501-.154.17-.298.349-.434.534-.138.187-.266.382-.385.582-.117.19-.224.386-.32.587-.099.199-.187.404-.263.613-.423 1.301-.424 2.702-.004 4.004.421 1.309 1.247 2.451 2.358 3.261 1.111.809 2.452 1.246 3.827 1.246 1.715 0 3.362-.68 4.576-1.891.619-.609 1.102-1.332 1.429-2.122.324-.781.495-1.625.495-2.487 0-1.721-.683-3.373-1.899-4.59-1.217-1.222-2.874-1.91-4.601-1.91z" fill="#3fa9f5"/><path d="M1160.1 8l14 14" fill="none" stroke="#3fa9f5" stroke-width="5" stroke-dasharray="2.1307202466400557,17.668269626583275" stroke-dashoffset="19.79899" stroke-miterlimit="10"/></g><g><path d="M1184 1.2c-1.359 0-2.688.43-3.789 1.225-.172.14-.337.289-.493.447-.143.171-.277.35-.403.537-.158.175-.307.357-.448.546-.147.196-.284.399-.412.607-.124.179-.237.364-.34.554-.109.185-.208.374-.295.569-.421 1.292-.424 2.685-.009 3.979.415 1.316 1.239 2.465 2.351 3.28 1.112.815 2.456 1.256 3.838 1.256 1.701 0 3.335-.672 4.54-1.869.636-.609 1.132-1.34 1.465-2.143.324-.781.495-1.625.495-2.488 0-1.716-.68-3.364-1.889-4.579-1.217-1.228-2.878-1.921-4.611-1.921z" fill="#3fa9f5"/><path d="M1184.1 8l14 14" fill="none" stroke="#3fa9f5" stroke-width="5" stroke-dasharray="3.132772504775908,16.666217368447423" stroke-dashoffset="19.79899" stroke-miterlimit="10"/></g><g><path d="M1208 1.2c-1.346 0-2.664.424-3.756 1.207-.158.147-.309.302-.452.466-.115.19-.223.389-.321.596-.166.181-.323.37-.471.566-.162.21-.315.426-.458.648-.134.161-.259.328-.373.499-.126.161-.242.326-.347.496-.419 1.278-.423 2.656-.019 3.939.405 1.328 1.227 2.488 2.34 3.312 1.114.823 2.465 1.271 3.857 1.271 1.678 0 3.289-.659 4.481-1.832.663-.609 1.181-1.354 1.523-2.178.324-.781.496-1.626.496-2.49 0-1.71-.675-3.349-1.873-4.561-1.217-1.237-2.884-1.939-4.627-1.939z" fill="#3fa9f5"/><path d="M1208.1 8l14 14" fill="none" stroke="#3fa9f5" stroke-width="5" stroke-dasharray="4.3949272948822315,15.404062578341101" stroke-dashoffset="19.79899" stroke-miterlimit="10"/></g><g><path d="M1232 1.2c-1.326 0-2.628.416-3.706 1.181-.138.156-.268.32-.391.493-.074.22-.141.449-.199.684-.177.192-.345.391-.504.597-.185.23-.36.467-.527.709-.15.134-.291.273-.422.418-.152.124-.295.252-.426.385-.414 1.257-.422 2.615-.033 3.88.39 1.345 1.209 2.522 2.324 3.359 1.116.836 2.477 1.294 3.884 1.294 1.643 0 3.22-.639 4.392-1.777.704-.608 1.255-1.375 1.611-2.231.325-.781.497-1.626.497-2.492 0-1.699-.667-3.327-1.85-4.533-1.215-1.252-2.891-1.967-4.65-1.967z" fill="#3fa9f5"/><path d="M1232.1 8l14 14" fill="none" stroke="#3fa9f5" stroke-width="5" stroke-dasharray="5.885649978147546,13.913339895075787" stroke-dashoffset="19.79899" stroke-miterlimit="10"/></g><g><path d="M1256 1.2c-1.297 0-2.578.404-3.635 1.144-.109.169-.211.347-.305.531-.016.263-.025.533-.026.81-.192.207-.376.42-.552.639-.216.26-.424.526-.623.797-.173.095-.338.196-.493.302-.188.072-.368.149-.537.23-.408 1.227-.421 2.554-.053 3.793.369 1.37 1.183 2.572 2.301 3.427 1.12.854 2.495 1.327 3.923 1.327 1.593 0 3.123-.611 4.267-1.699.761-.607 1.359-1.404 1.735-2.306.325-.781.498-1.627.498-2.495 0-1.685-.655-3.296-1.816-4.494-1.213-1.273-2.902-2.006-4.684-2.006z" fill="#3fa9f5"/><path d="M1256.1 8l14 14" fill="none" stroke="#3fa9f5" stroke-width="5" stroke-dasharray="7.504619401640007,12.294370471583322" stroke-dashoffset="19.79899" stroke-miterlimit="10"/></g><g><path d="M1280 1.2c-1.259 0-2.51.389-3.54 1.095-.07.187-.133.381-.189.582.062.32.131.646.207.979-.213.226-.418.458-.616.696-.259.299-.51.604-.754.914-.204.044-.399.093-.587.146-.237.003-.467.01-.687.022-.399 1.186-.419 2.472-.079 3.678.34 1.403 1.147 2.637 2.27 3.517 1.124.879 2.518 1.371 3.975 1.371 1.526 0 2.992-.573 4.099-1.594.837-.606 1.5-1.444 1.902-2.407.326-.781.499-1.628.499-2.499 0-1.665-.64-3.254-1.772-4.442-1.21-1.3-2.917-2.058-4.728-2.058z" fill="#3fa9f5"/><path d="M1280.1 8l14 14" fill="none" stroke="#3fa9f5" stroke-width="5" stroke-dasharray="9.115899542386234,10.683090330837098" stroke-dashoffset="19.79899" stroke-miterlimit="10"/></g><g><path d="M1304 1.2c-1.211 0-2.426.369-3.422 1.033-.02.209-.035.425-.044.646.159.391.325.787.497 1.189-.239.251-.471.507-.696.768-.312.349-.618.702-.916 1.059-.242-.02-.477-.035-.704-.047-.299-.083-.591-.163-.874-.239-.389 1.136-.417 2.372-.112 3.536.305 1.444 1.103 2.718 2.231 3.629 1.129.91 2.548 1.426 4.04 1.426 1.443 0 2.83-.526 3.889-1.464.934-.604 1.675-1.492 2.11-2.532.327-.781.501-1.63.501-2.504 0-1.64-.621-3.201-1.716-4.378-1.207-1.333-2.935-2.122-4.784-2.122z" fill="#3fa9f5"/><path d="M1304.1 8l14 14" fill="none" stroke="#3fa9f5" stroke-width="5" stroke-dasharray="10.612816920567196,9.186172952656134" stroke-dashoffset="19.79899" stroke-miterlimit="10"/></g><g><path d="M1328 1.2c-1.158 0-2.332.347-3.289.963.034.234.073.474.118.719.269.47.543.945.823 1.424-.268.279-.53.562-.786.849-.372.404-.738.811-1.098 1.222-.285-.091-.564-.179-.836-.264-.368-.18-.729-.357-1.083-.531-.378 1.079-.415 2.258-.15 3.375.265 1.49 1.054 2.81 2.188 3.755 1.135.944 2.581 1.488 4.113 1.488 1.35 0 2.647-.473 3.653-1.317 1.042-.602 1.872-1.548 2.344-2.673.327-.781.503-1.632.503-2.51 0-1.613-.6-3.142-1.653-4.305-1.203-1.372-2.956-2.195-4.847-2.195z" fill="#3fa9f5"/><path d="M1328.1 8l14 14" fill="none" stroke="#3fa9f5" stroke-width="5" stroke-dasharray="11.946290621652127,7.852699251571204" stroke-dashoffset="19.79899" stroke-miterlimit="10"/></g><g><path d="M1352 1.2c-1.104 0-2.237.325-3.156.894.089.259.182.523.28.791.378.549.761 1.102 1.149 1.66-.297.306-.589.616-.876.929-.432.459-.858.921-1.28 1.386-.328-.164-.651-.324-.968-.482-.437-.277-.868-.551-1.293-.823-.366 1.022-.412 2.144-.187 3.213.226 1.537 1.005 2.903 2.145 3.882 1.141.979 2.614 1.55 4.186 1.55 1.257 0 2.464-.42 3.417-1.17 1.15-.601 2.069-1.603 2.578-2.814.328-.782.505-1.634.505-2.516 0-1.585-.578-3.083-1.59-4.232-1.2-1.41-2.977-2.268-4.91-2.268z" fill="#3fa9f5"/><path d="M1352.1 8l14 14" fill="none" stroke="#3fa9f5" stroke-width="5" stroke-dasharray="13.10996521442121,6.689024658802119" stroke-dashoffset="19.79899" stroke-miterlimit="10"/></g><g><path d="M1376 1.2c-1.055 0-2.151.305-3.034.831.139.281.281.567.427.856.479.622.961 1.247 1.447 1.876-.323.331-.643.665-.958 1.003-.486.509-.968 1.02-1.446 1.535-.367-.23-.73-.457-1.089-.681-.499-.366-.994-.729-1.484-1.09-.355.97-.41 2.041-.221 3.067.189 1.579.96 2.986 2.106 3.997 1.146 1.01 2.643 1.606 4.252 1.606 1.172 0 2.297-.371 3.202-1.036 1.248-.599 2.248-1.653 2.792-2.943.328-.781.506-1.635.506-2.521 0-1.56-.559-3.029-1.533-4.166-1.196-1.444-2.996-2.334-4.967-2.334z" fill="#3fa9f5"/><path d="M1376.1 8l14 14" fill="none" stroke="#3fa9f5" stroke-width="5" stroke-dasharray="14.117387933532209,5.681601939691122" stroke-dashoffset="19.79899" stroke-miterlimit="10"/></g><g><path d="M1400 1.2c-1.013 0-2.076.287-2.928.776.182.301.367.606.556.913.565.685 1.134 1.373 1.706 2.064-.347.352-.69.708-1.03 1.066-.534.553-1.064 1.108-1.59 1.665-.402-.287-.8-.571-1.194-.854-.554-.442-1.104-.883-1.65-1.322-.347.926-.409 1.951-.252 2.939.158 1.616.921 3.06 2.072 4.098 1.151 1.038 2.669 1.655 4.31 1.655 1.098 0 2.152-.329 3.014-.92 1.335-.598 2.405-1.697 2.978-3.054.329-.782.508-1.637.508-2.526 0-1.538-.542-2.982-1.483-4.108-1.193-1.475-3.013-2.392-5.017-2.392z" fill="#3fa9f5"/><path d="M1400.1 8l14 14" fill="none" stroke="#3fa9f5" stroke-width="5" stroke-dasharray="14.987942219523804,4.811047653699526" stroke-dashoffset="19.79899" stroke-miterlimit="10"/></g><g><path d="M1424 1.2c-.977 0-2.012.273-2.839.729.22.318.442.639.666.962.64.738 1.281 1.479 1.926 2.223-.366.371-.73.745-1.09 1.121-.574.59-1.145 1.181-1.714 1.775-.43-.335-.858-.669-1.282-1.001-.601-.508-1.198-1.014-1.792-1.519-.339.887-.408 1.874-.277 2.83.131 1.647.887 3.122 2.042 4.183 1.156 1.061 2.692 1.697 4.36 1.697 1.035 0 2.028-.293 2.855-.821 1.408-.596 2.537-1.734 3.136-3.149.329-.782.509-1.638.509-2.53 0-1.52-.527-2.942-1.44-4.059-1.192-1.5-3.027-2.441-5.06-2.441z" fill="#3fa9f5"/><path d="M1424.1 8l14 14" fill="none" stroke="#3fa9f5" stroke-width="5" stroke-dasharray="15.740719241009021,4.05827063221431" stroke-dashoffset="19.79899" stroke-miterlimit="10"/></g><g><path d="M1448 1.2c-.946 0-1.958.26-2.763.689.251.332.504.667.759 1.004.702.783 1.406 1.569 2.112 2.357-.383.387-.763.776-1.142 1.167-.608.621-1.214 1.244-1.817 1.869-.455-.377-.908-.752-1.358-1.125-.64-.564-1.277-1.126-1.912-1.687-.332.855-.406 1.809-.298 2.739.108 1.673.859 3.174 2.018 4.255 1.158 1.081 2.71 1.732 4.401 1.732.981 0 1.924-.263 2.72-.737 1.47-.595 2.65-1.765 3.27-3.23.33-.782.51-1.639.51-2.533 0-1.504-.515-2.909-1.404-4.017-1.19-1.523-3.039-2.483-5.096-2.483z" fill="#3fa9f5"/><path d="M1448.1 8l14 14" fill="none" stroke="#3fa9f5" stroke-width="5" stroke-dasharray="16.392484805907806,3.406505067315525" stroke-dashoffset="19.79899" stroke-miterlimit="10"/></g><g><path d="M1472 1.2c-.92 0-1.912.249-2.698.656.277.344.556.69.836 1.038.755.822 1.512 1.646 2.27 2.471-.397.401-.792.803-1.185 1.206-.637.648-1.272 1.297-1.906 1.948-.476-.412-.95-.822-1.421-1.23-.674-.611-1.345-1.22-2.013-1.828-.326.827-.405 1.754-.316 2.661.089 1.696.835 3.219 1.997 4.316 1.161 1.098 2.726 1.762 4.436 1.762.936 0 1.836-.237 2.607-.666 1.521-.595 2.744-1.792 3.382-3.298.33-.782.511-1.64.511-2.536 0-1.491-.505-2.88-1.374-3.982-1.188-1.541-3.049-2.518-5.126-2.518z" fill="#3fa9f5"/><path d="M1472.1 8l14 14" fill="none" stroke="#3fa9f5" stroke-width="5" stroke-dasharray="16.957334197030864,2.8416556761924667" stroke-dashoffset="19.79899" stroke-miterlimit="10"/></g><g><path d="M1496 1.2c-.898 0-1.873.24-2.644.627.3.355.601.711.903 1.068.8.855 1.6 1.711 2.403 2.568-.409.412-.816.825-1.222 1.239-.662.67-1.321 1.341-1.98 2.014-.493-.441-.985-.88-1.475-1.319-.702-.65-1.401-1.299-2.099-1.947-.321.804-.404 1.708-.331 2.595.072 1.715.815 3.256 1.979 4.368 1.164 1.112 2.739 1.787 4.466 1.787.898 0 1.761-.216 2.51-.606 1.566-.594 2.825-1.815 3.478-3.356.331-.782.512-1.64.512-2.538 0-1.48-.496-2.856-1.348-3.952-1.186-1.557-3.058-2.548-5.152-2.548z" fill="#3fa9f5"/><path d="M1496.1 8l14 14" fill="none" stroke="#3fa9f5" stroke-width="5" stroke-dasharray="17.446934023034164,2.3520558501891653" stroke-dashoffset="19.79899" stroke-miterlimit="10"/></g><g><path d="M1520 1.2c-.88 0-1.841.233-2.598.603.319.363.639.727.959 1.093.838.882 1.676 1.765 2.516 2.65-.419.421-.836.843-1.253 1.266-.682.69-1.363 1.38-2.043 2.071-.508-.465-1.015-.93-1.521-1.394-.725-.684-1.449-1.366-2.171-2.049-.318.785-.404 1.669-.345 2.54.059 1.731.798 3.288 1.964 4.412 1.166 1.123 2.752 1.808 4.492 1.808.866 0 1.698-.197 2.428-.555 1.603-.594 2.894-1.834 3.559-3.405.331-.782.513-1.641.513-2.54 0-1.47-.489-2.836-1.327-3.927-1.184-1.57-3.064-2.573-5.173-2.573z" fill="#3fa9f5"/><path d="M1520.1 8l14 14" fill="none" stroke="#3fa9f5" stroke-width="5" stroke-dasharray="17.870911902106897,1.9280779711164324" stroke-dashoffset="19.79899" stroke-miterlimit="10"/></g><g><path d="M1544 1.2c-.864 0-1.813.226-2.559.583.335.37.671.741 1.007 1.114.87.905 1.74 1.811 2.612 2.719-.428.429-.854.859-1.28 1.29-.699.706-1.398 1.412-2.096 2.119-.521-.487-1.041-.973-1.56-1.458-.746-.712-1.49-1.424-2.233-2.135-.314.768-.403 1.636-.356 2.492.048 1.745.784 3.316 1.952 4.45 1.168 1.133 2.761 1.826 4.513 1.826.838 0 1.644-.182 2.359-.512 1.635-.593 2.951-1.85 3.628-3.446.331-.782.513-1.641.513-2.542 0-1.462-.482-2.818-1.308-3.905-1.184-1.582-3.071-2.595-5.192-2.595z" fill="#3fa9f5"/><path d="M1544.1 8l14 14" fill="none" stroke="#3fa9f5" stroke-width="5" stroke-dasharray="18.237236744508213,1.5617531287151183" stroke-dashoffset="19.79899" stroke-miterlimit="10"/></g><g><path d="M1568 1.2c-.851 0-1.789.221-2.525.565.348.377.697.754 1.047 1.132.897.926 1.794 1.851 2.692 2.778-.434.436-.868.873-1.301 1.311-.715.719-1.429 1.439-2.142 2.159-.532-.505-1.063-1.009-1.593-1.512-.763-.736-1.525-1.472-2.285-2.207-.311.753-.402 1.607-.365 2.451.038 1.757.772 3.339 1.941 4.481 1.169 1.143 2.769 1.842 4.531 1.842.815 0 1.598-.168 2.3-.475 1.662-.593 3-1.864 3.686-3.482.332-.782.514-1.641.514-2.543 0-1.455-.477-2.804-1.293-3.887-1.182-1.591-3.076-2.613-5.207-2.613z" fill="#3fa9f5"/><path d="M1568.1 8l14 14" fill="none" stroke="#3fa9f5" stroke-width="5" stroke-dasharray="18.552543181221235,1.246446692002096" stroke-dashoffset="19.79899" stroke-miterlimit="10"/></g><g><path d="M1592 1.2c-.839 0-1.769.216-2.498.551.36.382.721.764 1.082 1.147.919.942 1.84 1.884 2.761 2.827-.441.442-.881.885-1.321 1.328-.727.73-1.454 1.462-2.18 2.193-.541-.519-1.081-1.039-1.621-1.558-.777-.756-1.553-1.512-2.329-2.268-.308.742-.401 1.583-.372 2.418.029 1.766.761 3.357 1.931 4.507 1.171 1.15 2.776 1.855 4.547 1.855.796 0 1.56-.157 2.251-.444 1.684-.593 3.041-1.876 3.735-3.512.331-.782.514-1.642.514-2.544 0-1.449-.473-2.791-1.279-3.872-1.182-1.599-3.081-2.628-5.221-2.628z" fill="#3fa9f5"/><path d="M1592.1 8l14 14" fill="none" stroke="#3fa9f5" stroke-width="5" stroke-dasharray="18.82239426574826,0.9765956074750672" stroke-dashoffset="19.79899" stroke-miterlimit="10"/></g><g><path d="M1616 1.2c-.83 0-1.753.212-2.474.539.369.386.739.772 1.11 1.16.939.955 1.878 1.911 2.818 2.868-.446.447-.891.894-1.336 1.342-.738.74-1.476 1.481-2.212 2.222-.549-.532-1.097-1.064-1.644-1.596-.79-.774-1.578-1.547-2.366-2.32-.307.732-.402 1.563-.379 2.39.022 1.774.752 3.374 1.924 4.529 1.171 1.156 2.781 1.866 4.559 1.866.779 0 1.528-.148 2.209-.419 1.704-.592 3.076-1.885 3.777-3.536.331-.782.514-1.642.514-2.545 0-1.444-.469-2.781-1.268-3.859-1.182-1.606-3.084-2.641-5.232-2.641z" fill="#3fa9f5"/><path d="M1616.1 8l14 14" fill="none" stroke="#3fa9f5" stroke-width="5" stroke-dasharray="19.051489692519418,0.7475001807039111" stroke-dashoffset="19.79899" stroke-miterlimit="10"/></g><g><path d="M1640 1.2c-.822 0-1.739.209-2.455.529.378.389.756.779 1.134 1.17.955.967 1.91 1.935 2.866 2.903l-1.35 1.353c-.746.749-1.493 1.498-2.239 2.247-.554-.543-1.109-1.086-1.663-1.628-.799-.788-1.598-1.575-2.396-2.363-.305.724-.401 1.547-.385 2.366.017 1.781.745 3.388 1.918 4.548 1.173 1.161 2.786 1.875 4.57 1.875.766 0 1.501-.14 2.175-.397 1.719-.592 3.105-1.893 3.81-3.557.332-.782.515-1.642.515-2.546 0-1.44-.466-2.772-1.259-3.849C1644.06 2.24 1642.154 1.2 1640 1.2z" fill="#3fa9f5"/><path d="M1640.1 8l14 14" fill="none" stroke="#3fa9f5" stroke-width="5" stroke-dasharray="19.24382963025718,0.5551602429661487" stroke-dashoffset="19.79899" stroke-miterlimit="10"/></g><g><path d="M1664 1.2c-.816 0-1.728.206-2.439.52.384.393.768.786 1.153 1.179.968.977 1.936 1.954 2.905 2.931-.454.455-.907.909-1.36 1.363-.754.756-1.508 1.511-2.261 2.266-.56-.551-1.119-1.102-1.679-1.654l-2.421-2.397c-.304.716-.401 1.533-.389 2.347.011 1.786.739 3.398 1.912 4.563 1.174 1.165 2.791 1.882 4.579 1.882.754 0 1.479-.134 2.147-.38 1.732-.591 3.128-1.899 3.838-3.573.332-.782.515-1.643.515-2.547 0-1.437-.463-2.765-1.252-3.84-1.18-1.616-3.089-2.66-5.248-2.66z" fill="#3fa9f5"/><path d="M1664.1 8l14 14" fill="none" stroke="#3fa9f5" stroke-width="5" stroke-dasharray="19.402843604085632,0.39614626913769857" stroke-dashoffset="19.79899" stroke-miterlimit="10"/></g><g><path d="M1688 1.2c-.81 0-1.719.204-2.426.514.389.395.779.79 1.168 1.185.979.985 1.957 1.97 2.936 2.954l-1.368 1.371c-.76.76-1.519 1.521-2.278 2.282-.564-.559-1.128-1.117-1.692-1.675-.814-.809-1.628-1.617-2.442-2.426-.302.711-.4 1.523-.392 2.332.008 1.791.734 3.407 1.908 4.575 1.174 1.168 2.794 1.888 4.586 1.888.746 0 1.462-.129 2.124-.366 1.743-.591 3.147-1.905 3.861-3.587.332-.781.515-1.642.515-2.547 0-1.434-.461-2.759-1.246-3.833-1.18-1.619-3.091-2.667-5.254-2.667z" fill="#3fa9f5"/><path d="M1688.1 8l14 14" fill="none" stroke="#3fa9f5" stroke-width="5" stroke-dasharray="19.531492240425408,0.2674976327979223" stroke-dashoffset="19.79899" stroke-miterlimit="10"/></g><g><path d="M1712 1.2c-.807 0-1.711.203-2.416.508.393.397.787.794 1.18 1.192.987.99 1.974 1.98 2.961 2.971-.459.459-.918.918-1.376 1.377-.764.764-1.528 1.529-2.291 2.293-.568-.563-1.135-1.127-1.702-1.691-.819-.815-1.638-1.631-2.457-2.447-.301.707-.4 1.514-.395 2.32.004 1.794.731 3.414 1.905 4.584 1.174 1.171 2.796 1.893 4.591 1.893.739 0 1.448-.125 2.107-.355 1.75-.591 3.161-1.909 3.878-3.597.332-.782.515-1.643.515-2.548 0-1.432-.46-2.755-1.241-3.828-1.18-1.622-3.093-2.672-5.259-2.672z" fill="#3fa9f5"/><path d="M1712.1 8l14 14" fill="none" stroke="#3fa9f5" stroke-width="5" stroke-dasharray="19.63234803178026,0.16664184144306912" stroke-dashoffset="19.79899" stroke-miterlimit="10"/></g><g><path d="M1736 1.2c-.804 0-1.706.201-2.409.505.397.398.793.796 1.189 1.195.993.995 1.986 1.989 2.979 2.984-.46.461-.921.921-1.381 1.381-.767.768-1.534 1.535-2.301 2.303l-1.709-1.703-2.469-2.463c-.3.704-.4 1.507-.397 2.31.003 1.797.728 3.419 1.903 4.592 1.174 1.173 2.798 1.896 4.595 1.896.733 0 1.438-.122 2.094-.347 1.756-.591 3.172-1.912 3.891-3.605.332-.782.515-1.643.515-2.548 0-1.431-.458-2.752-1.238-3.824-1.179-1.624-3.094-2.676-5.262-2.676z" fill="#3fa9f5"/><path d="M1736.1 8l14 14" fill="none" stroke="#3fa9f5" stroke-width="5" stroke-dasharray="19.70765986622199,0.09133000700133859" stroke-dashoffset="19.79899" stroke-miterlimit="10"/></g><g><path d="M1760 1.2c-.802 0-1.703.201-2.404.502.399.399.797.799 1.196 1.198.996.998 1.993 1.995 2.99 2.993-.461.462-.922.923-1.384 1.384-.769.77-1.539 1.54-2.308 2.309-.571-.57-1.142-1.141-1.714-1.711-.825-.825-1.651-1.649-2.476-2.474-.301.701-.4 1.503-.399 2.304.001 1.799.726 3.423 1.901 4.597 1.175 1.174 2.799 1.898 4.598 1.898.73 0 1.431-.12 2.085-.341 1.76-.591 3.18-1.914 3.9-3.611.332-.782.515-1.643.515-2.548 0-1.43-.458-2.75-1.235-3.821-1.18-1.625-3.095-2.679-5.265-2.679z" fill="#3fa9f5"/><path d="M1760.1 8l14 14" fill="none" stroke="#3fa9f5" stroke-width="5" stroke-dasharray="19.759404945154266,0.03958492806906581" stroke-dashoffset="19.79899" stroke-miterlimit="10"/></g><g><path d="M1784 1.2c-.8 0-1.701.2-2.401.5.4.4.799.8 1.199 1.2.999.999 1.998 1.999 2.998 2.998l-1.386 1.386c-.771.771-1.542 1.542-2.312 2.313-.573-.572-1.145-1.144-1.717-1.716L1777.9 5.4c-.3.701-.4 1.501-.4 2.301 0 1.8.726 3.425 1.901 4.599 1.174 1.175 2.799 1.9 4.599 1.9.728 0 1.427-.119 2.08-.338 1.763-.591 3.184-1.915 3.905-3.614.332-.781.515-1.643.515-2.548 0-1.429-.457-2.748-1.234-3.819-1.179-1.627-3.095-2.681-5.266-2.681z" fill="#3fa9f5"/><path d="M1784.1 8l14 14" fill="none" stroke="#3fa9f5" stroke-width="5" stroke-dasharray="19.789330850976715,0.009659022246616427" stroke-dashoffset="19.79899" stroke-miterlimit="10"/></g><g><path d="M1808 1.2c-.8 0-1.7.2-2.4.5l1.2 1.2 3 3-1.386 1.386L1806.1 9.6l-1.717-1.717L1801.9 5.4c-.3.7-.4 1.5-.4 2.3 0 1.8.725 3.425 1.9 4.6 1.175 1.175 2.8 1.9 4.6 1.9.727 0 1.426-.118 2.078-.337 1.764-.591 3.186-1.916 3.907-3.614.332-.782.515-1.644.515-2.549 0-1.429-.457-2.748-1.233-3.819-1.18-1.626-3.096-2.681-5.267-2.681z" fill="#3fa9f5"/><path d="M1808.1 8l14 14" fill="none" stroke="#3fa9f5" stroke-width="5" stroke-miterlimit="10"/></g></svg>