<svg xmlns="http://www.w3.org/2000/svg" viewBox="0 0 24 24" height="24px" width="24px"><g class="nc-icon-wrapper js-transition-icon" data-effect="rotate" data-event="click"><g class="js-transition-icon__state" style=""><g id="Bounding_Boxes">
	<g id="ui_x5F_spec_x5F_header_copy_3" display="none">
	</g>
	<path fill="none" d="M0,0h24v24H0V0z"></path>
	<path opacity="0.87" fill="none" d="M0,0h24v24H0V0z"></path>
</g><g id="Rounded" display="none">
	<g id="ui_x5F_spec_x5F_header_copy_5">
	</g>
	<path display="inline" d="M18,8h-1V6c0-2.76-2.24-5-5-5S7,3.24,7,6v2H6c-1.1,0-2,0.9-2,2v10c0,1.1,0.9,2,2,2h12c1.1,0,2-0.9,2-2V10
		C20,8.9,19.1,8,18,8z M12,17c-1.1,0-2-0.9-2-2c0-1.1,0.9-2,2-2c1.1,0,2,0.9,2,2C14,16.1,13.1,17,12,17z M9,8V6c0-1.66,1.34-3,3-3
		s3,1.34,3,3v2H9z"></path>
</g><g id="Sharp" display="none">
	<g id="ui_x5F_spec_x5F_header_copy_4">
	</g>
	<path display="inline" d="M20,8h-3l0-1.79c0-2.61-1.91-4.94-4.51-5.19C9.51,0.74,7,3.08,7,6v2H4v14h16V8z M12,17c-1.1,0-2-0.9-2-2
		c0-1.1,0.9-2,2-2c1.1,0,2,0.9,2,2C14,16.1,13.1,17,12,17z M9,8V6c0-1.66,1.34-3,3-3s3,1.34,3,3v2H9z"></path>
</g><g id="Outline">
	<g id="ui_x5F_spec_x5F_header" display="none">
	</g>
	<path d="M18,8h-1V6c0-2.76-2.24-5-5-5S7,3.24,7,6v2H6c-1.1,0-2,0.9-2,2v10c0,1.1,0.9,2,2,2h12c1.1,0,2-0.9,2-2V10
		C20,8.9,19.1,8,18,8z M9,6c0-1.66,1.34-3,3-3s3,1.34,3,3v2H9V6z M18,20H6V10h12V20z M12,17c1.1,0,2-0.9,2-2c0-1.1-0.9-2-2-2
		c-1.1,0-2,0.9-2,2C10,16.1,10.9,17,12,17z"></path>
</g><g id="Duotone" display="none">
	<g id="ui_x5F_spec_x5F_header_copy_2">
	</g>
	<g display="inline">
		<path opacity="0.3" d="M6,20h12V10H6V20z M12,13c1.1,0,2,0.9,2,2c0,1.1-0.9,2-2,2c-1.1,0-2-0.9-2-2C10,13.9,10.9,13,12,13z"></path>
		<path d="M18,8h-1V6c0-2.76-2.24-5-5-5S7,3.24,7,6v2H6c-1.1,0-2,0.9-2,2v10c0,1.1,0.9,2,2,2h12c1.1,0,2-0.9,2-2V10
			C20,8.9,19.1,8,18,8z M9,6c0-1.66,1.34-3,3-3s3,1.34,3,3v2H9V6z M18,20H6V10h12V20z M12,17c1.1,0,2-0.9,2-2c0-1.1-0.9-2-2-2
			c-1.1,0-2,0.9-2,2C10,16.1,10.9,17,12,17z"></path>
	</g>
</g><g id="Material" display="none">
	<g id="ui_x5F_spec_x5F_header_copy">
	</g>
	<path display="inline" d="M18,8h-1V6c0-2.76-2.24-5-5-5S7,3.24,7,6v2H6c-1.1,0-2,0.9-2,2v10c0,1.1,0.9,2,2,2h12c1.1,0,2-0.9,2-2V10
		C20,8.9,19.1,8,18,8z M12,17c-1.1,0-2-0.9-2-2c0-1.1,0.9-2,2-2c1.1,0,2,0.9,2,2C14,16.1,13.1,17,12,17z M9,8V6c0-1.66,1.34-3,3-3
		s3,1.34,3,3v2H9z"></path>
</g></g><g class="js-transition-icon__state" style="display: none;" aria-hidden="true"><g id="Bounding_Boxes">
	<g id="ui_x5F_spec_x5F_header_copy_3" display="none">
	</g>
	<path fill="none" d="M0,0h24v24H0V0z"></path>
</g><g id="Outline">
	<g id="ui_x5F_spec_x5F_header" display="none">
	</g>
	<path id="XMLID_497_" d="M22,6c0-1.1-0.9-2-2-2H4C2.9,4,2,4.9,2,6v12c0,1.1,0.9,2,2,2h16c1.1,0,2-0.9,2-2V6z M20,6l-8,4.99L4,6H20z
		 M20,18L4,18V8l8,5l8-5V18z"></path>
</g></g></g><script>!function(){"use strict";if(!window.requestAnimationFrame){var a=null;window.requestAnimationFrame=function(t,i){var e=(new Date).getTime();a||(a=e);var s=Math.max(0,16-(e-a)),n=window.setTimeout(function(){t(e+s)},s);return a=e+s,n}}function r(t,i,e,s){return 1&gt;(t/=s/2)?e/2*t*t*t*t+i:-e/2*((t-=2)*t*t*t-2)+i}function e(t){return t?[1,0]:[0,1]}function t(t){this.element=t,this.svg=function t(i){var e=i.parentNode;if("svg"!==e.tagName)e=t(e);return e;}(this.element),this.getSize(),this.states=this.element.querySelectorAll(".js-transition-icon__state"),this.time={start:null,total:200},this.status={interacted:!1,animating:!1},this.animation={effect:this.element.getAttribute("data-effect"),event:this.element.getAttribute("data-event")},this.init()}t.prototype.getSize=function(){var t=this.svg.getAttribute("viewBox");this.size=t?{width:t.split(" ")[2],height:t.split(" ")[3]}:this.svg.getBoundingClientRect()},t.prototype.init=function(){var t=this;this.svg.addEventListener(t.animation.event,function(){t.status.animating||(t.status.animating=!0,window.requestAnimationFrame(t.triggerAnimation.bind(t)))})},t.prototype.triggerAnimation=function(t){var i=this.getProgress(t);this.animateIcon(i),this.checkProgress(i)},t.prototype.getProgress=function(t){return this.time.start||(this.time.start=t),t-this.time.start},t.prototype.checkProgress=function(t){if(this.time.total&gt;t)window.requestAnimationFrame(this.triggerAnimation.bind(this));else{this.status={interacted:!this.status.interacted,animating:!1},this.time.start=null;var i=e(this.status.interacted);this.states[i[0]].removeAttribute("aria-hidden"),this.states[i[1]].setAttribute("aria-hidden","true")}},t.prototype.animateIcon=function(t){if(t&gt;this.time.total){t=this.time.total;}if(0&gt;t){t=0;};var i=e(this.status.interacted);this.states[i[0]].style.display=t&gt;this.time.total/2?"none":"block",this.states[i[1]].style.display=t&gt;this.time.total/2?"block":"none","scale"==this.animation.effect?this.scaleIcon(t,i[0],i[1]):this.rotateIcon(t,i[0],i[1])},t.prototype.scaleIcon=function(t,i,e){var s=r(Math.min(t,this.time.total/2),1,-.2,this.time.total/2).toFixed(2),n=r(Math.max(t-this.time.total/2,0),.2,-.2,this.time.total/2).toFixed(2);this.states[i].setAttribute("transform","translate("+this.size.width*(1-s)/2+" "+this.size.height*(1-s)/2+") scale("+s+")"),this.states[e].setAttribute("transform","translate("+this.size.width*n/2+" "+this.size.height*n/2+") scale("+(1-n)+")")},t.prototype.rotateIcon=function(t,i,e){var s=r(t,0,180,this.time.total).toFixed(2);this.states[i].setAttribute("transform","rotate(-"+s+" "+this.size.width/2+" "+this.size.height/2+")"),this.states[e].setAttribute("transform","rotate("+(180-s)+" "+this.size.width/2+" "+this.size.height/2+")")};var i=document.querySelectorAll(".js-transition-icon");if(i)for(var s=0;i.length&gt;s;s++)new t(i[s])}();</script></svg>