<svg xmlns="http://www.w3.org/2000/svg" viewBox="0 0 744 744" width="5744" height="5744"><g><defs><clipPath id="clip_frame0_path_3"/></defs><path d="M12 9.3c-.53 0-1.039.211-1.414.586S10 10.77 10 11.3c0 .53.211 1.039.586 1.414.075.075.155.143.24.205.085.061.174.116.267.163.093.048.189.087.288.12.099.032.201.057.304.073.104.017.209.025.315.025.53 0 1.039-.211 1.414-.586S14 11.83 14 11.3c0-.53-.211-1.039-.586-1.414S12.53 9.3 12 9.3m0 1.7" fill="#3fa9f5"/><path clip-path="url(#clip_frame0_path_3)" d="M20 18c1.1 0 2-.9 2-2V6c0-1.1-.9-2-2-2H4c-1.1 0-2 .9-2 2v10c0 1.1.9 2 2 2H0v2h24v-2h-4zM4 6h16v10H4V6z" fill="#000000"/></g><g transform="translate(24)"><defs><clipPath id="clip_frame1_path_3"/></defs><path d="M11.97 9.28c-.532 0-1.042.214-1.416.592-.374.386-.584.905-.584 1.446 0 .532.214 1.042.591 1.416.07.074.145.142.225.204.084.063.173.12.266.17.122.048.248.086.376.119.099.03.2.052.303.066.099.017.198.025.299.025.528 0 1.035-.211 1.409-.584.377-.374.591-.884.591-1.416 0-.541-.21-1.06-.584-1.446-.374-.378-.884-.592-1.416-.592h-.06m0 1.701h.06v.038h-.06v-.038" fill="#3fa9f5"/><path clip-path="url(#clip_frame1_path_3)" d="M20 18c1.1 0 2-.9 2-2V6c0-1.1-.9-2-2-2H4c-1.1 0-2 .9-2 2v10c0 1.1.9 2 2 2H0v2h24v-2h-4zM4 6h16v10H4V6z" fill="#000000"/></g><g transform="translate(48)"><defs><clipPath id="clip_frame2_path_3"/></defs><path d="M11.869 9.214c-.539 0-1.054.222-1.423.609-.369.423-.577.978-.577 1.554 0 .539.223 1.054.61 1.423.052.074.108.141.17.202.084.071.172.136.263.193.222.047.447.085.675.118.097.021.198.034.299.039.08.017.162.025.245.025.521 0 1.022-.208 1.39-.577.387-.369.61-.884.61-1.423 0-.576-.208-1.131-.577-1.554-.369-.387-.884-.609-1.423-.609h-.262m0 1.704h.262v.164h-.262v-.164" fill="#3fa9f5"/><path clip-path="url(#clip_frame2_path_3)" d="M20 18c1.1 0 2-.9 2-2V6c0-1.1-.9-2-2-2H4c-1.1 0-2 .9-2 2v10c0 1.1.9 2 2 2H0v2h24v-2h-4zM4 6h16v10H4V6z" fill="#000000"/></g><g transform="translate(72)"><defs><clipPath id="clip_frame3_path_3"/></defs><path d="M11.676 9.085c-.553 0-1.078.239-1.438.644-.359.494-.562 1.118-.562 1.761 0 .553.239 1.078.643 1.438.018.072.041.137.069.197.081.085.167.165.256.237.413.046.829.083 1.248.115.095.004.193.001.291-.011.046.017.093.024.141.024.508 0 .997-.202 1.357-.562.404-.36.643-.885.643-1.438 0-.643-.203-1.267-.562-1.761-.36-.405-.885-.644-1.438-.644h-.648m0 1.713h.648v.404h-.648v-.404" fill="#3fa9f5"/><path clip-path="url(#clip_frame3_path_3)" d="M20 18c1.1 0 2-.9 2-2V6c0-1.1-.9-2-2-2H4c-1.1 0-2 .9-2 2v10c0 1.1.9 2 2 2H0v2h24v-2h-4zM4 6h16v10H4V6z" fill="#000000"/></g><g transform="translate(96)"><defs><clipPath id="clip_frame4_path_3"/></defs><path d="M11.361 8.877c-.576 0-1.116.266-1.461.699-.345.611-.539 1.346-.539 2.1 0 .575.266 1.115.699 1.46-.038.069-.071.132-.099.189.078.109.16.213.246.31.724.044 1.452.08 2.182.11.091-.024.185-.054.28-.092-.011.015-.021.023-.03.023.488 0 .956-.195 1.301-.54.433-.345.699-.885.699-1.46 0-.754-.194-1.489-.539-2.1-.345-.433-.885-.699-1.461-.699h-1.278m0 1.724h1.278v.798h-1.278v-.798" fill="#3fa9f5"/><path clip-path="url(#clip_frame4_path_3)" d="M20 18c1.1 0 2-.9 2-2V6c0-1.1-.9-2-2-2H4c-1.1 0-2 .9-2 2v10c0 1.1.9 2 2 2H0v2h24v-2h-4zM4 6h16v10H4V6z" fill="#000000"/></g><g transform="translate(120)"><defs><clipPath id="clip_frame5_path_3"/></defs><path d="M10.887 8.563c-.609 0-1.172.307-1.495.782-.323.787-.505 1.689-.505 2.609 0 .609.307 1.172.783 1.495-.121.065-.238.123-.35.177.073.145.15.285.23.418 1.193.042 2.388.075 3.586.104.086-.066.173-.137.262-.216-.096.015-.191.022-.285.022.456 0 .894-.182 1.217-.505.476-.323.783-.886.783-1.495 0-.92-.182-1.822-.505-2.609-.323-.475-.886-.782-1.495-.782h-2.226m0 1.741h2.226v1.392h-2.226v-1.392" fill="#3fa9f5"/><path clip-path="url(#clip_frame5_path_3)" d="M20 18c1.1 0 2-.9 2-2V6c0-1.1-.9-2-2-2H4c-1.1 0-2 .9-2 2v10c0 1.1.9 2 2 2H0v2h24v-2h-4zM4 6h16v10H4V6z" fill="#000000"/></g><g transform="translate(144)"><defs><clipPath id="clip_frame6_path_3"/></defs><path d="M10.228 8.126c-.657 0-1.252.364-1.544.899-.292 1.03-.456 2.165-.456 3.316 0 .656.363 1.252.899 1.544-.237.058-.47.111-.699.16.066.195.135.385.208.57 1.844.037 3.691.067 5.54.093.078-.123.157-.251.237-.386-.214.013-.428.019-.641.019.413 0 .809-.164 1.101-.456.536-.292.899-.888.899-1.544 0-1.151-.164-2.286-.456-3.316-.292-.535-.887-.899-1.544-.899h-3.544m0 1.766h3.544v2.216h-3.544V9.892" fill="#3fa9f5"/><path clip-path="url(#clip_frame6_path_3)" d="M20 18c1.1 0 2-.9 2-2V6c0-1.1-.9-2-2-2H4c-1.1 0-2 .9-2 2v10c0 1.1.9 2 2 2H0v2h24v-2h-4zM4 6h16v10H4V6z" fill="#000000"/></g><g transform="translate(168)"><defs><clipPath id="clip_frame7_path_3"/></defs><path d="M9.405 7.581c-.715 0-1.35.434-1.604 1.045-.253 1.334-.396 2.759-.396 4.198 0 .715.435 1.351 1.045 1.605-.382.05-.76.096-1.135.138.057.258.117.511.18.759 2.658.032 5.317.059 7.979.081.067-.195.136-.394.205-.599-.362.011-.723.016-1.084.016.358 0 .702-.142.955-.395.61-.254 1.045-.89 1.045-1.605 0-1.439-.143-2.864-.396-4.198-.254-.611-.889-1.045-1.604-1.045h-5.19m0 1.797h5.19v3.244h-5.19V9.378" fill="#3fa9f5"/><path clip-path="url(#clip_frame7_path_3)" d="M20 18c1.1 0 2-.9 2-2V6c0-1.1-.9-2-2-2H4c-1.1 0-2 .9-2 2v10c0 1.1.9 2 2 2H0v2h24v-2h-4zM4 6h16v10H4V6z" fill="#000000"/></g><g transform="translate(192)"><defs><clipPath id="clip_frame8_path_3"/></defs><path d="M8.523 6.996c-.778 0-1.457.511-1.669 1.201-.212 1.661-.331 3.398-.331 5.146 0 .778.51 1.457 1.2 1.669-.537.042-1.071.08-1.603.115.048.325.099.645.151.962 3.53.027 7.062.049 10.595.068.056-.272.114-.547.172-.828-.521.009-1.041.014-1.561.014.3 0 .588-.119.8-.331.69-.212 1.2-.891 1.2-1.669 0-1.748-.119-3.485-.331-5.146-.212-.69-.891-1.201-1.669-1.201H8.523m0 1.831h6.954v4.346H8.523V8.827" fill="#3fa9f5"/><path clip-path="url(#clip_frame8_path_3)" d="M20 18c1.1 0 2-.9 2-2V6c0-1.1-.9-2-2-2H4c-1.1 0-2 .9-2 2v10c0 1.1.9 2 2 2H0v2h24v-2h-4zM4 6h16v10H4V6z" fill="#000000"/></g><g transform="translate(216)"><defs><clipPath id="clip_frame9_path_3"/></defs><path d="M7.7 6.451c-.836 0-1.555.582-1.729 1.346-.173 1.965-.271 3.993-.271 6.029 0 .837.581 1.556 1.346 1.729-.682.035-1.362.066-2.039.095.039.387.081.77.124 1.15 4.343.023 8.687.041 13.033.056.045-.344.093-.69.14-1.041-.668.007-1.337.011-2.004.011.245 0 .48-.097.654-.271.765-.173 1.346-.892 1.346-1.729 0-2.036-.098-4.064-.271-6.029-.174-.764-.893-1.346-1.729-1.346H7.7m0 1.862h8.6v5.374H7.7V8.313" fill="#3fa9f5"/><path clip-path="url(#clip_frame9_path_3)" d="M20 18c1.1 0 2-.9 2-2V6c0-1.1-.9-2-2-2H4c-1.1 0-2 .9-2 2v10c0 1.1.9 2 2 2H0v2h24v-2h-4zM4 6h16v10H4V6z" fill="#000000"/></g><g transform="translate(240)"><defs><clipPath id="clip_frame10_path_3"/></defs><path d="M6.995 5.984c-.887 0-1.641.642-1.781 1.471-.14 2.225-.219 4.502-.219 6.786 0 .886.642 1.64 1.47 1.78-.806.028-1.61.054-2.412.077.031.44.065.877.1 1.312 5.04.018 10.081.033 15.123.045.037-.405.075-.812.114-1.224-.795.007-1.59.01-2.385.01.199 0 .389-.079.53-.22.828-.14 1.47-.894 1.47-1.78 0-2.284-.079-4.561-.219-6.786-.14-.829-.894-1.471-1.781-1.471H6.995m0 1.888h10.01v6.256H6.995V7.872" fill="#3fa9f5"/><path clip-path="url(#clip_frame10_path_3)" d="M20 18c1.1 0 2-.9 2-2V6c0-1.1-.9-2-2-2H4c-1.1 0-2 .9-2 2v10c0 1.1.9 2 2 2H0v2h24v-2h-4zM4 6h16v10H4V6z" fill="#000000"/></g><g transform="translate(264)"><defs><clipPath id="clip_frame11_path_3"/></defs><path d="M6.41 5.596c-.929 0-1.711.693-1.824 1.575-.113 2.442-.176 4.925-.176 7.413 0 .929.692 1.711 1.574 1.824-.909.022-1.817.043-2.723.062.026.484.052.966.08 1.446 5.619.015 11.238.026 16.858.036.03-.456.061-.914.092-1.375-.901.005-1.801.007-2.701.007.16 0 .313-.063.426-.176.882-.113 1.574-.895 1.574-1.824 0-2.488-.063-4.971-.176-7.413-.113-.882-.895-1.575-1.824-1.575H6.41m0 1.91h11.18v6.988H6.41V7.506" fill="#3fa9f5"/><path clip-path="url(#clip_frame11_path_3)" d="M20 18c1.1 0 2-.9 2-2V6c0-1.1-.9-2-2-2H4c-1.1 0-2 .9-2 2v10c0 1.1.9 2 2 2H0v2h24v-2h-4zM4 6h16v10H4V6z" fill="#000000"/></g><g transform="translate(288)"><defs><clipPath id="clip_frame12_path_3"/></defs><path d="M5.929 5.278c-.963 0-1.769.734-1.859 1.659-.091 2.62-.141 5.273-.141 7.93 0 .963.733 1.768 1.659 1.859-.994.018-1.987.034-2.978.049.02.521.042 1.04.064 1.557 6.094.012 12.189.021 18.284.029.024-.498.048-.998.073-1.5-.986.004-1.973.006-2.96.006.128 0 .251-.051.341-.141.926-.091 1.659-.896 1.659-1.859 0-2.657-.05-5.31-.141-7.93-.09-.925-.896-1.659-1.859-1.659H5.929m0 1.927h12.142v7.59H5.929v-7.59" fill="#3fa9f5"/><path clip-path="url(#clip_frame12_path_3)" d="M20 18c1.1 0 2-.9 2-2V6c0-1.1-.9-2-2-2H4c-1.1 0-2 .9-2 2v10c0 1.1.9 2 2 2H0v2h24v-2h-4zM4 6h16v10H4V6z" fill="#000000"/></g><g transform="translate(312)"><defs><clipPath id="clip_frame13_path_3"/></defs><path d="M5.533 5.015c-.991 0-1.816.768-1.888 1.73-.072 2.766-.112 5.559-.112 8.355 0 .99.768 1.815 1.729 1.887-1.063.015-2.127.028-3.188.04.016.55.033 1.099.051 1.648 6.485.009 12.971.016 19.457.023.019-.533.039-1.067.059-1.603-1.058.003-2.116.005-3.174.005.102 0 .199-.041.271-.113.961-.072 1.729-.897 1.729-1.887 0-2.796-.04-5.589-.112-8.355-.072-.962-.897-1.73-1.888-1.73H5.533m0 1.943h12.934v8.084H5.533V6.958" fill="#3fa9f5"/><path clip-path="url(#clip_frame13_path_3)" d="M20 18c1.1 0 2-.9 2-2V6c0-1.1-.9-2-2-2H4c-1.1 0-2 .9-2 2v10c0 1.1.9 2 2 2H0v2h24v-2h-4zM4 6h16v10H4V6z" fill="#000000"/></g><g transform="translate(336)"><defs><clipPath id="clip_frame14_path_3"/></defs><path d="M5.206 4.799c-1.014 0-1.855.796-1.911 1.787-.057 2.887-.089 5.795-.089 8.705 0 1.014.796 1.855 1.787 1.912-1.121.011-2.241.022-3.361.031.013.575.027 1.149.041 1.723 6.807.007 13.616.013 20.424.018.015-.562.031-1.123.046-1.687-1.116.002-2.233.003-3.349.003.08 0 .156-.031.213-.088.991-.057 1.787-.898 1.787-1.912 0-2.91-.032-5.818-.089-8.705-.056-.991-.897-1.787-1.911-1.787H5.206m0 1.955h13.588v8.492H5.206V6.754" fill="#3fa9f5"/><path clip-path="url(#clip_frame14_path_3)" d="M20 18c1.1 0 2-.9 2-2V6c0-1.1-.9-2-2-2H4c-1.1 0-2 .9-2 2v10c0 1.1.9 2 2 2H0v2h24v-2h-4zM4 6h16v10H4V6z" fill="#000000"/></g><g transform="translate(360)"><defs><clipPath id="clip_frame15_path_3"/></defs><path d="M4.937 4.621c-1.033 0-1.888.819-1.932 1.834-.043 2.987-.068 5.99-.068 8.995 0 1.033.819 1.887 1.834 1.931-1.168.009-2.336.017-3.503.024.01.596.02 1.19.031 1.785 7.074.005 14.149.01 21.223.014.012-.585.024-1.17.036-1.757-1.165.002-2.33.003-3.495.003.062 0 .122-.025.166-.069 1.015-.044 1.834-.898 1.834-1.931 0-3.005-.025-6.008-.068-8.995-.044-1.015-.899-1.834-1.932-1.834H4.937m0 1.965h14.126v8.828H4.937V6.586" fill="#3fa9f5"/><path clip-path="url(#clip_frame15_path_3)" d="M20 18c1.1 0 2-.9 2-2V6c0-1.1-.9-2-2-2H4c-1.1 0-2 .9-2 2v10c0 1.1.9 2 2 2H0v2h24v-2h-4zM4 6h16v10H4V6z" fill="#000000"/></g><g transform="translate(384)"><defs><clipPath id="clip_frame16_path_3"/></defs><path d="M4.715 4.474c-1.049 0-1.914.838-1.948 1.873-.033 3.069-.052 6.151-.052 9.233 0 1.049.838 1.914 1.873 1.948l-3.621.018c.008.613.016 1.224.024 1.836 7.294.004 14.587.008 21.882.011.008-.605.017-1.209.027-1.815-1.205.001-2.41.002-3.615.002.048 0 .093-.019.127-.052 1.035-.034 1.873-.899 1.873-1.948 0-3.082-.019-6.164-.052-9.233-.034-1.035-.899-1.873-1.948-1.873H4.715m0 1.973h14.57v9.106H4.715V6.447" fill="#3fa9f5"/><path clip-path="url(#clip_frame16_path_3)" d="M20 18c1.1 0 2-.9 2-2V6c0-1.1-.9-2-2-2H4c-1.1 0-2 .9-2 2v10c0 1.1.9 2 2 2H0v2h24v-2h-4zM4 6h16v10H4V6z" fill="#000000"/></g><g transform="translate(408)"><defs><clipPath id="clip_frame17_path_3"/></defs><path d="M4.533 4.353c-1.062 0-1.936.854-1.961 1.906-.025 3.136-.039 6.282-.039 9.428 0 1.062.854 1.936 1.906 1.961-1.24.005-2.48.01-3.718.014.005.626.011 1.252.018 1.877 7.473.004 14.947.006 22.421.008.006-.62.013-1.24.02-1.862-1.237.002-2.475.002-3.713.002.036 0 .07-.014.094-.039 1.052-.025 1.906-.899 1.906-1.961 0-3.146-.014-6.292-.039-9.428-.025-1.052-.899-1.906-1.961-1.906H4.533m0 1.98h14.934v9.334H4.533V6.333" fill="#3fa9f5"/><path clip-path="url(#clip_frame17_path_3)" d="M20 18c1.1 0 2-.9 2-2V6c0-1.1-.9-2-2-2H4c-1.1 0-2 .9-2 2v10c0 1.1.9 2 2 2H0v2h24v-2h-4zM4 6h16v10H4V6z" fill="#000000"/></g><g transform="translate(432)"><defs><clipPath id="clip_frame18_path_3"/></defs><path d="M4.385 4.255c-1.073 0-1.954.867-1.972 1.932-.018 3.191-.028 6.389-.028 9.587 0 1.073.866 1.954 1.932 1.972-1.266.004-2.532.007-3.797.01.004.638.009 1.274.013 1.911 7.62.003 15.24.005 22.86.006.005-.633.01-1.266.015-1.9-1.264.001-2.529.001-3.793.001.026 0 .05-.01.068-.028 1.066-.018 1.932-.899 1.932-1.972 0-3.198-.01-6.396-.028-9.587-.018-1.065-.899-1.932-1.972-1.932H4.385m0 1.985h15.23v9.52H4.385V6.24" fill="#3fa9f5"/><path clip-path="url(#clip_frame18_path_3)" d="M20 18c1.1 0 2-.9 2-2V6c0-1.1-.9-2-2-2H4c-1.1 0-2 .9-2 2v10c0 1.1.9 2 2 2H0v2h24v-2h-4zM4 6h16v10H4V6z" fill="#000000"/></g><g transform="translate(456)"><defs><clipPath id="clip_frame19_path_3"/></defs><path d="M4.266 4.176c-1.081 0-1.968.877-1.981 1.953-.012 3.235-.019 6.475-.019 9.715 0 1.081.877 1.968 1.953 1.98-1.286.003-2.573.005-3.859.007.003.647.006 1.293.009 1.939 7.737.002 15.474.003 23.212.004.003-.644.006-1.287.01-1.931-1.286.001-2.572.001-3.857.001.018 0 .035-.007.047-.02 1.076-.012 1.953-.899 1.953-1.98 0-3.24-.007-6.48-.019-9.715-.013-1.076-.9-1.953-1.981-1.953H4.266m0 1.99h15.468v9.668H4.266V6.166" fill="#3fa9f5"/><path clip-path="url(#clip_frame19_path_3)" d="M20 18c1.1 0 2-.9 2-2V6c0-1.1-.9-2-2-2H4c-1.1 0-2 .9-2 2v10c0 1.1.9 2 2 2H0v2h24v-2h-4zM4 6h16v10H4V6z" fill="#000000"/></g><g transform="translate(480)"><defs><clipPath id="clip_frame20_path_3"/></defs><path d="M4.173 4.114c-1.088 0-1.979.886-1.988 1.97-.008 3.269-.012 6.542-.012 9.814 0 1.088.885 1.98 1.969 1.988-1.302.001-2.606.003-3.908.004.002.654.004 1.307.006 1.961 7.829.001 15.658.001 23.487.002.003-.652.005-1.303.007-1.955h-3.907c.012 0 .023-.004.031-.012 1.084-.008 1.969-.9 1.969-1.988 0-3.272-.004-6.545-.012-9.814-.009-1.084-.9-1.97-1.988-1.97H4.173m0 1.994h15.654v9.784H4.173V6.108" fill="#3fa9f5"/><path clip-path="url(#clip_frame20_path_3)" d="M20 18c1.1 0 2-.9 2-2V6c0-1.1-.9-2-2-2H4c-1.1 0-2 .9-2 2v10c0 1.1.9 2 2 2H0v2h24v-2h-4zM4 6h16v10H4V6z" fill="#000000"/></g><g transform="translate(504)"><defs><clipPath id="clip_frame21_path_3"/></defs><path d="M4.102 4.068c-1.092 0-1.987.891-1.992 1.982-.005 3.295-.008 6.593-.008 9.89 0 1.093.891 1.988 1.982 1.992l-3.946.003c.001.659.003 1.317.004 1.977 7.899 0 15.798.001 23.697.001.001-.658.002-1.315.004-1.973h-3.945c.006 0 .013-.003.018-.008 1.091-.004 1.982-.899 1.982-1.992 0-3.297-.003-6.595-.008-9.89-.005-1.091-.9-1.982-1.992-1.982H4.102m0 1.996h15.796v9.872H4.102V6.064" fill="#3fa9f5"/><path clip-path="url(#clip_frame21_path_3)" d="M20 18c1.1 0 2-.9 2-2V6c0-1.1-.9-2-2-2H4c-1.1 0-2 .9-2 2v10c0 1.1.9 2 2 2H0v2h24v-2h-4zM4 6h16v10H4V6z" fill="#000000"/></g><g transform="translate(528)"><defs><clipPath id="clip_frame22_path_3"/></defs><path d="M4.052 4.034c-1.097 0-1.994.896-1.996 1.991-.003 3.314-.004 6.63-.004 9.945 0 1.096.895 1.993 1.991 1.996-1.324 0-2.649.001-3.973.001.001.663.001 1.325.002 1.988 7.949.001 15.897.001 23.846.001.001-.662.002-1.324.002-1.987-1.323.001-2.648.001-3.972.001.004 0 .007-.002.009-.004 1.096-.003 1.991-.9 1.991-1.996 0-3.315-.001-6.631-.004-9.945-.002-1.095-.899-1.991-1.996-1.991H4.052m0 1.998h15.896v9.936H4.052V6.032" fill="#3fa9f5"/><path clip-path="url(#clip_frame22_path_3)" d="M20 18c1.1 0 2-.9 2-2V6c0-1.1-.9-2-2-2H4c-1.1 0-2 .9-2 2v10c0 1.1.9 2 2 2H0v2h24v-2h-4zM4 6h16v10H4V6z" fill="#000000"/></g><g transform="translate(552)"><defs><clipPath id="clip_frame23_path_3"/></defs><path d="M4.019 4.013c-1.098 0-1.997.898-1.998 1.996-.001 3.326-.002 6.653-.002 9.98 0 1.098.899 1.997 1.997 1.998-1.33 0-2.66.001-3.99.001 0 .665 0 1.33.001 1.995 7.981 0 15.962.001 23.943.001v-1.995h-3.989c.001 0 .002-.001.003-.002 1.098-.001 1.997-.9 1.997-1.998 0-3.327-.001-6.654-.002-9.98-.001-1.098-.9-1.996-1.998-1.996H4.019m0 1.999h15.962v9.976H4.019V6.012" fill="#3fa9f5"/><path clip-path="url(#clip_frame23_path_3)" d="M20 18c1.1 0 2-.9 2-2V6c0-1.1-.9-2-2-2H4c-1.1 0-2 .9-2 2v10c0 1.1.9 2 2 2H0v2h24v-2h-4zM4 6h16v10H4V6z" fill="#000000"/></g><g transform="translate(576)"><defs><clipPath id="clip_frame24_path_3"/></defs><path d="M4.003 4.002c-1.1 0-2 .9-2 1.999v9.997c0 1.1.9 2 1.999 2H.004v2h23.992v-2h-3.999.001c1.099 0 1.999-.9 1.999-2V6.001c0-1.099-.9-1.999-2-1.999H4.003m0 2h15.994v9.996H4.003V6.002" fill="#3fa9f5"/><path clip-path="url(#clip_frame24_path_3)" d="M20 18c1.1 0 2-.9 2-2V6c0-1.1-.9-2-2-2H4c-1.1 0-2 .9-2 2v10c0 1.1.9 2 2 2H0v2h24v-2h-4zM4 6h16v10H4V6z" fill="#000000"/></g><g transform="translate(600)"><defs><clipPath id="clip_frame25_path_3"/></defs><path d="M4 4c-1.1 0-2 .9-2 2v10c0 1.1.9 2 2 2H0v2h24v-2h-4c1.1 0 2-.9 2-2V6c0-1.1-.9-2-2-2H4m0 2h16v10H4V6" fill="#3fa9f5"/><path clip-path="url(#clip_frame25_path_3)" d="M20 18c1.1 0 2-.9 2-2V6c0-1.1-.9-2-2-2H4c-1.1 0-2 .9-2 2v10c0 1.1.9 2 2 2H0v2h24v-2h-4zM4 6h16v10H4V6z" fill="#000000"/></g><g transform="translate(624)"><defs><clipPath id="clip_frame26_path_3"/></defs><path d="M4 4c-1.1 0-2 .9-2 2v10c0 1.1.9 2 2 2H0v2h24v-2h-4c1.1 0 2-.9 2-2V6c0-1.1-.9-2-2-2H4m0 2h16v10H4V6" fill="#3fa9f5"/><path clip-path="url(#clip_frame26_path_3)" d="M20 18c1.1 0 2-.9 2-2V6c0-1.1-.9-2-2-2H4c-1.1 0-2 .9-2 2v10c0 1.1.9 2 2 2H0v2h24v-2h-4zM4 6h16v10H4V6z" fill="#000000"/></g><g transform="translate(648)"><defs><clipPath id="clip_frame27_path_3"/></defs><path d="M4 4c-1.1 0-2 .9-2 2v10c0 1.1.9 2 2 2H0v2h24v-2h-4c1.1 0 2-.9 2-2V6c0-1.1-.9-2-2-2H4m0 2h16v10H4V6" fill="#3fa9f5"/><path clip-path="url(#clip_frame27_path_3)" d="M20 18c1.1 0 2-.9 2-2V6c0-1.1-.9-2-2-2H4c-1.1 0-2 .9-2 2v10c0 1.1.9 2 2 2H0v2h24v-2h-4zM4 6h16v10H4V6z" fill="#000000"/></g><g transform="translate(672)"><defs><clipPath id="clip_frame28_path_3"/></defs><path d="M4 4c-1.1 0-2 .9-2 2v10c0 1.1.9 2 2 2H0v2h24v-2h-4c1.1 0 2-.9 2-2V6c0-1.1-.9-2-2-2H4m0 2h16v10H4V6" fill="#3fa9f5"/><path clip-path="url(#clip_frame28_path_3)" d="M20 18c1.1 0 2-.9 2-2V6c0-1.1-.9-2-2-2H4c-1.1 0-2 .9-2 2v10c0 1.1.9 2 2 2H0v2h24v-2h-4zM4 6h16v10H4V6z" fill="#000000"/></g><g transform="translate(696)"><defs><clipPath id="clip_frame29_path_3"/></defs><path d="M4 4c-1.1 0-2 .9-2 2v10c0 1.1.9 2 2 2H0v2h24v-2h-4c1.1 0 2-.9 2-2V6c0-1.1-.9-2-2-2H4m0 2h16v10H4V6" fill="#3fa9f5"/><path clip-path="url(#clip_frame29_path_3)" d="M20 18c1.1 0 2-.9 2-2V6c0-1.1-.9-2-2-2H4c-1.1 0-2 .9-2 2v10c0 1.1.9 2 2 2H0v2h24v-2h-4zM4 6h16v10H4V6z" fill="#000000"/></g><g transform="translate(720)"><defs><clipPath id="clip_frame30_path_3"/></defs><path d="M4 4c-1.1 0-2 .9-2 2v10c0 1.1.9 2 2 2H0v2h24v-2h-4c1.1 0 2-.9 2-2V6c0-1.1-.9-2-2-2H4m0 2h16v10H4V6" fill="#3fa9f5"/><path clip-path="url(#clip_frame30_path_3)" d="M20 18c1.1 0 2-.9 2-2V6c0-1.1-.9-2-2-2H4c-1.1 0-2 .9-2 2v10c0 1.1.9 2 2 2H0v2h24v-2h-4zM4 6h16v10H4V6z" fill="#000000"/></g></svg>