<svg xmlns="http://www.w3.org/2000/svg" viewBox="0 0 744 744" width="5744" height="5744"><path d="M11.093 13.082c.093.048.189.087.288.12.099.032.201.057.304.073.104.017.209.025.315.025.265 0 .525-.053.765-.152.24-.1.461-.246.649-.434.375-.375.586-.884.586-1.414 0-.132-.013-.264-.039-.392-.025-.128-.064-.253-.113-.373-.1-.241-.247-.462-.434-.649C13.039 9.511 12.53 9.3 12 9.3c-.53 0-1.039.211-1.414.586S10 10.77 10 11.3c0 .265.053.525.152.765.1.241.247.462.434.649.075.075.155.143.24.205.085.061.174.116.267.163M36.02 10.982c.002.003.004.005.006.008 0 .002.001.004.001.006.01.001.018.009.018.019 0 .002-.001.004-.001.006-.001.001-.001.002-.002.003 0 .001-.001.003-.003.004-.003.003-.008.006-.013.006h-.048c-.005 0-.009-.002-.013-.004-.006-.004-.01-.011-.01-.019 0-.006.003-.012.007-.016.004-.003.008-.006.013-.006.005-.009.014-.015.025-.015.002 0 .004 0 .007.001.002 0 .004.001.006.002.001.001.002.002.004.002l.003.003m-.931 2.105c.093.048.188.088.287.122.098.034.2.062.303.08.108.017.218.025.328.025.264-.005.523-.063.763-.167.239-.099.459-.245.646-.432.378-.374.591-.881.595-1.409-.002-.134-.017-.266-.044-.396-.028-.129-.068-.256-.119-.378-.101-.241-.249-.462-.437-.651-.374-.374-.882-.585-1.411-.586-.528 0-1.035.211-1.409.584-.378.378-.592.889-.595 1.421-.003.266.048.527.145.769.101.239.25.459.439.646.076.075.157.143.243.204.085.063.173.119.266.168M60.087 10.922c.01.01.019.023.025.036.003.009.006.017.008.026.042.003.076.038.076.081 0 .009-.002.017-.004.025l-.006.015c-.004.006-.008.012-.014.018-.015.015-.035.024-.058.024h-.212c-.02 0-.039-.006-.055-.017-.026-.018-.043-.047-.043-.081 0-.029.012-.054.032-.072.015-.014.034-.023.055-.025.021-.039.062-.066.109-.066.01 0 .019.001.029.003.01.003.02.006.029.011.005.003.01.006.014.009.005.004.01.008.015.013m-1.012 2.18c.092.052.186.095.283.132.098.041.198.076.3.102.124.017.249.024.375.024.26-.021.516-.095.752-.215.237-.098.454-.242.639-.426.385-.369.609-.87.625-1.391-.009-.139-.03-.277-.064-.411-.033-.135-.079-.266-.137-.393-.105-.243-.255-.467-.446-.658-.373-.373-.877-.584-1.402-.587-.522.001-1.024.209-1.393.578-.386.386-.61.903-.626 1.441-.01.271.032.536.12.782.108.237.263.454.457.639.08.073.165.14.255.201.083.068.171.129.262.182M84.215 10.806c.026.026.047.057.062.091.009.02.016.042.02.064.106.007.189.094.189.201 0 .021-.004.042-.01.062-.004.012-.009.024-.015.035-.009.017-.021.032-.034.045-.036.037-.087.06-.144.06h-.526c-.05 0-.097-.015-.136-.041-.064-.044-.107-.118-.107-.202 0-.07.031-.134.079-.178.037-.034.085-.057.138-.063.05-.097.152-.163.269-.163.024 0 .048.003.071.008.025.006.05.015.072.028.013.006.025.014.036.022.013.01.025.02.036.031m-1.166 2.327c.089.056.181.105.276.147.095.056.193.105.292.146.154.016.308.024.464.024.254-.054.503-.159.734-.308.231-.096.443-.237.623-.416.4-.36.643-.849.683-1.357-.021-.148-.054-.295-.1-.439-.046-.144-.103-.285-.172-.422-.112-.247-.269-.475-.466-.672-.368-.368-.866-.58-1.383-.589-.51.002-1.001.206-1.362.568-.401.401-.645.931-.686 1.481-.025.278.002.552.073.807.121.231.287.443.493.623.086.072.178.137.275.196.081.077.167.148.256.211M108.425 10.618c.051.051.092.111.122.178.018.041.032.083.04.127.208.015.372.186.372.397 0 .042-.007.083-.019.122-.008.024-.018.048-.031.07-.017.032-.04.062-.066.088-.072.074-.173.119-.284.119h-1.038c-.1 0-.192-.03-.269-.082-.127-.086-.211-.232-.211-.397 0-.14.06-.265.155-.353.073-.067.168-.112.273-.123.1-.192.3-.323.531-.323.048 0 .095.005.14.016.05.012.098.031.143.054.024.014.048.029.071.045.025.019.049.039.071.062m-1.419 2.564c.085.065.174.123.265.174.091.079.185.152.279.217.203.015.406.023.61.023.244-.107.483-.262.704-.46.221-.092.424-.227.597-.399.425-.345.699-.814.779-1.301-.042-.164-.096-.326-.161-.485-.065-.16-.142-.316-.229-.469-.124-.253-.291-.489-.496-.694-.363-.363-.849-.574-1.354-.592-.491.004-.963.201-1.312.55-.426.427-.702.976-.783 1.545-.048.292-.048.58-.004.849.142.221.327.424.55.597.098.069.201.131.309.188.078.092.16.178.246.257M132.74 10.334c.088.09.161.195.213.311.031.07.054.144.069.221.362.026.647.323.647.69 0 .074-.011.146-.033.213-.014.043-.031.084-.053.122-.031.057-.07.109-.115.154-.126.128-.301.207-.494.207H131.165c-.173 0-.333-.053-.467-.143-.221-.15-.367-.404-.367-.692 0-.242.104-.461.269-.614.128-.117.293-.195.475-.215.174-.334.523-.562.925-.562.084 0 .165.01.244.029.087.021.171.053.248.094.043.024.085.05.124.079.044.032.085.068.124.106m-1.799 2.922c.08.078.163.149.248.215.085.114.173.222.262.322.275.015.55.022.827.022.228-.186.452-.417.659-.688.207-.086.397-.212.559-.373.461-.323.782-.761.921-1.218-.072-.186-.156-.371-.25-.554-.095-.183-.2-.363-.315-.539-.143-.263-.325-.51-.543-.728-.354-.353-.822-.565-1.309-.596-.462.006-.907.194-1.236.523-.465.465-.788 1.045-.93 1.643-.084.312-.122.619-.12.91.174.207.388.397.637.559.116.064.236.123.36.176.073.115.15.224.23.326M157.178 9.94c.141.142.256.31.339.495.049.112.087.23.111.352.576.04 1.03.514 1.03 1.099 0 .118-.018.232-.052.338-.022.069-.05.134-.084.195-.05.09-.112.173-.183.245-.201.204-.48.33-.788.33h-2.88c-.276 0-.532-.084-.744-.228-.353-.239-.585-.644-.585-1.101 0-.387.165-.735.429-.978.203-.187.466-.312.756-.343.277-.531.833-.895 1.473-.895.134 0 .263.016.388.046.139.033.272.084.396.15.069.037.135.079.197.125.07.052.136.108.197.17m-2.327 3.419c.072.097.147.186.224.271.077.162.157.32.237.47.376.013.753.02 1.131.02.206-.296.409-.632.596-1.005.187-.078.359-.192.505-.338.513-.292.899-.688 1.121-1.1-.116-.219-.241-.436-.377-.651-.135-.215-.28-.428-.434-.637-.167-.277-.372-.539-.608-.775-.34-.341-.785-.553-1.246-.602-.422.01-.829.184-1.13.486-.518.518-.908 1.14-1.134 1.778-.134.34-.226.676-.282.996.218.187.472.359.758.505.14.059.283.112.431.16.066.146.135.287.208.422M181.725 9.448c.206.208.375.453.496.725.072.163.128.336.163.516.843.058 1.508.752 1.508 1.608 0 .173-.027.34-.077.496-.032.099-.073.195-.123.285-.073.132-.163.253-.268.359-.294.298-.702.482-1.154.482H178.054c-.403 0-.779-.123-1.09-.334-.516-.35-.856-.942-.856-1.612 0-.566.242-1.076.628-1.431.298-.275.682-.457 1.107-.502.406-.779 1.22-1.31 2.157-1.31.196 0 .386.023.568.066.204.049.399.124.579.221.101.054.198.115.29.183.102.075.199.158.288.248m-2.987 4.04c.063.119.128.231.195.34.067.224.136.442.205.655.503.012 1.007.017 1.511.017.179-.432.354-.9.517-1.4.162-.068.311-.167.438-.293.578-.254 1.045-.598 1.369-.956-.169-.258-.346-.515-.533-.771-.186-.255-.38-.508-.583-.758-.199-.295-.43-.576-.688-.835-.325-.324-.74-.538-1.169-.609-.373.015-.731.172-.999.44-.584.584-1.057 1.258-1.388 1.947-.195.375-.355.746-.483 1.103.272.163.576.312.908.439.17.05.343.096.52.138.058.186.118.367.18.543M206.311 8.92c.277.279.504.608.665.972.097.219.171.45.219.691 1.13.078 2.021 1.008 2.021 2.156 0 .231-.036.454-.103.663-.043.134-.099.262-.165.383-.098.177-.219.338-.359.481-.394.399-.942.646-1.546.646h-5.651c-.541 0-1.043-.165-1.46-.448-.692-.469-1.148-1.262-1.148-2.16 0-.758.324-1.442.842-1.918.4-.368.914-.612 1.484-.673.543-1.043 1.634-1.756 2.89-1.756.262 0 .517.031.761.09.274.065.534.165.776.295.136.073.266.155.389.245.137.101.266.212.385.333m-3.693 4.706c.052.143.107.281.163.415.056.289.113.574.172.853.638.01 1.277.014 1.916.014.15-.579.297-1.189.433-1.825.136-.056.261-.139.367-.245.646-.212 1.2-.499 1.635-.799-.226-.301-.46-.602-.701-.9-.24-.299-.488-.596-.742-.89-.233-.313-.493-.614-.776-.897-.307-.307-.69-.522-1.085-.617-.319.019-.626.158-.858.39-.655.655-1.217 1.386-1.661 2.128-.261.412-.493.821-.699 1.218.331.136.689.261 1.07.367.202.043.407.081.615.116.048.228.098.452.151.672M230.858 8.428c.342.345.622.751.823 1.202.12.27.211.556.27.854 1.397.097 2.499 1.247 2.499 2.666 0 .286-.045.562-.128.821-.053.165-.122.323-.204.473-.12.218-.27.418-.444.594-.487.494-1.164.799-1.912.799h-6.987c-.668 0-1.29-.204-1.805-.553-.856-.58-1.42-1.561-1.42-2.672 0-.937.401-1.783 1.042-2.372.493-.454 1.129-.756 1.834-.831.672-1.29 2.021-2.171 3.574-2.171.324 0 .639.038.941.11.339.081.661.205.96.365.168.09.328.191.48.303.17.125.329.263.477.412m-4.352 5.327c.043.165.087.326.133.485.046.349.093.695.14 1.037.765.008 1.53.012 2.296.012.123-.717.243-1.458.354-2.221.111-.046.213-.114.3-.2.711-.174 1.346-.409 1.883-.654-.279-.341-.565-.682-.857-1.021-.291-.339-.589-.676-.891-1.011-.265-.33-.551-.651-.857-.956-.291-.292-.644-.507-1.007-.625-.269.024-.529.146-.726.343-.722.722-1.367 1.505-1.915 2.298-.324.447-.623.891-.901 1.326.386.111.794.213 1.22.3.233.034.467.066.704.095.039.267.081.531.124.792M255.327 8.006c.398.401.724.875.957 1.399.14.315.246.648.315.994 1.626.113 2.909 1.452 2.909 3.104 0 .333-.052.654-.149.955-.062.192-.141.377-.237.551-.14.254-.315.487-.517.692-.567.574-1.355.93-2.225.93h-8.134c-.778 0-1.502-.238-2.101-.644-.997-.676-1.653-1.817-1.653-3.11 0-1.092.467-2.076 1.212-2.761.575-.529 1.315-.881 2.135-.968.782-1.502 2.353-2.528 4.161-2.528.377 0 .744.045 1.095.129.395.094.769.238 1.118.425.195.105.382.223.559.353.197.145.383.305.555.479m-4.918 5.859c.035.185.071.366.108.545.037.401.075.8.114 1.196.873.006 1.746.009 2.62.009.1-.834.197-1.688.287-2.56.09-.037.172-.092.243-.162.766-.14 1.47-.331 2.096-.529-.326-.376-.656-.75-.991-1.124-.336-.373-.675-.746-1.02-1.116-.291-.345-.601-.682-.925-1.007-.278-.277-.606-.493-.941-.63-.226.028-.445.135-.613.303-.779.778-1.495 1.607-2.133 2.443-.377.476-.734.95-1.074 1.417.433.09.884.173 1.349.243.258.028.518.053.78.077.032.301.065.599.1.895M279.716 7.656c.445.448.809.977 1.069 1.563.156.351.275.723.351 1.11 1.817.126 3.249 1.621 3.249 3.466 0 .372-.058.731-.166 1.067-.069.215-.158.421-.265.615-.156.284-.351.544-.577.773-.634.641-1.513 1.039-2.486 1.039h-9.084c-.869 0-1.677-.265-2.347-.719-1.113-.755-1.845-2.03-1.845-3.474 0-1.219.521-2.318 1.353-3.084.642-.59 1.469-.983 2.385-1.08.874-1.677 2.628-2.823 4.647-2.823.421 0 .831.049 1.223.143.441.105.859.266 1.248.475.218.117.427.249.625.394.22.162.428.341.62.535m-5.387 6.3c.028.201.057.399.087.595.03.445.061.887.092 1.327.963.005 1.926.008 2.89.008.079-.932.158-1.88.23-2.842.072-.03.139-.074.195-.13.812-.113 1.575-.266 2.273-.426-.363-.404-.731-.807-1.102-1.209-.372-.402-.747-.804-1.126-1.203-.314-.357-.642-.708-.983-1.049-.266-.266-.572-.482-.885-.635-.191.031-.375.126-.52.27-.825.825-1.601 1.691-2.314 2.563-.421.501-.826 1-1.216 1.493.471.073.958.139 1.456.196.279.022.56.043.843.062.025.329.052.656.08.98M304.036 7.368c.483.487.878 1.061 1.161 1.698.169.381.298.785.381 1.205 1.973.137 3.529 1.761 3.529 3.765 0 .404-.063.793-.18 1.159-.075.233-.172.457-.288.668-.17.308-.382.59-.627.839-.688.696-1.644 1.128-2.7 1.128h-9.866c-.943 0-1.821-.288-2.549-.781-1.209-.819-2.004-2.204-2.004-3.772 0-1.324.566-2.518 1.47-3.35.698-.641 1.596-1.068 2.59-1.173.949-1.822 2.854-3.066 5.047-3.066.458 0 .903.053 1.329.155.478.115.933.289 1.355.516.237.127.463.27.678.428.24.176.465.37.674.581m-5.773 6.664c.023.213.046.425.07.635.024.48.048.959.073 1.435 1.037.004 2.074.006 3.112.006.064-1.012.126-2.036.184-3.072.058-.024.112-.06.157-.105.849-.09 1.659-.213 2.418-.341-.395-.427-.793-.853-1.194-1.279-.402-.426-.806-.851-1.213-1.275-.332-.367-.676-.729-1.03-1.082-.257-.257-.546-.474-.84-.641-.162.034-.318.119-.443.243-.864.865-1.689 1.761-2.462 2.663-.458.521-.902 1.041-1.335 1.556.504.058 1.019.111 1.544.156.297.018.596.035.895.049.021.352.042.703.064 1.052M328.299 7.131c.514.519.936 1.131 1.237 1.809.18.406.318.836.406 1.284 2.102.145 3.759 1.875 3.759 4.01 0 .43-.067.845-.192 1.234-.08.249-.183.487-.307.712-.181.328-.406.629-.668.894-.733.742-1.75 1.202-2.875 1.202H319.15c-1.006 0-1.941-.307-2.716-.833-1.288-.872-2.135-2.347-2.135-4.018 0-1.41.603-2.682 1.566-3.568.743-.683 1.7-1.137 2.759-1.25 1.011-1.94 3.04-3.266 5.376-3.266.487 0 .961.058 1.415.166.51.122.994.308 1.444.55.252.135.494.287.723.455.255.188.495.395.717.619m-6.09 6.963c.018.224.037.447.056.669.019.509.038 1.017.058 1.523 1.098.004 2.196.005 3.294.005.051-1.078.1-2.166.146-3.263.046-.019.089-.047.125-.083.88-.072 1.729-.169 2.537-.271-.42-.446-.844-.892-1.269-1.337-.426-.445-.854-.89-1.284-1.334-.348-.374-.705-.746-1.07-1.11-.249-.249-.523-.467-.802-.644-.138.036-.271.113-.379.221-.896.896-1.761 1.818-2.585 2.743-.487.538-.964 1.075-1.432 1.608.53.046 1.07.088 1.617.124.311.015.624.028.937.039.017.371.034.741.051 1.11M352.516 6.936c.54.545.983 1.188 1.299 1.9.19.427.334.878.427 1.349 2.208.153 3.949 1.97 3.949 4.212 0 .452-.071.888-.202 1.297-.084.261-.192.511-.323.747-.19.345-.426.661-.701.939-.77.78-1.839 1.263-3.02 1.263h-11.04c-1.057 0-2.038-.323-2.853-.874-1.352-.917-2.243-2.467-2.243-4.221 0-1.482.634-2.817 1.646-3.748.78-.718 1.785-1.195 2.898-1.314 1.061-2.038 3.193-3.431 5.647-3.431.512 0 1.01.061 1.487.175.535.128 1.044.323 1.517.577.264.142.518.302.758.479.268.197.52.414.754.65m-6.351 7.209c.014.233.028.465.043.697.015.533.031 1.065.046 1.596 1.148.003 2.296.004 3.444.004.04-1.132.08-2.272.116-3.42.036-.015.069-.037.098-.065.905-.057 1.786-.133 2.636-.213-.442-.462-.886-.924-1.332-1.385-.446-.462-.894-.922-1.343-1.382-.36-.382-.728-.761-1.102-1.134-.242-.243-.505-.461-.771-.647-.118.038-.233.108-.327.202-.923.923-1.82 1.865-2.686 2.811-.512.552-1.015 1.102-1.512 1.65.552.036 1.112.07 1.677.098.323.011.648.021.973.031.012.386.026.772.04 1.157M376.695 6.775c.562.566 1.022 1.235 1.351 1.975.197.444.347.913.443 1.402 2.296.159 4.106 2.049 4.106 4.38 0 .47-.074.923-.21 1.348-.087.271-.2.531-.335.777-.198.359-.444.687-.729.976-.801.811-1.912 1.313-3.141 1.313h-11.477c-1.098 0-2.119-.335-2.966-.909-1.406-.953-2.332-2.564-2.332-4.388 0-1.541.659-2.929 1.711-3.897.811-.746 1.856-1.242 3.013-1.365 1.103-2.119 3.319-3.567 5.871-3.567.532 0 1.05.062 1.546.181.556.133 1.085.336 1.577.6.275.148.538.314.789.498.278.205.54.431.783.676m-6.567 7.412c.011.241.022.48.034.72.011.553.023 1.105.035 1.657 1.19.002 2.379.003 3.569.003.031-1.177.061-2.361.089-3.55.029-.011.054-.029.076-.05.927-.044 1.835-.104 2.718-.166-.46-.475-.921-.95-1.383-1.424-.463-.475-.927-.949-1.392-1.423-.371-.387-.747-.772-1.128-1.153-.237-.237-.49-.455-.746-.649-.102.04-.201.104-.284.187-.944.944-1.869 1.904-2.769 2.867-.532.562-1.058 1.125-1.578 1.685.57.028 1.146.054 1.726.076.333.008.667.016 1.002.024.01.399.02.798.031 1.196" fill="#3fa9f5"/><g><path d="M400.843 6.642c.579.584 1.054 1.274 1.393 2.037.203.458.358.942.457 1.447 2.368.164 4.235 2.112 4.235 4.517 0 .485-.076.952-.217 1.39-.09.28-.206.548-.345.802-.204.37-.458.709-.752 1.007-.826.836-1.973 1.354-3.239 1.354H390.536c-1.133 0-2.185-.346-3.059-.938-1.45-.983-2.405-2.644-2.405-4.526 0-1.589.68-3.021 1.765-4.019.836-.77 1.914-1.282 3.107-1.409 1.138-2.185 3.424-3.679 6.056-3.679.549 0 1.083.065 1.594.187.574.138 1.12.347 1.627.619.284.153.556.324.814.514.287.211.557.444.808.697m-6.745 7.58c.008.246.017.493.025.738.009.57.018 1.139.028 1.707 1.223.002 2.447.002 3.67.002.024-1.214.047-2.433.069-3.656.021-.009.041-.022.058-.039.944-.033 1.873-.079 2.784-.126-.474-.486-.949-.971-1.425-1.457-.476-.485-.954-.97-1.432-1.455-.379-.392-.763-.782-1.15-1.169-.233-.233-.478-.451-.725-.651-.088.041-.174.1-.248.175-.962.962-1.91 1.936-2.838 2.912-.549.572-1.093 1.143-1.632 1.713.584.022 1.173.042 1.766.058.342.007.683.013 1.026.019.007.41.015.82.024 1.229" fill="#3fa9f5"/></g><g><path d="M424.964 6.533c.594.599 1.08 1.305 1.428 2.088.208.469.367.966.469 1.483 2.427.168 4.34 2.165 4.34 4.63 0 .497-.078.976-.222 1.425-.092.287-.211.562-.354.822-.209.379-.469.726-.771 1.032-.846.857-2.022 1.388-3.32 1.388h-12.135c-1.16 0-2.24-.355-3.135-.961-1.487-1.008-2.465-2.711-2.465-4.64 0-1.628.696-3.096 1.808-4.119.858-.789 1.963-1.314 3.186-1.444 1.167-2.24 3.509-3.771 6.207-3.771.563 0 1.11.066 1.634.192.588.14 1.148.355 1.667.634.291.156.57.332.834.527.295.216.572.455.829.714m-6.891 7.717c.006.252.012.503.019.754.007.583.013 1.166.02 1.748 1.252.001 2.503.002 3.755.002.017-1.245.035-2.493.051-3.744.016-.007.03-.017.043-.029.958-.025 1.906-.059 2.839-.094-.486-.495-.972-.989-1.46-1.484-.487-.494-.975-.988-1.464-1.482-.387-.395-.776-.79-1.168-1.182-.23-.229-.468-.448-.708-.652-.077.041-.153.097-.219.164-.977.976-1.943 1.962-2.895 2.949-.562.58-1.121 1.16-1.676 1.738.597.016 1.197.03 1.8.043.348.005.696.009 1.045.014.006.419.012.837.018 1.255" fill="#3fa9f5"/></g><g><path d="M449.062 6.444c.606.611 1.102 1.332 1.457 2.13.212.478.374.985.478 1.512 2.475.171 4.426 2.209 4.426 4.722 0 .507-.079.995-.226 1.453-.094.293-.216.573-.362.839-.213.386-.478.74-.786 1.052-.863.874-2.061 1.415-3.385 1.415H438.288c-1.184 0-2.284-.361-3.197-.98-1.516-1.027-2.514-2.764-2.514-4.731 0-1.661.71-3.158 1.844-4.202.875-.804 2.001-1.339 3.249-1.472 1.19-2.284 3.579-3.846 6.33-3.846.574 0 1.132.068 1.667.196.599.143 1.17.363 1.7.647.297.159.581.339.85.537.301.22.583.464.845.728m-7.009 7.829c.004.256.009.512.013.767.005.594.01 1.188.015 1.781 1.274.001 2.549.001 3.823.001.013-1.269.025-2.541.037-3.815.011-.005.022-.012.031-.021.97-.018 1.932-.042 2.884-.068-.496-.501-.992-1.003-1.488-1.505-.497-.501-.994-1.003-1.492-1.504-.392-.399-.786-.796-1.182-1.193-.227-.226-.46-.445-.694-.654-.068.043-.135.096-.196.156-.988.989-1.969 1.984-2.94 2.98-.573.586-1.144 1.172-1.712 1.757.606.012 1.215.022 1.826.031.354.004.708.007 1.062.01.004.426.008.852.013 1.277" fill="#3fa9f5"/></g><g><path d="M473.141 6.373c.615.621 1.119 1.353 1.479 2.163.216.486.38 1 .486 1.536 2.513.174 4.495 2.243 4.495 4.795 0 .515-.08 1.011-.23 1.476-.095.298-.218.582-.367.852-.216.392-.485.752-.798 1.068-.877.888-2.094 1.438-3.439 1.438h-12.568c-1.202 0-2.32-.367-3.247-.995-1.54-1.044-2.553-2.808-2.553-4.806 0-1.686.721-3.207 1.873-4.267.888-.817 2.032-1.36 3.299-1.495 1.208-2.32 3.635-3.905 6.429-3.905.583 0 1.15.068 1.693.198.609.146 1.188.368 1.726.657.302.162.59.344.864.545.305.225.592.472.858.74m-7.105 7.919c.003.259.007.518.01.777.003.602.007 1.205.01 1.807 1.292.001 2.585.001 3.878.001.008-1.289.017-2.58.025-3.872.008-.003.015-.008.022-.015.979-.012 1.953-.029 2.919-.046-.503-.508-1.006-1.016-1.51-1.523-.504-.507-1.009-1.015-1.514-1.522-.396-.401-.794-.801-1.193-1.201-.225-.224-.454-.443-.683-.655-.061.043-.121.094-.177.149-.998.999-1.991 2.001-2.976 3.005-.583.591-1.163 1.182-1.742 1.772.614.008 1.231.015 1.848.021.358.003.716.005 1.074.007.003.432.006.864.009 1.295" fill="#3fa9f5"/></g><g><path d="M497.203 6.318c.623.628 1.132 1.368 1.497 2.188.218.492.384 1.013.491 1.555 2.544.176 4.55 2.27 4.55 4.853 0 .521-.082 1.023-.233 1.494-.096.301-.221.589-.371.861-.219.398-.492.761-.808 1.082-.887.898-2.119 1.455-3.48 1.455H486.13c-1.217 0-2.349-.372-3.287-1.008-1.558-1.056-2.584-2.841-2.584-4.863 0-1.707.73-3.245 1.896-4.318.899-.827 2.057-1.377 3.339-1.513 1.223-2.348 3.678-3.953 6.506-3.953.59 0 1.164.07 1.713.201.617.148 1.203.373 1.747.665.305.164.597.348.875.552.308.227.599.477.868.749m-7.179 7.988c.002.262.004.524.006.785.002.61.004 1.219.006 1.829h3.921c.006-1.304.011-2.61.016-3.917.006-.002.01-.005.014-.009.987-.008 1.97-.019 2.948-.031-.509-.512-1.018-1.024-1.528-1.536s-1.02-1.024-1.53-1.535c-.4-.403-.801-.806-1.203-1.208-.223-.223-.448-.442-.674-.656-.055.044-.11.092-.162.144-1.005 1.006-2.008 2.014-3.005 3.023-.59.595-1.178 1.19-1.765 1.785.621.005 1.243.01 1.866.014.361.001.722.003 1.084.004l.006 1.308" fill="#3fa9f5"/></g><g><path d="M521.25 6.276c.628.633 1.142 1.38 1.51 2.208.221.496.388 1.021.496 1.568 2.567.178 4.591 2.291 4.591 4.897 0 .526-.083 1.032-.235 1.507-.098.304-.223.595-.375.87-.221.401-.496.768-.815 1.091-.895.906-2.138 1.468-3.511 1.468h-12.834c-1.228 0-2.37-.375-3.316-1.017-1.573-1.065-2.608-2.867-2.608-4.906 0-1.723.737-3.275 1.913-4.357.907-.835 2.075-1.39 3.369-1.527 1.234-2.369 3.712-3.989 6.565-3.989.595 0 1.174.071 1.728.203.622.149 1.214.376 1.764.671.307.165.602.351.882.557.311.229.604.482.876.756m-7.236 8.041c.001.264.002.528.004.791.001.615.002 1.23.004 1.844 1.317.001 2.635.001 3.952.001.004-1.317.007-2.634.01-3.951.003-.001.006-.003.009-.006.992-.004 1.981-.011 2.969-.018-.514-.515-1.028-1.031-1.542-1.546-.514-.515-1.028-1.031-1.543-1.546-.403-.405-.806-.809-1.21-1.213-.221-.221-.444-.44-.667-.656-.051.044-.102.091-.15.14-1.012 1.011-2.021 2.024-3.028 3.037l-1.782 1.794c.626.003 1.252.006 1.879.008l1.092.003c.001.44.002.879.003 1.318" fill="#3fa9f5"/></g><g><path d="M545.283 6.245c.633.638 1.15 1.39 1.52 2.223.222.499.391 1.028.499 1.578 2.584.179 4.62 2.305 4.62 4.928 0 .529-.083 1.039-.236 1.517-.098.306-.225.598-.377.875-.222.404-.499.773-.82 1.098-.901.912-2.152 1.478-3.534 1.478H534.039c-1.236 0-2.385-.378-3.337-1.023-1.583-1.073-2.624-2.886-2.624-4.938 0-1.734.741-3.296 1.925-4.385.912-.84 2.088-1.398 3.39-1.537 1.242-2.384 3.736-4.014 6.607-4.014.599 0 1.182.071 1.74.204.626.15 1.221.379 1.774.676.31.166.606.353.888.56.313.23.608.485.881.76m-7.276 8.08c.001.265.001.53.002.795.001.619.001 1.237.002 1.856h3.976c.002-1.325.003-2.65.005-3.975.002-.001.003-.002.004-.003.996-.002 1.991-.006 2.985-.009-.517-.518-1.035-1.036-1.552-1.554-.517-.518-1.034-1.035-1.552-1.553-.404-.406-.809-.811-1.215-1.217-.22-.22-.441-.439-.662-.657-.048.045-.096.091-.142.137-1.016 1.016-2.03 2.032-3.043 3.049-.599.6-1.197 1.2-1.795 1.8.629.002 1.259.003 1.888.004.366.001.732.001 1.097.001.001.442.001.884.002 1.326" fill="#3fa9f5"/></g><g><path d="M569.305 6.226c.635.64 1.155 1.395 1.526 2.232.223.501.392 1.032.501 1.584 2.594.18 4.639 2.315 4.639 4.948 0 .532-.083 1.043-.237 1.524-.098.307-.226.6-.379.878-.223.405-.501.776-.824 1.103-.904.916-2.16 1.483-3.548 1.483H558.014c-1.24 0-2.394-.379-3.35-1.027-1.589-1.077-2.635-2.897-2.635-4.958 0-1.741.744-3.31 1.933-4.403.916-.843 2.097-1.404 3.404-1.543 1.247-2.394 3.751-4.03 6.634-4.03.602 0 1.186.071 1.747.205.628.15 1.226.38 1.781.678.311.166.609.355.892.562.315.232.61.487.885.764m-7.302 8.104v.798c.001.621.001 1.242.001 1.863h3.991c.001-1.33.001-2.66.002-3.991.001 0 .001 0 .002-.001l2.994-.003c-.519-.52-1.039-1.039-1.558-1.559l-1.558-1.558c-.406-.406-.812-.812-1.218-1.219-.219-.219-.439-.438-.659-.657-.046.045-.092.09-.137.135-1.018 1.018-2.036 2.037-3.053 3.055-.601.602-1.202 1.203-1.802 1.805.631 0 1.262.001 1.893.001.367 0 .734.001 1.101.001 0 .443 0 .887.001 1.33" fill="#3fa9f5"/></g><g><path d="M593.316 6.216c.636.642 1.157 1.398 1.529 2.236.224.503.393 1.034.502 1.588 2.6.18 4.649 2.32 4.649 4.959 0 .532-.084 1.045-.238 1.526-.098.308-.226.602-.379.88-.224.406-.502.778-.826 1.105-.906.918-2.165 1.487-3.555 1.487H582.002c-1.243 0-2.399-.38-3.358-1.029-1.592-1.08-2.64-2.904-2.64-4.969 0-1.744.746-3.316 1.937-4.412.918-.845 2.101-1.407 3.411-1.546 1.25-2.399 3.759-4.039 6.648-4.039.603 0 1.189.071 1.75.206.63.15 1.229.38 1.786.679.311.167.61.356.893.564.315.232.612.488.887.765M586 14.333v.799c.001.622.001 1.244.001 1.867h3.998c0-1.333 0-2.666.001-3.999 1 0 1.999 0 2.999-.001-.52-.52-1.041-1.04-1.561-1.56-.52-.521-1.04-1.041-1.561-1.561-.406-.407-.813-.814-1.219-1.22-.22-.219-.439-.439-.658-.658l-.135.135c-1.019 1.019-2.038 2.039-3.058 3.058-.602.602-1.204 1.204-1.806 1.807H586v1.333" fill="#3fa9f5"/></g><g><path d="M617.318 6.214c.636.642 1.157 1.399 1.53 2.237.223.503.393 1.035.502 1.589 2.6.18 4.65 2.32 4.65 4.96 0 .532-.083 1.046-.238 1.527-.098.308-.226.602-.379.881-.224.406-.503.778-.826 1.105C621.65 19.431 620.391 20 619 20h-13c-1.244 0-2.4-.38-3.359-1.03C601.048 17.891 600 16.066 600 14c0-1.745.746-3.317 1.938-4.414.918-.845 2.102-1.407 3.412-1.546C606.6 5.64 609.11 4 612 4c.603 0 1.189.071 1.751.205.63.151 1.229.381 1.786.68.312.167.61.356.893.564.316.232.613.488.888.765M610 14.333V17h4v-4h3l-1.561-1.561-1.562-1.562-1.22-1.22L612 8l-.134.134-3.059 3.059L607 13h3v1.333" fill="#3fa9f5"/></g><g><path d="M641.318 6.214c.636.642 1.157 1.399 1.53 2.237.223.503.393 1.035.502 1.589 2.6.18 4.65 2.32 4.65 4.96 0 .532-.083 1.046-.238 1.527-.098.308-.226.602-.379.881-.224.406-.503.778-.826 1.105C645.65 19.431 644.391 20 643 20h-13c-1.244 0-2.4-.38-3.359-1.03C625.048 17.891 624 16.066 624 14c0-1.745.746-3.317 1.938-4.414.918-.845 2.102-1.407 3.412-1.546C630.6 5.64 633.11 4 636 4c.603 0 1.189.071 1.751.205.63.151 1.229.381 1.786.68.312.167.61.356.893.564.316.232.613.488.888.765M634 14.333V17h4v-4h3l-1.561-1.561-1.562-1.562-1.22-1.22L636 8l-.134.134-3.059 3.059L631 13h3v1.333" fill="#3fa9f5"/></g><g><path d="M665.318 6.214c.636.642 1.157 1.399 1.53 2.237.223.503.393 1.035.502 1.589 2.6.18 4.65 2.32 4.65 4.96 0 .532-.083 1.046-.238 1.527-.098.308-.226.602-.379.881-.224.406-.503.778-.826 1.105C669.65 19.431 668.391 20 667 20h-13c-1.244 0-2.4-.38-3.359-1.03C649.048 17.891 648 16.066 648 14c0-1.745.746-3.317 1.938-4.414.918-.845 2.102-1.407 3.412-1.546C654.6 5.64 657.11 4 660 4c.603 0 1.189.071 1.751.205.63.151 1.229.381 1.786.68.312.167.61.356.893.564.316.232.613.488.888.765M658 14.333V17h4v-4h3l-1.561-1.561-1.562-1.562-1.22-1.22L660 8l-.134.134-3.059 3.059L655 13h3v1.333" fill="#3fa9f5"/></g><g><path d="M689.318 6.214c.636.642 1.157 1.399 1.53 2.237.223.503.393 1.035.502 1.589 2.6.18 4.65 2.32 4.65 4.96 0 .532-.083 1.046-.238 1.527-.098.308-.226.602-.379.881-.224.406-.503.778-.826 1.105C693.65 19.431 692.391 20 691 20h-13c-1.244 0-2.4-.38-3.359-1.03C673.048 17.891 672 16.066 672 14c0-1.745.746-3.317 1.938-4.414.918-.845 2.102-1.407 3.412-1.546C678.6 5.64 681.11 4 684 4c.603 0 1.189.071 1.751.205.63.151 1.229.381 1.786.68.312.167.61.356.893.564.316.232.613.488.888.765M682 14.333V17h4v-4h3l-1.561-1.561-1.562-1.562-1.22-1.22L684 8l-.134.134-3.059 3.059L679 13h3v1.333" fill="#3fa9f5"/></g><g><path d="M713.318 6.214c.636.642 1.157 1.399 1.53 2.237.223.503.393 1.035.502 1.589 2.6.18 4.65 2.32 4.65 4.96 0 .532-.083 1.046-.238 1.527-.098.308-.226.602-.379.881-.224.406-.503.778-.826 1.105C717.65 19.431 716.391 20 715 20h-13c-1.244 0-2.4-.38-3.359-1.03C697.048 17.891 696 16.066 696 14c0-1.745.746-3.317 1.938-4.414.918-.845 2.102-1.407 3.412-1.546C702.6 5.64 705.11 4 708 4c.603 0 1.189.071 1.751.205.63.151 1.229.381 1.786.68.312.167.61.356.893.564.316.232.613.488.888.765M706 14.333V17h4v-4h3l-1.561-1.561-1.562-1.562-1.22-1.22L708 8l-.134.134-3.059 3.059L703 13h3v1.333" fill="#3fa9f5"/></g><g><path d="M737.318 6.214c.636.642 1.157 1.399 1.53 2.237.223.503.393 1.035.502 1.589 2.6.18 4.65 2.32 4.65 4.96 0 .532-.083 1.046-.238 1.527-.098.308-.226.602-.379.881-.224.406-.503.778-.826 1.105C741.65 19.431 740.391 20 739 20h-13c-1.244 0-2.4-.38-3.359-1.03C721.048 17.891 720 16.066 720 14c0-1.745.746-3.317 1.938-4.414.918-.845 2.102-1.407 3.412-1.546C726.6 5.64 729.11 4 732 4c.603 0 1.189.071 1.751.205.63.151 1.229.381 1.786.68.312.167.61.356.893.564.316.232.613.488.888.765M730 14.333V17h4v-4h3l-1.561-1.561-1.562-1.562-1.22-1.22L732 8l-.134.134-3.059 3.059L727 13h3v1.333" fill="#3fa9f5"/></g></svg>