<svg xmlns="http://www.w3.org/2000/svg" viewBox="0 0 744 744" width="5744" height="5744"><path d="M10.826 12.919c-.085-.062-.165-.13-.24-.205-.375-.375-.586-.884-.586-1.414 0-.53.211-1.039.586-1.414S11.47 9.3 12 9.3c.53 0 1.039.211 1.414.586.187.187.334.408.434.649.099.24.152.5.152.765 0 .53-.211 1.039-.586 1.414S12.53 13.3 12 13.3c-.106 0-.211-.008-.315-.025-.103-.016-.205-.041-.304-.073-.099-.033-.195-.072-.288-.12-.093-.047-.182-.102-.267-.163M34.806 12.95c-.086-.063-.166-.132-.241-.208-.373-.374-.584-.881-.584-1.41 0-.529.211-1.037.585-1.412s.882-.586 1.412-.587c.001 0 .002-.001.003-.001.528 0 1.035.211 1.409.584.189.187.337.408.437.649.1.24.153.499.154.764 0 .529-.21 1.037-.583 1.412-.374.376-.882.587-1.411.589-.106 0-.211-.007-.316-.023-.103-.016-.206-.04-.306-.072-.099-.033-.196-.072-.289-.12-.094-.047-.184-.103-.27-.165m1.176-1.936c0 .001 0 .001.001.001h.043v.007h-.045c-.004 0-.007-.003-.007-.007 0-.001 0-.003.001-.004l.005-.009-.014-.028h-.007v-.008h.012l.004.008h.055c.002 0 .004.002.004.004l-.001.001-.013.025c-.002.002-.004.003-.007.003h-.028l-.003.007m5.021 8.979c.004 0 .008.003.008.007s-.004.007-.008.007-.007-.003-.007-.007.003-.007.007-.007M58.739 13.056c-.088-.066-.169-.139-.244-.219-.369-.37-.576-.872-.576-1.395 0-.527.208-1.032.579-1.406.372-.374.877-.586 1.404-.589.005-.003.01-.005.016-.005.522 0 1.022.208 1.391.576.193.185.345.406.449.648.101.239.156.498.157.762.002.526-.204 1.031-.573 1.405-.369.377-.872.591-1.398.597-.107.003-.213-.002-.319-.017-.106-.013-.212-.036-.315-.067-.1-.033-.196-.071-.29-.119-.099-.048-.193-.106-.281-.171m1.183-1.997l-.001.002c0 .002.002.004.004.004h.189v.033h-.196c-.018 0-.032-.015-.032-.033 0-.005.001-.011.004-.015l.022-.04-.059-.124h-.032v-.033h.053l.015.033h.242c.009 0 .016.007.016.016 0 .003-.001.006-.002.008l-.059.106c-.005.01-.016.017-.028.017h-.122l-.014.026m5.081 8.908c.018 0 .033.015.033.033 0 .018-.015.033-.033.033-.018 0-.032-.015-.032-.033 0-.018.014-.033.032-.033M82.61 13.258c-.092-.071-.175-.151-.249-.238-.36-.364-.563-.856-.563-1.368 0-.521.206-1.022.571-1.393.367-.374.866-.588 1.388-.596.012-.007.026-.011.041-.011.508 0 .997.203 1.356.562.202.18.362.401.472.645.103.238.16.495.164.759.005.519-.195 1.019-.555 1.391-.359.379-.855.6-1.375.614-.108.007-.216.006-.324-.006-.111-.008-.223-.028-.332-.059-.1-.032-.197-.069-.291-.116-.108-.049-.21-.112-.303-.184m1.196-2.111l-.001.005c0 .005.004.01.01.01h.468v.081h-.485c-.045 0-.081-.037-.081-.081 0-.014.003-.028.01-.039l.054-.099-.145-.307h-.081v-.081h.132l.038.081h.599c.022 0 .04.018.04.04 0 .007-.001.014-.005.02l-.144.262c-.014.025-.041.042-.071.042h-.302l-.036.066m5.197 8.772c.045 0 .081.036.081.081 0 .045-.036.081-.081.081-.044 0-.08-.036-.08-.081 0-.045.036-.081.08-.081M106.399 13.588c-.098-.08-.184-.171-.257-.271-.346-.352-.541-.827-.541-1.322 0-.513.201-1.006.556-1.373.359-.372.849-.589 1.362-.604.024-.015.052-.023.082-.023.487 0 .955.194 1.301.539.214.173.388.393.508.641.106.235.167.49.175.752.01.509-.179 1-.524 1.369-.345.384-.827.613-1.337.641-.11.014-.221.019-.333.013-.118-.001-.24-.016-.36-.045-.101-.03-.199-.067-.294-.113-.122-.05-.237-.12-.338-.204m1.217-2.298l-.002.01c0 .011.009.02.02.02h.925v.159h-.958c-.088 0-.16-.072-.16-.159 0-.028.007-.055.02-.077l.108-.196-.288-.606h-.16v-.16h.261l.075.16h1.182c.044 0 .08.036.08.08 0 .013-.003.027-.01.038l-.286.519c-.027.049-.079.082-.139.082h-.596l-.072.13m5.387 8.55c.088 0 .16.072.16.16 0 .088-.072.16-.16.16-.088 0-.159-.072-.159-.16 0-.088.071-.16.159-.16M130.082 14.083c-.106-.093-.198-.201-.269-.319-.325-.335-.507-.785-.507-1.254 0-.501.192-.982.534-1.342.347-.37.822-.592 1.323-.619.042-.025.09-.039.141-.039.457 0 .895.182 1.218.505.235.161.429.381.564.635.111.231.177.483.192.742.017.492-.155.971-.478 1.335-.323.39-.785.634-1.281.682-.112.025-.228.04-.346.042-.13.01-.265.002-.401-.025-.103-.029-.202-.064-.298-.108-.145-.052-.278-.134-.392-.235m1.25-2.578l-.004.017c0 .019.015.034.035.034h1.611v.279h-1.67c-.153 0-.278-.126-.278-.279 0-.048.013-.094.035-.133l.188-.341-.501-1.056h-.278v-.278h.455l.131.278h2.057c.076 0 .139.063.139.139 0 .024-.006.048-.017.067l-.498.903c-.047.086-.139.143-.243.143h-1.036l-.126.227m5.671 8.217c.153 0 .278.125.278.278 0 .153-.125.278-.278.278-.153 0-.277-.125-.277-.278 0-.153.124-.278.277-.278M153.641 14.773c-.119-.112-.217-.243-.286-.387-.295-.311-.46-.726-.46-1.159 0-.484.181-.947.503-1.299.33-.368.785-.595 1.269-.639.066-.039.143-.062.225-.062.413 0 .809.165 1.101.456.264.146.485.365.642.628.118.225.192.472.215.729.027.469-.122.929-.414 1.288-.292.399-.726.661-1.202.738-.116.04-.238.068-.364.081-.146.026-.301.029-.46.004-.104-.026-.205-.059-.303-.101-.175-.055-.335-.153-.466-.277m1.296-2.969l-.007.027c0 .031.024.055.055.055h2.566v.443h-2.659c-.243 0-.443-.199-.443-.443 0-.077.02-.151.056-.213l.299-.542-.798-1.682h-.443v-.443h.725l.208.443h3.276c.122 0 .222.1.222.222 0 .037-.009.075-.027.106l-.793 1.438c-.075.137-.221.228-.388.228h-1.65l-.199.361m6.066 7.753c.243 0 .443.199.443.443s-.2.443-.443.443c-.244 0-.441-.199-.441-.443s.197-.443.441-.443M177.091 15.633c-.135-.134-.241-.295-.308-.471-.257-.281-.401-.653-.401-1.04 0-.463.167-.906.464-1.247.309-.364.739-.599 1.203-.662.096-.058.209-.091.329-.091.358 0 .702.142.956.396.299.126.555.344.738.617.126.218.21.459.245.712.039.442-.081.879-.335 1.23-.253.41-.653.696-1.104.808-.12.059-.25.104-.387.132-.165.045-.346.06-.531.039-.106-.023-.21-.053-.311-.092-.213-.059-.406-.177-.558-.331m1.352-3.456l-.01.039c0 .046.036.081.081.081h3.756v.649h-3.892c-.357 0-.648-.292-.648-.649 0-.113.029-.22.081-.311l.438-.795-1.168-2.461h-.649v-.649h1.061l.305.649h4.797c.178 0 .324.146.324.324 0 .055-.013.11-.039.156l-1.161 2.105c-.11.201-.324.334-.568.334h-2.416l-.292.528m6.559 7.174c.357 0 .649.292.649.649 0 .357-.292.649-.649.649-.357 0-.645-.292-.645-.649 0-.357.288-.649.645-.649M200.501 16.556c-.152-.159-.267-.351-.331-.561-.217-.249-.339-.575-.339-.913 0-.44.153-.861.424-1.19.286-.36.689-.604 1.13-.689.129-.077.28-.121.442-.121.299 0 .587.119.799.331.337.106.63.322.843.606.134.21.229.446.275.694.053.412-.037.825-.249 1.168-.212.421-.574.733-.998.883-.125.079-.264.142-.412.185-.186.066-.393.095-.608.077-.109-.019-.216-.045-.319-.082-.254-.063-.482-.202-.657-.388m1.413-3.978l-.013.052c0 .061.047.109.108.109h5.034v.869h-5.216c-.478 0-.87-.391-.87-.869 0-.153.04-.296.109-.418l.587-1.065-1.565-3.299h-.869v-.869h1.421l.409.869h6.428c.239 0 .435.196.435.435 0 .074-.017.148-.052.209l-1.556 2.821c-.148.269-.435.447-.761.447h-3.238l-.391.709m7.088 6.553c.478 0 .869.391.869.869s-.391.869-.869.869-.865-.391-.865-.869.387-.869.865-.869M223.951 17.417c-.167-.182-.291-.403-.353-.646-.179-.219-.28-.502-.28-.795 0-.418.139-.818.385-1.136.265-.357.644-.608 1.064-.713.159-.096.346-.151.546-.151.245 0 .48.098.654.271.372.087.7.302.939.596.143.203.247.433.305.678.065.384.004.773-.169 1.109-.174.432-.502.768-.901.954-.129.098-.276.178-.434.234-.207.086-.438.128-.681.113-.111-.015-.22-.039-.325-.073-.293-.068-.553-.226-.75-.441m1.469-4.466l-.016.065c0 .075.059.134.134.134h6.224v1.075h-6.449c-.592 0-1.075-.484-1.075-1.075 0-.188.048-.366.134-.516l.726-1.317-1.935-4.079h-1.075V6.163h1.757l.505 1.075h7.95c.296 0 .537.241.537.537 0 .091-.021.183-.064.258l-1.924 3.488c-.183.334-.538.554-.941.554h-4.004l-.484.876m7.582 5.974c.591 0 1.075.484 1.075 1.075s-.484 1.075-1.075 1.075c-.592 0-1.07-.484-1.07-1.075s.478-1.075 1.07-1.075M247.48 18.154c-.181-.201-.312-.447-.372-.717-.147-.194-.23-.44-.23-.694 0-.4.127-.781.352-1.091.247-.353.604-.611 1.006-.733.186-.112.404-.176.636-.176.198 0 .389.079.529.22.402.07.76.284 1.022.587.151.197.263.422.33.663.076.36.04.73-.101 1.06-.14.441-.438.797-.815 1.014-.134.114-.287.208-.455.276-.223.103-.476.156-.742.144-.114-.013-.224-.034-.332-.066-.325-.07-.614-.246-.828-.487m1.517-4.883l-.019.075c0 .088.069.157.156.157h7.246v1.251h-7.508c-.689 0-1.252-.563-1.252-1.251 0-.219.057-.426.157-.601l.844-1.533-2.252-4.749h-1.251V5.369h2.046l.588 1.251h9.253c.344 0 .626.282.626.626 0 .106-.025.213-.075.3l-2.24 4.061c-.213.388-.626.644-1.095.644h-4.661l-.563 1.02m8.004 5.478c.688 0 1.252.563 1.252 1.251s-.564 1.251-1.252 1.251c-.688 0-1.245-.563-1.245-1.251s.557-1.251 1.245-1.251M271.089 18.766c-.193-.218-.329-.485-.387-.777-.121-.173-.189-.388-.189-.61 0-.384.117-.751.325-1.053.232-.351.571-.614.958-.751.208-.124.451-.196.71-.196.16 0 .313.064.426.177.428.056.81.27 1.091.58.156.192.276.413.351.652.085.339.069.693-.044 1.017-.113.45-.387.823-.746 1.064-.137.128-.296.234-.471.312-.237.117-.508.179-.793.169-.116-.01-.228-.03-.337-.059-.353-.073-.665-.263-.894-.525m1.557-5.229l-.021.083c0 .098.077.175.175.175h8.091v1.398h-8.385c-.769 0-1.397-.629-1.397-1.398 0-.244.062-.475.174-.671l.944-1.712-2.516-5.303h-1.398V4.711h2.285l.657 1.398h10.335c.385 0 .699.314.699.698 0 .119-.028.238-.084.336l-2.501 4.535c-.238.433-.699.72-1.223.72h-5.206l-.629 1.139m8.355 5.065c.769 0 1.398.629 1.398 1.398 0 .769-.629 1.398-1.398 1.398-.769 0-1.391-.629-1.391-1.398 0-.769.622-1.398 1.391-1.398M294.767 19.269c-.202-.231-.343-.515-.4-.826-.099-.156-.154-.345-.154-.54 0-.373.109-.727.302-1.022.22-.35.545-.617.92-.766.225-.135.489-.212.77-.212.128 0 .251.051.341.141.449.045.852.258 1.148.574.161.188.286.406.368.642.092.323.093.664.002.984-.09.455-.344.842-.688 1.105-.14.138-.303.254-.484.341-.249.127-.535.197-.836.189-.116-.008-.23-.026-.341-.053-.375-.076-.706-.277-.948-.557m1.59-5.514l-.023.091c0 .106.084.19.19.19h8.788v1.518h-9.107c-.834 0-1.517-.683-1.517-1.518 0-.266.068-.516.189-.729l1.025-1.859-2.732-5.76h-1.518V4.17h2.482l.713 1.518h11.224c.418 0 .759.341.759.758 0 .129-.03.258-.091.365l-2.717 4.925c-.258.471-.759.782-1.328.782h-5.654l-.683 1.237m8.644 4.727c.835 0 1.518.683 1.518 1.518s-.683 1.518-1.518 1.518-1.51-.683-1.51-1.518.675-1.518 1.51-1.518M318.502 19.684c-.209-.243-.355-.541-.41-.868-.081-.141-.126-.309-.126-.483 0-.362.102-.706.284-.996.21-.348.522-.619.887-.777.24-.144.521-.227.821-.227.101 0 .199.041.271.112.465.036.885.248 1.194.57.165.184.295.399.382.634.098.309.113.639.041.955-.072.461-.309.859-.641 1.139-.142.147-.31.271-.495.365-.259.137-.556.213-.871.206-.117-.006-.233-.022-.344-.049-.393-.078-.74-.288-.993-.581m1.618-5.749l-.025.097c0 .113.089.202.202.202h9.362v1.616h-9.701c-.889 0-1.617-.727-1.617-1.616 0-.283.073-.55.202-.776l1.092-1.981-2.911-6.136h-1.617V3.724h2.644l.76 1.617h11.956c.445 0 .809.364.809.809 0 .137-.033.274-.097.388l-2.894 5.246c-.275.501-.809.833-1.415.833h-6.023l-.727 1.318m8.881 4.448c.889 0 1.616.728 1.616 1.617s-.727 1.617-1.616 1.617c-.89 0-1.609-.728-1.609-1.617s.719-1.617 1.609-1.617M342.284 20.025c-.215-.251-.364-.561-.419-.901-.066-.129-.103-.28-.103-.436 0-.353.097-.689.269-.975.202-.347.504-.621.861-.787.252-.151.547-.238.862-.238.08 0 .157.032.213.089.479.028.913.239 1.233.565.168.182.302.394.393.627.103.299.129.619.073.932-.057.466-.28.873-.603 1.167-.143.155-.314.286-.503.385-.267.145-.574.225-.899.22-.119-.005-.235-.02-.348-.045-.408-.079-.768-.298-1.029-.603m1.64-5.942l-.026.102c0 .118.094.212.213.212h9.834v1.698h-10.191c-.934 0-1.699-.764-1.699-1.698 0-.297.077-.578.213-.815l1.146-2.081-3.057-6.446h-1.698V3.357h2.777l.798 1.698h12.56c.467 0 .849.383.849.85 0 .144-.034.288-.102.407l-3.04 5.512c-.289.526-.849.874-1.486.874h-6.327l-.764 1.385m9.077 4.219c.934 0 1.698.764 1.698 1.698 0 .934-.764 1.698-1.698 1.698-.935 0-1.69-.764-1.69-1.698 0-.934.755-1.698 1.69-1.698M366.104 20.307c-.221-.259-.372-.578-.426-.929-.054-.119-.084-.256-.084-.397 0-.346.092-.675.256-.958.195-.345.489-.622.839-.794.262-.157.569-.248.897-.248.062 0 .121.025.165.069.491.022.936.233 1.265.562.17.179.308.39.402.622.108.289.143.602.099.913-.044.468-.256.884-.57 1.19-.145.161-.318.297-.511.401-.273.151-.589.235-.923.232-.119-.004-.236-.019-.35-.043-.421-.081-.791-.305-1.059-.62m1.658-6.102l-.026.106c0 .123.097.221.22.221h10.224v1.765h-10.594c-.972 0-1.766-.794-1.766-1.765 0-.309.079-.601.22-.848l1.192-2.163-3.178-6.701h-1.766V3.054h2.887l.83 1.766h13.058c.486 0 .883.397.883.883 0 .15-.035.3-.106.423l-3.161 5.73c-.3.548-.883.91-1.545.91h-6.577l-.795 1.439M377 18.234c.972 0 1.766.795 1.766 1.766s-.794 1.766-1.766 1.766c-.971 0-1.757-.795-1.757-1.766s.786-1.766 1.757-1.766" fill="#3fa9f5"/><g><path d="M389.956 20.539c-.226-.265-.379-.592-.432-.951-.044-.112-.068-.237-.068-.365 0-.341.088-.664.245-.944.19-.344.477-.623.821-.801.271-.162.587-.255.925-.255.047 0 .093.019.126.052.5.017.955.228 1.291.559.173.178.313.387.41.617.111.282.154.589.12.898-.033.472-.235.894-.543 1.209-.146.166-.322.307-.517.414-.279.156-.601.245-.943.242-.12-.003-.237-.017-.351-.04-.432-.082-.811-.312-1.084-.635m1.673-6.233l-.027.109c0 .127.1.228.227.228h10.546v1.821h-10.928c-1.002 0-1.822-.82-1.822-1.821 0-.319.082-.62.228-.875l1.229-2.231-3.278-6.912h-1.821V2.804h2.978l.856 1.821h13.468c.501 0 .911.41.911.911 0 .155-.037.31-.109.437l-3.261 5.91c-.309.565-.91.938-1.593.938h-6.785l-.819 1.485M401 18.179c1.002 0 1.822.819 1.822 1.821s-.82 1.821-1.822 1.821c-1.001 0-1.812-.819-1.812-1.821s.811-1.821 1.812-1.821" fill="#3fa9f5"/></g><g><path d="M413.834 20.73c-.229-.271-.384-.604-.437-.97-.035-.105-.055-.221-.055-.339 0-.336.086-.655.237-.932.185-.344.467-.624.806-.806.277-.167.602-.262.948-.262.035 0 .069.014.094.039.508.012.97.223 1.312.557.175.176.317.384.417.613.113.276.163.578.138.885-.025.474-.22.901-.522 1.224-.147.17-.324.315-.522.426-.283.16-.611.251-.958.249-.121-.002-.239-.015-.354-.038-.439-.082-.826-.317-1.104-.646m1.686-6.342l-.028.112c0 .131.102.234.233.234h10.809v1.867h-11.201c-1.027 0-1.867-.841-1.867-1.867 0-.327.084-.635.233-.896l1.261-2.287-3.361-7.085h-1.867V2.599h3.053l.877 1.867h13.805c.514 0 .934.42.934.933 0 .159-.038.318-.112.449l-3.342 6.057c-.317.579-.933.962-1.633.962h-6.954l-.84 1.521m9.48 3.745c1.027 0 1.867.84 1.867 1.867 0 1.027-.84 1.867-1.867 1.867-1.027 0-1.857-.84-1.857-1.867 0-1.027.83-1.867 1.857-1.867" fill="#3fa9f5"/></g><g><path d="M437.735 20.884c-.232-.274-.389-.613-.441-.984-.028-.1-.044-.208-.044-.318 0-.332.083-.647.23-.923.181-.342.458-.625.794-.81.283-.17.613-.267.966-.267.026 0 .05.01.068.028.515.009.983.219 1.33.555.176.175.32.382.422.611.116.27.17.568.152.874-.018.476-.206.907-.504 1.237-.148.173-.326.321-.526.434-.287.164-.619.258-.971.256-.122-.002-.24-.014-.355-.037-.447-.083-.839-.321-1.121-.656m1.696-6.428l-.029.114c0 .133.105.238.238.238h11.024v1.904H439.24c-1.047 0-1.904-.857-1.904-1.904 0-.333.086-.648.238-.914l1.286-2.332-3.427-7.226h-1.904V2.433h3.113l.894 1.903h14.079c.524 0 .952.429.952.952 0 .162-.038.324-.114.457l-3.408 6.178c-.323.591-.952.981-1.666.981h-7.092l-.856 1.552m9.569 3.64c1.047 0 1.904.857 1.904 1.904s-.857 1.904-1.904 1.904-1.894-.857-1.894-1.904.847-1.904 1.894-1.904" fill="#3fa9f5"/></g><g><path d="M461.655 21.009c-.233-.278-.392-.621-.443-.997-.024-.096-.036-.198-.036-.301 0-.329.081-.641.224-.915.178-.342.452-.625.784-.814.288-.172.623-.271.982-.271.018 0 .035.007.047.019.52.007.993.217 1.344.554.177.174.323.38.426.608.117.267.176.561.164.866-.013.477-.196.913-.49 1.247-.149.176-.328.326-.53.442-.289.166-.625.262-.981.261-.122-.001-.241-.014-.356-.036-.452-.083-.85-.325-1.135-.663m1.705-6.5l-.029.116c0 .136.106.242.241.242h11.195v1.934h-11.601c-1.063 0-1.933-.87-1.933-1.934 0-.338.087-.657.241-.928l1.305-2.369-3.48-7.337h-1.933V2.299h3.161l.909 1.934h14.298c.532 0 .967.435.967.966 0 .165-.039.329-.116.464l-3.461 6.275c-.329.599-.967.996-1.692.996h-7.202l-.87 1.575m9.64 3.557c1.064 0 1.934.871 1.934 1.934s-.87 1.934-1.934 1.934c-1.063 0-1.924-.871-1.924-1.934s.861-1.934 1.924-1.934" fill="#3fa9f5"/></g><g><path d="M485.593 21.106c-.235-.28-.395-.627-.446-1.007-.019-.092-.029-.188-.029-.287 0-.327.079-.636.22-.909.175-.342.446-.626.776-.817.291-.174.631-.274.994-.274.011 0 .022.005.031.013.523.004 1 .214 1.354.553.178.172.325.377.43.606.119.263.18.555.172.859-.008.478-.187.916-.478 1.255-.15.178-.33.33-.533.447-.291.169-.63.266-.989.265-.122-.001-.241-.012-.357-.034-.456-.085-.857-.328-1.145-.67m1.711-6.554l-.03.117c0 .137.108.245.245.245h11.33v1.956h-11.741c-1.076 0-1.957-.88-1.957-1.956 0-.343.088-.666.245-.94l1.321-2.397-3.523-7.426h-1.956V2.194h3.199l.92 1.957h14.47c.538 0 .979.44.979.979 0 .166-.04.332-.118.469l-3.502 6.35c-.333.607-.979 1.008-1.713 1.008h-7.289l-.88 1.595M497 18.043c1.076 0 1.957.881 1.957 1.957s-.881 1.957-1.957 1.957-1.947-.881-1.947-1.957.871-1.957 1.947-1.957" fill="#3fa9f5"/></g><g><path d="M509.546 21.18c-.237-.283-.397-.632-.448-1.014-.016-.09-.024-.183-.024-.277 0-.325.078-.633.217-.904.173-.342.442-.627.77-.819.294-.176.637-.277 1.003-.277.007 0 .013.002.018.007.527.003 1.007.213 1.363.552.179.172.326.377.432.605.12.261.184.551.179.854-.004.48-.181.919-.47 1.261-.15.18-.331.333-.534.451-.293.171-.634.269-.996.269-.122-.001-.241-.012-.357-.034-.46-.085-.864-.33-1.153-.674m1.715-6.596l-.029.118c0 .138.108.247.247.247h11.432v1.974h-11.847c-1.086 0-1.975-.888-1.975-1.974 0-.346.089-.671.247-.948l1.333-2.419-3.554-7.493h-1.974V2.115h3.228l.928 1.974h14.601c.543 0 .987.445.987.988 0 .168-.04.335-.119.474l-3.534 6.407c-.335.612-.987 1.016-1.727 1.016h-7.355l-.889 1.61M521 18.026c1.086 0 1.974.888 1.974 1.974 0 1.086-.888 1.974-1.974 1.974-1.086 0-1.965-.888-1.965-1.974 0-1.086.879-1.974 1.965-1.974" fill="#3fa9f5"/></g><g><path d="M533.512 21.233c-.237-.284-.398-.635-.449-1.019-.014-.088-.021-.179-.021-.27 0-.324.078-.63.215-.901.172-.342.439-.627.766-.821.296-.177.641-.278 1.009-.278.004 0 .007.001.01.003.528.002 1.011.212 1.368.552.18.171.328.376.434.603.121.26.187.548.185.851-.003.48-.177.922-.465 1.265-.15.181-.331.336-.535.455-.295.172-.637.27-1.001.27-.122 0-.241-.011-.357-.033-.462-.085-.868-.331-1.159-.677m1.719-6.627l-.03.12c0 .139.11.248.249.248h11.505v1.987h-11.923c-1.093 0-1.987-.894-1.987-1.987 0-.348.09-.675.249-.954l1.341-2.434-3.577-7.541h-1.987V2.058h3.249l.934 1.987h14.694c.547 0 .994.447.994.994 0 .169-.04.338-.119.477l-3.557 6.448c-.338.616-.994 1.023-1.739 1.023h-7.402l-.894 1.619M545 18.013c1.093 0 1.987.894 1.987 1.987s-.894 1.987-1.987 1.987-1.977-.894-1.977-1.987.884-1.987 1.977-1.987" fill="#3fa9f5"/></g><g><path d="M557.491 21.267c-.239-.285-.4-.637-.451-1.023-.012-.086-.018-.175-.018-.265 0-.323.077-.628.213-.899.172-.341.438-.627.764-.821.296-.178.643-.28 1.013-.28.001 0 .003.001.003.001.531.001 1.014.211 1.373.551.18.172.328.376.435.603.121.258.189.546.188.848-.001.481-.174.924-.461 1.269-.15.182-.332.337-.536.456-.296.173-.639.272-1.003.272-.123 0-.242-.011-.358-.033-.464-.085-.871-.332-1.162-.679m1.721-6.646l-.03.12c0 .14.109.249.249.249h11.552v1.996h-11.971c-1.097 0-1.995-.898-1.995-1.996 0-.349.09-.678.249-.957l1.347-2.444-3.591-7.572h-1.996V2.022h3.263l.937 1.995h14.755c.548 0 .997.449.997.997 0 .17-.04.34-.119.479l-3.572 6.475c-.339.618-.997 1.027-1.746 1.027h-7.432l-.897 1.626M569 18.005c1.097 0 1.995.898 1.995 1.995s-.898 1.995-1.995 1.995-1.985-.898-1.985-1.995.888-1.995 1.985-1.995" fill="#3fa9f5"/></g><g><path d="M581.48 21.284c-.239-.285-.4-.638-.451-1.024-.011-.086-.017-.174-.017-.263 0-.322.076-.627.212-.898.171-.341.437-.627.763-.822.297-.178.644-.28 1.015-.28.531 0 1.016.21 1.375.551.18.171.328.375.436.602.121.258.189.545.189.847-.001.482-.173.924-.459 1.27-.15.182-.332.338-.537.458-.296.173-.639.272-1.004.272-.123 0-.242-.011-.358-.032-.465-.085-.873-.333-1.164-.681m1.722-6.655l-.03.12c0 .14.11.25.25.25h11.576v1.999h-11.996c-1.1 0-2-.9-2-1.999 0-.35.09-.68.25-.96l1.35-2.449-3.599-7.588h-1.999V2.003h3.269l.939 1.999h14.785c.55 0 1 .45 1 1 0 .17-.04.34-.12.48l-3.579 6.488c-.34.619-.999 1.029-1.749 1.029h-7.448l-.899 1.63M593 18.001c1.1 0 1.999.899 1.999 1.999s-.899 1.999-1.999 1.999-1.989-.899-1.989-1.999.889-1.999 1.989-1.999" fill="#3fa9f5"/></g><g><path d="M605.478 21.287c-.239-.285-.4-.638-.451-1.025-.011-.086-.017-.173-.017-.262 0-.322.076-.627.212-.898.171-.341.437-.627.762-.822.298-.178.645-.28 1.016-.28.531 0 1.016.21 1.375.551.18.171.329.375.436.602.121.258.189.545.189.847 0 .481-.172.924-.458 1.27-.15.182-.332.338-.537.458-.296.173-.639.272-1.005.272-.122 0-.242-.011-.358-.032-.464-.085-.872-.333-1.164-.681m1.722-6.657l-.03.12c0 .14.11.25.25.25H619v2h-12c-1.1 0-2-.9-2-2 0-.35.09-.68.25-.96l1.35-2.45L603 4h-2V2h3.27l.94 2H620c.55 0 1 .45 1 1 0 .17-.04.34-.12.48l-3.58 6.49c-.34.62-1 1.03-1.75 1.03h-7.45l-.9 1.63M617 18c1.1 0 2 .9 2 2s-.9 2-2 2-1.99-.9-1.99-2 .89-2 1.99-2" fill="#3fa9f5"/></g><g><path d="M629.478 21.287c-.239-.285-.4-.638-.451-1.025-.011-.086-.017-.173-.017-.262 0-.322.076-.627.212-.898.171-.341.437-.627.762-.822.298-.178.645-.28 1.016-.28.531 0 1.016.21 1.375.551.18.171.329.375.436.602.121.258.189.545.189.847 0 .481-.172.924-.458 1.27-.15.182-.332.338-.537.458-.296.173-.639.272-1.005.272-.122 0-.242-.011-.358-.032-.464-.085-.872-.333-1.164-.681m1.722-6.657l-.03.12c0 .14.11.25.25.25H643v2h-12c-1.1 0-2-.9-2-2 0-.35.09-.68.25-.96l1.35-2.45L627 4h-2V2h3.27l.94 2H644c.55 0 1 .45 1 1 0 .17-.04.34-.12.48l-3.58 6.49c-.34.62-1 1.03-1.75 1.03h-7.45l-.9 1.63M641 18c1.1 0 2 .9 2 2s-.9 2-2 2-1.99-.9-1.99-2 .89-2 1.99-2" fill="#3fa9f5"/></g><g><path d="M653.478 21.287c-.239-.285-.4-.638-.451-1.025-.011-.086-.017-.173-.017-.262 0-.322.076-.627.212-.898.171-.341.437-.627.762-.822.298-.178.645-.28 1.016-.28.531 0 1.016.21 1.375.551.18.171.329.375.436.602.121.258.189.545.189.847 0 .481-.172.924-.458 1.27-.15.182-.332.338-.537.458-.296.173-.639.272-1.005.272-.122 0-.242-.011-.358-.032-.464-.085-.872-.333-1.164-.681m1.722-6.657l-.03.12c0 .14.11.25.25.25H667v2h-12c-1.1 0-2-.9-2-2 0-.35.09-.68.25-.96l1.35-2.45L651 4h-2V2h3.27l.94 2H668c.55 0 1 .45 1 1 0 .17-.04.34-.12.48l-3.58 6.49c-.34.62-1 1.03-1.75 1.03h-7.45l-.9 1.63M665 18c1.1 0 2 .9 2 2s-.9 2-2 2-1.99-.9-1.99-2 .89-2 1.99-2" fill="#3fa9f5"/></g><g><path d="M677.478 21.287c-.239-.285-.4-.638-.451-1.025-.011-.086-.017-.173-.017-.262 0-.322.076-.627.212-.898.171-.341.437-.627.762-.822.298-.178.645-.28 1.016-.28.531 0 1.016.21 1.375.551.18.171.329.375.436.602.121.258.189.545.189.847 0 .481-.172.924-.458 1.27-.15.182-.332.338-.537.458-.296.173-.639.272-1.005.272-.122 0-.242-.011-.358-.032-.464-.085-.872-.333-1.164-.681m1.722-6.657l-.03.12c0 .14.11.25.25.25H691v2h-12c-1.1 0-2-.9-2-2 0-.35.09-.68.25-.96l1.35-2.45L675 4h-2V2h3.27l.94 2H692c.55 0 1 .45 1 1 0 .17-.04.34-.12.48l-3.58 6.49c-.34.62-1 1.03-1.75 1.03h-7.45l-.9 1.63M689 18c1.1 0 2 .9 2 2s-.9 2-2 2-1.99-.9-1.99-2 .89-2 1.99-2" fill="#3fa9f5"/></g><g><path d="M701.478 21.287c-.239-.285-.4-.638-.451-1.025-.011-.086-.017-.173-.017-.262 0-.322.076-.627.212-.898.171-.341.437-.627.762-.822.298-.178.645-.28 1.016-.28.531 0 1.016.21 1.375.551.18.171.329.375.436.602.121.258.189.545.189.847 0 .481-.172.924-.458 1.27-.15.182-.332.338-.537.458-.296.173-.639.272-1.005.272-.122 0-.242-.011-.358-.032-.464-.085-.872-.333-1.164-.681m1.722-6.657l-.03.12c0 .14.11.25.25.25H715v2h-12c-1.1 0-2-.9-2-2 0-.35.09-.68.25-.96l1.35-2.45L699 4h-2V2h3.27l.94 2H716c.55 0 1 .45 1 1 0 .17-.04.34-.12.48l-3.58 6.49c-.34.62-1 1.03-1.75 1.03h-7.45l-.9 1.63M713 18c1.1 0 2 .9 2 2s-.9 2-2 2-1.99-.9-1.99-2 .89-2 1.99-2" fill="#3fa9f5"/></g><g><path d="M725.478 21.287c-.239-.285-.4-.638-.451-1.025-.011-.086-.017-.173-.017-.262 0-.322.076-.627.212-.898.171-.341.437-.627.762-.822.298-.178.645-.28 1.016-.28.531 0 1.016.21 1.375.551.18.171.329.375.436.602.121.258.189.545.189.847 0 .481-.172.924-.458 1.27-.15.182-.332.338-.537.458-.296.173-.639.272-1.005.272-.122 0-.242-.011-.358-.032-.464-.085-.872-.333-1.164-.681m1.722-6.657l-.03.12c0 .14.11.25.25.25H739v2h-12c-1.1 0-2-.9-2-2 0-.35.09-.68.25-.96l1.35-2.45L723 4h-2V2h3.27l.94 2H740c.55 0 1 .45 1 1 0 .17-.04.34-.12.48l-3.58 6.49c-.34.62-1 1.03-1.75 1.03h-7.45l-.9 1.63M737 18c1.1 0 2 .9 2 2s-.9 2-2 2-1.99-.9-1.99-2 .89-2 1.99-2" fill="#3fa9f5"/></g></svg>