<?xml version="1.0" encoding="utf-8"?>
<!-- Generator: Adobe Illustrator 19.0.0, SVG Export Plug-In . SVG Version: 6.00 Build 0)  -->
<svg version="1.0" id="Layer_1" xmlns="http://www.w3.org/2000/svg" xmlns:xlink="http://www.w3.org/1999/xlink" x="0px" y="0px"
	 viewBox="0 0 360 360" style="enable-background:new 0 0 360 360;" xml:space="preserve">
<path id="XMLID_2_" d="M52.2,265.3c0.7-3.2,3.8-5.3,7-4.6s5.3,3.8,4.6,7c-0.7,3.2-3.8,5.3-7,4.6c-2.3-0.5-4.1-2.3-4.6-4.6H0v-2.4
	H52.2z M241.7,322.1c0.7-3.2,3.8-5.3,7-4.6c3.2,0.7,5.3,3.8,4.6,7c-0.7,3.2-3.8,5.3-7,4.6c-2.3-0.5-4.1-2.3-4.6-4.6H97.1v-2.4H241.7
	z M310.1,267.6c-0.7,3.2-3.8,5.3-7,4.6c-3.2-0.7-5.3-3.8-4.6-7s3.8-5.3,7-4.6c2.3,0.5,4.1,2.3,4.6,4.6H360v2.4H310.1z M310.1,286.6
	c-0.7,3.2-3.8,5.3-7,4.6s-5.3-3.8-4.6-7c0.7-3.2,3.8-5.3,7-4.6c2.3,0.5,4.1,2.3,4.6,4.6H360v2.4H310.1z M317.5,151.6
	c0.7-3.2,3.8-5.3,7-4.6c3.2,0.7,5.3,3.8,4.6,7c-0.7,3.2-3.8,5.3-7,4.6c-2.3-0.5-4.1-2.3-4.6-4.6H215.4c-0.7,3.2-3.8,5.3-7,4.6
	c-3.2-0.7-5.3-3.8-4.6-7c0.7-3.2,3.8-5.3,7-4.6c2.3,0.5,4.1,2.3,4.6,4.6H317.5z M14.3,94.7c0.7-3.2,3.8-5.3,7-4.6s5.3,3.8,4.6,7
	s-3.8,5.3-7,4.6c-2.3-0.5-4.1-2.3-4.6-4.6H0v-2.4C0,94.7,14.3,94.7,14.3,94.7z M234.4,135c-0.7,3.2-3.8,5.3-7,4.6
	c-3.2-0.7-5.3-3.8-4.6-7c0.7-3.2,3.8-5.3,7-4.6c2.3,0.5,4.1,2.3,4.6,4.6h102.1c0.7-3.2,3.8-5.3,7-4.6c3.2,0.7,5.3,3.8,4.6,7
	c-0.7,3.2-3.8,5.3-7,4.6c-2.3-0.5-4.1-2.3-4.6-4.6H234.4z M305.5,14.3c3.2,0.7,5.3,3.8,4.6,7s-3.8,5.3-7,4.6c-3.2-0.7-5.3-3.8-4.6-7
	c0.5-2.3,2.3-4.1,4.6-4.6V0h2.4V14.3z M229.7,260.6c3.2,0.7,5.3,3.8,4.6,7c-0.7,3.2-3.8,5.3-7,4.6c-3.2-0.7-5.3-3.8-4.6-7
	c0.5-2.3,2.3-4.1,4.6-4.6v-64.2c-3.2-0.7-5.3-3.8-4.6-7s3.8-5.3,7-4.6c3.2,0.7,5.3,3.8,4.6,7c-0.5,2.3-2.3,4.1-4.6,4.6V260.6z
	 M286.6,25.9v68.8H360v2.4h-75.8V25.9c-3.2-0.7-5.3-3.8-4.6-7c0.7-3.2,3.8-5.3,7-4.6c3.2,0.7,5.3,3.8,4.6,7
	C290.7,23.6,288.9,25.5,286.6,25.9z M305.5,44.9v30.9H360v2.4h-56.8V44.9c-3.2-0.7-5.3-3.8-4.6-7s3.8-5.3,7-4.6
	c3.2,0.7,5.3,3.8,4.6,7C309.7,42.6,307.9,44.4,305.5,44.9z M153.9,158.6v87.8h18.9v14.3c3.2,0.7,5.3,3.8,4.6,7
	c-0.7,3.2-3.8,5.3-7,4.6c-3.2-0.7-5.3-3.8-4.6-7c0.5-2.3,2.3-4.1,4.6-4.6v-12h-18.9v-90.1c-3.2-0.7-5.3-3.8-4.6-7
	c0.7-3.2,3.8-5.3,7-4.6c3.2,0.7,5.3,3.8,4.6,7C158.1,156.3,156.3,158.1,153.9,158.6L153.9,158.6z M147,132.6c0.7-3.2,3.8-5.3,7-4.6
	s5.3,3.8,4.6,7c-0.7,3.2-3.8,5.3-7,4.6c-2.3-0.5-4.1-2.3-4.6-4.6h-12v56.8h-33.3c-0.7,3.2-3.8,5.3-7,4.6s-5.3-3.8-4.6-7
	c0.7-3.2,3.8-5.3,7-4.6c2.3,0.5,4.1,2.3,4.6,4.6h30.9v-56.8C132.6,132.6,147,132.6,147,132.6z M139.6,286.6c-0.7,3.2-3.8,5.3-7,4.6
	c-3.2-0.7-5.3-3.8-4.6-7c0.7-3.2,3.8-5.3,7-4.6c2.3,0.5,4.1,2.3,4.6,4.6h68.8v-87.8c-3.2-0.7-5.3-3.8-4.6-7c0.7-3.2,3.8-5.3,7-4.6
	c3.2,0.7,5.3,3.8,4.6,7c-0.5,2.3-2.3,4.1-4.6,4.6v90.1H139.6z M120.7,210.8c-0.7,3.2-3.8,5.3-7,4.6c-3.2-0.7-5.3-3.8-4.6-7
	c0.7-3.2,3.8-5.3,7-4.6c2.3,0.5,4.1,2.3,4.6,4.6H135v56.8h12c0.7-3.2,3.8-5.3,7-4.6s5.3,3.8,4.6,7c-0.7,3.2-3.8,5.3-7,4.6
	c-2.3-0.5-4.1-2.3-4.6-4.6h-14.3v-56.8H120.7z M78.2,336.4c3.2,0.7,5.3,3.8,4.6,7s-3.8,5.3-7,4.6c-3.2-0.7-5.3-3.8-4.6-7
	c0.5-2.3,2.3-4.1,4.6-4.6v-12H59.2V360h-2.4v-37.9h21.3V336.4z M279.6,208.4c0.7-3.2,3.8-5.3,7-4.6c3.2,0.7,5.3,3.8,4.6,7
	c-0.7,3.2-3.8,5.3-7,4.6c-2.3-0.5-4.1-2.3-4.6-4.6h-12v111.3h56.8V360h-2.4v-35.5h-56.8V208.4H279.6z M310.1,172.9
	c-0.7,3.2-3.8,5.3-7,4.6c-3.2-0.7-5.3-3.8-4.6-7c0.7-3.2,3.8-5.3,7-4.6c2.3,0.5,4.1,2.3,4.6,4.6h14.3v52.2c3.2,0.7,5.3,3.8,4.6,7
	c-0.7,3.2-3.8,5.3-7,4.6c-3.2-0.7-5.3-3.8-4.6-7c0.5-2.3,2.3-4.1,4.6-4.6v-49.9H310.1z M234.4,286.6c-0.7,3.2-3.8,5.3-7,4.6
	c-3.2-0.7-5.3-3.8-4.6-7c0.7-3.2,3.8-5.3,7-4.6c2.3,0.5,4.1,2.3,4.6,4.6h12v-94.7h18.9v-16.6h-49.9c-0.7,3.2-3.8,5.3-7,4.6
	c-3.2-0.7-5.3-3.8-4.6-7c0.7-3.2,3.8-5.3,7-4.6c2.3,0.5,4.1,2.3,4.6,4.6h52.2v21.3h-18.9v94.7H234.4z M336.4,37.9
	c0.7-3.2,3.8-5.3,7-4.6c3.2,0.7,5.3,3.8,4.6,7c-0.7,3.2-3.8,5.3-7,4.6c-2.3-0.5-4.1-2.3-4.6-4.6h-14.3V0h2.4v37.9H336.4L336.4,37.9z
	 M116.1,120.7v52.2H63.8c-0.7,3.2-3.8,5.3-7,4.6c-3.2-0.7-5.3-3.8-4.6-7c0.7-3.2,3.8-5.3,7-4.6c2.3,0.5,4.1,2.3,4.6,4.6h49.9v-49.9
	c-3.2-0.7-5.3-3.8-4.6-7c0.7-3.2,3.8-5.3,7-4.6c3.2,0.7,5.3,3.8,4.6,7C120.2,118.4,118.4,120.2,116.1,120.7z M63.8,40.3
	c-0.7,3.2-3.8,5.3-7,4.6c-3.2-0.7-5.3-3.8-4.6-7c0.7-3.2,3.8-5.3,7-4.6c2.3,0.5,4.1,2.3,4.6,4.6h30.9V0h2.4v40.3H63.8z M135,44.9
	v33.3H97.1v75.8H82.8c-0.7,3.2-3.8,5.3-7,4.6c-3.2-0.7-5.3-3.8-4.6-7c0.7-3.2,3.8-5.3,7-4.6c2.3,0.5,4.1,2.3,4.6,4.6h12V75.8h37.9
	V44.9c-3.2-0.7-5.3-3.8-4.6-7c0.7-3.2,3.8-5.3,7-4.6c3.2,0.7,5.3,3.8,4.6,7C139.1,42.6,137.3,44.4,135,44.9z M120.7,97.1
	c-0.7,3.2-3.8,5.3-7,4.6c-3.2-0.7-5.3-3.8-4.6-7c0.7-3.2,3.8-5.3,7-4.6c2.3,0.5,4.1,2.3,4.6,4.6h30.9V44.9c-3.2-0.7-5.3-3.8-4.6-7
	s3.8-5.3,7-4.6c3.2,0.7,5.3,3.8,4.6,7c-0.5,2.3-2.3,4.1-4.6,4.6v52.2H120.7z M139.6,21.3c-0.7,3.2-3.8,5.3-7,4.6
	c-3.2-0.7-5.3-3.8-4.6-7s3.8-5.3,7-4.6c2.3,0.5,4.1,2.3,4.6,4.6h33.3v52.2c3.2,0.7,5.3,3.8,4.6,7c-0.7,3.2-3.8,5.3-7,4.6
	c-3.2-0.7-5.3-3.8-4.6-7c0.5-2.3,2.3-4.1,4.6-4.6V21.3H139.6z M260.6,341.1c0.7-3.2,3.8-5.3,7-4.6c3.2,0.7,5.3,3.8,4.6,7
	s-3.8,5.3-7,4.6c-2.3-0.5-4.1-2.3-4.6-4.6H116.1V360h-2.4v-18.9H260.6z M286.6,177.5v12h18.9v40.3h-18.9v73.4h56.8V360h-2.4v-54.5
	h-56.8v-78.2h18.9v-35.5h-18.9v-14.3c-3.2-0.7-5.3-3.8-4.6-7c0.7-3.2,3.8-5.3,7-4.6c3.2,0.7,5.3,3.8,4.6,7
	C290.7,175.2,288.9,177,286.6,177.5z M63.8,21.3c-0.7,3.2-3.8,5.3-7,4.6c-3.2-0.7-5.3-3.8-4.6-7c0.7-3.2,3.8-5.3,7-4.6
	c2.3,0.5,4.1,2.3,4.6,4.6h12V2.4H56.8V0h21.3v21.3H63.8z M196.5,59.2c-0.7,3.2-3.8,5.3-7,4.6c-3.2-0.7-5.3-3.8-4.6-7
	c0.7-3.2,3.8-5.3,7-4.6c2.3,0.5,4.1,2.3,4.6,4.6h30.9V0h59.2v2.4h-56.8v56.8H196.5z M139.6,2.4c-0.7,3.2-3.8,5.3-7,4.6
	c-3.2-0.7-5.3-3.8-4.6-7h2.5c-0.7,1.9,0.3,3.9,2.2,4.5c1.9,0.7,3.9-0.3,4.5-2.2c0.3-0.8,0.3-1.6,0-2.4h73.6v40.3h-21.3V25.9
	c-3.2-0.7-5.3-3.8-4.6-7c0.7-3.2,3.8-5.3,7-4.6c3.2,0.7,5.3,3.8,4.6,7c-0.5,2.3-2.3,4.1-4.6,4.6v12h16.6V2.4
	C208.4,2.4,139.6,2.4,139.6,2.4z M139.6,116.1c-0.7,3.2-3.8,5.3-7,4.6s-5.3-3.8-4.6-7c0.7-3.2,3.8-5.3,7-4.6
	c2.3,0.5,4.1,2.3,4.6,4.6h22.6l37.9-37.9h46.2V25.9c-3.2-0.7-5.3-3.8-4.6-7c0.7-3.2,3.8-5.3,7-4.6c3.2,0.7,5.3,3.8,4.6,7
	c-0.5,2.3-2.3,4.1-4.6,4.6v52.2h-47.6l-37.9,37.9C163.2,116.1,139.6,116.1,139.6,116.1z M172.9,222.8c3.2,0.7,5.3,3.8,4.6,7
	c-0.7,3.2-3.8,5.3-7,4.6c-3.2-0.7-5.3-3.8-4.6-7c0.5-2.3,2.3-4.1,4.6-4.6v-90.6l37.4-37.4h57.3V25.9c-3.2-0.7-5.3-3.8-4.6-7
	s3.8-5.3,7-4.6c3.2,0.7,5.3,3.8,4.6,7c-0.5,2.3-2.3,4.1-4.6,4.6v71.2h-58.7l-36,36V222.8z M191.8,260.6c3.2,0.7,5.3,3.8,4.6,7
	s-3.8,5.3-7,4.6c-3.2-0.7-5.3-3.8-4.6-7c0.5-2.3,2.3-4.1,4.6-4.6V142.8l29.1-29.1h136.8c0.5-2.3,2.3-4.1,4.6-4.6v2.5
	c-1.9,0.7-2.8,2.7-2.2,4.5c0.4,1,1.2,1.8,2.2,2.2v2.5c-2.3-0.5-4.1-2.3-4.6-4.6H219.6l-27.7,27.7V260.6z M21.3,184.9
	c3.2,0.7,5.3,3.8,4.6,7c-0.7,3.2-3.8,5.3-7,4.6c-3.2-0.7-5.3-3.8-4.6-7c0.5-2.3,2.3-4.1,4.6-4.6v-4.2l56.8-56.8v-67h37.9V0h2.4v59.2
	H78.2v65.6l-56.8,56.8V184.9z M59.2,63.8v51.5L2.4,172.2v74.1h30.9c0.7-3.2,3.8-5.3,7-4.6c3.2,0.7,5.3,3.8,4.6,7
	c-0.7,3.2-3.8,5.3-7,4.6c-2.3-0.5-4.1-2.3-4.6-4.6H0v-77.5l56.8-56.8V63.8c-3.2-0.7-5.3-3.8-4.6-7c0.7-3.2,3.8-5.3,7-4.6
	c3.2,0.7,5.3,3.8,4.6,7C63.4,61.5,61.5,63.4,59.2,63.8z M40.3,82.8v23.1L0,146.1v-3.3l37.9-37.9V82.8c-3.2-0.7-5.3-3.8-4.6-7
	c0.7-3.2,3.8-5.3,7-4.6c3.2,0.7,5.3,3.8,4.6,7C44.4,80.5,42.6,82.3,40.3,82.8z M14.3,37.9c0.7-3.2,3.8-5.3,7-4.6
	c3.2,0.7,5.3,3.8,4.6,7c-0.7,3.2-3.8,5.3-7,4.6c-2.3-0.5-4.1-2.3-4.6-4.6h-3.2L0,51.4v-3.3l10.2-10.2H14.3z M329.1,59.2
	c-0.7,3.2-3.8,5.3-7,4.6c-3.2-0.7-5.3-3.8-4.6-7c0.7-3.2,3.8-5.3,7-4.6c2.3,0.5,4.1,2.3,4.6,4.6h22.1l8.8-8.8v3.3l-7.8,7.8H329.1z
	 M310.1,248.7c-0.7,3.2-3.8,5.3-7,4.6c-3.2-0.7-5.3-3.8-4.6-7c0.7-3.2,3.8-5.3,7-4.6c2.3,0.5,4.1,2.3,4.6,4.6h30.9v-84.6l18.9-18.9
	v3.3l-16.6,16.6v86H310.1z M63.8,286.6c-0.7,3.2-3.8,5.3-7,4.6s-5.3-3.8-4.6-7c0.7-3.2,3.8-5.3,7-4.6c2.3,0.5,4.1,2.3,4.6,4.6h12
	v-26.8l-27.7-27.7H25.9c-0.7,3.2-3.8,5.3-7,4.6c-3.2-0.7-5.3-3.8-4.6-7c0.7-3.2,3.8-5.3,7-4.6c2.3,0.5,4.1,2.3,4.6,4.6H49l29.1,29.1
	v30.1C78.2,286.6,63.8,286.6,63.8,286.6z M241.7,303.2c0.7-3.2,3.8-5.3,7-4.6c3.2,0.7,5.3,3.8,4.6,7c-0.7,3.2-3.8,5.3-7,4.6
	c-2.3-0.5-4.1-2.3-4.6-4.6h-128v-67L67,191.8H44.9c-0.7,3.2-3.8,5.3-7,4.6s-5.3-3.8-4.6-7c0.7-3.2,3.8-5.3,7-4.6
	c2.3,0.5,4.1,2.3,4.6,4.6H68l48.1,48.1v65.6H241.7L241.7,303.2z M63.8,305.5c-0.7,3.2-3.8,5.3-7,4.6s-5.3-3.8-4.6-7
	c0.7-3.2,3.8-5.3,7-4.6c2.3,0.5,4.1,2.3,4.6,4.6h30.9V248l-37.2-37.2H25.9c-0.7,3.2-3.8,5.3-7,4.6c-3.2-0.7-5.3-3.8-4.6-7
	c0.7-3.2,3.8-5.3,7-4.6c2.3,0.5,4.1,2.3,4.6,4.6h32.6L97.1,247v58.5C97.1,305.5,63.8,305.5,63.8,305.5z M40.3,47.1V49L11.1,78.2H0
	v-2.4h10.2l27.7-27.7V0h2.4V47.1z M2.4,355.4c2.3,0.5,4.1,2.3,4.6,4.6H4.5c-0.7-1.9-2.7-2.8-4.5-2.2c0,0,0,0,0,0v-54.7h21.3V360
	h-2.4v-54.5H2.4V355.4z M40.3,285.4V360h-2.4v-73.4H0v-2.4h40.3V285.4z M20.1,21.3H0v-2.4h18.9V0h2.4v21.3H20.1z M343.4,18.9H360
	v2.4h-18.9V0h2.4V18.9z M305.5,342.2V360h-2.4v-16.6h-16.6V360h-2.4v-18.9h21.3V342.2z M0,109.1c3.2-0.6,6.3,1.4,7,4.7
	c0.1,0.4,0.1,0.8,0.1,1.1c0,3.3-2.6,5.9-5.9,5.9c-0.4,0-0.8,0-1.2-0.1v-2.5c1.9,0.7,3.9-0.3,4.5-2.2c0.7-1.9-0.3-3.9-2.2-4.5
	c-0.8-0.3-1.6-0.3-2.4,0V109.1z M94.7,322.1h2.4V360h-2.4V322.1z M139.6,360h-2.5c-0.7-1.9-2.7-2.8-4.5-2.2c-1,0.4-1.8,1.2-2.2,2.2
	H128c0.7-3.2,3.8-5.3,7-4.6C137.3,355.8,139.1,357.7,139.6,360z M7,0c0.6,3.2-1.5,6.3-4.7,7C1.5,7.1,0.8,7.1,0,7V4.5
	c1.8,0.7,3.9-0.3,4.5-2.2c0.3-0.8,0.3-1.6,0-2.4H7z M355.4,0h2.5c-0.7,1.8,0.3,3.9,2.2,4.5c0,0,0,0,0,0V7
	C356.8,6.3,354.7,3.2,355.4,0C355.4,0,355.4,0,355.4,0z M360,355.4v2.5c-1,0.4-1.8,1.2-2.2,2.2h-2.5
	C355.9,357.7,357.7,355.9,360,355.4z M114.9,118.4c2,0,3.6-1.6,3.6-3.6c0-2-1.6-3.6-3.6-3.6c-2,0-3.6,1.6-3.6,3.6
	C111.3,116.8,112.9,118.4,114.9,118.4z M114.9,99.5c2,0,3.6-1.6,3.6-3.6c0-2-1.6-3.6-3.6-3.6c-2,0-3.6,1.6-3.6,3.6
	C111.3,97.9,112.9,99.5,114.9,99.5z M133.8,118.4c2,0,3.6-1.6,3.6-3.6c0-2-1.6-3.6-3.6-3.6c-2,0-3.6,1.6-3.6,3.6
	C130.3,116.8,131.9,118.4,133.8,118.4z M152.8,137.4c2,0,3.6-1.6,3.6-3.6c0-2-1.6-3.6-3.6-3.6c-2,0-3.6,1.6-3.6,3.6
	C149.2,135.8,150.8,137.4,152.8,137.4z M152.8,156.3c2,0,3.6-1.6,3.6-3.6c0-2-1.6-3.6-3.6-3.6c-2,0-3.6,1.6-3.6,3.6
	C149.2,154.7,150.8,156.3,152.8,156.3z M95.9,194.2c2,0,3.6-1.6,3.6-3.6c0-2-1.6-3.6-3.6-3.6c-2,0-3.6,1.6-3.6,3.6
	C92.4,192.6,94,194.2,95.9,194.2z M114.9,213.2c2,0,3.6-1.6,3.6-3.6c0-2-1.6-3.6-3.6-3.6c-2,0-3.6,1.6-3.6,3.6
	C111.3,211.6,112.9,213.2,114.9,213.2z M152.8,270c2,0,3.6-1.6,3.6-3.6c0-2-1.6-3.6-3.6-3.6c-2,0-3.6,1.6-3.6,3.6
	C149.2,268.4,150.8,270,152.8,270z M133.8,288.9c2,0,3.6-1.6,3.6-3.6s-1.6-3.6-3.6-3.6c-2,0-3.6,1.6-3.6,3.6
	S131.9,288.9,133.8,288.9z M171.7,270c2,0,3.6-1.6,3.6-3.6c0-2-1.6-3.6-3.6-3.6s-3.6,1.6-3.6,3.6C168.2,268.4,169.7,270,171.7,270z
	 M171.7,232.1c2,0,3.6-1.6,3.6-3.6c0-2-1.6-3.6-3.6-3.6s-3.6,1.6-3.6,3.6C168.2,230.5,169.7,232.1,171.7,232.1z M190.7,270
	c2,0,3.6-1.6,3.6-3.6c0-2-1.6-3.6-3.6-3.6c-2,0-3.6,1.6-3.6,3.6C187.1,268.4,188.7,270,190.7,270z M228.6,288.9c2,0,3.6-1.6,3.6-3.6
	s-1.6-3.6-3.6-3.6c-2,0-3.6,1.6-3.6,3.6S226.6,288.9,228.6,288.9z M228.6,270c2,0,3.6-1.6,3.6-3.6c0-2-1.6-3.6-3.6-3.6
	c-2,0-3.6,1.6-3.6,3.6C225,268.4,226.6,270,228.6,270z M209.6,194.2c2,0,3.6-1.6,3.6-3.6c0-2-1.6-3.6-3.6-3.6c-2,0-3.6,1.6-3.6,3.6
	C206.1,192.6,207.6,194.2,209.6,194.2z M228.6,194.2c2,0,3.6-1.6,3.6-3.6c0-2-1.6-3.6-3.6-3.6c-2,0-3.6,1.6-3.6,3.6
	C225,192.6,226.6,194.2,228.6,194.2z M247.5,307.9c2,0,3.6-1.6,3.6-3.6s-1.6-3.6-3.6-3.6s-3.6,1.6-3.6,3.6S245.5,307.9,247.5,307.9z
	 M247.5,326.8c2,0,3.6-1.6,3.6-3.6c0-2-1.6-3.6-3.6-3.6s-3.6,1.6-3.6,3.6C243.9,325.3,245.5,326.8,247.5,326.8z M266.4,345.8
	c2,0,3.6-1.6,3.6-3.6s-1.6-3.6-3.6-3.6l0,0c-2,0-3.6,1.6-3.6,3.6S264.5,345.8,266.4,345.8z M285.4,175.3c2,0,3.6-1.6,3.6-3.6
	s-1.6-3.6-3.6-3.6s-3.6,1.6-3.6,3.6S283.4,175.3,285.4,175.3z M285.4,213.2c2,0,3.6-1.6,3.6-3.6c0-2-1.6-3.6-3.6-3.6
	s-3.6,1.6-3.6,3.6C281.8,211.6,283.4,213.2,285.4,213.2z M304.3,175.3c2,0,3.6-1.6,3.6-3.6s-1.6-3.6-3.6-3.6s-3.6,1.6-3.6,3.6
	S302.4,175.3,304.3,175.3z M323.3,156.3c2,0,3.6-1.6,3.6-3.6c0-2-1.6-3.6-3.6-3.6c-2,0-3.6,1.6-3.6,3.6
	C319.7,154.7,321.3,156.3,323.3,156.3z M209.6,156.3c2,0,3.6-1.6,3.6-3.6c0-2-1.6-3.6-3.6-3.6c-2,0-3.6,1.6-3.6,3.6
	C206.1,154.7,207.6,156.3,209.6,156.3z M209.6,175.3c2,0,3.6-1.6,3.6-3.6s-1.6-3.6-3.6-3.6c-2,0-3.6,1.6-3.6,3.6
	S207.6,175.3,209.6,175.3z M228.6,137.4c2,0,3.6-1.6,3.6-3.6c0-2-1.6-3.6-3.6-3.6c-2,0-3.6,1.6-3.6,3.6
	C225,135.8,226.6,137.4,228.6,137.4z M342.2,137.4c2,0,3.6-1.6,3.6-3.6c0-2-1.6-3.6-3.6-3.6s-3.6,1.6-3.6,3.6
	C338.7,135.8,340.3,137.4,342.2,137.4z M323.3,61.6c2,0,3.6-1.6,3.6-3.6c0-2-1.6-3.6-3.6-3.6c-2,0-3.6,1.6-3.6,3.6
	C319.7,60,321.3,61.6,323.3,61.6z M342.2,42.6c2,0,3.6-1.6,3.6-3.6c0-2-1.6-3.6-3.6-3.6s-3.6,1.6-3.6,3.6
	C338.7,41,340.3,42.6,342.2,42.6z M304.3,42.6c2,0,3.6-1.6,3.6-3.6c0-2-1.6-3.6-3.6-3.6s-3.6,1.6-3.6,3.6
	C300.8,41,302.4,42.6,304.3,42.6z M304.3,23.7c2,0,3.6-1.6,3.6-3.6s-1.6-3.6-3.6-3.6s-3.6,1.6-3.6,3.6S302.4,23.7,304.3,23.7z
	 M285.4,23.7c2,0,3.6-1.6,3.6-3.6s-1.6-3.6-3.6-3.6s-3.6,1.6-3.6,3.6S283.4,23.7,285.4,23.7z M266.4,23.7c2,0,3.6-1.6,3.6-3.6
	s-1.6-3.6-3.6-3.6l0,0c-2,0-3.6,1.6-3.6,3.6S264.5,23.7,266.4,23.7z M247.5,23.7c2,0,3.6-1.6,3.6-3.6s-1.6-3.6-3.6-3.6
	s-3.6,1.6-3.6,3.6S245.5,23.7,247.5,23.7z M58,42.6c2,0,3.6-1.6,3.6-3.6c0-2-1.6-3.6-3.6-3.6c-2,0-3.6,1.6-3.6,3.6
	C54.5,41,56.1,42.6,58,42.6z M20.1,42.6c2,0,3.6-1.6,3.6-3.6c0-2-1.6-3.6-3.6-3.6s-3.6,1.6-3.6,3.6C16.6,41,18.2,42.6,20.1,42.6z
	 M58,61.6c2,0,3.6-1.6,3.6-3.6c0-2-1.6-3.6-3.6-3.6c-2,0-3.6,1.6-3.6,3.6C54.5,60,56.1,61.6,58,61.6z M39.1,80.5
	c2,0,3.6-1.6,3.6-3.6c0-2-1.6-3.6-3.6-3.6c-2,0-3.6,1.6-3.6,3.6C35.5,78.9,37.1,80.5,39.1,80.5z M58,23.7c2,0,3.6-1.6,3.6-3.6
	S60,16.6,58,16.6c-2,0-3.6,1.6-3.6,3.6S56.1,23.7,58,23.7z M58,307.9c2,0,3.6-1.6,3.6-3.6s-1.6-3.6-3.6-3.6c-2,0-3.6,1.6-3.6,3.6
	S56.1,307.9,58,307.9z M77,345.8c2,0,3.6-1.6,3.6-3.6s-1.6-3.6-3.6-3.6c-2,0-3.6,1.6-3.6,3.6S75,345.8,77,345.8z M58,270
	c2,0,3.6-1.6,3.6-3.6c0-2-1.6-3.6-3.6-3.6c-2,0-3.6,1.6-3.6,3.6C54.5,268.4,56.1,270,58,270z M58,288.9c2,0,3.6-1.6,3.6-3.6
	s-1.6-3.6-3.6-3.6c-2,0-3.6,1.6-3.6,3.6S56.1,288.9,58,288.9z M39.1,251.1c2,0,3.6-1.6,3.6-3.6s-1.6-3.6-3.6-3.6
	c-2,0-3.6,1.6-3.6,3.6S37.1,251.1,39.1,251.1z M133.8,42.6c2,0,3.6-1.6,3.6-3.6c0-2-1.6-3.6-3.6-3.6c-2,0-3.6,1.6-3.6,3.6
	C130.3,41,131.9,42.6,133.8,42.6z M152.8,42.6c2,0,3.6-1.6,3.6-3.6c0-2-1.6-3.6-3.6-3.6c-2,0-3.6,1.6-3.6,3.6
	C149.2,41,150.8,42.6,152.8,42.6z M133.8,23.7c2,0,3.6-1.6,3.6-3.6s-1.6-3.6-3.6-3.6c-2,0-3.6,1.6-3.6,3.6S131.9,23.7,133.8,23.7z
	 M171.7,80.5c2,0,3.6-1.6,3.6-3.6c0-2-1.6-3.6-3.6-3.6s-3.6,1.6-3.6,3.6C168.2,78.9,169.7,80.5,171.7,80.5z M190.7,61.6
	c2,0,3.6-1.6,3.6-3.6c0-2-1.6-3.6-3.6-3.6c-2,0-3.6,1.6-3.6,3.6C187.1,60,188.7,61.6,190.7,61.6z M190.7,23.7c2,0,3.6-1.6,3.6-3.6
	s-1.6-3.6-3.6-3.6c-2,0-3.6,1.6-3.6,3.6S188.7,23.7,190.7,23.7z M323.3,232.1c2,0,3.6-1.6,3.6-3.6c0-2-1.6-3.6-3.6-3.6
	c-2,0-3.6,1.6-3.6,3.6C319.7,230.5,321.3,232.1,323.3,232.1z M304.3,251.1c2,0,3.6-1.6,3.6-3.6s-1.6-3.6-3.6-3.6s-3.6,1.6-3.6,3.6
	S302.4,251.1,304.3,251.1z M304.3,270c2,0,3.6-1.6,3.6-3.6c0-2-1.6-3.6-3.6-3.6s-3.6,1.6-3.6,3.6C300.8,268.4,302.4,270,304.3,270z
	 M304.3,288.9c2,0,3.6-1.6,3.6-3.6s-1.6-3.6-3.6-3.6s-3.6,1.6-3.6,3.6S302.4,288.9,304.3,288.9z M20.1,213.2c2,0,3.6-1.6,3.6-3.6
	c0-2-1.6-3.6-3.6-3.6s-3.6,1.6-3.6,3.6C16.6,211.6,18.2,213.2,20.1,213.2z M20.1,232.1c2,0,3.6-1.6,3.6-3.6c0-2-1.6-3.6-3.6-3.6
	s-3.6,1.6-3.6,3.6C16.6,230.5,18.2,232.1,20.1,232.1z M20.1,194.2c2,0,3.6-1.6,3.6-3.6c0-2-1.6-3.6-3.6-3.6s-3.6,1.6-3.6,3.6
	C16.6,192.6,18.2,194.2,20.1,194.2z M39.1,194.2c2,0,3.6-1.6,3.6-3.6c0-2-1.6-3.6-3.6-3.6c-2,0-3.6,1.6-3.6,3.6
	C35.5,192.6,37.1,194.2,39.1,194.2z M20.1,99.5c2,0,3.6-1.6,3.6-3.6c0-2-1.6-3.6-3.6-3.6s-3.6,1.6-3.6,3.6
	C16.6,97.9,18.2,99.5,20.1,99.5z M58,175.3c2,0,3.6-1.6,3.6-3.6s-1.6-3.6-3.6-3.6c-2,0-3.6,1.6-3.6,3.6S56.1,175.3,58,175.3z
	 M77,156.3c2,0,3.6-1.6,3.6-3.6c0-2-1.6-3.6-3.6-3.6c-2,0-3.6,1.6-3.6,3.6C73.4,154.7,75,156.3,77,156.3z"/>
</svg>
