<?xml version="1.0" encoding="utf-8"?>
<!-- Generator: Adobe Illustrator 19.0.0, SVG Export Plug-In . SVG Version: 6.00 Build 0)  -->
<svg version="1.0" id="Layer_1" xmlns="http://www.w3.org/2000/svg" xmlns:xlink="http://www.w3.org/1999/xlink" x="0px" y="0px"
	 viewBox="0 0 360 360" style="enable-background:new 0 0 360 360;" xml:space="preserve">
<style type="text/css">
	.st0{fill:none;}
</style>
<g id="XMLID_1_">
	<g id="XMLID_465_">
		<path id="XMLID_466_" d="M37.9,102.4c0,17.6,14.3,32,31.9,32c0.5,0,0.9-0.2,1-0.3h61.9c0.1,0,0.3,0,0.5,0.1
			c0.3,0.1,0.6,0.1,0.9,0.1c9.8,0,18.6-4,25-10.4l0,0.2c15.1-3.1,27.1-15.2,29.1-29.4c2.1-14.8-6.4-30.1-20.3-36.4
			c-8.7-4-19.1-4.2-28-0.6c-2.5-6-7.3-10.9-13.6-13.8c-7-3.2-15-3.6-22-0.9c-3.8,1.4-7.1,3.8-9.8,6.8c-12.1,0.5-22.5,9-25.3,20.8
			C52,70.7,37.9,84.9,37.9,102.4z M105.2,44.7c6.4-2.5,13.9-2.1,20.4,0.9c6.2,2.8,10.8,7.7,12.9,13.7l0.4,1l1-0.4
			c8.6-3.8,18.8-3.7,27.3,0.2c13.1,6,21.1,20.4,19.2,34.3c-1.8,12.6-11.9,23.3-24.9,27c5-6.1,8.1-13.8,8.1-22.3
			c0-19.4-15.9-35.1-35.3-35.1c-4.6,0-9.1,0.9-13.3,2.6c-3.9-9.7-13.1-16.3-23.4-16.9C99.6,47.5,102.3,45.8,105.2,44.7z M69.8,72.4
			l1.2,0l0.2-0.8c2.4-11.6,12.7-20,24.6-20c10.6,0,20.1,6.7,23.6,16.6l0.4,1l1-0.4c4.3-1.9,8.8-2.8,13.4-2.8
			c18.4,0,33.3,14.8,33.3,33.1s-15,33.1-33.3,33.1c-0.1,0-0.3,0-0.5-0.1c-0.3-0.1-0.6-0.1-0.9-0.1H69.1v0.3
			c-16.1-0.4-29.2-13.7-29.2-29.9C39.9,85.8,53.4,72.4,69.8,72.4z M292.7,265.6c-0.5,0-1.1,0-1.7,0.1c-0.5-13.8-11.9-24.9-25.8-24.9
			c-0.1,0-0.3,0-0.4,0c-4.9-5.4-11.8-8.4-19-8.4c-6.8,0-13.2,2.6-18.1,7.4c-2.3-2.2-5.3-3.4-8.5-3.4c-5.5,0-10.4,3.7-11.9,8.9
			c-0.2,0-0.4,0-0.6,0c-15.4,0-28,12.5-28,27.9c0,15.1,12.1,27.4,27.1,27.9c5.1,5.5,12.3,8.9,20.4,8.9h66.6c12.1,0,22-9.9,22-22.2
			S304.9,265.6,292.7,265.6z M180.7,273.2c0-14.3,11.6-25.9,26-25.9c0.5,0,0.9,0,1.3,0l0.8,0l0.2-0.8c1-4.7,5.3-8.2,10.2-8.2
			c2.9,0,5.8,1.3,7.8,3.5l0.7,0.8l0.7-0.8c4.6-4.8,10.7-7.5,17.3-7.5c6.1,0,12,2.4,16.4,6.6c-5.7,0.7-10.9,3.1-15,7.2
			c-2.3-2.2-5.3-3.4-8.5-3.4c-5.5,0-10.4,3.7-11.9,8.9c-0.2,0-0.4,0-0.6,0c-15.4,0-28,12.6-28,28.1c0,6.4,2.2,12.4,5.8,17.1
			C190.9,297.6,180.7,286.6,180.7,273.2z M292.7,308h-66.6c-14.3,0-26-11.7-26-26.1s11.6-26.1,26-26.1c0.5,0,0.9,0,1.3,0l0.8,0
			l0.2-0.8c1-4.7,5.3-8.2,10.2-8.2c2.9,0,5.8,1.3,7.8,3.5l0.7,0.8l0.7-0.8c4.6-4.8,10.7-7.5,17.3-7.5c13.1,0,23.8,10.7,23.8,23.9
			l0,1.3l1.1-0.1c1-0.1,1.8-0.2,2.5-0.2c11,0,20,9,20,20.2C312.7,298.9,303.8,308,292.7,308z M85.6,284.6h28
			c11.8,0,22.1-8.3,25-20.2c3.6-14.3-4.8-29-18.5-32.7c-6.5-1.8-13.3-0.8-19.2,2.6c-5.9,3.5-10.2,9.1-12.1,15.9h-3.1
			c-9.1,0-16.5,7.7-16.5,17.2C69.1,276.9,76.5,284.6,85.6,284.6z M85.6,252.3h4.7l0.2-0.8c1.6-6.6,5.7-12.1,11.4-15.4
			c5.4-3.2,11.7-4,17.7-2.4c12.7,3.4,20.4,17,17.1,30.3c-2.7,11-12.2,18.6-23.1,18.6h-28c-8,0-14.5-6.8-14.5-15.2
			C71.1,259.1,77.6,252.3,85.6,252.3z M218.3,117.2c0,7.4,5.9,13.3,13.1,13.3h32.8c8.6,0,15.7-7.1,15.7-15.9c0-8-5.9-14.8-13.7-15.7
			c-3.4-6.4-9.9-10.4-17.1-10.4c-9.1,0-17,6.5-19,15.5C223.5,104.7,218.3,110.4,218.3,117.2z M231.5,105.3l0.1-0.4
			c1.6-8.4,9-14.5,17.6-14.5c6.7,0,12.8,3.7,15.9,9.7l0.1,0.3l0.3,0c7.2,0.8,12.7,6.9,12.7,14.2c0,7.9-6.4,14.3-14.2,14.3h-32
			c-6.5,0-11.8-5.3-11.8-11.8c0-6.2,4.8-11.3,10.9-11.7L231.5,105.3z M249.1,174c-8,0-15-6.8-15-15.2c0-6.6,5.5-11.9,12.1-11.9
			c5.2,0,9.4,4.2,9.4,9.3c0,4-3.2,7.3-7.2,7.3c-3.1,0-5.6-2.5-5.6-5.6c0-2.4,1.4-4.3,4.4-4.3v-2c-4,0-6.4,2.8-6.4,6.3
			c0,4.2,3.3,7.6,7.5,7.6c5.1,0,9.3-4.2,9.3-9.3c0-6.3-5.1-11.3-11.4-11.3c-7.7,0-14,6.3-14,13.9c0,9.5,8.1,17.2,17.1,17.2v0h69v-2
			L249.1,174L249.1,174z M262.6,156h-2c0,8,7,15,15.5,15h46v-2h-46C268.7,169,262.6,163,262.6,156z M261.1,181h50v-2h-50
			c-6.2,0-11.3,5-11.3,11h2C251.9,185,256,181,261.1,181z M96.1,291h-40v0c-4,0-8.1-3.7-8.1-8.3c0-3.6,3.1-6.4,6.6-6.4
			c2.7,0,5,2.2,5,5c0,2.1-1.7,3.8-3.8,3.8c-1.6,0-2.8-1.3-2.8-2.8c0-1.1,1.1-2,2.1-2v-2c-2,0-4.1,1.8-4.1,4c0,2.7,2.1,4.8,4.8,4.8
			c3.2,0,5.7-2.6,5.7-5.8c0-3.8-3.2-7-7-7c-4.7,0-8.5,3.8-8.5,8.4c0,5.7,5.1,10.3,10.1,10.3v0h40V291z M107.1,297h-34
			c-6.2,0-11.3,5-11.3,11h2c0-5,4.1-9,9.3-9h34V297z M70.9,229.7h15.7c5.3,0,9.7-4.5,9.7-10c0-5.5-4.3-10.1-9.7-10.1h-1.4
			c-1.1-3.8-3.5-6.9-6.9-8.8c-3.4-2-7.3-2.5-11.1-1.5c-7.9,2.1-12.7,10.6-10.7,18.8C58.1,224.9,64.1,229.7,70.9,229.7z M67.7,201.1
			c1.1-0.3,2.2-0.4,3.2-0.4c2.2,0,4.4,0.6,6.3,1.7c3.1,1.8,5.3,4.8,6.2,8.4l0.2,0.8h3c4.2,0,7.7,3.6,7.7,8.1c0,4.4-3.4,8-7.7,8H70.9
			c-5.9,0-11-4.2-12.5-10.1C56.6,210.4,60.8,203,67.7,201.1z M111,190.6c-2.2,1.3-3.8,3.3-4.6,5.7h-0.7c-3.8,0-6.9,3.1-6.9,6.9
			c0,3.8,3.1,6.9,6.9,6.9h10.5c4.7,0,8.9-3.2,10-7.9c1.4-5.6-1.9-11.3-7.4-12.8C116.1,188.9,113.3,189.2,111,190.6z M124.3,201.8
			c-1,3.7-4.3,6.4-8.1,6.4h-10.5c-2.7,0-4.9-2.2-4.9-4.9s2.2-4.9,4.9-4.9h2.3l0.2-0.8c0.6-2.2,1.9-4.1,3.9-5.2
			c1.9-1.1,4.1-1.4,6.3-0.9C122.7,192.7,125.4,197.3,124.3,201.8z M211.4,49.8h10.5c4.7,0,8.9-3.2,10-7.9c1.4-5.6-1.9-11.3-7.4-12.8
			c-2.7-0.7-5.4-0.3-7.8,1.1c-2.2,1.3-3.8,3.3-4.6,5.7h-0.7c-3.8,0-6.9,3.1-6.9,6.9S207.6,49.8,211.4,49.8z M211.4,38h2.3l0.2-0.8
			c0.6-2.2,1.9-4.1,3.9-5.2c1.9-1.1,4.1-1.4,6.3-0.9c4.5,1.2,7.2,5.8,6,10.3c-1,3.7-4.3,6.4-8.1,6.4h-10.5c-2.7,0-4.9-2.2-4.9-4.9
			C206.5,40.2,208.7,38,211.4,38z M348.8,322c0-3.8-3.1-6.9-6.8-6.9h-0.7c-0.8-2.4-2.4-4.4-4.6-5.7c-2.4-1.4-5.1-1.8-7.8-1.1
			c-5.5,1.4-8.9,7.2-7.4,12.8c1.2,4.6,5.3,7.9,10,7.9H342C345.8,328.9,348.8,325.8,348.8,322z M342,326.9h-10.5
			c-3.8,0-7.1-2.6-8.1-6.4c-1.2-4.5,1.5-9.2,6-10.3c0.7-0.2,1.4-0.3,2.1-0.3c1.5,0,2.9,0.4,4.2,1.1c1.9,1.1,3.3,3,3.9,5.2l0.2,0.8
			h2.3c2.7,0,4.8,2.2,4.8,4.9S344.7,326.9,342,326.9z M202.8,328.2c-2.7,0-4.9,2.2-4.9,5c0,2.3,1.9,4.2,4.1,4.2
			c1.9,0,3.5-1.5,3.5-3.5h-2c0,1-0.7,1.5-1.5,1.5c-1.2,0-2.2-1-2.2-2.2c0-1.6,1.3-3,2.9-3c2.2,0,3.9,1.8,3.9,3.9
			c0,2.9-2.4,5.2-5.2,5.2c-3.7,0-6.8-3-6.8-6.7c0-4.8,4.4-8.7,8.4-8.7h37v-2h-38v0.1c-4.7,0.6-9.4,5.1-9.4,10.6
			c0,4.8,4.1,8.7,8.9,8.7c3.9,0,7.1-3.2,7.1-7.2C208.7,330.9,206.1,328.2,202.8,328.2z M227.9,339h2c0-5,4.1-9,9.3-9h50v-2h-50
			C232.9,328,227.9,333,227.9,339z M183.6,194.3c-2.8-2.8-6.4-4.4-9.8-4.3c-2.7,0-5.1,1-7.2,2.9c-2.1-1.9-4.7-2.9-7.5-2.9h-0.1
			c-3.5,0-7.1,1.6-9.9,4.4l1.4,1.4c2.4-2.4,5.5-3.8,8.4-3.8h0.1c2.5,0,4.9,1.1,6.8,3l0.7,0.7l0.7-0.8c1.8-1.9,4-2.9,6.5-3
			c2.9-0.1,5.9,1.3,8.4,3.7L183.6,194.3z M100.7,338.9c-2.1-1.9-4.7-2.9-7.5-2.9c-3.5,0-7.1,1.6-10,4.4l1.4,1.4
			c2.4-2.4,5.5-3.8,8.4-3.8h0.1c2.5,0,4.9,1.1,6.8,3l0.7,0.7l0.7-0.8c1.8-1.9,4-2.9,6.5-3c2.9,0,5.9,1.3,8.4,3.7l1.4-1.4
			c-2.8-2.8-6.4-4.4-9.8-4.3C105.2,336,102.7,337,100.7,338.9z M184.7,209.8c2.4-2.4,5.5-3.8,8.4-3.8h0.1c2.5,0,4.9,1.1,6.8,3
			l0.7,0.7l0.7-0.8c1.8-1.9,4-2.9,6.5-3c0,0,0.1,0,0.1,0c2.8,0,5.8,1.4,8.2,3.7l1.4-1.4c-2.8-2.8-6.4-4.4-9.8-4.3
			c-2.7,0-5.1,1-7.2,2.9c-2.1-1.9-4.7-2.9-7.5-2.9h-0.1c-3.5,0-7.1,1.6-9.9,4.4L184.7,209.8z M133.7,324.9c-2.1-1.9-4.7-2.9-7.5-2.9
			h-0.1c-3.5,0-7.1,1.6-9.9,4.4l1.4,1.4c2.4-2.4,5.5-3.8,8.4-3.8h0.1c2.5,0,4.9,1.1,6.8,3l0.7,0.7l0.7-0.8c1.8-1.9,4-2.9,6.5-3
			c2.9,0,5.9,1.3,8.4,3.7l1.4-1.4c-2.8-2.8-6.4-4.4-9.8-4.3C138.2,322,135.7,323,133.7,324.9z M38.3,213.1c0-9.7-7.1-17.9-16.5-19.2
			c-4.2-7.7-12-12.4-20.7-12.4c-11,0-20.6,7.8-23,18.6c-8,1-14.2,7.9-14.2,16.1c0,9,7.2,16.3,16.1,16.3h39.2
			C29.7,232.5,38.3,223.8,38.3,213.1z M-34.1,216.2c0-7.4,5.8-13.7,13.1-14.2l0.8-0.1l0.1-0.8c2-10.2,10.9-17.7,21.2-17.7
			c8.1,0,15.4,4.5,19.2,11.8l0.2,0.5l0.5,0.1c8.7,0.9,15.3,8.4,15.3,17.3c0,9.6-7.7,17.4-17.1,17.4H-20
			C-27.8,230.5-34.1,224.1-34.1,216.2z M381.8,193.9c-4.2-7.7-12-12.4-20.7-12.4c-11,0-20.6,7.8-23,18.6c-8,1-14.2,7.9-14.2,16.1
			c0,9,7.2,16.3,16.1,16.3h39.2c10.5,0,19.1-8.7,19.1-19.4C398.3,203.4,391.3,195.2,381.8,193.9z M379.2,230.5H340
			c-7.8,0-14.1-6.4-14.1-14.3c0-7.4,5.8-13.7,13.1-14.2l0.8-0.1l0.1-0.8c2-10.2,10.9-17.7,21.2-17.7c8.1,0,15.4,4.5,19.2,11.8
			l0.2,0.5l0.5,0.1c8.7,0.9,15.3,8.4,15.3,17.3C396.3,222.7,388.6,230.5,379.2,230.5z M46.8,142.9c0.1,0,0.2,0.1,0.3,0.1h86
			c1.3,0,1.3-2,0-2h-85c-7.4,0-13.5-6-13.5-13h-2C32.6,135.5,38.8,142.2,46.8,142.9z M1.1,16h1L33,16.2c9.9,0,17.9-8,17.9-17.8
			c0-9.8-8-17.8-17.9-17.8c-2.2,0-4.3,0.4-6.3,1.1c-2.2-5-7.2-8.3-12.7-8.3c-6.3,0-11.8,4.2-13.4,10.2C-8-15.9-14.9-8.9-14.9-0.1
			C-14.9,8.9-7.7,16,1.1,16z M1.3-14L1.3-14l1,0L2.5-15c1.1-5.5,6-9.5,11.6-9.5c5,0,9.5,3.2,11.2,7.9l0.4,1l1-0.4
			c2-0.9,4.2-1.4,6.4-1.4c8.8,0,15.9,7.1,15.9,15.8C49,7,42,14,33.4,14.2L0.1,14.3c-7.3-0.5-13-6.7-13-14.2C-12.9-7.7-6.5-14,1.3-14
			z M32.2,341.7c-2.2,0-4.3,0.4-6.3,1.1c-2.2-5-7.2-8.3-12.7-8.3c-6.3,0-11.8,4.2-13.4,10.2c-8.7,0.3-15.6,7.4-15.6,16.1
			c0,9.1,7,16,16,16h31.3c0.2,0.1,0.4,0.3,0.7,0.3c9.9,0,17.9-8,17.9-17.7S42.1,341.7,32.2,341.7z M32.5,375.2
			c-0.2-0.1-0.4-0.3-0.7-0.3H-0.9v0.4c-7.3-0.6-12.9-6.6-12.9-14.2c0-7.9,6.4-14.2,14.3-14.2h0l1,0l0.2-0.8c1.1-5.5,6-9.5,11.6-9.5
			c5,0,9.5,3.2,11.2,7.9l0.4,1l1-0.4c2-0.9,4.2-1.4,6.4-1.4c8.8,0,15.9,7.1,15.9,15.7C48.1,368,41.1,375,32.5,375.2z M294.2,24.9
			c2.5,0,4.9,1.1,6.8,3l0.7,0.8l0.7-0.8c1.8-1.9,4-2.9,6.5-3c2.9-0.1,5.9,1.3,8.4,3.7l1.4-1.4c-2.8-2.8-6.4-4.4-9.8-4.3
			c-2.7,0-5.1,1-7.2,2.9c-2.1-1.9-4.7-2.9-7.5-2.9c-3.5-0.1-7.1,1.6-10,4.4l1.4,1.4C288.1,26.3,291.2,24.9,294.2,24.9z M319.7,42.8
			c2.4-2.4,5.5-3.8,8.4-3.8h0.1c2.5,0,4.9,1.1,6.8,3l0.7,0.7l0.7-0.8c1.8-1.9,4-2.9,6.5-3c2.9-0.1,5.9,1.3,8.4,3.7l1.4-1.4
			c-2.8-2.8-6.4-4.4-9.8-4.3c-2.7,0-5.1,1-7.2,2.9c-2.1-1.9-4.7-2.9-7.5-2.9c-3.5,0-7.1,1.6-10,4.4L319.7,42.8z M361,16.4l1.1,0V16
			h30c0.2,0.1,0.4,0.2,0.7,0.2c9.9,0,17.9-8,17.9-17.8c0-9.8-8-17.8-17.9-17.8c-2.2,0-4.3,0.4-6.3,1.1c-2.2-5-7.2-8.2-12.7-8.2
			c-6.3,0-11.8,4.3-13.4,10.3c-8.7,0.3-15.6,7.5-15.6,16.3C344.8,9.1,352.1,16.4,361,16.4z M361.1-14L361.1-14l1,0l0.2-0.9
			c1.1-5.5,6-9.5,11.6-9.5c5,0,9.5,3.2,11.2,7.9l0.4,1l1-0.4c2-0.9,4.2-1.4,6.4-1.4c8.8,0,15.9,7.1,15.9,15.8
			c0,8.6-7,15.6-15.6,15.8c-0.2-0.1-0.4-0.2-0.7-0.2l-32.3,0.4c-7.4-0.5-13.3-6.6-13.3-14.2C346.8-7.7,353.2-14,361.1-14z M39.9,44
			c2.9,0,5.9,1.3,8.4,3.7l1.4-1.4c-2.8-2.8-6.4-4.4-9.8-4.3c-2.7,0-5.1,1-7.2,2.9C30.5,43,28,42,25.2,41.9c-3.5,0-7.1,1.6-10,4.4
			l1.4,1.4c2.4-2.4,5.5-3.8,8.4-3.8h0.1c2.5,0,4.9,1.1,6.8,3l0.7,0.7l0.7-0.8C35.2,45,37.4,44,39.9,44z M296.1,100.6h32.6
			c7.2,0,13.1-6,13.1-13.3c0-6.8-5.1-12.5-11.7-13.2c-1.9-9-9.8-15.5-18.9-15.5c-7.1,0-13.6,4-17,10.4c-7.8,1-13.6,7.7-13.6,15.7
			C280.5,93.4,287.5,100.6,296.1,100.6z M294.9,70.5l0.3,0l0.1-0.3c3.1-6,9.1-9.7,15.8-9.7c8.5,0,15.8,6.1,17.5,14.5l0.1,0.4l0.4,0
			c6.1,0.4,10.9,5.6,10.9,11.7c0,6.5-5.2,11.8-11.7,11.8h-31.8c-7.8,0-14.1-6.4-14.1-14.3C282.3,77.4,287.7,71.2,294.9,70.5z
			 M392.1,342.8c-2.2,0-4.3,0.4-6.3,1.1c-2.2-5-7.2-8.3-12.7-8.3c-6.3,0-11.8,4.2-13.4,10.2c-8.7,0.3-15.6,7.4-15.6,16.1
			c0,9.1,7,16,16,16h31.3c0.2,0.1,0.4,0.3,0.7,0.3c9.9,0,17.9-8,17.9-17.7S402,342.8,392.1,342.8z M392.4,376.3
			c-0.2-0.1-0.4-0.3-0.7-0.3H359v0.4c-7.3-0.6-12.9-6.6-12.9-14.2c0-7.9,6.4-14.2,14.3-14.2h0l1,0l0.2-0.8c1.1-5.5,6-9.5,11.6-9.5
			c5,0,9.5,3.2,11.2,7.9l0.4,1l1-0.4c2-0.9,4.2-1.4,6.4-1.4c8.8,0,15.9,7.1,15.9,15.7C408,369.1,401,376.1,392.4,376.3z"/>
	</g>
</g>
<line id="XMLID_75_" class="st0" x1="355" y1="12" x2="357" y2="380"/>
<line id="XMLID_76_" class="st0" x1="50" y1="360" x2="51" y2="-6"/>
</svg>
