<?xml version="1.0" encoding="utf-8"?>
<!-- Generator: Adobe Illustrator 19.0.0, SVG Export Plug-In . SVG Version: 6.00 Build 0)  -->
<svg version="1.0" id="Layer_1" xmlns="http://www.w3.org/2000/svg" xmlns:xlink="http://www.w3.org/1999/xlink" x="0px" y="0px"
	 viewBox="0 0 360 360" style="enable-background:new 0 0 360 360;" xml:space="preserve">
<g id="XMLID_1_">
	<g id="XMLID_375_">
		<path id="XMLID_376_" d="M341.5,246.5c1.9,1.3,4.1,2,6.5,2c6,0,10.9-4.6,11.4-10.5h1.6v-2h-1.6c-0.5-5.9-5.4-10.5-11.4-10.5
			c-6.3,0-11.5,5.2-11.5,11.5c0,3.2,1.3,6.1,3.4,8.2l-31.7,31.7c-1.2-0.7-2.6-1.2-4.1-1.2c-4.3,0-7.8,3.5-7.8,7.8
			c0,1.9,0.7,3.6,1.8,4.9l-5.5,5.5c-1.3-0.9-2.9-1.4-4.6-1.4c-1.8,0-3.4,0.6-4.7,1.5l-19.5-19.5c4.8-4.3,7.9-10.5,7.9-17.5
			c0-5.9-2.2-11.3-5.8-15.4l32.3-32.3c2.8,2.9,6.8,4.6,11.1,4.6c8.4,0,15.3-6.7,15.6-15h35v-2h-35.1c-0.7-8-7.4-14.3-15.6-14.3
			c-8.6,0-15.7,7-15.7,15.7c0,3.6,1.2,6.9,3.2,9.5l-32.4,32.4c-4.2-4-9.9-6.5-16.2-6.5c-6.1,0-11.7,2.4-15.9,6.3l-60-60
			c3.7-4,6-9.2,6.2-15h50.1c0.4,8.3,7.2,15,15.6,15c8.6,0,15.7-7,15.7-15.7c0-3.1-0.9-6-2.5-8.4l19.9-19.9c1.5,1.3,3.4,2.1,5.5,2.1
			c4.2,0,7.6-3.1,8.2-7.1h15.5c0.6,4,4.1,7.1,8.2,7.1c1.4,0,2.8-0.4,4-1l23.2,23.2c-1.1,1.4-1.7,3.2-1.7,5.1c0,4.8,3.9,8.6,8.6,8.6
			c4.5,0,8.3-3.5,8.6-8h2.4v-2h-2.5c-0.7-4.1-4.2-7.3-8.5-7.3c-2.1,0-4,0.8-5.6,2l-22.9-22.9c1.7-1.5,2.7-3.7,2.7-6.1
			c0-4.6-3.7-8.3-8.3-8.3c-4.3,0-7.9,3.3-8.3,7.6h-15.4c-0.4-4.2-4-7.6-8.3-7.6c-4.6,0-8.3,3.7-8.3,8.3c0,1.8,0.6,3.4,1.5,4.7
			l-19.8,19.8c-2.9-3.4-7.2-5.6-12-5.6c-0.1,0-0.2,0-0.3,0v-46c16,0,29.1-12.8,29.6-28.7h46.7c0.5,6.5,6,11.7,12.6,11.7
			s12.1-5.1,12.6-11.7H360v-2h-14.4c-0.5-6.5-6-11.7-12.6-11.7c-3.1,0-6,1.2-8.2,3.1l-29.3-29.1c0.7-1.3,1.1-2.7,1.1-4.2
			c0-4.5-3.3-8.1-7.5-8.9V0h-2v21c-4.7,0.3-8.5,4.2-8.5,9c0,2,0.7,3.8,1.8,5.3l-16,16c-5.1-4.7-11.8-7.7-19.2-8V-2h-2v45.4
			c-15.6,0.5-28.1,13.1-28.6,28.6h-33.4c-0.5-7.6-6.4-13.7-13.9-14.4V0h-2v57.5c-8.3,0.3-15,7.1-15,15.5c0,8.5,7,15.5,15.5,15.5
			c8.2,0,14.9-6.4,15.4-14.5h33.4c0.5,15.2,12.5,27.6,27.6,28.6v46.3c-7.1,1.1-12.7,6.9-13.3,14.1h-50.1c-0.3-6.8-3.6-12.9-8.5-16.9
			l16.1-16.1c2,1.9,4.7,3.1,7.7,3.1c6.3,0,11.4-5.1,11.4-11.4s-5.1-11.4-11.4-11.4s-11.4,5.1-11.4,11.4c0,2.6,0.9,4.9,2.3,6.8
			l-16.4,16.4c-3.8-2.6-8.3-4.1-13.2-4.1c-5.6,0-10.8,2-14.8,5.3L81.8,87.3c3-3.9,4.9-8.9,4.9-14.2c0-6.4-2.6-12.2-6.8-16.4l28-28
			c2.2,1.9,5,3,8.1,3c7,0,12.7-5.7,12.7-12.7S123,6.3,116,6.3c-6.6,0-12.1,5.1-12.6,11.7H28.5c0-3.1-1.2-5.9-3.1-8L36.1-0.7
			l-1.4-1.4L24,8.6c-2.1-1.7-4.7-2.7-7.6-2.7C9.7,5.9,4.3,11.3,4.3,18s5.4,12.1,12.1,12.1c6,0,11-4.4,11.9-10.1h75.1
			c0.2,2.8,1.3,5.3,3.1,7.3l-28,28c-4.1-3.5-9.4-5.6-15.1-5.6C50.8,49.7,40.5,59.6,40,72H0v2h40c0.5,12.5,10.8,22.4,23.3,22.4
			c6.8,0,12.9-2.9,17.2-7.6l58.5,58.5c-4.4,4.2-7.1,10.2-7.1,16.7c0,6.5,2.7,12.5,7.1,16.7l-42.1,42.1c-2.8-2.6-6.5-4.2-10.6-4.2
			c-3.5,0-6.7,1.2-9.3,3.1L63.3,208c2.1-2.8,3.3-6.3,3.3-10c0-4.3-1.6-8.2-4.3-11.2l9.3-9.3c3.2,2.8,7.4,4.4,12,4.4
			c10.2,0,18.4-8.3,18.4-18.4s-8.3-18.4-18.4-18.4c-4.5,0-8.6,1.6-11.8,4.3l-19.5-19.5c1.1-1.5,1.7-3.3,1.7-5.2c0-4.9-4-9-9-9
			c-2.2,0-4.3,0.8-5.9,2.2l-6-6c2.1-2.7,3.4-6.2,3.4-9.9c0-9-7.3-16.3-16.3-16.3S4,93,4,102s7.3,16.3,16.3,16.3
			c4.5,0,8.6-1.8,11.5-4.8l5.9,5.9c-1.1,1.5-1.7,3.3-1.7,5.3c0,4.3,3,7.9,7,8.8v23.9c-3.6,0.4-6.5,3.2-7.1,6.7H0v2h35.8
			c0.3,4.3,3.8,7.8,8.2,7.8c4.5,0,8.3-3.7,8.3-8.3c0-4.2-3.2-7.7-7.3-8.2v-23.7c2.2,0,4.3-0.9,5.8-2.2l19.4,19.4
			c-3.2,3.3-5.2,7.8-5.2,12.8c0,4.9,1.9,9.3,5,12.6l-9.2,9.2c-3-2.6-6.9-4.3-11.2-4.3c-8.9,0-16.3,7-16.8,15.8H0v2h33
			c0.5,8.8,7.8,15.8,16.8,15.8c4.8,0,9.1-2,12.2-5.3l13.5,13.5c-3,2.9-4.8,6.8-4.8,11.3c0,0.2,0,0.4,0,0.7H-4v2h74.9
			c0.4,2.5,1.5,4.8,2.9,6.7l-31.1,31.1c-2.2-2.1-5.1-3.3-8.3-3.3c-6.1,0-11.2,4.6-11.9,10.5H0v2h22.5c0.3,6.4,5.5,11.5,12,11.5
			c6.6,0,12-5.4,12-12c0-2.7-0.9-5.2-2.4-7.2l31-31c2.3,2.4,5.4,4,8.9,4.5v44.1c-7.5,1.1-13.3,7.6-13.3,15.5c0,3.5,1.2,6.7,3.1,9.4
			l-47.7,47.7l1.4,1.4l47.6-47.6c2.8,2.9,6.8,4.8,11.2,4.8c8.6,0,15.7-7,15.7-15.7s-7-15.7-15.7-15.7c-0.1,0-0.2,0-0.3,0V250
			c0.1,0,0.2,0,0.3,0c7.7,0,14.2-5.6,15.4-13h41.8c0.2,5.9,4.7,10.7,10.5,11.4v22.3c-4.4,0.5-7.8,4.2-7.8,8.8c0,4.9,4,8.8,8.8,8.8
			s8.8-4,8.8-8.8c0-4.5-3.4-8.3-7.8-8.8v-22.2c6.4-0.3,11.5-5.5,11.5-12c0-6.6-5.4-12-12-12c-6.1,0-11.2,4.6-11.9,10.5H102
			c0-0.2,0-0.4,0-0.7c0-3.8-1.4-7.3-3.7-10l42.2-42.2c4,3.3,9.2,5.3,14.8,5.3c6,0,11.5-2.3,15.7-6.1l60,60
			c-3.8,4.1-6.1,9.6-6.1,15.7c0,6.2,2.4,11.8,6.3,16l-55,55c-2.7-2.5-6.3-4-10.3-4c-8.5,0-15.3,6.9-15.3,15.3
			c0,8.1,6.3,14.8,14.3,15.3v5.4h2v-5.4c8-0.5,14.3-7.2,14.3-15.3c0-3.8-1.4-7.2-3.6-9.9l55-55c4.1,3.7,9.6,6,15.6,6
			c5.2,0,10-1.7,13.9-4.6l19.5,19.5c-1.3,1.5-2.1,3.4-2.1,5.5c0,2,0.7,3.8,1.8,5.2l-30.3,30.3c-2.1-1.8-4.8-2.8-7.8-2.8
			c-6.7,0-12.1,5.4-12.1,12.1c0,6.5,5.2,11.8,11.6,12.1v2.3h2v-2.4c5.9-0.8,10.6-5.8,10.6-12c0-3-1.1-5.7-2.9-7.8l30.3-30.3
			c1.2,0.9,2.5,1.5,4.1,1.7v15.5c-4.1,0.5-7.3,4-7.3,8.3s3.2,7.8,7.3,8.3V360h2v-18.9c4.1-0.5,7.3-4,7.3-8.3s-3.2-7.8-7.3-8.3v-15.5
			c4.1-0.5,7.3-4,7.3-8.3c0-2.2-0.8-4.1-2.2-5.6l5.5-5.5c1.3,0.9,2.8,1.5,4.5,1.5c1.7,0,3.3-0.6,4.5-1.5l30.3,30.3
			c-2.8,3.3-2.7,8.2,0.4,11.3c1.6,1.6,3.8,2.4,5.9,2.4c2.1,0,4.3-0.8,5.9-2.4c3.2-3.2,3.2-8.5,0-11.8c-1.6-1.6-3.7-2.4-5.9-2.4
			c-1.8,0-3.4,0.6-4.9,1.6l-30.3-30.3c1-1.2,1.6-2.7,1.7-4.4H360v-2h-48.3c-0.3-1.5-1-2.8-2-3.8L341.5,246.5z M338.5,237
			c0-5.2,4.3-9.5,9.5-9.5s9.5,4.3,9.5,9.5s-4.3,9.5-9.5,9.5S338.5,242.2,338.5,237z M295.7,198.3c0-7.5,6.1-13.7,13.7-13.7
			c7.5,0,13.7,6.1,13.7,13.7c0,7.5-6.1,13.7-13.7,13.7c-3.8,0-7.2-1.6-9.7-4.1l0.4-0.4l-1.4-1.4l-0.3,0.3
			C296.7,204.1,295.7,201.4,295.7,198.3z M349,158.8c3.7,0,6.6,3,6.6,6.6s-3,6.6-6.6,6.6s-6.6-3-6.6-6.6S345.3,158.8,349,158.8z
			 M314.9,123.4c3.5,0,6.3,2.8,6.3,6.3s-2.8,6.3-6.3,6.3s-6.3-2.8-6.3-6.3S311.4,123.4,314.9,123.4z M282.9,123.4
			c3.5,0,6.3,2.8,6.3,6.3s-2.8,6.3-6.3,6.3s-6.3-2.8-6.3-6.3S279.4,123.4,282.9,123.4z M343.7,73c0,5.9-4.8,10.7-10.7,10.7
			s-10.7-4.8-10.7-10.7s4.8-10.7,10.7-10.7S343.7,67.1,343.7,73z M323.4,64.8c-1.7,2-2.8,4.5-3,7.2h-46.7c-0.2-7.4-3.2-14.2-8-19.2
			l16-16c1.6,1.4,3.6,2.2,5.9,2.2c2.7,0,5.1-1.2,6.8-3.1L323.4,64.8z M287.5,23c3.9,0,7,3.1,7,7s-3.1,7-7,7s-7-3.1-7-7
			S283.6,23,287.5,23z M165.5,86.5c-7.4,0-13.5-6.1-13.5-13.5s6.1-13.5,13.5-13.5S179,65.6,179,73S172.9,86.5,165.5,86.5z M216.3,73
			c0-15.3,12.4-27.7,27.7-27.7s27.7,12.4,27.7,27.7s-12.4,27.7-27.7,27.7S216.3,88.3,216.3,73z M194,112.3c5.2,0,9.4,4.2,9.4,9.4
			s-4.2,9.4-9.4,9.4s-9.4-4.2-9.4-9.4S188.8,112.3,194,112.3z M16.4,28.1c-5.6,0-10.1-4.5-10.1-10.1S10.8,7.9,16.4,7.9
			S26.5,12.4,26.5,18S22,28.1,16.4,28.1z M116,8.3c5.9,0,10.7,4.8,10.7,10.7s-4.8,10.7-10.7,10.7s-10.7-4.8-10.7-10.7
			S110.1,8.3,116,8.3z M63.3,94.4C51.5,94.4,42,84.9,42,73.1c0-11.8,9.6-21.4,21.4-21.4c11.8,0,21.4,9.6,21.4,21.4
			C84.7,84.9,75.1,94.4,63.3,94.4z M20.3,116.3C12.4,116.3,6,109.9,6,102s6.4-14.3,14.3-14.3s14.3,6.4,14.3,14.3
			S28.1,116.3,20.3,116.3z M50.3,165.5c0,3.4-2.8,6.3-6.3,6.3s-6.3-2.8-6.3-6.3s2.8-6.3,6.3-6.3S50.3,162.1,50.3,165.5z M44.9,131.6
			c-3.8,0-7-3.1-7-7s3.1-7,7-7c3.8,0,7,3.1,7,7S48.8,131.6,44.9,131.6z M83.6,147.1c9.1,0,16.4,7.4,16.4,16.4S92.6,180,83.6,180
			s-16.4-7.4-16.4-16.4S74.5,147.1,83.6,147.1z M49.8,212.8c-8.2,0-14.8-6.7-14.8-14.8s6.7-14.8,14.8-14.8s14.8,6.7,14.8,14.8
			S57.9,212.8,49.8,212.8z M34.5,293.5c-5.5,0-10-4.5-10-10s4.5-10,10-10s10,4.5,10,10S40,293.5,34.5,293.5z M100,309.3
			c0,7.5-6.1,13.7-13.7,13.7c-7.5,0-13.7-6.1-13.7-13.7c0-7.5,6.1-13.7,13.7-13.7C93.9,295.7,100,301.8,100,309.3z M161.8,279.4
			c0,3.8-3.1,6.8-6.8,6.8s-6.8-3.1-6.8-6.8c0-3.8,3.1-6.8,6.8-6.8S161.8,275.7,161.8,279.4z M155.5,226.5c5.5,0,10,4.5,10,10
			s-4.5,10-10,10s-10-4.5-10-10S150,226.5,155.5,226.5z M86.3,248c-7.5,0-13.7-6.1-13.7-13.7c0-7.5,6.1-13.7,13.7-13.7
			c7.5,0,13.7,6.1,13.7,13.7C100,241.9,93.9,248,86.3,248z M244.3,150.7c7.5,0,13.7,6.1,13.7,13.7c0,7.5-6.1,13.7-13.7,13.7
			c-7.5,0-13.7-6.1-13.7-13.7C230.7,156.8,236.8,150.7,244.3,150.7z M141.9,180.7l-1.4-1.4l-0.1,0.1c-4-3.9-6.5-9.3-6.5-15.3
			c0-6,2.5-11.4,6.5-15.3l0.1,0.1l1.3-1.3c3.7-3,8.4-4.8,13.5-4.8c11.8,0,21.4,9.6,21.4,21.4s-9.6,21.4-21.4,21.4
			C150.2,185.4,145.5,183.6,141.9,180.7z M166,352.7c-7.4,0-13.3-6-13.3-13.3c0-7.4,6-13.3,13.3-13.3s13.3,6,13.3,13.3
			C179.3,346.7,173.4,352.7,166,352.7z M227,257.1c0-11.8,9.6-21.4,21.4-21.4c11.8,0,21.4,9.6,21.4,21.4c0,11.8-9.6,21.4-21.4,21.4
			C236.5,278.4,227,268.9,227,257.1z M243.5,355.7c-5.6,0-10.1-4.5-10.1-10.1c0-5.6,4.5-10.1,10.1-10.1c5.6,0,10.1,4.5,10.1,10.1
			C253.6,351.2,249,355.7,243.5,355.7z M294.3,332.9c0,3.5-2.8,6.3-6.3,6.3s-6.3-2.8-6.3-6.3s2.8-6.3,6.3-6.3
			S294.3,329.4,294.3,332.9z M288,307.2c-3.5,0-6.3-2.8-6.3-6.3s2.8-6.3,6.3-6.3s6.3,2.8,6.3,6.3S291.5,307.2,288,307.2z M349.7,321
			c2.5,2.5,2.5,6.5,0,9c-2.5,2.5-6.5,2.5-9,0c-2.5-2.5-2.5-6.5,0-9c1.2-1.2,2.8-1.9,4.5-1.9C347,319.1,348.5,319.8,349.7,321z
			 M304.1,289.3c-3.2,0-5.8-2.6-5.8-5.8s2.6-5.8,5.8-5.8s5.8,2.6,5.8,5.8S307.3,289.3,304.1,289.3z"/>
	</g>
</g>
</svg>
