<svg xmlns="http://www.w3.org/2000/svg" viewBox="0 0 744 744" width="5744" height="5744"><path d="M44.8 11.5c-1.6 3.4-5 5.5-8.8 5.5-3.8 0-7.2-2.1-8.8-5.5m-2.2 0c1.7 4.4 6 7.5 11 7.5s9.3-3.1 11-7.5" fill="#3fa9f5" fill-opacity=".024722"/><path d="M68.8 11.5c-1.6 3.4-5 5.5-8.8 5.5-3.8 0-7.2-2.1-8.8-5.5m-2.2 0c1.7 4.4 6 7.5 11 7.5s9.3-3.1 11-7.5" fill="#3fa9f5" fill-opacity=".098888"/><path d="M92.8 11.5c-1.6 3.4-5 5.5-8.8 5.5-3.8 0-7.2-2.1-8.8-5.5m-2.2 0c1.7 4.4 6 7.5 11 7.5s9.3-3.1 11-7.5" fill="#3fa9f5" fill-opacity=".222499"/><path d="M116.8 11.5c-1.6 3.4-5 5.5-8.8 5.5-3.8 0-7.2-2.1-8.8-5.5m-2.2 0c1.7 4.4 6 7.5 11 7.5s9.3-3.1 11-7.5" fill="#3fa9f5" fill-opacity=".395554"/><path d="M140.8 11.5c-1.6 3.4-5 5.5-8.8 5.5-3.8 0-7.2-2.1-8.8-5.5m-2.2 0c1.7 4.4 6 7.5 11 7.5s9.3-3.1 11-7.5" fill="#3fa9f5" fill-opacity=".618053"/><path d="M164.8 11.5c-1.6 3.4-5 5.5-8.8 5.5-3.8 0-7.2-2.1-8.8-5.5m-2.2 0c1.7 4.4 6 7.5 11 7.5s9.3-3.1 11-7.5" fill="#3fa9f5" fill-opacity=".889996"/><path d="M188.786 11.491c.006 0 .011.004.014.009-1.6 3.4-5 5.5-8.8 5.5-3.8 0-7.2-2.1-8.8-5.5.003-.005.008-.009.014-.009m-2.196-.003c1.675 4.357 5.906 7.443 10.843 7.499.043.008.091.013.139.013.094 0 .187-.006.274-.015 4.88-.111 9.048-3.18 10.708-7.497M180 11.496c.002 0 .004.002.004.004s-.002.004-.004.004-.004-.002-.004-.004.002-.004.004-.004m0-.003c-.004 0-.007.003-.007.007s.003.007.007.007.007-.003.007-.007-.003-.007-.007-.007M212.698 11.436c.044 0 .083.025.102.064-1.6 3.4-5 5.5-8.8 5.5-3.8 0-7.2-2.1-8.8-5.5.019-.039.058-.064.102-.064m-2.174-.023c1.608 4.313 5.754 7.4 10.625 7.499.059.052.15.088.247.088.143 0 .277-.037.382-.09 4.813-.154 8.897-3.223 10.49-7.497M204 11.471c.016 0 .029.013.029.029s-.013.029-.029.029-.029-.013-.029-.029.013-.029.029-.029m0-.023c-.029 0-.052.023-.052.052 0 .029.023.052.052.052.029 0 .052-.023.052-.052 0-.029-.023-.052-.052-.052M236.508 11.318c.126 0 .238.07.293.182C235.199 14.899 231.8 17 228 17s-7.199-2.101-8.801-5.5c.055-.112.167-.182.293-.182m-2.127-.067c1.464 4.219 5.427 7.306 10.153 7.499.096.147.277.25.482.25.249 0 .474-.104.613-.252 4.671-.246 8.572-3.316 10.022-7.497M228 11.417c.046 0 .083.037.083.083 0 .046-.037.083-.083.083-.046 0-.083-.037-.083-.083 0-.046.037-.083.083-.083m0-.066c-.082 0-.149.067-.149.149 0 .082.067.149.149.149.082 0 .149-.067.149-.149 0-.082-.067-.149-.149-.149M260.182 11.114c.266 0 .504.149.619.386-1.603 3.398-5.002 5.5-8.801 5.5-3.799 0-7.198-2.102-8.801-5.5.115-.237.353-.386.619-.386m-2.045-.141c1.216 4.058 4.863 7.145 9.342 7.499.159.31.497.528.885.528.431 0 .811-.219 1.012-.53 4.425-.405 8.013-3.477 9.215-7.497M252 11.324c.097 0 .176.079.176.176 0 .097-.079.176-.176.176-.097 0-.176-.079-.176-.176 0-.097.079-.176.176-.176m0-.14c-.174 0-.316.142-.316.316 0 .174.142.316.316.316.174 0 .316-.142.316-.316 0-.174-.142-.316-.316-.316M283.676 10.797c.484 0 .916.273 1.127.703-1.607 3.396-5.004 5.5-8.803 5.5-3.799 0-7.196-2.104-8.803-5.5.211-.43.643-.703 1.127-.703m-1.919-.255c.832 3.807 3.989 6.896 8.084 7.499.256.562.837.959 1.511.959.714 0 1.334-.398 1.629-.961 4.045-.651 7.147-3.725 7.966-7.497m-9.595.639c.176 0 .319.143.319.319 0 .176-.143.319-.319.319-.176 0-.319-.143-.319-.319 0-.176.143-.319.319-.319m0-.256c-.317 0-.575.258-.575.575 0 .317.258.575.575.575.317 0 .575-.258.575-.575 0-.317-.258-.575-.575-.575M306.951 10.345c.797 0 1.507.447 1.853 1.155-1.61 3.394-5.006 5.5-8.804 5.5s-7.194-2.106-8.804-5.5c.346-.708 1.056-1.155 1.853-1.155m-1.738-.42c.281 3.447 2.738 6.538 6.283 7.499.395.923 1.324 1.576 2.406 1.576 1.118 0 2.083-.654 2.514-1.578 3.499-1.004 5.906-4.082 6.175-7.497M300 10.975c.29 0 .525.235.525.525 0 .29-.235.525-.525.525-.29 0-.525-.235-.525-.525 0-.29.235-.525.525-.525m0-.42c-.521 0-.945.424-.945.945 0 .521.424.945.945.945.521 0 .945-.424.945-.945 0-.521-.424-.945-.945-.945M330.024 9.765c1.196 0 2.262.672 2.782 1.735-1.615 3.391-5.009 5.5-8.806 5.5-3.797 0-7.191-2.109-8.806-5.5.52-1.063 1.586-1.735 2.782-1.735m-1.506-.631c-.423 2.988 1.136 6.081 3.978 7.5C321.021 18.019 322.396 19 324 19c1.636 0 3.042-.982 3.646-2.368 2.801-1.456 4.318-4.537 3.884-7.498M324 10.711c.435 0 .789.354.789.789 0 .435-.354.789-.789.789-.435 0-.789-.354-.789-.789 0-.435.354-.789.789-.789m0-.63c-.782 0-1.419.637-1.419 1.419s.637 1.419 1.419 1.419 1.419-.637 1.419-1.419-.637-1.419-1.419-1.419M353.013 9.133c1.631 0 3.086.917 3.796 2.367-1.622 3.387-5.013 5.5-8.809 5.5-3.796 0-7.187-2.113-8.809-5.5.71-1.45 2.165-2.367 3.796-2.367m-1.254-.86c-1.191 2.486-.61 5.582 1.465 7.499.767 1.89 2.628 3.228 4.802 3.228 2.201 0 4.087-1.339 4.88-3.229 2.041-1.948 2.586-5.035 1.387-7.498M348 10.424c.594 0 1.076.482 1.076 1.076 0 .594-.482 1.076-1.076 1.076-.594 0-1.076-.482-1.076-1.076 0-.594.482-1.076 1.076-1.076m0-.86c-1.067 0-1.936.869-1.936 1.936s.869 1.936 1.936 1.936 1.936-.869 1.936-1.936-.869-1.936-1.936-1.936M376.069 8.543c2.037 0 3.855 1.145 4.742 2.957-1.627 3.384-5.016 5.5-8.811 5.5s-7.184-2.116-8.811-5.5c.887-1.812 2.705-2.957 4.742-2.957m-1.017-1.075c-1.909 2.017-2.242 5.116-.884 7.499.948 2.361 3.263 4.033 5.97 4.033 2.728 0 5.064-1.673 6.033-4.034 1.331-2.408.968-5.499-.947-7.498M372 10.156c.742 0 1.344.602 1.344 1.344 0 .742-.602 1.344-1.344 1.344-.742 0-1.344-.602-1.344-1.344 0-.742.602-1.344 1.344-1.344m0-1.075c-1.333 0-2.419 1.086-2.419 2.419s1.086 2.419 2.419 2.419 2.419-1.086 2.419-2.419-1.086-2.419-2.419-2.419M399.263 8.04c2.385 0 4.511 1.34 5.55 3.46-1.632 3.381-5.019 5.5-8.813 5.5-3.794 0-7.181-2.119-8.813-5.5 1.039-2.12 3.165-3.46 5.55-3.46m-.816-1.259c-2.521 1.619-3.633 4.72-2.887 7.5C390.138 17.043 392.839 19 396 19c3.178 0 5.896-1.957 7.016-4.72.725-2.8-.411-5.895-2.937-7.499M396 9.927c.868 0 1.573.705 1.573 1.573s-.705 1.573-1.573 1.573-1.573-.705-1.573-1.573.705-1.573 1.573-1.573m0-1.258c-1.56 0-2.831 1.271-2.831 2.831s1.271 2.831 2.831 2.831 2.831-1.271 2.831-2.831S397.56 8.669 396 8.669M422.601 7.626c2.67 0 5.051 1.5 6.213 3.874-1.635 3.379-5.021 5.5-8.814 5.5s-7.179-2.121-8.814-5.5c1.162-2.374 3.543-3.874 6.213-3.874m-.651-1.409c-3.023 1.29-4.776 4.393-4.532 7.5C413.446 16.809 416.466 19 420 19c3.547 0 6.581-2.191 7.824-5.284.227-3.123-1.544-6.221-4.572-7.499M420 9.739c.972 0 1.761.789 1.761 1.761 0 .972-.789 1.761-1.761 1.761-.972 0-1.761-.789-1.761-1.761 0-.972.789-1.761 1.761-1.761m0-1.409c-1.747 0-3.17 1.423-3.17 3.17 0 1.747 1.423 3.17 3.17 3.17 1.747 0 3.17-1.423 3.17-3.17 0-1.747-1.423-3.17-3.17-3.17M446.061 7.288c2.902 0 5.491 1.631 6.754 4.212-1.638 3.377-5.023 5.5-8.815 5.5s-7.177-2.123-8.815-5.5c1.263-2.581 3.852-4.212 6.754-4.212m-.515-1.531c-3.434 1.022-5.71 4.126-5.876 7.499C436.882 16.618 440.162 19 444 19c3.849 0 7.139-2.382 8.484-5.744-.18-3.386-2.47-6.487-5.908-7.499M444 9.586c1.057 0 1.914.857 1.914 1.914s-.857 1.914-1.914 1.914-1.914-.857-1.914-1.914.857-1.914 1.914-1.914m0-1.532c-1.899 0-3.446 1.547-3.446 3.446 0 1.899 1.547 3.446 3.446 3.446 1.899 0 3.446-1.547 3.446-3.446 0-1.899-1.547-3.446-3.446-3.446M469.62 7.013c3.092 0 5.85 1.737 7.196 4.487-1.64 3.376-5.024 5.5-8.816 5.5-3.792 0-7.176-2.124-8.816-5.5 1.346-2.75 4.104-4.487 7.196-4.487m-.405-1.632c-3.769.803-6.472 3.909-6.972 7.5C460.422 16.463 463.913 19 468 19c4.095 0 7.595-2.538 9.022-6.12-.511-3.601-3.225-6.703-6.997-7.499M468 9.46c1.126 0 2.04.914 2.04 2.04s-.914 2.04-2.04 2.04-2.04-.914-2.04-2.04.914-2.04 2.04-2.04m0-1.631c-2.023 0-3.671 1.648-3.671 3.671 0 2.023 1.648 3.671 3.671 3.671 2.023 0 3.671-1.648 3.671-3.671 0-2.023-1.648-3.671-3.671-3.671M493.259 6.787c3.248 0 6.144 1.825 7.558 4.713-1.643 3.374-5.026 5.5-8.817 5.5-3.791 0-7.174-2.126-8.817-5.5 1.414-2.888 4.31-4.713 7.558-4.713m-.315-1.714c-4.043.625-7.095 3.732-7.869 7.5C484.045 16.335 487.71 19 492 19c4.297 0 7.968-2.665 9.462-6.427-.782-3.777-3.842-6.881-7.888-7.5M492 9.358c1.182 0 2.142.96 2.142 2.142s-.96 2.142-2.142 2.142-2.142-.96-2.142-2.142.96-2.142 2.142-2.142m0-1.714c-2.125 0-3.856 1.731-3.856 3.856s1.731 3.856 3.856 3.856 3.856-1.731 3.856-3.856-1.731-3.856-3.856-3.856M516.964 6.603c3.375 0 6.385 1.896 7.854 4.897-1.645 3.373-5.027 5.5-8.818 5.5-3.791 0-7.173-2.127-8.818-5.5 1.469-3.001 4.479-4.897 7.854-4.897m-.241-1.781c-4.268.478-7.605 3.585-8.603 7.5C507.737 16.231 511.543 19 516 19c4.462 0 8.273-2.769 9.823-6.679-1.005-3.92-4.349-7.026-8.618-7.499M516 9.274c1.229 0 2.226.997 2.226 2.226s-.997 2.226-2.226 2.226-2.226-.997-2.226-2.226.997-2.226 2.226-2.226m0-1.781c-2.208 0-4.007 1.799-4.007 4.007 0 2.208 1.799 4.007 4.007 4.007 2.208 0 4.007-1.799 4.007-4.007 0-2.208-1.799-4.007-4.007-4.007M540.723 6.452c3.479 0 6.581 1.955 8.095 5.048-1.646 3.372-5.027 5.5-8.818 5.5-3.791 0-7.172-2.128-8.818-5.5 1.514-3.093 4.616-5.048 8.095-5.048m-.181-1.836c-4.45.359-8.021 3.467-9.202 7.5C531.485 16.145 535.407 19 540 19c4.596 0 8.523-2.855 10.117-6.884-1.186-4.038-4.761-7.145-9.213-7.5M540 9.205c1.267 0 2.295 1.028 2.295 2.295s-1.028 2.295-2.295 2.295-2.295-1.028-2.295-2.295 1.028-2.295 2.295-2.295m0-1.835c-2.276 0-4.13 1.854-4.13 4.13s1.854 4.13 4.13 4.13 4.13-1.854 4.13-4.13-1.854-4.13-4.13-4.13M564.527 6.329c3.563 0 6.741 2.003 8.292 5.171-1.647 3.372-5.028 5.5-8.819 5.5-3.791 0-7.172-2.128-8.819-5.5 1.551-3.168 4.729-5.171 8.292-5.171m-.132-1.88c-4.599.262-8.359 3.37-9.689 7.5C555.28 16.076 559.297 19 564 19c4.706 0 8.725-2.924 10.356-7.051-1.333-4.133-5.097-7.241-9.697-7.5M564 9.15c1.297 0 2.35 1.053 2.35 2.35 0 1.297-1.053 2.35-2.35 2.35-1.297 0-2.35-1.053-2.35-2.35 0-1.297 1.053-2.35 2.35-2.35m0-1.88c-2.331 0-4.23 1.899-4.23 4.23 0 2.331 1.899 4.23 4.23 4.23 2.331 0 4.23-1.899 4.23-4.23 0-2.331-1.899-4.23-4.23-4.23M588.37 6.231c3.631 0 6.869 2.041 8.449 5.269-1.648 3.371-5.029 5.5-8.819 5.5-3.79 0-7.171-2.129-8.819-5.5 1.58-3.228 4.818-5.269 8.449-5.269m-.093-1.916c-4.718.184-8.63 3.293-10.08 7.5C579.116 16.021 583.209 19 588 19c4.793 0 8.887-2.979 10.548-7.185-1.451-4.21-5.366-7.318-10.085-7.5M588 9.105c1.322 0 2.395 1.073 2.395 2.395s-1.073 2.395-2.395 2.395-2.395-1.073-2.395-2.395 1.073-2.395 2.395-2.395m0-1.916c-2.376 0-4.311 1.935-4.311 4.311s1.935 4.311 4.311 4.311 4.311-1.935 4.311-4.311-1.935-4.311-4.311-4.311M612.246 6.154c3.684 0 6.97 2.07 8.573 5.346-1.648 3.371-5.029 5.5-8.819 5.5-3.79 0-7.171-2.129-8.819-5.5 1.603-3.276 4.889-5.346 8.573-5.346m-.062-1.944c-4.813.122-8.844 3.231-10.388 7.5C602.987 15.977 607.139 19 612 19c4.863 0 9.016-3.023 10.699-7.29-1.544-4.27-5.578-7.379-10.391-7.5M612 9.07c1.341 0 2.43 1.089 2.43 2.43 0 1.341-1.089 2.43-2.43 2.43-1.341 0-2.43-1.089-2.43-2.43 0-1.341 1.089-2.43 2.43-2.43m0-1.944c-2.411 0-4.374 1.963-4.374 4.374 0 2.411 1.963 4.374 4.374 4.374 2.411 0 4.374-1.963 4.374-4.374 0-2.411-1.963-4.374-4.374-4.374M636.151 6.095c3.725 0 7.047 2.093 8.669 5.405-1.649 3.371-5.03 5.5-8.82 5.5s-7.171-2.129-8.82-5.5c1.622-3.312 4.944-5.405 8.669-5.405m-.038-1.966c-4.885.075-9.009 3.185-10.624 7.5C626.888 15.943 631.085 19 636 19c4.916 0 9.114-3.057 10.815-7.371-1.616-4.316-5.741-7.426-10.626-7.5M636 9.043c1.356 0 2.457 1.101 2.457 2.457 0 1.356-1.101 2.457-2.457 2.457-1.356 0-2.457-1.101-2.457-2.457 0-1.356 1.101-2.457 2.457-2.457m0-1.966c-2.437 0-4.423 1.986-4.423 4.423 0 2.437 1.986 4.423 4.423 4.423 2.437 0 4.423-1.986 4.423-4.423 0-2.437-1.986-4.423-4.423-4.423M660.082 6.051c3.755 0 7.103 2.11 8.738 5.449-1.65 3.37-5.03 5.5-8.82 5.5s-7.17-2.13-8.82-5.5c1.635-3.339 4.983-5.449 8.738-5.449m-.02-1.981c-4.938.04-9.129 3.15-10.797 7.5C650.816 15.919 655.046 19 660 19c4.954 0 9.185-3.081 10.9-7.43-1.668-4.35-5.86-7.46-10.798-7.5M660 9.023c1.367 0 2.477 1.11 2.477 2.477 0 1.367-1.11 2.477-2.477 2.477-1.367 0-2.477-1.11-2.477-2.477 0-1.367 1.11-2.477 2.477-2.477m0-1.981c-2.457 0-4.458 2.001-4.458 4.458 0 2.457 2.001 4.458 4.458 4.458 2.457 0 4.458-2.001 4.458-4.458 0-2.457-2.001-4.458-4.458-4.458M684.035 6.022c3.775 0 7.142 2.121 8.785 5.478-1.65 3.37-5.03 5.5-8.82 5.5s-7.17-2.13-8.82-5.5c1.643-3.357 5.01-5.478 8.785-5.478m-.009-1.992c-4.973.017-9.209 3.127-10.913 7.5C674.767 15.902 679.02 19 684 19s9.234-3.098 10.957-7.47c-1.703-4.373-5.94-7.483-10.913-7.5M684 9.01c1.374 0 2.49 1.116 2.49 2.49s-1.116 2.49-2.49 2.49-2.49-1.116-2.49-2.49 1.116-2.49 2.49-2.49m0-1.992c-2.47 0-4.482 2.012-4.482 4.482s2.012 4.482 4.482 4.482 4.482-2.012 4.482-4.482S686.47 7.018 684 7.018M708.008 6.005c3.787 0 7.164 2.128 8.812 5.495-1.65 3.37-5.03 5.5-8.82 5.5s-7.17-2.13-8.82-5.5c1.648-3.367 5.025-5.495 8.812-5.495m-.003-1.998c-4.993.004-9.255 3.114-10.979 7.5C698.739 15.893 703.005 19 708 19s9.261-3.107 10.99-7.493c-1.724-4.386-5.986-7.496-10.979-7.5M708 9.002c1.379 0 2.498 1.119 2.498 2.498 0 1.379-1.119 2.498-2.498 2.498-1.379 0-2.498-1.119-2.498-2.498 0-1.379 1.119-2.498 2.498-2.498m0-1.998c-2.478 0-4.496 2.018-4.496 4.496 0 2.478 2.018 4.496 4.496 4.496 2.478 0 4.496-2.018 4.496-4.496 0-2.478-2.018-4.496-4.496-4.496M732 6c3.79 0 7.17 2.13 8.82 5.5-1.65 3.37-5.03 5.5-8.82 5.5s-7.17-2.13-8.82-5.5C724.83 8.13 728.21 6 732 6m0-2c-5 0-9.27 3.11-11 7.5 1.73 4.39 6 7.5 11 7.5s9.27-3.11 11-7.5c-1.73-4.39-6-7.5-11-7.5m0 5c1.38 0 2.5 1.12 2.5 2.5S733.38 14 732 14s-2.5-1.12-2.5-2.5S730.62 9 732 9m0-2c-2.48 0-4.5 2.02-4.5 4.5s2.02 4.5 4.5 4.5 4.5-2.02 4.5-4.5S734.48 7 732 7" fill="#3fa9f5"/></svg>