<svg xmlns="http://www.w3.org/2000/svg" viewBox="0 0 744 744" width="5744" height="5744"><g fill="none" stroke="#3fa9f5" stroke-width="2" stroke-miterlimit="10"><path d="M1 17l6.3-6.3 6.3 6.3" stroke-dasharray="0,17.819090885900998" stroke-dashoffset="17.819091"/><path d="M9.5 11.5L14 7l9 9" stroke-dasharray="0,19.091883092036785" stroke-dashoffset="19.091883"/></g><g fill="none" stroke="#3fa9f5" stroke-width="2" stroke-miterlimit="10"><path d="M25 17l6.3-6.3 6.3 6.3" stroke-dasharray="0.3882101202320071,17.43088076566899" stroke-dashoffset="17.819091"/><path d="M33.5 11.5L38 7l9 9" stroke-dasharray="0,19.091883092036785" stroke-dashoffset="19.091883"/></g><g fill="none" stroke="#3fa9f5" stroke-width="2" stroke-miterlimit="10"><path d="M49 17l6.3-6.3 6.3 6.3" stroke-dasharray="1.9671060996863847,15.851984786214613" stroke-dashoffset="17.819091"/><path d="M57.5 11.5L62 7l9 9" stroke-dasharray="0,19.091883092036785" stroke-dashoffset="19.091883"/></g><g fill="none" stroke="#3fa9f5" stroke-width="2" stroke-miterlimit="10"><path d="M73 17l6.3-6.3 6.3 6.3" stroke-dasharray="5.472960387026796,12.346130498874201" stroke-dashoffset="17.819091"/><path d="M81.5 11.5L86 7l9 9" stroke-dasharray="0,19.091883092036785" stroke-dashoffset="19.091883"/></g><g fill="none" stroke="#3fa9f5" stroke-width="2" stroke-miterlimit="10"><path d="M97 17l6.3-6.3 6.3 6.3" stroke-dasharray="9.784508392811787,8.03458249308921" stroke-dashoffset="17.819091"/><path d="M105.5 11.5L110 7l9 9" stroke-dasharray="0,19.091883092036785" stroke-dashoffset="19.091883"/></g><g fill="none" stroke="#3fa9f5" stroke-width="2" stroke-miterlimit="10"><path d="M121 17l6.3-6.3 6.3 6.3" stroke-dasharray="12.908764572311279,4.910326313589719" stroke-dashoffset="17.819091"/><path d="M129.5 11.5L134 7l9 9" stroke-dasharray="0,19.091883092036785" stroke-dashoffset="19.091883"/></g><g fill="none" stroke="#3fa9f5" stroke-width="2" stroke-miterlimit="10"><path d="M145 17l6.3-6.3 6.3 6.3" stroke-dasharray="14.916924892763047,2.90216599313795" stroke-dashoffset="17.819091"/><path d="M153.5 11.5L158 7l9 9" stroke-dasharray="0,19.091883092036785" stroke-dashoffset="19.091883"/></g><g fill="none" stroke="#3fa9f5" stroke-width="2" stroke-miterlimit="10"><path d="M169 17l6.3-6.3 6.3 6.3" stroke-dasharray="16.210766817440405,1.6083240684605944" stroke-dashoffset="17.819091"/><path d="M177.5 11.5L182 7l9 9" stroke-dasharray="0,19.091883092036785" stroke-dashoffset="19.091883"/></g><g fill="none" stroke="#3fa9f5" stroke-width="2" stroke-miterlimit="10"><path d="M193 17l6.3-6.3 6.3 6.3" stroke-dasharray="17.03285493511976,0.7862359507812376" stroke-dashoffset="17.819091"/><path d="M201.5 11.5L206 7l9 9" stroke-dasharray="0,19.091883092036785" stroke-dashoffset="19.091883"/></g><g fill="none" stroke="#3fa9f5" stroke-width="2" stroke-miterlimit="10"><path d="M217 17l6.3-6.3 6.3 6.3" stroke-dasharray="17.522556902241934,0.29653398365906464" stroke-dashoffset="17.819091"/><path d="M225.5 11.5L230 7l9 9" stroke-dasharray="0,19.091883092036785" stroke-dashoffset="19.091883"/></g><g fill="none" stroke="#3fa9f5" stroke-width="2" stroke-miterlimit="10"><path d="M241 17l6.3-6.3 6.3 6.3" stroke-dasharray="17.765078013313175,0.05401287258782119" stroke-dashoffset="17.819091"/><path d="M249.5 11.5L254 7l9 9" stroke-dasharray="0,19.091883092036785" stroke-dashoffset="19.091883"/></g><g fill="none" stroke="#3fa9f5" stroke-width="2" stroke-miterlimit="10"><path d="M265 17l6.3-6.3 6.3 6.3"/><path d="M273.5 11.5L278 7l9 9" stroke-dasharray="0.00220199325501837,19.089681098781767" stroke-dashoffset="19.091883"/></g><g fill="none" stroke="#3fa9f5" stroke-width="2" stroke-miterlimit="10"><path d="M289 17l6.3-6.3 6.3 6.3"/><path d="M297.5 11.5L302 7l9 9" stroke-dasharray="0.49071615939684515,18.601166932639938" stroke-dashoffset="19.091883"/></g><g fill="none" stroke="#3fa9f5" stroke-width="2" stroke-miterlimit="10"><path d="M313 17l6.3-6.3 6.3 6.3"/><path d="M321.5 11.5L326 7l9 9" stroke-dasharray="2.3089927409303574,16.782890351106428" stroke-dashoffset="19.091883"/></g><g fill="none" stroke="#3fa9f5" stroke-width="2" stroke-miterlimit="10"><path d="M337 17l6.3-6.3 6.3 6.3"/><path d="M345.5 11.5L350 7l9 9" stroke-dasharray="6.202121359241428,12.889761732795359" stroke-dashoffset="19.091883"/></g><g fill="none" stroke="#3fa9f5" stroke-width="2" stroke-miterlimit="10"><path d="M361 17l6.3-6.3 6.3 6.3"/><path d="M369.5 11.5L374 7l9 9" stroke-dasharray="10.761183535745667,8.330699556291117" stroke-dashoffset="19.091883"/></g><g fill="none" stroke="#3fa9f5" stroke-width="2" stroke-miterlimit="10"><path d="M385 17l6.3-6.3 6.3 6.3"/><path d="M393.5 11.5L398 7l9 9" stroke-dasharray="14.003921048654103,5.087962043382682" stroke-dashoffset="19.091883"/></g><g fill="none" stroke="#3fa9f5" stroke-width="2" stroke-miterlimit="10"><path d="M409 17l6.3-6.3 6.3 6.3"/><path d="M417.5 11.5L422 7l9 9" stroke-dasharray="16.08909975853856,3.0027833334982263" stroke-dashoffset="19.091883"/></g><g fill="none" stroke="#3fa9f5" stroke-width="2" stroke-miterlimit="10"><path d="M433 17l6.3-6.3 6.3 6.3"/><path d="M441.5 11.5L446 7l9 9" stroke-dasharray="17.4343140648958,1.6575690271409822" stroke-dashoffset="19.091883"/></g><g fill="none" stroke="#3fa9f5" stroke-width="2" stroke-miterlimit="10"><path d="M457 17l6.3-6.3 6.3 6.3"/><path d="M465.5 11.5L470 7l9 9" stroke-dasharray="18.28831143368875,0.8035716583480355" stroke-dashoffset="19.091883"/></g><path d="M481 17l6.3-6.3 6.3 6.3" fill="none" stroke="#3fa9f5" stroke-width="2" stroke-miterlimit="10"/><path d="M489.5 11.5L494 7l9 9" fill="none" stroke="#3fa9f5" stroke-width="2" stroke-dasharray="18.794633185523466,0.29724990651331984" stroke-dashoffset="19.091883" stroke-miterlimit="10"/><path d="M493.5 5.823h1V6.5h-1z" fill="#3fa9f5" fill-opacity=".99343"/><path d="M505 17l6.3-6.3 6.3 6.3" fill="none" stroke="#3fa9f5" stroke-width="2" stroke-miterlimit="10"/><path d="M513.5 11.5L518 7l9 9" fill="none" stroke="#3fa9f5" stroke-width="2" stroke-dasharray="19.041502431077063,0.05038066095971952" stroke-dashoffset="19.091883" stroke-miterlimit="10"/><path d="M517.5 4.766h1V6.5h-1z" fill="#3fa9f5"/><path d="M529 17l6.3-6.3 6.3 6.3M537.5 11.5L542 7l9 9" fill="none" stroke="#3fa9f5" stroke-width="2" stroke-miterlimit="10"/><path d="M541.5 3.672h1V6.5h-1z" fill="#3fa9f5"/><path d="M553 17l6.3-6.3 6.3 6.3M561.5 11.5L566 7l9 9" fill="none" stroke="#3fa9f5" stroke-width="2" stroke-miterlimit="10"/><path d="M565.5 3.174h1V6.5h-1z" fill="#3fa9f5"/><g><path d="M577 17l6.3-6.3 6.3 6.3M585.5 11.5L590 7l9 9" fill="none" stroke="#3fa9f5" stroke-width="2" stroke-miterlimit="10"/><path d="M589.5 2.96h1V6.5h-1z" fill="#3fa9f5"/></g><g><path d="M601 17l6.3-6.3 6.3 6.3M609.5 11.5L614 7l9 9" fill="none" stroke="#3fa9f5" stroke-width="2" stroke-miterlimit="10"/><path d="M613.5 2.9h1v3.6h-1z" fill="#3fa9f5"/><path d="M613.6 3.3h.317v1.8h-.317z" fill="#3fa9f5" fill-opacity=".283606"/></g><g><path d="M625 17l6.3-6.3 6.3 6.3M633.5 11.5L638 7l9 9" fill="none" stroke="#3fa9f5" stroke-width="2" stroke-miterlimit="10"/><path d="M637.5 2.9h1v3.6h-1z" fill="#3fa9f5"/><path d="M637.6 3.3h.99v1.8h-.99z" fill="#3fa9f5"/></g><g><path d="M649 17l6.3-6.3 6.3 6.3M657.5 11.5L662 7l9 9" fill="none" stroke="#3fa9f5" stroke-width="2" stroke-miterlimit="10"/><path d="M661.5 2.9h1v3.6h-1z" fill="#3fa9f5"/><path d="M661.6 3.3h2.505v1.8H661.6z" fill="#3fa9f5"/></g><g><path d="M673 17l6.3-6.3 6.3 6.3M681.5 11.5L686 7l9 9" fill="none" stroke="#3fa9f5" stroke-width="2" stroke-miterlimit="10"/><path d="M685.5 2.9h1v3.6h-1z" fill="#3fa9f5"/><path d="M685.6 3.3h3.238v1.8H685.6z" fill="#3fa9f5"/></g><g><path d="M697 17l6.3-6.3 6.3 6.3M705.5 11.5L710 7l9 9" fill="none" stroke="#3fa9f5" stroke-width="2" stroke-miterlimit="10"/><path d="M709.5 2.9h1v3.6h-1z" fill="#3fa9f5"/><path d="M709.6 3.3h3.527v1.8H709.6z" fill="#3fa9f5"/></g><g><path d="M721 17l6.3-6.3 6.3 6.3M729.5 11.5L734 7l9 9" fill="none" stroke="#3fa9f5" stroke-width="2" stroke-miterlimit="10"/><path d="M733.5 2.9h1v3.6h-1z" fill="#3fa9f5"/><path d="M733.6 3.3h3.6v1.8h-3.6z" fill="#3fa9f5"/></g></svg>