<svg xmlns="http://www.w3.org/2000/svg" viewBox="0 0 744 744" width="5744" height="5744"><path d="M12 10.3c-.296-.001-.585.092-.825.266-.24.173-.419.419-.511.701-.091.281-.091.585 0 .866.092.282.271.528.511.701.24.174.529.267.825.266.296.001.585-.092.825-.266.24-.173.419-.419.511-.701.091-.281.091-.585 0-.866-.092-.282-.271-.528-.511-.701-.24-.174-.529-.267-.825-.266z" fill="#3fa9f5" stroke="#3fa9f5" stroke-miterlimit="10"/><path d="M16 9v4" fill="none" stroke="#3fa9f5" stroke-width="2" stroke-dasharray="0,4" stroke-dashoffset="4" stroke-miterlimit="10"/><path d="M13 7.1c1.6-1.6 4.3-1.6 6 0" fill="none" stroke="#3fa9f5" stroke-dasharray="0,6.625097451077324" stroke-dashoffset="6.625097" stroke-miterlimit="10"/><path d="M20 5.1c-2.2-2.2-5.8-2.2-8 0" fill="none" stroke="#3fa9f5" stroke-dasharray="0,8.881406198596506" stroke-dashoffset="8.881406" stroke-miterlimit="10"/><path d="M36 10.402303c-.296-.001-.585.092-.825.266-.24.173-.419.419-.511.701-.091.281-.091.585 0 .866.092.282.271.528.511.701.24.174.529.267.825.266.296.001.585-.092.825-.266.24-.173.419-.419.511-.701.091-.281.091-.585 0-.866-.092-.282-.271-.528-.511-.701-.24-.174-.529-.267-.825-.266z" fill="#3fa9f5" stroke="#3fa9f5" stroke-miterlimit="10"/><path d="M40 9v4" fill="none" stroke="#3fa9f5" stroke-width="2" stroke-dasharray="0,4" stroke-dashoffset="4" stroke-miterlimit="10"/><path d="M37 7.1c1.6-1.6 4.3-1.6 6 0" fill="none" stroke="#3fa9f5" stroke-dasharray="0,6.625097451077324" stroke-dashoffset="6.625097" stroke-miterlimit="10"/><path d="M44 5.1c-2.2-2.2-5.8-2.2-8 0" fill="none" stroke="#3fa9f5" stroke-dasharray="0,8.881406198596506" stroke-dashoffset="8.881406" stroke-miterlimit="10"/><path d="M60 10.829073c-.296-.001-.585.092-.825.266-.24.173-.419.419-.511.701-.091.281-.091.585 0 .866.092.282.271.528.511.701.24.174.529.267.825.266.296.001.585-.092.825-.266.24-.173.419-.419.511-.701.091-.281.091-.585 0-.866-.092-.282-.271-.528-.511-.701-.24-.174-.529-.267-.825-.266z" fill="#3fa9f5" stroke="#3fa9f5" stroke-miterlimit="10"/><path d="M64 9v4" fill="none" stroke="#3fa9f5" stroke-width="2" stroke-dasharray="0,4" stroke-dashoffset="4" stroke-miterlimit="10"/><path d="M61 7.1c1.6-1.6 4.3-1.6 6 0" fill="none" stroke="#3fa9f5" stroke-dasharray="0,6.625097451077324" stroke-dashoffset="6.625097" stroke-miterlimit="10"/><path d="M68 5.1c-2.2-2.2-5.8-2.2-8 0" fill="none" stroke="#3fa9f5" stroke-dasharray="0,8.881406198596506" stroke-dashoffset="8.881406" stroke-miterlimit="10"/><path d="M84 11.752863c-.296-.001-.585.092-.825.266-.24.173-.419.419-.511.701-.091.281-.091.585 0 .866.092.282.271.528.511.701.24.174.529.267.825.266.296.001.585-.092.825-.266.24-.173.419-.419.511-.701.091-.281.091-.585 0-.866-.092-.282-.271-.528-.511-.701-.24-.174-.529-.267-.825-.266z" fill="#3fa9f5" stroke="#3fa9f5" stroke-miterlimit="10"/><path d="M88 9v4" fill="none" stroke="#3fa9f5" stroke-width="2" stroke-dasharray="0,4" stroke-dashoffset="4" stroke-miterlimit="10"/><path d="M85 7.1c1.6-1.6 4.3-1.6 6 0" fill="none" stroke="#3fa9f5" stroke-dasharray="0,6.625097451077324" stroke-dashoffset="6.625097" stroke-miterlimit="10"/><path d="M92 5.1c-2.2-2.2-5.8-2.2-8 0" fill="none" stroke="#3fa9f5" stroke-dasharray="0,8.881406198596506" stroke-dashoffset="8.881406" stroke-miterlimit="10"/><path d="M108 12.738097c-.296-.001-.585.092-.825.266-.24.173-.419.419-.511.701-.091.281-.091.585 0 .866.092.282.271.528.511.701.24.174.529.267.825.266.296.001.585-.092.825-.266.24-.173.419-.419.511-.701.091-.281.091-.585 0-.866-.092-.282-.271-.528-.511-.701-.24-.174-.529-.267-.825-.266z" fill="#3fa9f5" stroke="#3fa9f5" stroke-miterlimit="10"/><path d="M112 9v4" fill="none" stroke="#3fa9f5" stroke-width="2" stroke-dasharray="0,4" stroke-dashoffset="4" stroke-miterlimit="10"/><path d="M109 7.1c1.6-1.6 4.3-1.6 6 0" fill="none" stroke="#3fa9f5" stroke-dasharray="0,6.625097451077324" stroke-dashoffset="6.625097" stroke-miterlimit="10"/><path d="M116 5.1c-2.2-2.2-5.8-2.2-8 0" fill="none" stroke="#3fa9f5" stroke-dasharray="0,8.881406198596506" stroke-dashoffset="8.881406" stroke-miterlimit="10"/><path d="M132 13.38962c-.296-.001-.585.092-.825.266-.24.173-.419.419-.511.701-.091.281-.091.585 0 .866.092.282.271.528.511.701.24.174.529.267.825.266.296.001.585-.092.825-.266.24-.173.419-.419.511-.701.091-.281.091-.585 0-.866-.092-.282-.271-.528-.511-.701-.24-.174-.529-.267-.825-.266z" fill="#3fa9f5" stroke="#3fa9f5" stroke-miterlimit="10"/><path d="M136 9v4" fill="none" stroke="#3fa9f5" stroke-width="2" stroke-dasharray="0,4" stroke-dashoffset="4" stroke-miterlimit="10"/><path d="M133 7.1c1.6-1.6 4.3-1.6 6 0" fill="none" stroke="#3fa9f5" stroke-dasharray="0,6.625097451077324" stroke-dashoffset="6.625097" stroke-miterlimit="10"/><path d="M140 5.1c-2.2-2.2-5.8-2.2-8 0" fill="none" stroke="#3fa9f5" stroke-dasharray="0,8.881406198596506" stroke-dashoffset="8.881406" stroke-miterlimit="10"/><path d="M156 13.79443c-.296-.001-.585.092-.825.266-.24.173-.419.419-.511.701-.091.281-.091.585 0 .866.092.282.271.528.511.701.24.174.529.267.825.266.296.001.585-.092.825-.266.24-.173.419-.419.511-.701.091-.281.091-.585 0-.866-.092-.282-.271-.528-.511-.701-.24-.174-.529-.267-.825-.266z" fill="#3fa9f5" stroke="#3fa9f5" stroke-miterlimit="10"/><path d="M160 9v4" fill="none" stroke="#3fa9f5" stroke-width="2" stroke-dasharray="0,4" stroke-dashoffset="4" stroke-miterlimit="10"/><path d="M157 7.1c1.6-1.6 4.3-1.6 6 0" fill="none" stroke="#3fa9f5" stroke-dasharray="0,6.625097451077324" stroke-dashoffset="6.625097" stroke-miterlimit="10"/><path d="M164 5.1c-2.2-2.2-5.8-2.2-8 0" fill="none" stroke="#3fa9f5" stroke-dasharray="0,8.881406198596506" stroke-dashoffset="8.881406" stroke-miterlimit="10"/><path d="M180 14.046222c-.296-.001-.585.092-.825.266-.24.173-.419.419-.511.701-.091.281-.091.585 0 .866.092.282.271.528.511.701.24.174.529.267.825.266.296.001.585-.092.825-.266.24-.173.419-.419.511-.701.091-.281.091-.585 0-.866-.092-.282-.271-.528-.511-.701-.24-.174-.529-.267-.825-.266z" fill="#3fa9f5" stroke="#3fa9f5" stroke-miterlimit="10"/><path d="M184 9v4" fill="none" stroke="#3fa9f5" stroke-width="2" stroke-dasharray="0,4" stroke-dashoffset="4" stroke-miterlimit="10"/><path d="M181 7.1c1.6-1.6 4.3-1.6 6 0" fill="none" stroke="#3fa9f5" stroke-dasharray="0,6.625097451077324" stroke-dashoffset="6.625097" stroke-miterlimit="10"/><path d="M188 5.1c-2.2-2.2-5.8-2.2-8 0" fill="none" stroke="#3fa9f5" stroke-dasharray="0,8.881406198596506" stroke-dashoffset="8.881406" stroke-miterlimit="10"/><g><path d="M204.827 14.462695c-.241-.174-.53-.267-.826-.266h-.002c-.296-.001-.585.092-.826.266-.24.173-.419.419-.511.701-.091.281-.091.585 0 .867.092.282.271.528.511.701.242.174.532.267.829.266.296.001.585-.092.825-.266.24-.174.419-.42.511-.702.091-.282.091-.586 0-.867-.092-.282-.271-.527-.511-.7M205.95 16.846695" fill="#3fa9f5" stroke="#3fa9f5" stroke-miterlimit="10"/><path d="M208 9v4" fill="none" stroke="#3fa9f5" stroke-width="2" stroke-dasharray="0,4" stroke-dashoffset="4" stroke-miterlimit="10"/><path d="M205 7.1c1.6-1.6 4.3-1.6 6 0" fill="none" stroke="#3fa9f5" stroke-dasharray="0,6.625097451077324" stroke-dashoffset="6.625097" stroke-miterlimit="10"/><path d="M212 5.1c-2.2-2.2-5.8-2.2-8 0" fill="none" stroke="#3fa9f5" stroke-dasharray="0,8.881406198596506" stroke-dashoffset="8.881406" stroke-miterlimit="10"/></g><g><path d="M229.241 14.436253c-.329-.163-.703-.249-1.084-.248h-.314c-.381-.001-.755.085-1.084.248-.298.161-.525.451-.611.788-.085.352-.085.725 0 1.077.086.337.313.627.611.788.538.163 1.122.249 1.712.248.35.001.68-.146.904-.382.224-.251.391-.571.477-.923.085-.336.024-.68-.135-.943-.086-.263-.253-.492-.476-.653m-6.1 2.587h-.189v-.196h.196v.196h-.007m3.5 0h-.189v-.196h.196v.196h-.007m3.407 0h-.196v-.196h.196v.196" fill="#3fa9f5" stroke="#3fa9f5" stroke-miterlimit="10"/><path d="M232 9v4" fill="none" stroke="#3fa9f5" stroke-width="2" stroke-dasharray="0,4" stroke-dashoffset="4" stroke-miterlimit="10"/><path d="M229 7.1c1.6-1.6 4.3-1.6 6 0" fill="none" stroke="#3fa9f5" stroke-dasharray="0,6.625097451077324" stroke-dashoffset="6.625097" stroke-miterlimit="10"/><path d="M236 5.1c-2.2-2.2-5.8-2.2-8 0" fill="none" stroke="#3fa9f5" stroke-dasharray="0,8.881406198596506" stroke-dashoffset="8.881406" stroke-miterlimit="10"/></g><g><path d="M254.947 14.027948c-.692-.114-1.416-.175-2.145-.175h-1.604c-.729 0-1.453.061-2.145.175-.535.113-.962.584-1.022 1.147-.06.643-.06 1.301 0 1.943.06.563.487 1.034 1.022 1.147 1.761.115 3.554.176 5.352.175.572.001 1.071-.37 1.229-.862.157-.571.275-1.191.335-1.834.06-.563-.249-1.071-.687-1.256-.06-.185-.178-.347-.335-.46m-7.433 3.42h-.962v-.996h.996v.996h-.034m3.5 0h-.962v-.996h.996v.996h-.034m3.434 0h-.996v-.996h.996v.996" fill="#3fa9f5" stroke="#3fa9f5" stroke-miterlimit="10"/><path d="M256 9v4" fill="none" stroke="#3fa9f5" stroke-width="2" stroke-dasharray="0,4" stroke-dashoffset="4" stroke-miterlimit="10"/><path d="M253 7.1c1.6-1.6 4.3-1.6 6 0" fill="none" stroke="#3fa9f5" stroke-dasharray="0,6.625097451077324" stroke-dashoffset="6.625097" stroke-miterlimit="10"/><path d="M260 5.1c-2.2-2.2-5.8-2.2-8 0" fill="none" stroke="#3fa9f5" stroke-dasharray="0,8.881406198596506" stroke-dashoffset="8.881406" stroke-miterlimit="10"/></g><g><path d="M280.981 13.512c-1.126-.057-2.267-.087-3.411-.087h-3.14c-1.144 0-2.285.03-3.411.087-.819.057-1.483.743-1.513 1.575-.03.989-.03 1.986 0 2.975.03.833.694 1.519 1.513 1.576 3.22.057 6.454.087 9.692.087.837 0 1.537-.636 1.616-1.433.078-.954.137-1.932.167-2.922.03-.832-.576-1.537-1.346-1.629-.03-.092-.089-.172-.167-.229m-9.022 4.414h-1.885v-1.952h1.952v1.952h-.067m3.5 0h-1.885v-1.952h1.952v1.952h-.067m3.467 0h-1.952v-1.952h1.952v1.952" fill="#3fa9f5" stroke="#3fa9f5" stroke-miterlimit="10"/><path d="M280 9v4" fill="none" stroke="#3fa9f5" stroke-width="2" stroke-dasharray="0.022577119900391907,3.977422880099608" stroke-dashoffset=".022577" stroke-miterlimit="10"/><path d="M277 7.1c1.6-1.6 4.3-1.6 6 0" fill="none" stroke="#3fa9f5" stroke-dasharray="0,6.625097451077324" stroke-dashoffset="6.625097" stroke-miterlimit="10"/><path d="M284 5.1c-2.2-2.2-5.8-2.2-8 0" fill="none" stroke="#3fa9f5" stroke-dasharray="0,8.881406198596506" stroke-dashoffset="8.881406" stroke-miterlimit="10"/></g><g><path d="M306.086 13.232c-1.361-.026-2.729-.04-4.098-.04h-3.976c-1.369 0-2.737.014-4.098.04-.972.025-1.766.829-1.779 1.808-.014 1.177-.014 2.358 0 3.536.013.978.807 1.782 1.779 1.807 4.012.026 8.03.04 12.05.04.981 0 1.79-.781 1.826-1.744.035-1.161.062-2.334.075-3.511.014-.979-.753-1.791-1.704-1.832-.013-.042-.04-.079-.075-.104m-9.886 4.953h-2.385v-2.47h2.47v2.47h-.085m3.5 0h-2.385v-2.47h2.47v2.47h-.085m3.485 0h-2.47v-2.47h2.47v2.47" fill="#3fa9f5" stroke="#3fa9f5" stroke-miterlimit="10"/><path d="M304 9v4" fill="none" stroke="#3fa9f5" stroke-width="2" stroke-dasharray="0.10711104807829042,3.8928889519217096" stroke-dashoffset=".107111" stroke-miterlimit="10"/><path d="M301 7.1c1.6-1.6 4.3-1.6 6 0" fill="none" stroke="#3fa9f5" stroke-dasharray="0,6.625097451077324" stroke-dashoffset="6.625097" stroke-miterlimit="10"/><path d="M308 5.1c-2.2-2.2-5.8-2.2-8 0" fill="none" stroke="#3fa9f5" stroke-dasharray="0,8.881406198596506" stroke-dashoffset="8.881406" stroke-miterlimit="10"/></g><g><path d="M330.652 13.088c-1.482-.01-2.966-.015-4.451-.015h-4.402c-1.485 0-2.969.005-4.451.015-1.051.01-1.911.873-1.916 1.927-.005 1.274-.005 2.55 0 3.823.005 1.054.865 1.917 1.916 1.927 4.418.01 8.837.015 13.257.015 1.055 0 1.92-.854 1.934-1.902.014-1.268.024-2.54.029-3.814.005-1.054-.844-1.92-1.887-1.936-.006-.016-.016-.03-.029-.04m-10.328 5.23h-2.642v-2.736h2.736v2.736h-.094m3.5 0h-2.642v-2.736h2.736v2.736h-.094m3.494 0h-2.736v-2.736h2.736v2.736" fill="#3fa9f5" stroke="#3fa9f5" stroke-miterlimit="10"/><path d="M328 9v4" fill="none" stroke="#3fa9f5" stroke-width="2" stroke-dasharray="0.2795257587569848,3.720474241243015" stroke-dashoffset=".279526" stroke-miterlimit="10"/><path d="M325 7.1c1.6-1.6 4.3-1.6 6 0" fill="none" stroke="#3fa9f5" stroke-dasharray="0,6.625097451077324" stroke-dashoffset="6.625097" stroke-miterlimit="10"/><path d="M332 5.1c-2.2-2.2-5.8-2.2-8 0" fill="none" stroke="#3fa9f5" stroke-dasharray="0,8.881406198596506" stroke-dashoffset="8.881406" stroke-miterlimit="10"/></g><g><path d="M354.92 13.02c-1.539-.002-3.078-.003-4.617-.003h-4.606c-1.539 0-3.078.001-4.617.003-1.089.003-1.979.894-1.98 1.983-.002 1.32-.002 2.64 0 3.96.001 1.089.891 1.981 1.98 1.983 4.61.002 9.219.003 13.829.003 1.09 0 1.982-.889 1.985-1.977.003-1.318.005-2.638.006-3.957.002-1.09-.887-1.982-1.974-1.986-.001-.003-.003-.006-.006-.009m-10.538 5.361h-2.763v-2.862h2.862v2.862h-.099m3.5 0h-2.763v-2.862h2.862v2.862h-.099m3.499 0h-2.862v-2.862h2.862v2.862" fill="#3fa9f5" stroke="#3fa9f5" stroke-miterlimit="10"/><path d="M352 9v4" fill="none" stroke="#3fa9f5" stroke-width="2" stroke-dasharray="0.5755534433234524,3.4244465566765476" stroke-dashoffset=".575553" stroke-miterlimit="10"/><path d="M349 7.1c1.6-1.6 4.3-1.6 6 0" fill="none" stroke="#3fa9f5" stroke-dasharray="0,6.625097451077324" stroke-dashoffset="6.625097" stroke-miterlimit="10"/><path d="M356 5.1c-2.2-2.2-5.8-2.2-8 0" fill="none" stroke="#3fa9f5" stroke-dasharray="0,8.881406198596506" stroke-dashoffset="8.881406" stroke-miterlimit="10"/></g><g><path d="M379 13h-14c-1.1 0-2 .9-2 2v4c0 1.1.9 2 2 2h14c1.1 0 2-.9 2-2v-4c0-1.1-.9-2-2-2m-10.6 5.4h-2.8v-2.9h2.9v2.9h-.1m3.5 0h-2.8v-2.9h2.9v2.9h-.1m3.5 0h-2.9v-2.9h2.9v2.9" fill="#3fa9f5" stroke="#3fa9f5" stroke-miterlimit="10"/><path d="M376 9v4" fill="none" stroke="#3fa9f5" stroke-width="2" stroke-dasharray="1.0226139820832736,2.9773860179167264" stroke-dashoffset="1.022614" stroke-miterlimit="10"/><path d="M373 7.1c1.6-1.6 4.3-1.6 6 0" fill="none" stroke="#3fa9f5" stroke-dasharray="0,6.625097451077324" stroke-dashoffset="6.625097" stroke-miterlimit="10"/><path d="M380 5.1c-2.2-2.2-5.8-2.2-8 0" fill="none" stroke="#3fa9f5" stroke-dasharray="0,8.881406198596506" stroke-dashoffset="8.881406" stroke-miterlimit="10"/></g><g><path d="M403 13h-14c-1.1 0-2 .9-2 2v4c0 1.1.9 2 2 2h14c1.1 0 2-.9 2-2v-4c0-1.1-.9-2-2-2m-10.6 5.4h-2.8v-2.9h2.9v2.9h-.1m3.5 0h-2.8v-2.9h2.9v2.9h-.1m3.5 0h-2.9v-2.9h2.9v2.9" fill="#3fa9f5" stroke="#3fa9f5" stroke-miterlimit="10"/><path d="M400 9v4" fill="none" stroke="#3fa9f5" stroke-width="2" stroke-dasharray="1.5773420134356657,2.4226579865643343" stroke-dashoffset="1.577342" stroke-miterlimit="10"/><path d="M397 7.1c1.6-1.6 4.3-1.6 6 0" fill="none" stroke="#3fa9f5" stroke-dasharray="0.09885319489379217,6.526244256183531" stroke-dashoffset="6.625097" stroke-miterlimit="10"/><path d="M404 5.1c-2.2-2.2-5.8-2.2-8 0" fill="none" stroke="#3fa9f5" stroke-dasharray="0,8.881406198596506" stroke-dashoffset="8.881406" stroke-miterlimit="10"/></g><g><path d="M427 13h-14c-1.1 0-2 .9-2 2v4c0 1.1.9 2 2 2h14c1.1 0 2-.9 2-2v-4c0-1.1-.9-2-2-2m-10.6 5.4h-2.8v-2.9h2.9v2.9h-.1m3.5 0h-2.8v-2.9h2.9v2.9h-.1m3.5 0h-2.9v-2.9h2.9v2.9" fill="#3fa9f5" stroke="#3fa9f5" stroke-miterlimit="10"/><path d="M424 9v4" fill="none" stroke="#3fa9f5" stroke-width="2" stroke-dasharray="2.11731581374794,1.8826841862520598" stroke-dashoffset="2.117316" stroke-miterlimit="10"/><path d="M421 7.1c1.6-1.6 4.3-1.6 6 0" fill="none" stroke="#3fa9f5" stroke-dasharray="0.5172230897256257,6.107874361351699" stroke-dashoffset="6.625097" stroke-miterlimit="10"/><path d="M428 5.1c-2.2-2.2-5.8-2.2-8 0" fill="none" stroke="#3fa9f5" stroke-dasharray="0,8.881406198596506" stroke-dashoffset="8.881406" stroke-miterlimit="10"/></g><g><path d="M451 13h-14c-1.1 0-2 .9-2 2v4c0 1.1.9 2 2 2h14c1.1 0 2-.9 2-2v-4c0-1.1-.9-2-2-2m-10.6 5.4h-2.8v-2.9h2.9v2.9h-.1m3.5 0h-2.8v-2.9h2.9v2.9h-.1m3.5 0h-2.9v-2.9h2.9v2.9" fill="#3fa9f5" stroke="#3fa9f5" stroke-miterlimit="10"/><path d="M448 9v4" fill="none" stroke="#3fa9f5" stroke-width="2" stroke-dasharray="2.565245058337034,1.4347549416629661" stroke-dashoffset="2.565245" stroke-miterlimit="10"/><path d="M445 7.1c1.6-1.6 4.3-1.6 6 0" fill="none" stroke="#3fa9f5" stroke-dasharray="1.4703444148536695,5.154753036223655" stroke-dashoffset="6.625097" stroke-miterlimit="10"/><path d="M452 5.1c-2.2-2.2-5.8-2.2-8 0" fill="none" stroke="#3fa9f5" stroke-dasharray="0,8.881406198596506" stroke-dashoffset="8.881406" stroke-miterlimit="10"/></g><g><path d="M475 13h-14c-1.1 0-2 .9-2 2v4c0 1.1.9 2 2 2h14c1.1 0 2-.9 2-2v-4c0-1.1-.9-2-2-2m-10.6 5.4h-2.8v-2.9h2.9v2.9h-.1m3.5 0h-2.8v-2.9h2.9v2.9h-.1m3.5 0h-2.9v-2.9h2.9v2.9" fill="#3fa9f5" stroke="#3fa9f5" stroke-miterlimit="10"/><path d="M472 9v4" fill="none" stroke="#3fa9f5" stroke-width="2" stroke-dasharray="2.916781200459484,1.083218799540516" stroke-dashoffset="2.916781" stroke-miterlimit="10"/><path d="M469 7.1c1.6-1.6 4.3-1.6 6 0" fill="none" stroke="#3fa9f5" stroke-dasharray="2.9131070930645957,3.711990358012729" stroke-dashoffset="6.625097" stroke-miterlimit="10"/><path d="M476 5.1c-2.2-2.2-5.8-2.2-8 0" fill="none" stroke="#3fa9f5" stroke-dasharray="0.004739622926011016,8.876666575670496" stroke-dashoffset=".00474" stroke-miterlimit="10"/></g><g><path d="M499 13h-14c-1.1 0-2 .9-2 2v4c0 1.1.9 2 2 2h14c1.1 0 2-.9 2-2v-4c0-1.1-.9-2-2-2m-10.6 5.4h-2.8v-2.9h2.9v2.9h-.1m3.5 0h-2.8v-2.9h2.9v2.9h-.1m3.5 0h-2.9v-2.9h2.9v2.9" fill="#3fa9f5" stroke="#3fa9f5" stroke-miterlimit="10"/><path d="M496 9v4" fill="none" stroke="#3fa9f5" stroke-width="2" stroke-dasharray="3.1903227524394375,0.8096772475605625" stroke-dashoffset="3.190323" stroke-miterlimit="10"/><path d="M493 7.1c1.6-1.6 4.3-1.6 6 0" fill="none" stroke="#3fa9f5" stroke-dasharray="4.192021922588116,2.4330755284892085" stroke-dashoffset="6.625097" stroke-miterlimit="10"/><path d="M500 5.1c-2.2-2.2-5.8-2.2-8 0" fill="none" stroke="#3fa9f5" stroke-dasharray="0.4723438321284361,8.40906236646807" stroke-dashoffset=".472344" stroke-miterlimit="10"/></g><g><path d="M523 13h-14c-1.1 0-2 .9-2 2v4c0 1.1.9 2 2 2h14c1.1 0 2-.9 2-2v-4c0-1.1-.9-2-2-2m-10.6 5.4h-2.8v-2.9h2.9v2.9h-.1m3.5 0h-2.8v-2.9h2.9v2.9h-.1m3.5 0h-2.9v-2.9h2.9v2.9" fill="#3fa9f5" stroke="#3fa9f5" stroke-miterlimit="10"/><path d="M520 9v4" fill="none" stroke="#3fa9f5" stroke-width="2" stroke-dasharray="3.403763068659253,0.596236931340747" stroke-dashoffset="3.403763" stroke-miterlimit="10"/><path d="M517 7.1c1.6-1.6 4.3-1.6 6 0" fill="none" stroke="#3fa9f5" stroke-dasharray="5.074683027552408,1.5504144235249164" stroke-dashoffset="6.625097" stroke-miterlimit="10"/><path d="M524 5.1c-2.2-2.2-5.8-2.2-8 0" fill="none" stroke="#3fa9f5" stroke-dasharray="2.278718537773017,6.60268766082349" stroke-dashoffset="2.278719" stroke-miterlimit="10"/></g><g><path d="M547 13h-14c-1.1 0-2 .9-2 2v4c0 1.1.9 2 2 2h14c1.1 0 2-.9 2-2v-4c0-1.1-.9-2-2-2m-10.6 5.4h-2.8v-2.9h2.9v2.9h-.1m3.5 0h-2.8v-2.9h2.9v2.9h-.1m3.5 0h-2.9v-2.9h2.9v2.9" fill="#3fa9f5" stroke="#3fa9f5" stroke-miterlimit="10"/><path d="M544 9v4" fill="none" stroke="#3fa9f5" stroke-width="2" stroke-dasharray="3.5705932907668845,0.4294067092331155" stroke-dashoffset="3.570593" stroke-miterlimit="10"/><path d="M541 7.1c1.6-1.6 4.3-1.6 6 0" fill="none" stroke="#3fa9f5" stroke-dasharray="5.66798427026019,0.9571131808171338" stroke-dashoffset="6.625097" stroke-miterlimit="10"/><path d="M548 5.1c-2.2-2.2-5.8-2.2-8 0" fill="none" stroke="#3fa9f5" stroke-dasharray="5.059103275721982,3.8223029228745253" stroke-dashoffset="5.059103" stroke-miterlimit="10"/></g><g><path d="M571 13h-14c-1.1 0-2 .9-2 2v4c0 1.1.9 2 2 2h14c1.1 0 2-.9 2-2v-4c0-1.1-.9-2-2-2m-10.6 5.4h-2.8v-2.9h2.9v2.9h-.1m3.5 0h-2.8v-2.9h2.9v2.9h-.1m3.5 0h-2.9v-2.9h2.9v2.9" fill="#3fa9f5" stroke="#3fa9f5" stroke-miterlimit="10"/><path d="M568 9v4" fill="none" stroke="#3fa9f5" stroke-width="2" stroke-dasharray="3.700547173753843,0.2994528262461569" stroke-dashoffset="3.700547" stroke-miterlimit="10"/><path d="M565 7.1c1.6-1.6 4.3-1.6 6 0" fill="none" stroke="#3fa9f5" stroke-dasharray="6.0683168369506335,0.5567806141266902" stroke-dashoffset="6.625097" stroke-miterlimit="10"/><path d="M572 5.1c-2.2-2.2-5.8-2.2-8 0" fill="none" stroke="#3fa9f5" stroke-dasharray="6.89485420198396,1.9865519966125467" stroke-dashoffset="6.894854" stroke-miterlimit="10"/></g><g><path d="M595 13h-14c-1.1 0-2 .9-2 2v4c0 1.1.9 2 2 2h14c1.1 0 2-.9 2-2v-4c0-1.1-.9-2-2-2m-10.6 5.4h-2.8v-2.9h2.9v2.9h-.1m3.5 0h-2.8v-2.9h2.9v2.9h-.1m3.5 0h-2.9v-2.9h2.9v2.9" fill="#3fa9f5" stroke="#3fa9f5" stroke-miterlimit="10"/><path d="M592 9v4" fill="none" stroke="#3fa9f5" stroke-width="2" stroke-dasharray="3.8006889807304303,0.19931101926956973" stroke-dashoffset="3.800689" stroke-miterlimit="10"/><path d="M589 7.1c1.6-1.6 4.3-1.6 6 0" fill="none" stroke="#3fa9f5" stroke-dasharray="6.334191356670728,0.2909060944065964" stroke-dashoffset="6.625097" stroke-miterlimit="10"/><path d="M596 5.1c-2.2-2.2-5.8-2.2-8 0" fill="none" stroke="#3fa9f5" stroke-dasharray="7.924346737597387,0.95705946099912" stroke-dashoffset="7.924347" stroke-miterlimit="10"/></g><g><path d="M619 13h-14c-1.1 0-2 .9-2 2v4c0 1.1.9 2 2 2h14c1.1 0 2-.9 2-2v-4c0-1.1-.9-2-2-2m-10.6 5.4h-2.8v-2.9h2.9v2.9h-.1m3.5 0h-2.8v-2.9h2.9v2.9h-.1m3.5 0h-2.9v-2.9h2.9v2.9" fill="#3fa9f5" stroke="#3fa9f5" stroke-miterlimit="10"/><path d="M616 9v4" fill="none" stroke="#3fa9f5" stroke-width="2" stroke-dasharray="3.876245890639636,0.1237541093603638" stroke-dashoffset="3.876246" stroke-miterlimit="10"/><path d="M613 7.1c1.6-1.6 4.3-1.6 6 0" fill="none" stroke="#3fa9f5" stroke-dasharray="6.501401838843967,0.12369561223335689" stroke-dashoffset="6.625097" stroke-miterlimit="10"/><path d="M620 5.1c-2.2-2.2-5.8-2.2-8 0" fill="none" stroke="#3fa9f5" stroke-dasharray="8.497346672886906,0.38405952570960056" stroke-dashoffset="8.497347" stroke-miterlimit="10"/></g><g><path d="M643 13h-14c-1.1 0-2 .9-2 2v4c0 1.1.9 2 2 2h14c1.1 0 2-.9 2-2v-4c0-1.1-.9-2-2-2m-10.6 5.4h-2.8v-2.9h2.9v2.9h-.1m3.5 0h-2.8v-2.9h2.9v2.9h-.1m3.5 0h-2.9v-2.9h2.9v2.9" fill="#3fa9f5" stroke="#3fa9f5" stroke-miterlimit="10"/><path d="M640 9v4" fill="none" stroke="#3fa9f5" stroke-width="2" stroke-dasharray="3.9311719039795316,0.06882809602046835" stroke-dashoffset="3.931172" stroke-miterlimit="10"/><path d="M637 7.1c1.6-1.6 4.3-1.6 6 0" fill="none" stroke="#3fa9f5" stroke-dasharray="6.59303124846758,0.03206620260974442" stroke-dashoffset="6.625097" stroke-miterlimit="10"/><path d="M644 5.1c-2.2-2.2-5.8-2.2-8 0" fill="none" stroke="#3fa9f5" stroke-dasharray="8.786060566374864,0.09534563222164201" stroke-dashoffset="8.786061" stroke-miterlimit="10"/></g><g><path d="M667 13h-14c-1.1 0-2 .9-2 2v4c0 1.1.9 2 2 2h14c1.1 0 2-.9 2-2v-4c0-1.1-.9-2-2-2m-10.6 5.4h-2.8v-2.9h2.9v2.9h-.1m3.5 0h-2.8v-2.9h2.9v2.9h-.1m3.5 0h-2.9v-2.9h2.9v2.9" fill="#3fa9f5" stroke="#3fa9f5" stroke-miterlimit="10"/><path d="M664 9v4" fill="none" stroke="#3fa9f5" stroke-width="2" stroke-dasharray="3.9685220620935735,0.0314779379064265" stroke-dashoffset="3.968522" stroke-miterlimit="10"/><path d="M661 7.1c1.6-1.6 4.3-1.6 6 0" fill="none" stroke="#3fa9f5" stroke-dasharray="6.624753198479152,0.0003442525981714998" stroke-dashoffset="6.625097" stroke-miterlimit="10"/><path d="M668 5.1c-2.2-2.2-5.8-2.2-8 0" fill="none" stroke="#3fa9f5" stroke-dasharray="8.88041651206776,0.000989686528747046" stroke-dashoffset="8.880417" stroke-miterlimit="10"/></g><g><path d="M691 13h-14c-1.1 0-2 .9-2 2v4c0 1.1.9 2 2 2h14c1.1 0 2-.9 2-2v-4c0-1.1-.9-2-2-2m-10.6 5.4h-2.8v-2.9h2.9v2.9h-.1m3.5 0h-2.8v-2.9h2.9v2.9h-.1m3.5 0h-2.9v-2.9h2.9v2.9" fill="#3fa9f5" stroke="#3fa9f5" stroke-miterlimit="10"/><path d="M688 9v4" fill="none" stroke="#3fa9f5" stroke-width="2" stroke-dasharray="3.9907029186464973,0.009297081353502712" stroke-dashoffset="3.990703" stroke-miterlimit="10"/><path d="M685 7.1c1.6-1.6 4.3-1.6 6 0M692 5.1c-2.2-2.2-5.8-2.2-8 0" fill="none" stroke="#3fa9f5" stroke-miterlimit="10"/></g><g><path d="M715 13h-14c-1.1 0-2 .9-2 2v4c0 1.1.9 2 2 2h14c1.1 0 2-.9 2-2v-4c0-1.1-.9-2-2-2m-10.6 5.4h-2.8v-2.9h2.9v2.9h-.1m3.5 0h-2.8v-2.9h2.9v2.9h-.1m3.5 0h-2.9v-2.9h2.9v2.9" fill="#3fa9f5" stroke="#3fa9f5" stroke-miterlimit="10"/><path d="M712 9v4" fill="none" stroke="#3fa9f5" stroke-width="2" stroke-dasharray="3.9996432321691495,0.0003567678308504796" stroke-dashoffset="3.999643" stroke-miterlimit="10"/><path d="M709 7.1c1.6-1.6 4.3-1.6 6 0M716 5.1c-2.2-2.2-5.8-2.2-8 0" fill="none" stroke="#3fa9f5" stroke-miterlimit="10"/></g><g><path d="M739 13h-14c-1.1 0-2 .9-2 2v4c0 1.1.9 2 2 2h14c1.1 0 2-.9 2-2v-4c0-1.1-.9-2-2-2m-10.6 5.4h-2.8v-2.9h2.9v2.9h-.1m3.5 0h-2.8v-2.9h2.9v2.9h-.1m3.5 0h-2.9v-2.9h2.9v2.9" fill="#3fa9f5" stroke="#3fa9f5" stroke-miterlimit="10"/><path d="M736 9v4" fill="none" stroke="#3fa9f5" stroke-width="2" stroke-miterlimit="10"/><path d="M733 7.1c1.6-1.6 4.3-1.6 6 0M740 5.1c-2.2-2.2-5.8-2.2-8 0" fill="none" stroke="#3fa9f5" stroke-miterlimit="10"/></g></svg>