<svg xmlns="http://www.w3.org/2000/svg" viewBox="0 0 744 744" width="5744" height="5744"><g fill="none" stroke="#3fa9f5" stroke-width="1.5" stroke-miterlimit="10"><path d="M12.4 1l1.2 2.5c.1.2.3.2.4.1l2.4-1.5c.2-.1.5 0 .5.3l-.4 2.8c0 .2.1.3.3.3h2.8c.3 0 .4.3.2.5L18 8.2c-.1.1-.1.3.1.4l2.3 1.5c.2.1.2.5-.1.5l-2.7.8c-.2.1-.3.2-.2.4l1.1 2.5c.1.2-.1.5-.4.4l-2.7-.7c-.2 0-.4.1-.4.2l-.4 2.8c0 .3-.4.3-.5.2l-1.9-2.1c-.1-.1-.3-.1-.5 0L10 17.3c-.2.2-.5.1-.5-.2L9 14.4c0-.2-.2-.3-.4-.2l-2.7.7c-.2.1-.5-.2-.4-.4L6.7 12c.1-.2 0-.4-.2-.4l-2.7-.8c-.2-.1-.3-.4-.1-.5L6 8.8c.2-.1.2-.3.1-.4L4.4 6.1c-.2-.2 0-.5.2-.5h2.8c.2 0 .3-.2.3-.3l-.4-2.9c0-.3.2-.4.5-.3l2.4 1.5c.2.1.4 0 .4-.1L11.8 1c.1-.2.4-.2.6 0z" stroke-dasharray="0,74.76871648430391" stroke-dashoffset="74.768716"/><path d="M13.9 16.4l2.5 5.3 1-2.2c.2-.4.7-.7 1.2-.5l2.3.7-2.7-5.8M10 16.8l-2.3 4.8-1.3-2.3c-.2-.3-.4-.4-.7-.3l-2.5.6 2.6-5.4" stroke-dasharray="0,18.505503285071462" stroke-dashoffset="18.505503"/></g><g fill="none" stroke="#3fa9f5" stroke-width="1.5" stroke-miterlimit="10"><path d="M36.4 1l1.2 2.5c.1.2.3.2.4.1l2.4-1.5c.2-.1.5 0 .5.3l-.4 2.8c0 .2.1.3.3.3h2.8c.3 0 .4.3.2.5L42 8.2c-.1.1-.1.3.1.4l2.3 1.5c.2.1.2.5-.1.5l-2.7.8c-.2.1-.3.2-.2.4l1.1 2.5c.1.2-.1.5-.4.4l-2.7-.7c-.2 0-.4.1-.4.2l-.4 2.8c0 .3-.4.3-.5.2l-1.9-2.1c-.1-.1-.3-.1-.5 0L34 17.3c-.2.2-.5.1-.5-.2l-.5-2.7c0-.2-.2-.3-.4-.2l-2.7.7c-.2.1-.5-.2-.4-.4l1.2-2.5c.1-.2 0-.4-.2-.4l-2.7-.8c-.2-.1-.3-.4-.1-.5L30 8.8c.2-.1.2-.3.1-.4l-1.7-2.3c-.2-.2 0-.5.2-.5h2.8c.2 0 .3-.2.3-.3l-.4-2.9c0-.3.2-.4.5-.3l2.4 1.5c.2.1.4 0 .4-.1L35.8 1c.1-.2.4-.2.6 0z" stroke-dasharray="0.624269165536958,74.14444731876695" stroke-dashoffset="74.768716"/><path d="M37.9 16.4l2.5 5.3 1-2.2c.2-.4.7-.7 1.2-.5l2.3.7-2.7-5.8M34 16.8l-2.3 4.8-1.3-2.3c-.2-.3-.4-.4-.7-.3l-2.5.6 2.6-5.4" stroke-dasharray="0,18.505503285071462" stroke-dashoffset="18.505503"/></g><g fill="none" stroke="#3fa9f5" stroke-width="1.5" stroke-miterlimit="10"><path d="M60.4 1l1.2 2.5c.1.2.3.2.4.1l2.4-1.5c.2-.1.5 0 .5.3l-.4 2.8c0 .2.1.3.3.3h2.8c.3 0 .4.3.2.5L66 8.2c-.1.1-.1.3.1.4l2.3 1.5c.2.1.2.5-.1.5l-2.7.8c-.2.1-.3.2-.2.4l1.1 2.5c.1.2-.1.5-.4.4l-2.7-.7c-.2 0-.4.1-.4.2l-.4 2.8c0 .3-.4.3-.5.2l-1.9-2.1c-.1-.1-.3-.1-.5 0L58 17.3c-.2.2-.5.1-.5-.2l-.5-2.7c0-.2-.2-.3-.4-.2l-2.7.7c-.2.1-.5-.2-.4-.4l1.2-2.5c.1-.2 0-.4-.2-.4l-2.7-.8c-.2-.1-.3-.4-.1-.5L54 8.8c.2-.1.2-.3.1-.4l-1.7-2.3c-.2-.2 0-.5.2-.5h2.8c.2 0 .3-.2.3-.3l-.4-2.9c0-.3.2-.4.5-.3l2.4 1.5c.2.1.4 0 .4-.1L59.8 1c.1-.2.4-.2.6 0z" stroke-dasharray="2.87100401569401,71.8977124686099" stroke-dashoffset="74.768716"/><path d="M61.9 16.4l2.5 5.3 1-2.2c.2-.4.7-.7 1.2-.5l2.3.7-2.7-5.8M58 16.8l-2.3 4.8-1.3-2.3c-.2-.3-.4-.4-.7-.3l-2.5.6 2.6-5.4" stroke-dasharray="0,18.505503285071462" stroke-dashoffset="18.505503"/></g><g fill="none" stroke="#3fa9f5" stroke-width="1.5" stroke-miterlimit="10"><path d="M84.4 1l1.2 2.5c.1.2.3.2.4.1l2.4-1.5c.2-.1.5 0 .5.3l-.4 2.8c0 .2.1.3.3.3h2.8c.3 0 .4.3.2.5L90 8.2c-.1.1-.1.3.1.4l2.3 1.5c.2.1.2.5-.1.5l-2.7.8c-.2.1-.3.2-.2.4l1.1 2.5c.1.2-.1.5-.4.4l-2.7-.7c-.2 0-.4.1-.4.2l-.4 2.8c0 .3-.4.3-.5.2l-1.9-2.1c-.1-.1-.3-.1-.5 0L82 17.3c-.2.2-.5.1-.5-.2l-.5-2.7c0-.2-.2-.3-.4-.2l-2.7.7c-.2.1-.5-.2-.4-.4l1.2-2.5c.1-.2 0-.4-.2-.4l-2.7-.8c-.2-.1-.3-.4-.1-.5L78 8.8c.2-.1.2-.3.1-.4l-1.7-2.3c-.2-.2 0-.5.2-.5h2.8c.2 0 .3-.2.3-.3l-.4-2.9c0-.3.2-.4.5-.3l2.4 1.5c.2.1.4 0 .4-.1L83.8 1c.1-.2.4-.2.6 0z" stroke-dasharray="7.540365432801384,67.22835105150251" stroke-dashoffset="74.768716"/><path d="M85.9 16.4l2.5 5.3 1-2.2c.2-.4.7-.7 1.2-.5l2.3.7-2.7-5.8M82 16.8l-2.3 4.8-1.3-2.3c-.2-.3-.4-.4-.7-.3l-2.5.6 2.6-5.4" stroke-dasharray="0,18.505503285071462" stroke-dashoffset="18.505503"/></g><g fill="none" stroke="#3fa9f5" stroke-width="1.5" stroke-miterlimit="10"><path d="M108.4 1l1.2 2.5c.1.2.3.2.4.1l2.4-1.5c.2-.1.5 0 .5.3l-.4 2.8c0 .2.1.3.3.3h2.8c.3 0 .4.3.2.5L114 8.2c-.1.1-.1.3.1.4l2.3 1.5c.2.1.2.5-.1.5l-2.7.8c-.2.1-.3.2-.2.4l1.1 2.5c.1.2-.1.5-.4.4l-2.7-.7c-.2 0-.4.1-.4.2l-.4 2.8c0 .3-.4.3-.5.2l-1.9-2.1c-.1-.1-.3-.1-.5 0l-1.7 2.2c-.2.2-.5.1-.5-.2l-.5-2.7c0-.2-.2-.3-.4-.2l-2.7.7c-.2.1-.5-.2-.4-.4l1.2-2.5c.1-.2 0-.4-.2-.4l-2.7-.8c-.2-.1-.3-.4-.1-.5l2.3-1.5c.2-.1.2-.3.1-.4l-1.7-2.3c-.2-.2 0-.5.2-.5h2.8c.2 0 .3-.2.3-.3l-.4-2.9c0-.3.2-.4.5-.3l2.4 1.5c.2.1.4 0 .4-.1l1.2-2.5c.1-.2.4-.2.6 0z" stroke-dasharray="15.624981006648442,59.14373547765547" stroke-dashoffset="74.768716"/><path d="M109.9 16.4l2.5 5.3 1-2.2c.2-.4.7-.7 1.2-.5l2.3.7-2.7-5.8m-8.2 2.9l-2.3 4.8-1.3-2.3c-.2-.3-.4-.4-.7-.3l-2.5.6 2.6-5.4" stroke-dasharray="0,18.505503285071462" stroke-dashoffset="18.505503"/></g><g fill="none" stroke="#3fa9f5" stroke-width="1.5" stroke-miterlimit="10"><path d="M132.4 1l1.2 2.5c.1.2.3.2.4.1l2.4-1.5c.2-.1.5 0 .5.3l-.4 2.8c0 .2.1.3.3.3h2.8c.3 0 .4.3.2.5L138 8.2c-.1.1-.1.3.1.4l2.3 1.5c.2.1.2.5-.1.5l-2.7.8c-.2.1-.3.2-.2.4l1.1 2.5c.1.2-.1.5-.4.4l-2.7-.7c-.2 0-.4.1-.4.2l-.4 2.8c0 .3-.4.3-.5.2l-1.9-2.1c-.1-.1-.3-.1-.5 0l-1.7 2.2c-.2.2-.5.1-.5-.2l-.5-2.7c0-.2-.2-.3-.4-.2l-2.7.7c-.2.1-.5-.2-.4-.4l1.2-2.5c.1-.2 0-.4-.2-.4l-2.7-.8c-.2-.1-.3-.4-.1-.5l2.3-1.5c.2-.1.2-.3.1-.4l-1.7-2.3c-.2-.2 0-.5.2-.5h2.8c.2 0 .3-.2.3-.3l-.4-2.9c0-.3.2-.4.5-.3l2.4 1.5c.2.1.4 0 .4-.1l1.2-2.5c.1-.2.4-.2.6 0z" stroke-dasharray="26.975647611343945,47.793068872959964" stroke-dashoffset="74.768716"/><path d="M133.9 16.4l2.5 5.3 1-2.2c.2-.4.7-.7 1.2-.5l2.3.7-2.7-5.8m-8.2 2.9l-2.3 4.8-1.3-2.3c-.2-.3-.4-.4-.7-.3l-2.5.6 2.6-5.4" stroke-dasharray="0.034951014240666635,18.470552270830797" stroke-dashoffset="18.505503"/></g><g fill="none" stroke="#3fa9f5" stroke-width="1.5" stroke-miterlimit="10"><path d="M156.4 1l1.2 2.5c.1.2.3.2.4.1l2.4-1.5c.2-.1.5 0 .5.3l-.4 2.8c0 .2.1.3.3.3h2.8c.3 0 .4.3.2.5L162 8.2c-.1.1-.1.3.1.4l2.3 1.5c.2.1.2.5-.1.5l-2.7.8c-.2.1-.3.2-.2.4l1.1 2.5c.1.2-.1.5-.4.4l-2.7-.7c-.2 0-.4.1-.4.2l-.4 2.8c0 .3-.4.3-.5.2l-1.9-2.1c-.1-.1-.3-.1-.5 0l-1.7 2.2c-.2.2-.5.1-.5-.2l-.5-2.7c0-.2-.2-.3-.4-.2l-2.7.7c-.2.1-.5-.2-.4-.4l1.2-2.5c.1-.2 0-.4-.2-.4l-2.7-.8c-.2-.1-.3-.4-.1-.5l2.3-1.5c.2-.1.2-.3.1-.4l-1.7-2.3c-.2-.2 0-.5.2-.5h2.8c.2 0 .3-.2.3-.3l-.4-2.9c0-.3.2-.4.5-.3l2.4 1.5c.2.1.4 0 .4-.1l1.2-2.5c.1-.2.4-.2.6 0z" stroke-dasharray="38.703267915065034,36.065448569238875" stroke-dashoffset="74.768716"/><path d="M157.9 16.4l2.5 5.3 1-2.2c.2-.4.7-.7 1.2-.5l2.3.7-2.7-5.8m-8.2 2.9l-2.3 4.8-1.3-2.3c-.2-.3-.4-.4-.7-.3l-2.5.6 2.6-5.4" stroke-dasharray="0.35772517261678094,18.14777811245468" stroke-dashoffset="18.505503"/></g><g fill="none" stroke="#3fa9f5" stroke-width="1.5" stroke-miterlimit="10"><path d="M180.4 1l1.2 2.5c.1.2.3.2.4.1l2.4-1.5c.2-.1.5 0 .5.3l-.4 2.8c0 .2.1.3.3.3h2.8c.3 0 .4.3.2.5L186 8.2c-.1.1-.1.3.1.4l2.3 1.5c.2.1.2.5-.1.5l-2.7.8c-.2.1-.3.2-.2.4l1.1 2.5c.1.2-.1.5-.4.4l-2.7-.7c-.2 0-.4.1-.4.2l-.4 2.8c0 .3-.4.3-.5.2l-1.9-2.1c-.1-.1-.3-.1-.5 0l-1.7 2.2c-.2.2-.5.1-.5-.2l-.5-2.7c0-.2-.2-.3-.4-.2l-2.7.7c-.2.1-.5-.2-.4-.4l1.2-2.5c.1-.2 0-.4-.2-.4l-2.7-.8c-.2-.1-.3-.4-.1-.5l2.3-1.5c.2-.1.2-.3.1-.4l-1.7-2.3c-.2-.2 0-.5.2-.5h2.8c.2 0 .3-.2.3-.3l-.4-2.9c0-.3.2-.4.5-.3l2.4 1.5c.2.1.4 0 .4-.1l1.2-2.5c.1-.2.4-.2.6 0z" stroke-dasharray="48.318992841164516,26.44972364313939" stroke-dashoffset="74.768716"/><path d="M181.9 16.4l2.5 5.3 1-2.2c.2-.4.7-.7 1.2-.5l2.3.7-2.7-5.8m-8.2 2.9l-2.3 4.8-1.3-2.3c-.2-.3-.4-.4-.7-.3l-2.5.6 2.6-5.4" stroke-dasharray="1.1483195114571054,17.357183773614356" stroke-dashoffset="18.505503"/></g><path d="M204.4 1l1.2 2.5c.1.2.3.2.4.1l2.4-1.5c.2-.1.5 0 .5.3l-.4 2.8c0 .2.1.3.3.3h2.8c.3 0 .4.3.2.5L210 8.2c-.1.1-.1.3.1.4l2.3 1.5c.2.1.2.5-.1.5l-2.7.8c-.2.1-.3.2-.2.4l1.1 2.5c.1.2-.1.5-.4.4l-2.7-.7c-.2 0-.4.1-.4.2l-.4 2.8c0 .3-.4.3-.5.2l-1.9-2.1c-.1-.1-.3-.1-.5 0l-1.7 2.2c-.2.2-.5.1-.5-.2l-.5-2.7c0-.2-.2-.3-.4-.2l-2.7.7c-.2.1-.5-.2-.4-.4l1.2-2.5c.1-.2 0-.4-.2-.4l-2.7-.8c-.2-.1-.3-.4-.1-.5l2.3-1.5c.2-.1.2-.3.1-.4l-1.7-2.3c-.2-.2 0-.5.2-.5h2.8c.2 0 .3-.2.3-.3l-.4-2.9c0-.3.2-.4.5-.3l2.4 1.5c.2.1.4 0 .4-.1l1.2-2.5c.1-.2.4-.2.6 0z" fill="none" stroke="#3fa9f5" stroke-width="1.5" stroke-dasharray="55.60914327635707,19.15957320794684" stroke-dashoffset="74.768716" stroke-miterlimit="10"/><path d="M205.9 16.4l2.5 5.3 1-2.2c.2-.4.7-.7 1.2-.5l2.3.7-2.7-5.8m-8.2 2.9l-2.3 4.8-1.3-2.3c-.2-.3-.4-.4-.7-.3l-2.5.6 2.6-5.4" fill="none" stroke="#3fa9f5" stroke-width="1.5" stroke-dasharray="2.628327874507749,15.877175410563712" stroke-dashoffset="18.505503" stroke-miterlimit="10"/><path d="M200.4 9.1l-.1-.1.351-.348.351-.35.098.098" fill="#3fa9f5" fill-opacity=".010641"/><path d="M228.4 1l1.2 2.5c.1.2.3.2.4.1l2.4-1.5c.2-.1.5 0 .5.3l-.4 2.8c0 .2.1.3.3.3h2.8c.3 0 .4.3.2.5L234 8.2c-.1.1-.1.3.1.4l2.3 1.5c.2.1.2.5-.1.5l-2.7.8c-.2.1-.3.2-.2.4l1.1 2.5c.1.2-.1.5-.4.4l-2.7-.7c-.2 0-.4.1-.4.2l-.4 2.8c0 .3-.4.3-.5.2l-1.9-2.1c-.1-.1-.3-.1-.5 0l-1.7 2.2c-.2.2-.5.1-.5-.2l-.5-2.7c0-.2-.2-.3-.4-.2l-2.7.7c-.2.1-.5-.2-.4-.4l1.2-2.5c.1-.2 0-.4-.2-.4l-2.7-.8c-.2-.1-.3-.4-.1-.5l2.3-1.5c.2-.1.2-.3.1-.4l-1.7-2.3c-.2-.2 0-.5.2-.5h2.8c.2 0 .3-.2.3-.3l-.4-2.9c0-.3.2-.4.5-.3l2.4 1.5c.2.1.4 0 .4-.1l1.2-2.5c.1-.2.4-.2.6 0z" fill="none" stroke="#3fa9f5" stroke-width="1.5" stroke-dasharray="61.08453342704952,13.684183057254387" stroke-dashoffset="74.768716" stroke-miterlimit="10"/><path d="M229.9 16.4l2.5 5.3 1-2.2c.2-.4.7-.7 1.2-.5l2.3.7-2.7-5.8m-8.2 2.9l-2.3 4.8-1.3-2.3c-.2-.3-.4-.4-.7-.3l-2.5.6 2.6-5.4" fill="none" stroke="#3fa9f5" stroke-width="1.5" stroke-dasharray="4.979535868255505,13.525967416815957" stroke-dashoffset="18.505503" stroke-miterlimit="10"/><path d="M224.414 9.084l-.114-.082.408-.277.358-.358.032.032" fill="#3fa9f5" fill-opacity=".613595"/><path d="M252.4 1l1.2 2.5c.1.2.3.2.4.1l2.4-1.5c.2-.1.5 0 .5.3l-.4 2.8c0 .2.1.3.3.3h2.8c.3 0 .4.3.2.5L258 8.2c-.1.1-.1.3.1.4l2.3 1.5c.2.1.2.5-.1.5l-2.7.8c-.2.1-.3.2-.2.4l1.1 2.5c.1.2-.1.5-.4.4l-2.7-.7c-.2 0-.4.1-.4.2l-.4 2.8c0 .3-.4.3-.5.2l-1.9-2.1c-.1-.1-.3-.1-.5 0l-1.7 2.2c-.2.2-.5.1-.5-.2l-.5-2.7c0-.2-.2-.3-.4-.2l-2.7.7c-.2.1-.5-.2-.4-.4l1.2-2.5c.1-.2 0-.4-.2-.4l-2.7-.8c-.2-.1-.3-.4-.1-.5l2.3-1.5c.2-.1.2-.3.1-.4l-1.7-2.3c-.2-.2 0-.5.2-.5h2.8c.2 0 .3-.2.3-.3l-.4-2.9c0-.3.2-.4.5-.3l2.4 1.5c.2.1.4 0 .4-.1l1.2-2.5c.1-.2.4-.2.6 0z" fill="none" stroke="#3fa9f5" stroke-width="1.5" stroke-dasharray="65.21226210507798,9.556454379225928" stroke-dashoffset="74.768716" stroke-miterlimit="10"/><path d="M253.9 16.4l2.5 5.3 1-2.2c.2-.4.7-.7 1.2-.5l2.3.7-2.7-5.8m-8.2 2.9l-2.3 4.8-1.3-2.3c-.2-.3-.4-.4-.7-.3l-2.5.6 2.6-5.4" fill="none" stroke="#3fa9f5" stroke-width="1.5" stroke-dasharray="7.886259028999197,10.619244256072264" stroke-dashoffset="18.505503" stroke-miterlimit="10"/><path d="M248.455 9.034l-.154-.027.586-.051.382-.382-.177-.177" fill="#3fa9f5" fill-opacity=".952952"/><path d="M276.4 1l1.2 2.5c.1.2.3.2.4.1l2.4-1.5c.2-.1.5 0 .5.3l-.4 2.8c0 .2.1.3.3.3h2.8c.3 0 .4.3.2.5L282 8.2c-.1.1-.1.3.1.4l2.3 1.5c.2.1.2.5-.1.5l-2.7.8c-.2.1-.3.2-.2.4l1.1 2.5c.1.2-.1.5-.4.4l-2.7-.7c-.2 0-.4.1-.4.2l-.4 2.8c0 .3-.4.3-.5.2l-1.9-2.1c-.1-.1-.3-.1-.5 0l-1.7 2.2c-.2.2-.5.1-.5-.2l-.5-2.7c0-.2-.2-.3-.4-.2l-2.7.7c-.2.1-.5-.2-.4-.4l1.2-2.5c.1-.2 0-.4-.2-.4l-2.7-.8c-.2-.1-.3-.4-.1-.5l2.3-1.5c.2-.1.2-.3.1-.4l-1.7-2.3c-.2-.2 0-.5.2-.5h2.8c.2 0 .3-.2.3-.3l-.4-2.9c0-.3.2-.4.5-.3l2.4 1.5c.2.1.4 0 .4-.1l1.2-2.5c.1-.2.4-.2.6 0z" fill="none" stroke="#3fa9f5" stroke-width="1.5" stroke-dasharray="68.32349178543933,6.44522469886458" stroke-dashoffset="74.768716" stroke-miterlimit="10"/><path d="M277.9 16.4l2.5 5.3 1-2.2c.2-.4.7-.7 1.2-.5l2.3.7-2.7-5.8m-8.2 2.9l-2.3 4.8-1.3-2.3c-.2-.3-.4-.4-.7-.3l-2.5.6 2.6-5.4" fill="none" stroke="#3fa9f5" stroke-width="1.5" stroke-dasharray="10.571079970845664,7.934423314225797" stroke-dashoffset="18.505503" stroke-miterlimit="10"/><path d="M272.542 8.931l-.24.087.957.42.433-.433-.612-.612" fill="#3fa9f5"/><path d="M300.4 1l1.2 2.5c.1.2.3.2.4.1l2.4-1.5c.2-.1.5 0 .5.3l-.4 2.8c0 .2.1.3.3.3h2.8c.3 0 .4.3.2.5L306 8.2c-.1.1-.1.3.1.4l2.3 1.5c.2.1.2.5-.1.5l-2.7.8c-.2.1-.3.2-.2.4l1.1 2.5c.1.2-.1.5-.4.4l-2.7-.7c-.2 0-.4.1-.4.2l-.4 2.8c0 .3-.4.3-.5.2l-1.9-2.1c-.1-.1-.3-.1-.5 0l-1.7 2.2c-.2.2-.5.1-.5-.2l-.5-2.7c0-.2-.2-.3-.4-.2l-2.7.7c-.2.1-.5-.2-.4-.4l1.2-2.5c.1-.2 0-.4-.2-.4l-2.7-.8c-.2-.1-.3-.4-.1-.5l2.3-1.5c.2-.1.2-.3.1-.4l-1.7-2.3c-.2-.2 0-.5.2-.5h2.8c.2 0 .3-.2.3-.3l-.4-2.9c0-.3.2-.4.5-.3l2.4 1.5c.2.1.4 0 .4-.1l1.2-2.5c.1-.2.4-.2.6 0z" fill="none" stroke="#3fa9f5" stroke-width="1.5" stroke-dasharray="70.64650016911693,4.122216315186971" stroke-dashoffset="74.768716" stroke-miterlimit="10"/><path d="M301.9 16.4l2.5 5.3 1-2.2c.2-.4.7-.7 1.2-.5l2.3.7-2.7-5.8m-8.2 2.9l-2.3 4.8-1.3-2.3c-.2-.3-.4-.4-.7-.3l-2.5.6 2.6-5.4" fill="none" stroke="#3fa9f5" stroke-width="1.5" stroke-dasharray="12.684742293162104,5.820760991909358" stroke-dashoffset="18.505503" stroke-miterlimit="10"/><path d="M296.668 8.782l-.365.252 1.494 1.1.506-.506-1.241-1.241" fill="#3fa9f5"/><path d="M324.4 1l1.2 2.5c.1.2.3.2.4.1l2.4-1.5c.2-.1.5 0 .5.3l-.4 2.8c0 .2.1.3.3.3h2.8c.3 0 .4.3.2.5L330 8.2c-.1.1-.1.3.1.4l2.3 1.5c.2.1.2.5-.1.5l-2.7.8c-.2.1-.3.2-.2.4l1.1 2.5c.1.2-.1.5-.4.4l-2.7-.7c-.2 0-.4.1-.4.2l-.4 2.8c0 .3-.4.3-.5.2l-1.9-2.1c-.1-.1-.3-.1-.5 0l-1.7 2.2c-.2.2-.5.1-.5-.2l-.5-2.7c0-.2-.2-.3-.4-.2l-2.7.7c-.2.1-.5-.2-.4-.4l1.2-2.5c.1-.2 0-.4-.2-.4l-2.7-.8c-.2-.1-.3-.4-.1-.5l2.3-1.5c.2-.1.2-.3.1-.4l-1.7-2.3c-.2-.2 0-.5.2-.5h2.8c.2 0 .3-.2.3-.3l-.4-2.9c0-.3.2-.4.5-.3l2.4 1.5c.2.1.4 0 .4-.1l1.2-2.5c.1-.2.4-.2.6 0z" fill="none" stroke="#3fa9f5" stroke-width="1.5" stroke-dasharray="72.34157390419522,2.4271425801086948" stroke-dashoffset="74.768716" stroke-miterlimit="10"/><path d="M325.9 16.4l2.5 5.3 1-2.2c.2-.4.7-.7 1.2-.5l2.3.7-2.7-5.8m-8.2 2.9l-2.3 4.8-1.3-2.3c-.2-.3-.4-.4-.7-.3l-2.5.6 2.6-5.4" fill="none" stroke="#3fa9f5" stroke-width="1.5" stroke-dasharray="14.28342564339617,4.222077641675292" stroke-dashoffset="18.505503" stroke-miterlimit="10"/><path d="M320.781 8.648l-.477.4 1.974 1.708.572-.572-1.803-1.802" fill="#3fa9f5"/><path d="M348.4 1l1.2 2.5c.1.2.3.2.4.1l2.4-1.5c.2-.1.5 0 .5.3l-.4 2.8c0 .2.1.3.3.3h2.8c.3 0 .4.3.2.5L354 8.2c-.1.1-.1.3.1.4l2.3 1.5c.2.1.2.5-.1.5l-2.7.8c-.2.1-.3.2-.2.4l1.1 2.5c.1.2-.1.5-.4.4l-2.7-.7c-.2 0-.4.1-.4.2l-.4 2.8c0 .3-.4.3-.5.2l-1.9-2.1c-.1-.1-.3-.1-.5 0l-1.7 2.2c-.2.2-.5.1-.5-.2l-.5-2.7c0-.2-.2-.3-.4-.2l-2.7.7c-.2.1-.5-.2-.4-.4l1.2-2.5c.1-.2 0-.4-.2-.4l-2.7-.8c-.2-.1-.3-.4-.1-.5l2.3-1.5c.2-.1.2-.3.1-.4l-1.7-2.3c-.2-.2 0-.5.2-.5h2.8c.2 0 .3-.2.3-.3l-.4-2.9c0-.3.2-.4.5-.3l2.4 1.5c.2.1.4 0 .4-.1l1.2-2.5c.1-.2.4-.2.6 0z" fill="none" stroke="#3fa9f5" stroke-width="1.5" stroke-dasharray="73.52446303197382,1.2442534523300819" stroke-dashoffset="74.768716" stroke-miterlimit="10"/><path d="M349.9 16.4l2.5 5.3 1-2.2c.2-.4.7-.7 1.2-.5l2.3.7-2.7-5.8m-8.2 2.9l-2.3 4.8-1.3-2.3c-.2-.3-.4-.4-.7-.3l-2.5.6 2.6-5.4" fill="none" stroke="#3fa9f5" stroke-width="1.5" stroke-dasharray="15.49154243467079,3.013960850400671" stroke-dashoffset="18.505503" stroke-miterlimit="10"/><path d="M344.86 8.553l-.555.505 2.315 2.14.618-.618-2.202-2.202" fill="#3fa9f5"/><path d="M372.4 1l1.2 2.5c.1.2.3.2.4.1l2.4-1.5c.2-.1.5 0 .5.3l-.4 2.8c0 .2.1.3.3.3h2.8c.3 0 .4.3.2.5L378 8.2c-.1.1-.1.3.1.4l2.3 1.5c.2.1.2.5-.1.5l-2.7.8c-.2.1-.3.2-.2.4l1.1 2.5c.1.2-.1.5-.4.4l-2.7-.7c-.2 0-.4.1-.4.2l-.4 2.8c0 .3-.4.3-.5.2l-1.9-2.1c-.1-.1-.3-.1-.5 0l-1.7 2.2c-.2.2-.5.1-.5-.2l-.5-2.7c0-.2-.2-.3-.4-.2l-2.7.7c-.2.1-.5-.2-.4-.4l1.2-2.5c.1-.2 0-.4-.2-.4l-2.7-.8c-.2-.1-.3-.4-.1-.5l2.3-1.5c.2-.1.2-.3.1-.4l-1.7-2.3c-.2-.2 0-.5.2-.5h2.8c.2 0 .3-.2.3-.3l-.4-2.9c0-.3.2-.4.5-.3l2.4 1.5c.2.1.4 0 .4-.1l1.2-2.5c.1-.2.4-.2.6 0z" fill="none" stroke="#3fa9f5" stroke-width="1.5" stroke-dasharray="74.28112966798516,0.48758681631875217" stroke-dashoffset="74.768716" stroke-miterlimit="10"/><path d="M373.9 16.4l2.5 5.3 1-2.2c.2-.4.7-.7 1.2-.5l2.3.7-2.7-5.8m-8.2 2.9l-2.3 4.8-1.3-2.3c-.2-.3-.4-.4-.7-.3l-2.5.6 2.6-5.4" fill="none" stroke="#3fa9f5" stroke-width="1.5" stroke-dasharray="16.407506116717524,2.0979971683539387" stroke-dashoffset="18.505503" stroke-miterlimit="10"/><path d="M368.916 8.488l-.61.577 2.55 2.438.649-.651-2.477-2.476" fill="#3fa9f5"/><g><path d="M396.4 1l1.2 2.5c.1.2.3.2.4.1l2.4-1.5c.2-.1.5 0 .5.3l-.4 2.8c0 .2.1.3.3.3h2.8c.3 0 .4.3.2.5L402 8.2c-.1.1-.1.3.1.4l2.3 1.5c.2.1.2.5-.1.5l-2.7.8c-.2.1-.3.2-.2.4l1.1 2.5c.1.2-.1.5-.4.4l-2.7-.7c-.2 0-.4.1-.4.2l-.4 2.8c0 .3-.4.3-.5.2l-1.9-2.1c-.1-.1-.3-.1-.5 0l-1.7 2.2c-.2.2-.5.1-.5-.2l-.5-2.7c0-.2-.2-.3-.4-.2l-2.7.7c-.2.1-.5-.2-.4-.4l1.2-2.5c.1-.2 0-.4-.2-.4l-2.7-.8c-.2-.1-.3-.4-.1-.5l2.3-1.5c.2-.1.2-.3.1-.4l-1.7-2.3c-.2-.2 0-.5.2-.5h2.8c.2 0 .3-.2.3-.3l-.4-2.9c0-.3.2-.4.5-.3l2.4 1.5c.2.1.4 0 .4-.1l1.2-2.5c.1-.2.4-.2.6 0z" fill="none" stroke="#3fa9f5" stroke-width="1.5" stroke-dasharray="74.67705535623875,0.0916611280651609" stroke-dashoffset="74.768716" stroke-miterlimit="10"/><path d="M397.9 16.4l2.5 5.3 1-2.2c.2-.4.7-.7 1.2-.5l2.3.7-2.7-5.8m-8.2 2.9l-2.3 4.8-1.3-2.3c-.2-.3-.4-.4-.7-.3l-2.5.6 2.6-5.4" fill="none" stroke="#3fa9f5" stroke-width="1.5" stroke-dasharray="17.10012260933181,1.4053806757396552" stroke-dashoffset="18.505503" stroke-miterlimit="10"/><path d="M392.954 8.443l-.648.627 2.713 2.644.672-.673-2.669-2.667" fill="#3fa9f5"/></g><g><path d="M420.4 1l1.2 2.5c.1.2.3.2.4.1l2.4-1.5c.2-.1.5 0 .5.3l-.4 2.8c0 .2.1.3.3.3h2.8c.3 0 .4.3.2.5L426 8.2c-.1.1-.1.3.1.4l2.3 1.5c.2.1.2.5-.1.5l-2.7.8c-.2.1-.3.2-.2.4l1.1 2.5c.1.2-.1.5-.4.4l-2.7-.7c-.2 0-.4.1-.4.2l-.4 2.8c0 .3-.4.3-.5.2l-1.9-2.1c-.1-.1-.3-.1-.5 0l-1.7 2.2c-.2.2-.5.1-.5-.2l-.5-2.7c0-.2-.2-.3-.4-.2l-2.7.7c-.2.1-.5-.2-.4-.4l1.2-2.5c.1-.2 0-.4-.2-.4l-2.7-.8c-.2-.1-.3-.4-.1-.5l2.3-1.5c.2-.1.2-.3.1-.4l-1.7-2.3c-.2-.2 0-.5.2-.5h2.8c.2 0 .3-.2.3-.3l-.4-2.9c0-.3.2-.4.5-.3l2.4 1.5c.2.1.4 0 .4-.1l1.2-2.5c.1-.2.4-.2.6 0z" fill="none" stroke="#3fa9f5" stroke-width="1.5" stroke-miterlimit="10"/><path d="M421.9 16.4l2.5 5.3 1-2.2c.2-.4.7-.7 1.2-.5l2.3.7-2.7-5.8m-8.2 2.9l-2.3 4.8-1.3-2.3c-.2-.3-.4-.4-.7-.3l-2.5.6 2.6-5.4" fill="none" stroke="#3fa9f5" stroke-width="1.5" stroke-dasharray="17.617294191135567,0.8882090939358949" stroke-dashoffset="18.505503" stroke-miterlimit="10"/><path d="M416.98 8.412l-.673.662 2.824 2.785.687-.688-2.799-2.798" fill="#3fa9f5"/></g><g><path d="M444.4 1l1.2 2.5c.1.2.3.2.4.1l2.4-1.5c.2-.1.5 0 .5.3l-.4 2.8c0 .2.1.3.3.3h2.8c.3 0 .4.3.2.5L450 8.2c-.1.1-.1.3.1.4l2.3 1.5c.2.1.2.5-.1.5l-2.7.8c-.2.1-.3.2-.2.4l1.1 2.5c.1.2-.1.5-.4.4l-2.7-.7c-.2 0-.4.1-.4.2l-.4 2.8c0 .3-.4.3-.5.2l-1.9-2.1c-.1-.1-.3-.1-.5 0l-1.7 2.2c-.2.2-.5.1-.5-.2l-.5-2.7c0-.2-.2-.3-.4-.2l-2.7.7c-.2.1-.5-.2-.4-.4l1.2-2.5c.1-.2 0-.4-.2-.4l-2.7-.8c-.2-.1-.3-.4-.1-.5l2.3-1.5c.2-.1.2-.3.1-.4l-1.7-2.3c-.2-.2 0-.5.2-.5h2.8c.2 0 .3-.2.3-.3l-.4-2.9c0-.3.2-.4.5-.3l2.4 1.5c.2.1.4 0 .4-.1l1.2-2.5c.1-.2.4-.2.6 0z" fill="none" stroke="#3fa9f5" stroke-width="1.5" stroke-miterlimit="10"/><path d="M445.9 16.4l2.5 5.3 1-2.2c.2-.4.7-.7 1.2-.5l2.3.7-2.7-5.8m-8.2 2.9l-2.3 4.8-1.3-2.3c-.2-.3-.4-.4-.7-.3l-2.5.6 2.6-5.4" fill="none" stroke="#3fa9f5" stroke-width="1.5" stroke-dasharray="17.99313551936075,0.5123677657107121" stroke-dashoffset="18.505503" stroke-miterlimit="10"/><path d="M440.997 8.391l-.69.685 2.898 2.879.697-.698-2.886-2.885" fill="#3fa9f5"/><path d="M442.802 11.202l-.202.098.36.388.351.401.189-.189" fill="#3fa9f5" fill-opacity=".133947"/></g><g><path d="M468.4 1l1.2 2.5c.1.2.3.2.4.1l2.4-1.5c.2-.1.5 0 .5.3l-.4 2.8c0 .2.1.3.3.3h2.8c.3 0 .4.3.2.5L474 8.2c-.1.1-.1.3.1.4l2.3 1.5c.2.1.2.5-.1.5l-2.7.8c-.2.1-.3.2-.2.4l1.1 2.5c.1.2-.1.5-.4.4l-2.7-.7c-.2 0-.4.1-.4.2l-.4 2.8c0 .3-.4.3-.5.2l-1.9-2.1c-.1-.1-.3-.1-.5 0l-1.7 2.2c-.2.2-.5.1-.5-.2l-.5-2.7c0-.2-.2-.3-.4-.2l-2.7.7c-.2.1-.5-.2-.4-.4l1.2-2.5c.1-.2 0-.4-.2-.4l-2.7-.8c-.2-.1-.3-.4-.1-.5l2.3-1.5c.2-.1.2-.3.1-.4l-1.7-2.3c-.2-.2 0-.5.2-.5h2.8c.2 0 .3-.2.3-.3l-.4-2.9c0-.3.2-.4.5-.3l2.4 1.5c.2.1.4 0 .4-.1l1.2-2.5c.1-.2.4-.2.6 0z" fill="none" stroke="#3fa9f5" stroke-width="1.5" stroke-miterlimit="10"/><path d="M469.9 16.4l2.5 5.3 1-2.2c.2-.4.7-.7 1.2-.5l2.3.7-2.7-5.8m-8.2 2.9l-2.3 4.8-1.3-2.3c-.2-.3-.4-.4-.7-.3l-2.5.6 2.6-5.4" fill="none" stroke="#3fa9f5" stroke-width="1.5" stroke-dasharray="18.252622113063108,0.252881172008353" stroke-dashoffset="18.505503" stroke-miterlimit="10"/><path d="M465.008 8.378l-.701.699 2.944 2.937.703-.705-2.939-2.938" fill="#3fa9f5"/><path d="M466.822 11.227l-.218.073.478.239.363.41.053-.046" fill="#3fa9f5" fill-opacity=".92607"/></g><g><path d="M492.4 1l1.2 2.5c.1.2.3.2.4.1l2.4-1.5c.2-.1.5 0 .5.3l-.4 2.8c0 .2.1.3.3.3h2.8c.3 0 .4.3.2.5L498 8.2c-.1.1-.1.3.1.4l2.3 1.5c.2.1.2.5-.1.5l-2.7.8c-.2.1-.3.2-.2.4l1.1 2.5c.1.2-.1.5-.4.4l-2.7-.7c-.2 0-.4.1-.4.2l-.4 2.8c0 .3-.4.3-.5.2l-1.9-2.1c-.1-.1-.3-.1-.5 0l-1.7 2.2c-.2.2-.5.1-.5-.2l-.5-2.7c0-.2-.2-.3-.4-.2l-2.7.7c-.2.1-.5-.2-.4-.4l1.2-2.5c.1-.2 0-.4-.2-.4l-2.7-.8c-.2-.1-.3-.4-.1-.5l2.3-1.5c.2-.1.2-.3.1-.4l-1.7-2.3c-.2-.2 0-.5.2-.5h2.8c.2 0 .3-.2.3-.3l-.4-2.9c0-.3.2-.4.5-.3l2.4 1.5c.2.1.4 0 .4-.1l1.2-2.5c.1-.2.4-.2.6 0z" fill="none" stroke="#3fa9f5" stroke-width="1.5" stroke-miterlimit="10"/><path d="M493.9 16.4l2.5 5.3 1-2.2c.2-.4.7-.7 1.2-.5l2.3.7-2.7-5.8m-8.2 2.9l-2.3 4.8-1.3-2.3c-.2-.3-.4-.4-.7-.3l-2.5.6 2.6-5.4" fill="none" stroke="#3fa9f5" stroke-width="1.5" stroke-dasharray="18.414528868517976,0.090974416553485" stroke-dashoffset="18.505503" stroke-miterlimit="10"/><path d="M489.013 8.372l-.706.706 2.966 2.965.706-.708-2.965-2.964" fill="#3fa9f5"/><path d="M490.88 11.298l-.265.001.809-.175.397.436-.329.35" fill="#3fa9f5"/></g><g><path d="M516.4 1l1.2 2.5c.1.2.3.2.4.1l2.4-1.5c.2-.1.5 0 .5.3l-.4 2.8c0 .2.1.3.3.3h2.8c.3 0 .4.3.2.5L522 8.2c-.1.1-.1.3.1.4l2.3 1.5c.2.1.2.5-.1.5l-2.7.8c-.2.1-.3.2-.2.4l1.1 2.5c.1.2-.1.5-.4.4l-2.7-.7c-.2 0-.4.1-.4.2l-.4 2.8c0 .3-.4.3-.5.2l-1.9-2.1c-.1-.1-.3-.1-.5 0l-1.7 2.2c-.2.2-.5.1-.5-.2l-.5-2.7c0-.2-.2-.3-.4-.2l-2.7.7c-.2.1-.5-.2-.4-.4l1.2-2.5c.1-.2 0-.4-.2-.4l-2.7-.8c-.2-.1-.3-.4-.1-.5l2.3-1.5c.2-.1.2-.3.1-.4l-1.7-2.3c-.2-.2 0-.5.2-.5h2.8c.2 0 .3-.2.3-.3l-.4-2.9c0-.3.2-.4.5-.3l2.4 1.5c.2.1.4 0 .4-.1l1.2-2.5c.1-.2.4-.2.6 0z" fill="none" stroke="#3fa9f5" stroke-width="1.5" stroke-miterlimit="10"/><path d="M517.9 16.4l2.5 5.3 1-2.2c.2-.4.7-.7 1.2-.5l2.3.7-2.7-5.8m-8.2 2.9l-2.3 4.8-1.3-2.3c-.2-.3-.4-.4-.7-.3l-2.5.6 2.6-5.4" fill="none" stroke="#3fa9f5" stroke-width="1.5" stroke-dasharray="18.49330863204358,0.012194653027882665" stroke-dashoffset="18.505503" stroke-miterlimit="10"/><path d="M513.014 8.371l-.707.707 2.97 2.97.707-.708-2.97-2.969" fill="#3fa9f5"/><path d="M514.992 11.435l-.357-.138 1.452-.979.462.488-1.068 1.119" fill="#3fa9f5"/></g><g><path d="M540.4 1l1.2 2.5c.1.2.3.2.4.1l2.4-1.5c.2-.1.5 0 .5.3l-.4 2.8c0 .2.1.3.3.3h2.8c.3 0 .4.3.2.5L546 8.2c-.1.1-.1.3.1.4l2.3 1.5c.2.1.2.5-.1.5l-2.7.8c-.2.1-.3.2-.2.4l1.1 2.5c.1.2-.1.5-.4.4l-2.7-.7c-.2 0-.4.1-.4.2l-.4 2.8c0 .3-.4.3-.5.2l-1.9-2.1c-.1-.1-.3-.1-.5 0l-1.7 2.2c-.2.2-.5.1-.5-.2l-.5-2.7c0-.2-.2-.3-.4-.2l-2.7.7c-.2.1-.5-.2-.4-.4l1.2-2.5c.1-.2 0-.4-.2-.4l-2.7-.8c-.2-.1-.3-.4-.1-.5l2.3-1.5c.2-.1.2-.3.1-.4l-1.7-2.3c-.2-.2 0-.5.2-.5h2.8c.2 0 .3-.2.3-.3l-.4-2.9c0-.3.2-.4.5-.3l2.4 1.5c.2.1.4 0 .4-.1l1.2-2.5c.1-.2.4-.2.6 0z" fill="none" stroke="#3fa9f5" stroke-width="1.5" stroke-miterlimit="10"/><path d="M541.9 16.4l2.5 5.3 1-2.2c.2-.4.7-.7 1.2-.5l2.3.7-2.7-5.8m-8.2 2.9l-2.3 4.8-1.3-2.3c-.2-.3-.4-.4-.7-.3l-2.5.6 2.6-5.4" fill="none" stroke="#3fa9f5" stroke-width="1.5" stroke-miterlimit="10"/><path d="M537.014 8.371l-.707.707 2.97 2.97.707-.708-2.97-2.969" fill="#3fa9f5"/><path d="M539.128 11.602l-.468-.307 2.236-1.959.541.55-1.969 2.056" fill="#3fa9f5"/></g><g><path d="M564.4 1l1.2 2.5c.1.2.3.2.4.1l2.4-1.5c.2-.1.5 0 .5.3l-.4 2.8c0 .2.1.3.3.3h2.8c.3 0 .4.3.2.5L570 8.2c-.1.1-.1.3.1.4l2.3 1.5c.2.1.2.5-.1.5l-2.7.8c-.2.1-.3.2-.2.4l1.1 2.5c.1.2-.1.5-.4.4l-2.7-.7c-.2 0-.4.1-.4.2l-.4 2.8c0 .3-.4.3-.5.2l-1.9-2.1c-.1-.1-.3-.1-.5 0l-1.7 2.2c-.2.2-.5.1-.5-.2l-.5-2.7c0-.2-.2-.3-.4-.2l-2.7.7c-.2.1-.5-.2-.4-.4l1.2-2.5c.1-.2 0-.4-.2-.4l-2.7-.8c-.2-.1-.3-.4-.1-.5l2.3-1.5c.2-.1.2-.3.1-.4l-1.7-2.3c-.2-.2 0-.5.2-.5h2.8c.2 0 .3-.2.3-.3l-.4-2.9c0-.3.2-.4.5-.3l2.4 1.5c.2.1.4 0 .4-.1l1.2-2.5c.1-.2.4-.2.6 0z" fill="none" stroke="#3fa9f5" stroke-width="1.5" stroke-miterlimit="10"/><path d="M565.9 16.4l2.5 5.3 1-2.2c.2-.4.7-.7 1.2-.5l2.3.7-2.7-5.8m-8.2 2.9l-2.3 4.8-1.3-2.3c-.2-.3-.4-.4-.7-.3l-2.5.6 2.6-5.4" fill="none" stroke="#3fa9f5" stroke-width="1.5" stroke-miterlimit="10"/><path d="M561.014 8.371l-.707.707 2.97 2.97.707-.708-2.97-2.969" fill="#3fa9f5"/><path d="M563.234 11.733l-.555-.44 2.849-2.725.603.599-2.674 2.789" fill="#3fa9f5"/></g><g><path d="M588.4 1l1.2 2.5c.1.2.3.2.4.1l2.4-1.5c.2-.1.5 0 .5.3l-.4 2.8c0 .2.1.3.3.3h2.8c.3 0 .4.3.2.5L594 8.2c-.1.1-.1.3.1.4l2.3 1.5c.2.1.2.5-.1.5l-2.7.8c-.2.1-.3.2-.2.4l1.1 2.5c.1.2-.1.5-.4.4l-2.7-.7c-.2 0-.4.1-.4.2l-.4 2.8c0 .3-.4.3-.5.2l-1.9-2.1c-.1-.1-.3-.1-.5 0l-1.7 2.2c-.2.2-.5.1-.5-.2l-.5-2.7c0-.2-.2-.3-.4-.2l-2.7.7c-.2.1-.5-.2-.4-.4l1.2-2.5c.1-.2 0-.4-.2-.4l-2.7-.8c-.2-.1-.3-.4-.1-.5l2.3-1.5c.2-.1.2-.3.1-.4l-1.7-2.3c-.2-.2 0-.5.2-.5h2.8c.2 0 .3-.2.3-.3l-.4-2.9c0-.3.2-.4.5-.3l2.4 1.5c.2.1.4 0 .4-.1l1.2-2.5c.1-.2.4-.2.6 0z" fill="none" stroke="#3fa9f5" stroke-width="1.5" stroke-miterlimit="10"/><path d="M589.9 16.4l2.5 5.3 1-2.2c.2-.4.7-.7 1.2-.5l2.3.7-2.7-5.8m-8.2 2.9l-2.3 4.8-1.3-2.3c-.2-.3-.4-.4-.7-.3l-2.5.6 2.6-5.4" fill="none" stroke="#3fa9f5" stroke-width="1.5" stroke-miterlimit="10"/><path d="M585.014 8.371l-.707.707 2.97 2.97.707-.708-2.97-2.969" fill="#3fa9f5"/><path d="M587.307 11.823l-.615-.531 3.269-3.25.645.633-3.156 3.29" fill="#3fa9f5"/></g><g><path d="M612.4 1l1.2 2.5c.1.2.3.2.4.1l2.4-1.5c.2-.1.5 0 .5.3l-.4 2.8c0 .2.1.3.3.3h2.8c.3 0 .4.3.2.5L618 8.2c-.1.1-.1.3.1.4l2.3 1.5c.2.1.2.5-.1.5l-2.7.8c-.2.1-.3.2-.2.4l1.1 2.5c.1.2-.1.5-.4.4l-2.7-.7c-.2 0-.4.1-.4.2l-.4 2.8c0 .3-.4.3-.5.2l-1.9-2.1c-.1-.1-.3-.1-.5 0l-1.7 2.2c-.2.2-.5.1-.5-.2l-.5-2.7c0-.2-.2-.3-.4-.2l-2.7.7c-.2.1-.5-.2-.4-.4l1.2-2.5c.1-.2 0-.4-.2-.4l-2.7-.8c-.2-.1-.3-.4-.1-.5l2.3-1.5c.2-.1.2-.3.1-.4l-1.7-2.3c-.2-.2 0-.5.2-.5h2.8c.2 0 .3-.2.3-.3l-.4-2.9c0-.3.2-.4.5-.3l2.4 1.5c.2.1.4 0 .4-.1l1.2-2.5c.1-.2.4-.2.6 0z" fill="none" stroke="#3fa9f5" stroke-width="1.5" stroke-miterlimit="10"/><path d="M613.9 16.4l2.5 5.3 1-2.2c.2-.4.7-.7 1.2-.5l2.3.7-2.7-5.8m-8.2 2.9l-2.3 4.8-1.3-2.3c-.2-.3-.4-.4-.7-.3l-2.5.6 2.6-5.4" fill="none" stroke="#3fa9f5" stroke-width="1.5" stroke-miterlimit="10"/><path d="M609.014 8.371l-.707.707 2.97 2.97.707-.708-2.97-2.969" fill="#3fa9f5"/><path d="M611.357 11.883l-.656-.592 3.554-3.607.674.655-3.484 3.633" fill="#3fa9f5"/></g><g><path d="M636.4 1l1.2 2.5c.1.2.3.2.4.1l2.4-1.5c.2-.1.5 0 .5.3l-.4 2.8c0 .2.1.3.3.3h2.8c.3 0 .4.3.2.5L642 8.2c-.1.1-.1.3.1.4l2.3 1.5c.2.1.2.5-.1.5l-2.7.8c-.2.1-.3.2-.2.4l1.1 2.5c.1.2-.1.5-.4.4l-2.7-.7c-.2 0-.4.1-.4.2l-.4 2.8c0 .3-.4.3-.5.2l-1.9-2.1c-.1-.1-.3-.1-.5 0l-1.7 2.2c-.2.2-.5.1-.5-.2l-.5-2.7c0-.2-.2-.3-.4-.2l-2.7.7c-.2.1-.5-.2-.4-.4l1.2-2.5c.1-.2 0-.4-.2-.4l-2.7-.8c-.2-.1-.3-.4-.1-.5l2.3-1.5c.2-.1.2-.3.1-.4l-1.7-2.3c-.2-.2 0-.5.2-.5h2.8c.2 0 .3-.2.3-.3l-.4-2.9c0-.3.2-.4.5-.3l2.4 1.5c.2.1.4 0 .4-.1l1.2-2.5c.1-.2.4-.2.6 0z" fill="none" stroke="#3fa9f5" stroke-width="1.5" stroke-miterlimit="10"/><path d="M637.9 16.4l2.5 5.3 1-2.2c.2-.4.7-.7 1.2-.5l2.3.7-2.7-5.8m-8.2 2.9l-2.3 4.8-1.3-2.3c-.2-.3-.4-.4-.7-.3l-2.5.6 2.6-5.4" fill="none" stroke="#3fa9f5" stroke-width="1.5" stroke-miterlimit="10"/><path d="M633.014 8.371l-.707.707 2.97 2.97.707-.708-2.97-2.969" fill="#3fa9f5"/><path d="M635.391 11.925l-.683-.634 3.748-3.851.694.671-3.708 3.865" fill="#3fa9f5"/></g><g><path d="M660.4 1l1.2 2.5c.1.2.3.2.4.1l2.4-1.5c.2-.1.5 0 .5.3l-.4 2.8c0 .2.1.3.3.3h2.8c.3 0 .4.3.2.5L666 8.2c-.1.1-.1.3.1.4l2.3 1.5c.2.1.2.5-.1.5l-2.7.8c-.2.1-.3.2-.2.4l1.1 2.5c.1.2-.1.5-.4.4l-2.7-.7c-.2 0-.4.1-.4.2l-.4 2.8c0 .3-.4.3-.5.2l-1.9-2.1c-.1-.1-.3-.1-.5 0l-1.7 2.2c-.2.2-.5.1-.5-.2l-.5-2.7c0-.2-.2-.3-.4-.2l-2.7.7c-.2.1-.5-.2-.4-.4l1.2-2.5c.1-.2 0-.4-.2-.4l-2.7-.8c-.2-.1-.3-.4-.1-.5l2.3-1.5c.2-.1.2-.3.1-.4l-1.7-2.3c-.2-.2 0-.5.2-.5h2.8c.2 0 .3-.2.3-.3l-.4-2.9c0-.3.2-.4.5-.3l2.4 1.5c.2.1.4 0 .4-.1l1.2-2.5c.1-.2.4-.2.6 0z" fill="none" stroke="#3fa9f5" stroke-width="1.5" stroke-miterlimit="10"/><path d="M661.9 16.4l2.5 5.3 1-2.2c.2-.4.7-.7 1.2-.5l2.3.7-2.7-5.8m-8.2 2.9l-2.3 4.8-1.3-2.3c-.2-.3-.4-.4-.7-.3l-2.5.6 2.6-5.4" fill="none" stroke="#3fa9f5" stroke-width="1.5" stroke-miterlimit="10"/><path d="M657.014 8.371l-.707.707 2.97 2.97.707-.708-2.97-2.969" fill="#3fa9f5"/><path d="M659.413 11.953l-.701-.663 3.878-4.012.707.681-3.858 4.02" fill="#3fa9f5"/></g><g><path d="M684.4 1l1.2 2.5c.1.2.3.2.4.1l2.4-1.5c.2-.1.5 0 .5.3l-.4 2.8c0 .2.1.3.3.3h2.8c.3 0 .4.3.2.5L690 8.2c-.1.1-.1.3.1.4l2.3 1.5c.2.1.2.5-.1.5l-2.7.8c-.2.1-.3.2-.2.4l1.1 2.5c.1.2-.1.5-.4.4l-2.7-.7c-.2 0-.4.1-.4.2l-.4 2.8c0 .3-.4.3-.5.2l-1.9-2.1c-.1-.1-.3-.1-.5 0l-1.7 2.2c-.2.2-.5.1-.5-.2l-.5-2.7c0-.2-.2-.3-.4-.2l-2.7.7c-.2.1-.5-.2-.4-.4l1.2-2.5c.1-.2 0-.4-.2-.4l-2.7-.8c-.2-.1-.3-.4-.1-.5l2.3-1.5c.2-.1.2-.3.1-.4l-1.7-2.3c-.2-.2 0-.5.2-.5h2.8c.2 0 .3-.2.3-.3l-.4-2.9c0-.3.2-.4.5-.3l2.4 1.5c.2.1.4 0 .4-.1l1.2-2.5c.1-.2.4-.2.6 0z" fill="none" stroke="#3fa9f5" stroke-width="1.5" stroke-miterlimit="10"/><path d="M685.9 16.4l2.5 5.3 1-2.2c.2-.4.7-.7 1.2-.5l2.3.7-2.7-5.8m-8.2 2.9l-2.3 4.8-1.3-2.3c-.2-.3-.4-.4-.7-.3l-2.5.6 2.6-5.4" fill="none" stroke="#3fa9f5" stroke-width="1.5" stroke-miterlimit="10"/><path d="M681.014 8.371l-.707.707 2.97 2.97.707-.708-2.97-2.969" fill="#3fa9f5"/><path d="M683.427 11.97l-.713-.68 3.96-4.114.715.687-3.951 4.118" fill="#3fa9f5"/></g><g><path d="M708.4 1l1.2 2.5c.1.2.3.2.4.1l2.4-1.5c.2-.1.5 0 .5.3l-.4 2.8c0 .2.1.3.3.3h2.8c.3 0 .4.3.2.5L714 8.2c-.1.1-.1.3.1.4l2.3 1.5c.2.1.2.5-.1.5l-2.7.8c-.2.1-.3.2-.2.4l1.1 2.5c.1.2-.1.5-.4.4l-2.7-.7c-.2 0-.4.1-.4.2l-.4 2.8c0 .3-.4.3-.5.2l-1.9-2.1c-.1-.1-.3-.1-.5 0l-1.7 2.2c-.2.2-.5.1-.5-.2l-.5-2.7c0-.2-.2-.3-.4-.2l-2.7.7c-.2.1-.5-.2-.4-.4l1.2-2.5c.1-.2 0-.4-.2-.4l-2.7-.8c-.2-.1-.3-.4-.1-.5l2.3-1.5c.2-.1.2-.3.1-.4l-1.7-2.3c-.2-.2 0-.5.2-.5h2.8c.2 0 .3-.2.3-.3l-.4-2.9c0-.3.2-.4.5-.3l2.4 1.5c.2.1.4 0 .4-.1l1.2-2.5c.1-.2.4-.2.6 0z" fill="none" stroke="#3fa9f5" stroke-width="1.5" stroke-miterlimit="10"/><path d="M709.9 16.4l2.5 5.3 1-2.2c.2-.4.7-.7 1.2-.5l2.3.7-2.7-5.8m-8.2 2.9l-2.3 4.8-1.3-2.3c-.2-.3-.4-.4-.7-.3l-2.5.6 2.6-5.4" fill="none" stroke="#3fa9f5" stroke-width="1.5" stroke-miterlimit="10"/><path d="M705.014 8.371l-.707.707 2.97 2.97.707-.708-2.97-2.969" fill="#3fa9f5"/><path d="M707.435 11.979l-.719-.689 4.002-4.168.72.69-4.001 4.17" fill="#3fa9f5"/></g><g><path d="M732.4 1l1.2 2.5c.1.2.3.2.4.1l2.4-1.5c.2-.1.5 0 .5.3l-.4 2.8c0 .2.1.3.3.3h2.8c.3 0 .4.3.2.5L738 8.2c-.1.1-.1.3.1.4l2.3 1.5c.2.1.2.5-.1.5l-2.7.8c-.2.1-.3.2-.2.4l1.1 2.5c.1.2-.1.5-.4.4l-2.7-.7c-.2 0-.4.1-.4.2l-.4 2.8c0 .3-.4.3-.5.2l-1.9-2.1c-.1-.1-.3-.1-.5 0l-1.7 2.2c-.2.2-.5.1-.5-.2l-.5-2.7c0-.2-.2-.3-.4-.2l-2.7.7c-.2.1-.5-.2-.4-.4l1.2-2.5c.1-.2 0-.4-.2-.4l-2.7-.8c-.2-.1-.3-.4-.1-.5l2.3-1.5c.2-.1.2-.3.1-.4l-1.7-2.3c-.2-.2 0-.5.2-.5h2.8c.2 0 .3-.2.3-.3l-.4-2.9c0-.3.2-.4.5-.3l2.4 1.5c.2.1.4 0 .4-.1l1.2-2.5c.1-.2.4-.2.6 0z" fill="none" stroke="#3fa9f5" stroke-width="1.5" stroke-miterlimit="10"/><path d="M733.9 16.4l2.5 5.3 1-2.2c.2-.4.7-.7 1.2-.5l2.3.7-2.7-5.8m-8.2 2.9l-2.3 4.8-1.3-2.3c-.2-.3-.4-.4-.7-.3l-2.5.6 2.6-5.4" fill="none" stroke="#3fa9f5" stroke-width="1.5" stroke-miterlimit="10"/><path d="M729.014 8.371l-.707.707 2.97 2.97.707-.708-2.97-2.969" fill="#3fa9f5"/><path d="M731.437 11.982l-.721-.692 4.016-4.185.721.692-4.016 4.185" fill="#3fa9f5"/></g></svg>