<svg xmlns="http://www.w3.org/2000/svg" viewBox="0 0 744 744" width="5744" height="5744"><path d="M12 10.3c-.296-.001-.585.092-.825.266-.24.173-.419.419-.511.701-.091.281-.091.585 0 .866.092.282.271.528.511.701.24.174.529.267.825.266.296.001.585-.092.825-.266.24-.173.419-.419.511-.701.091-.281.091-.585 0-.866-.092-.282-.271-.528-.511-.701-.24-.174-.529-.267-.825-.266z" fill="none" stroke="#039be5" stroke-miterlimit="10"/><path d="M12 10.3c-.296-.001-.585.092-.825.266-.24.173-.419.419-.511.701-.091.281-.091.585 0 .866.092.282.271.528.511.701.24.174.529.267.825.266.296.001.585-.092.825-.266.24-.173.419-.419.511-.701.091-.281.091-.585 0-.866-.092-.282-.271-.528-.511-.701-.24-.174-.529-.267-.825-.266z" fill="#039be5"/><path d="M8.1 8l14 14" fill="none" stroke="#039be5" stroke-width="5" stroke-dasharray="0,19.79898987322333" stroke-dashoffset="19.79899" stroke-miterlimit="10"/><path d="M34.89959 9.19959c-.296-.001-.585.092-.825.266-.24.173-.419.419-.511.701-.091.281-.091.585 0 .866.092.282.271.528.511.701.24.174.529.267.825.266.296.001.585-.092.825-.266.24-.173.419-.419.511-.701.091-.281.091-.585 0-.866-.092-.282-.271-.528-.511-.701-.24-.174-.529-.267-.825-.266z" fill="none" stroke="#039be5" stroke-miterlimit="10"/><path d="M34.89959 9.19959c-.296-.001-.585.092-.825.266-.24.173-.419.419-.511.701-.091.281-.091.585 0 .866.092.282.271.528.511.701.24.174.529.267.825.266.296.001.585-.092.825-.266.24-.173.419-.419.511-.701.091-.281.091-.585 0-.866-.092-.282-.271-.528-.511-.701-.24-.174-.529-.267-.825-.266z" fill="#039be5"/><path d="M32.1 8l14 14" fill="none" stroke="#039be5" stroke-width="5" stroke-dasharray="0,19.79898987322333" stroke-dashoffset="19.79899" stroke-miterlimit="10"/><path d="M57.98474 8.28474c-.296-.001-.585.092-.825.266-.24.173-.419.419-.511.701-.091.281-.091.585 0 .866.092.282.271.528.511.701.24.174.529.267.825.266.296.001.585-.092.825-.266.24-.173.419-.419.511-.701.091-.281.091-.585 0-.866-.092-.282-.271-.528-.511-.701-.24-.174-.529-.267-.825-.266z" fill="none" stroke="#039be5" stroke-miterlimit="10"/><path d="M57.98474 8.28474c-.296-.001-.585.092-.825.266-.24.173-.419.419-.511.701-.091.281-.091.585 0 .866.092.282.271.528.511.701.24.174.529.267.825.266.296.001.585-.092.825-.266.24-.173.419-.419.511-.701.091-.281.091-.585 0-.866-.092-.282-.271-.528-.511-.701-.24-.174-.529-.267-.825-.266z" fill="#039be5"/><path d="M56.1 8l14 14" fill="none" stroke="#039be5" stroke-width="5" stroke-dasharray="0,19.79898987322333" stroke-dashoffset="19.79899" stroke-miterlimit="10"/><path d="M81.23996 7.53996c-.296-.001-.585.092-.825.266-.24.173-.419.419-.511.701-.091.281-.091.585 0 .866.092.282.271.528.511.701.24.174.529.267.825.266.296.001.585-.092.825-.266.24-.173.419-.419.511-.701.091-.281.091-.585 0-.866-.092-.282-.271-.528-.511-.701-.24-.174-.529-.267-.825-.266z" fill="none" stroke="#039be5" stroke-miterlimit="10"/><path d="M81.23996 7.53996c-.296-.001-.585.092-.825.266-.24.173-.419.419-.511.701-.091.281-.091.585 0 .866.092.282.271.528.511.701.24.174.529.267.825.266.296.001.585-.092.825-.266.24-.173.419-.419.511-.701.091-.281.091-.585 0-.866-.092-.282-.271-.528-.511-.701-.24-.174-.529-.267-.825-.266z" fill="#039be5"/><path d="M80.1 8l14 14" fill="none" stroke="#039be5" stroke-width="5" stroke-dasharray="0,19.79898987322333" stroke-dashoffset="19.79899" stroke-miterlimit="10"/><path d="M104.649761 6.949761c-.296-.001-.585.092-.825.266-.24.173-.419.419-.511.701-.091.281-.091.585 0 .866.092.282.271.528.511.701.24.174.529.267.825.266.296.001.585-.092.825-.266.24-.173.419-.419.511-.701.091-.281.091-.585 0-.866-.092-.282-.271-.528-.511-.701-.24-.174-.529-.267-.825-.266z" fill="none" stroke="#039be5" stroke-miterlimit="10"/><path d="M104.649761 6.949761c-.296-.001-.585.092-.825.266-.24.173-.419.419-.511.701-.091.281-.091.585 0 .866.092.282.271.528.511.701.24.174.529.267.825.266.296.001.585-.092.825-.266.24-.173.419-.419.511-.701.091-.281.091-.585 0-.866-.092-.282-.271-.528-.511-.701-.24-.174-.529-.267-.825-.266z" fill="#039be5"/><path d="M104.1 8l14 14" fill="none" stroke="#039be5" stroke-width="5" stroke-dasharray="0,19.79898987322333" stroke-dashoffset="19.79899" stroke-miterlimit="10"/><path d="M128.198658 6.498658c-.296-.001-.585.092-.825.266-.24.173-.419.419-.511.701-.091.281-.091.585 0 .866.092.282.271.528.511.701.24.174.529.267.825.266.296.001.585-.092.825-.266.24-.173.419-.419.511-.701.091-.281.091-.585 0-.866-.092-.282-.271-.528-.511-.701-.24-.174-.529-.267-.825-.266z" fill="none" stroke="#039be5" stroke-miterlimit="10"/><path d="M128.198658 6.498658c-.296-.001-.585.092-.825.266-.24.173-.419.419-.511.701-.091.281-.091.585 0 .866.092.282.271.528.511.701.24.174.529.267.825.266.296.001.585-.092.825-.266.24-.173.419-.419.511-.701.091-.281.091-.585 0-.866-.092-.282-.271-.528-.511-.701-.24-.174-.529-.267-.825-.266z" fill="#039be5"/><path d="M128.1 8l14 14" fill="none" stroke="#039be5" stroke-width="5" stroke-dasharray="0,19.79898987322333" stroke-dashoffset="19.79899" stroke-miterlimit="10"/><path d="M151.87116 6.17116c-.296-.001-.585.092-.825.266-.24.173-.419.419-.511.701-.091.281-.091.585 0 .866.092.282.271.528.511.701.24.174.529.267.825.266.296.001.585-.092.825-.266.24-.173.419-.419.511-.701.091-.281.091-.585 0-.866-.092-.282-.271-.528-.511-.701-.24-.174-.529-.267-.825-.266z" fill="none" stroke="#039be5" stroke-miterlimit="10"/><path d="M151.87116 6.17116c-.296-.001-.585.092-.825.266-.24.173-.419.419-.511.701-.091.281-.091.585 0 .866.092.282.271.528.511.701.24.174.529.267.825.266.296.001.585-.092.825-.266.24-.173.419-.419.511-.701.091-.281.091-.585 0-.866-.092-.282-.271-.528-.511-.701-.24-.174-.529-.267-.825-.266z" fill="#039be5"/><path d="M152.1 8l14 14" fill="none" stroke="#039be5" stroke-width="5" stroke-dasharray="0,19.79898987322333" stroke-dashoffset="19.79899" stroke-miterlimit="10"/><path d="M175.651782 5.951782c-.296-.001-.585.092-.825.266-.24.173-.419.419-.511.701-.091.281-.091.585 0 .866.092.282.271.528.511.701.24.174.529.267.825.266.296.001.585-.092.825-.266.24-.173.419-.419.511-.701.091-.281.091-.585 0-.866-.092-.282-.271-.528-.511-.701-.24-.174-.529-.267-.825-.266z" fill="none" stroke="#039be5" stroke-miterlimit="10"/><path d="M175.651782 5.951782c-.296-.001-.585.092-.825.266-.24.173-.419.419-.511.701-.091.281-.091.585 0 .866.092.282.271.528.511.701.24.174.529.267.825.266.296.001.585-.092.825-.266.24-.173.419-.419.511-.701.091-.281.091-.585 0-.866-.092-.282-.271-.528-.511-.701-.24-.174-.529-.267-.825-.266z" fill="#039be5"/><path d="M176.1 8l14 14" fill="none" stroke="#039be5" stroke-width="5" stroke-dasharray="0,19.79898987322333" stroke-dashoffset="19.79899" stroke-miterlimit="10"/><path d="M199.525034 5.825034c-.296-.001-.585.092-.825.266-.24.173-.419.419-.511.701-.091.281-.091.585 0 .866.092.282.271.528.511.701.24.174.529.267.825.266.296.001.585-.092.825-.266.24-.173.419-.419.511-.701.091-.281.091-.585 0-.866-.092-.282-.271-.528-.511-.701-.24-.174-.529-.267-.825-.266z" fill="none" stroke="#039be5" stroke-miterlimit="10"/><path d="M199.525034 5.825034c-.296-.001-.585.092-.825.266-.24.173-.419.419-.511.701-.091.281-.091.585 0 .866.092.282.271.528.511.701.24.174.529.267.825.266.296.001.585-.092.825-.266.24-.173.419-.419.511-.701.091-.281.091-.585 0-.866-.092-.282-.271-.528-.511-.701-.24-.174-.529-.267-.825-.266z" fill="#039be5"/><path d="M200.1 8l14 14" fill="none" stroke="#039be5" stroke-width="5" stroke-dasharray="0,19.79898987322333" stroke-dashoffset="19.79899" stroke-miterlimit="10"/><path d="M223.475428 5.775428c-.296-.001-.585.092-.825.266-.24.173-.419.419-.511.701-.091.281-.091.585 0 .866.092.282.271.528.511.701.24.174.529.267.825.266.296.001.585-.092.825-.266.24-.173.419-.419.511-.701.091-.281.091-.585 0-.866-.092-.282-.271-.528-.511-.701-.24-.174-.529-.267-.825-.266z" fill="none" stroke="#039be5" stroke-miterlimit="10"/><path d="M223.475428 5.775428c-.296-.001-.585.092-.825.266-.24.173-.419.419-.511.701-.091.281-.091.585 0 .866.092.282.271.528.511.701.24.174.529.267.825.266.296.001.585-.092.825-.266.24-.173.419-.419.511-.701.091-.281.091-.585 0-.866-.092-.282-.271-.528-.511-.701-.24-.174-.529-.267-.825-.266z" fill="#039be5"/><path d="M224.1 8l14 14" fill="none" stroke="#039be5" stroke-width="5" stroke-dasharray="0,19.79898987322333" stroke-dashoffset="19.79899" stroke-miterlimit="10"/><path d="M247.487477 5.787477c-.296-.001-.585.092-.825.266-.24.173-.419.419-.511.701-.091.281-.091.585 0 .866.092.282.271.528.511.701.24.174.529.267.825.266.296.001.585-.092.825-.266.24-.173.419-.419.511-.701.091-.281.091-.585 0-.866-.092-.282-.271-.528-.511-.701-.24-.174-.529-.267-.825-.266z" fill="none" stroke="#039be5" stroke-miterlimit="10"/><path d="M247.487477 5.787477c-.296-.001-.585.092-.825.266-.24.173-.419.419-.511.701-.091.281-.091.585 0 .866.092.282.271.528.511.701.24.174.529.267.825.266.296.001.585-.092.825-.266.24-.173.419-.419.511-.701.091-.281.091-.585 0-.866-.092-.282-.271-.528-.511-.701-.24-.174-.529-.267-.825-.266z" fill="#039be5"/><path d="M248.1 8l14 14" fill="none" stroke="#039be5" stroke-width="5" stroke-dasharray="0,19.79898987322333" stroke-dashoffset="19.79899" stroke-miterlimit="10"/><path d="M271.545692 5.845692c-.296-.001-.585.092-.825.266-.24.173-.419.419-.511.701-.091.281-.091.585 0 .866.092.282.271.528.511.701.24.174.529.267.825.266.296.001.585-.092.825-.266.24-.173.419-.419.511-.701.091-.281.091-.585 0-.866-.092-.282-.271-.528-.511-.701-.24-.174-.529-.267-.825-.266z" fill="none" stroke="#039be5" stroke-miterlimit="10"/><path d="M271.545692 5.845692c-.296-.001-.585.092-.825.266-.24.173-.419.419-.511.701-.091.281-.091.585 0 .866.092.282.271.528.511.701.24.174.529.267.825.266.296.001.585-.092.825-.266.24-.173.419-.419.511-.701.091-.281.091-.585 0-.866-.092-.282-.271-.528-.511-.701-.24-.174-.529-.267-.825-.266z" fill="#039be5"/><path d="M272.1 8l14 14" fill="none" stroke="#039be5" stroke-width="5" stroke-dasharray="0,19.79898987322333" stroke-dashoffset="19.79899" stroke-miterlimit="10"/><path d="M295.634586 5.934586c-.296-.001-.585.092-.825.266-.24.173-.419.419-.511.701-.091.281-.091.585 0 .866.092.282.271.528.511.701.24.174.529.267.825.266.296.001.585-.092.825-.266.24-.173.419-.419.511-.701.091-.281.091-.585 0-.866-.092-.282-.271-.528-.511-.701-.24-.174-.529-.267-.825-.266z" fill="none" stroke="#039be5" stroke-miterlimit="10"/><path d="M295.634586 5.934586c-.296-.001-.585.092-.825.266-.24.173-.419.419-.511.701-.091.281-.091.585 0 .866.092.282.271.528.511.701.24.174.529.267.825.266.296.001.585-.092.825-.266.24-.173.419-.419.511-.701.091-.281.091-.585 0-.866-.092-.282-.271-.528-.511-.701-.24-.174-.529-.267-.825-.266z" fill="#039be5"/><path d="M296.1 8l14 14" fill="none" stroke="#039be5" stroke-width="5" stroke-dasharray="0,19.79898987322333" stroke-dashoffset="19.79899" stroke-miterlimit="10"/><g><path d="M319.73867 6.03867c-.296-.001-.585.092-.825.266-.24.173-.419.419-.511.701-.091.281-.091.585 0 .866.092.282.271.528.511.701.24.174.529.267.825.266.296.001.585-.092.825-.266.24-.173.419-.419.511-.701.091-.281.091-.585 0-.866-.092-.282-.271-.528-.511-.701-.24-.174-.529-.267-.825-.266z" fill="none" stroke="#039be5" stroke-miterlimit="10"/><path d="M319.73867 6.03867c-.296-.001-.585.092-.825.266-.24.173-.419.419-.511.701-.091.281-.091.585 0 .866.092.282.271.528.511.701.24.174.529.267.825.266.296.001.585-.092.825-.266.24-.173.419-.419.511-.701.091-.281.091-.585 0-.866-.092-.282-.271-.528-.511-.701-.24-.174-.529-.267-.825-.266z" fill="#039be5"/><path d="M320.1 8l14 14" fill="none" stroke="#039be5" stroke-width="5" stroke-dasharray="0,19.79898987322333" stroke-dashoffset="19.79899" stroke-miterlimit="10"/></g><g><path d="M343.842458 6.142458c-.296-.001-.585.092-.825.266-.24.173-.419.419-.511.701-.091.281-.091.585 0 .866.092.282.271.528.511.701.24.174.529.267.825.266.296.001.585-.092.825-.266.24-.173.419-.419.511-.701.091-.281.091-.585 0-.866-.092-.282-.271-.528-.511-.701-.24-.174-.529-.267-.825-.266z" fill="none" stroke="#039be5" stroke-miterlimit="10"/><path d="M343.842458 6.142458c-.296-.001-.585.092-.825.266-.24.173-.419.419-.511.701-.091.281-.091.585 0 .866.092.282.271.528.511.701.24.174.529.267.825.266.296.001.585-.092.825-.266.24-.173.419-.419.511-.701.091-.281.091-.585 0-.866-.092-.282-.271-.528-.511-.701-.24-.174-.529-.267-.825-.266z" fill="#039be5"/><path d="M344.1 8l14 14" fill="none" stroke="#039be5" stroke-width="5" stroke-dasharray="0,19.79898987322333" stroke-dashoffset="19.79899" stroke-miterlimit="10"/></g><g><path d="M367.93046 6.23046c-.296-.001-.585.092-.825.266-.24.173-.419.419-.511.701-.091.281-.091.585 0 .866.092.282.271.528.511.701.24.174.529.267.825.266.296.001.585-.092.825-.266.24-.173.419-.419.511-.701.091-.281.091-.585 0-.866-.092-.282-.271-.528-.511-.701-.24-.174-.529-.267-.825-.266z" fill="none" stroke="#039be5" stroke-miterlimit="10"/><path d="M367.93046 6.23046c-.296-.001-.585.092-.825.266-.24.173-.419.419-.511.701-.091.281-.091.585 0 .866.092.282.271.528.511.701.24.174.529.267.825.266.296.001.585-.092.825-.266.24-.173.419-.419.511-.701.091-.281.091-.585 0-.866-.092-.282-.271-.528-.511-.701-.24-.174-.529-.267-.825-.266z" fill="#039be5"/><path d="M368.1 8l14 14" fill="none" stroke="#039be5" stroke-width="5" stroke-dasharray="0,19.79898987322333" stroke-dashoffset="19.79899" stroke-miterlimit="10"/></g><g><path d="M391.987188 6.287188c-.296-.001-.585.092-.825.266-.24.173-.419.419-.511.701-.091.281-.091.585 0 .866.092.282.271.528.511.701.24.174.529.267.825.266.296.001.585-.092.825-.266.24-.173.419-.419.511-.701.091-.281.091-.585 0-.866-.092-.282-.271-.528-.511-.701-.24-.174-.529-.267-.825-.266z" fill="none" stroke="#039be5" stroke-miterlimit="10"/><path d="M391.987188 6.287188c-.296-.001-.585.092-.825.266-.24.173-.419.419-.511.701-.091.281-.091.585 0 .866.092.282.271.528.511.701.24.174.529.267.825.266.296.001.585-.092.825-.266.24-.173.419-.419.511-.701.091-.281.091-.585 0-.866-.092-.282-.271-.528-.511-.701-.24-.174-.529-.267-.825-.266z" fill="#039be5"/><path d="M392.1 8l14 14" fill="none" stroke="#039be5" stroke-width="5" stroke-dasharray="0,19.79898987322333" stroke-dashoffset="19.79899" stroke-miterlimit="10"/></g><g><path d="M416 6.3c-.296-.001-.585.092-.825.266-.24.173-.419.419-.511.701-.091.281-.091.585 0 .866.092.282.271.528.511.701.24.174.529.267.825.266.296.001.585-.092.825-.266.24-.173.419-.419.511-.701.091-.281.091-.585 0-.866-.092-.282-.271-.528-.511-.701-.24-.174-.529-.267-.825-.266z" fill="none" stroke="#039be5" stroke-miterlimit="10"/><path d="M416 6.276c-.301-.001-.595.093-.839.27-.245.176-.427.427-.52.713-.093.286-.093.596 0 .882.093.286.275.537.52.713.244.177.538.271.839.27.303.001.598-.094.843-.273.242-.175.422-.424.515-.708.093-.284.093-.59.003-.874-.092-.289-.273-.542-.518-.72-.245-.179-.54-.274-.843-.273z" fill="#039be5"/><path d="M416.1 8l14 14" fill="none" stroke="#039be5" stroke-width="5" stroke-dasharray="0,19.79898987322333" stroke-dashoffset="19.79899" stroke-miterlimit="10"/></g><g><path d="M440 6.3c-.296-.001-.585.092-.825.266-.24.173-.419.419-.511.701-.091.281-.091.585 0 .866.092.282.271.528.511.701.24.174.529.267.825.266.296.001.585-.092.825-.266.24-.173.419-.419.511-.701.091-.281.091-.585 0-.866-.092-.282-.271-.528-.511-.701-.24-.174-.529-.267-.825-.266z" fill="none" stroke="#039be5" stroke-miterlimit="10"/><path d="M440 5.673c-.428-.001-.846.134-1.193.386-.347.251-.606.607-.739 1.014-.132.407-.132.847 0 1.254.133.407.392.763.739 1.014.347.252.765.387 1.193.386.471.001.928-.165 1.288-.467.286-.227.501-.531.622-.875.12-.342.141-.712.061-1.065-.081-.459-.322-.878-.683-1.18-.36-.302-.817-.468-1.288-.467z" fill="#039be5"/><path d="M440.1 8l14 14" fill="none" stroke="#039be5" stroke-width="5" stroke-dasharray="0,19.79898987322333" stroke-dashoffset="19.79899" stroke-miterlimit="10"/></g><g><path d="M464 6.3c-.296-.001-.585.092-.825.266-.24.173-.419.419-.511.701-.091.281-.091.585 0 .866.092.282.271.528.511.701.24.174.529.267.825.266.296.001.585-.092.825-.266.24-.173.419-.419.511-.701.091-.281.091-.585 0-.866-.092-.282-.271-.528-.511-.701-.24-.174-.529-.267-.825-.266z" fill="none" stroke="#039be5" stroke-miterlimit="10"/><path d="M464 3.869c-.809-.001-1.598.255-2.253.731-.655.475-1.143 1.146-1.393 1.916-.25.769-.25 1.599 0 2.368.25.77.738 1.441 1.393 1.916.655.476 1.444.732 2.253.731.976.001 1.916-.375 2.623-1.047.416-.381.736-.852.939-1.372.202-.519.283-1.081.236-1.639-.049-.968-.469-1.886-1.175-2.557-.707-.672-1.647-1.048-2.623-1.047z" fill="#039be5"/><path d="M464.1 8l14 14" fill="none" stroke="#039be5" stroke-width="5" stroke-dasharray="0,19.79898987322333" stroke-dashoffset="19.79899" stroke-miterlimit="10"/></g><g><path d="M488 6.3c-.296-.001-.585.092-.825.266-.24.173-.419.419-.511.701-.091.281-.091.585 0 .866.092.282.271.528.511.701.24.174.529.267.825.266.296.001.585-.092.825-.266.24-.173.419-.419.511-.701.091-.281.091-.585 0-.866-.092-.282-.271-.528-.511-.701-.24-.174-.529-.267-.825-.266z" fill="none" stroke="#039be5" stroke-miterlimit="10"/><path d="M488 2.422c-1.114 0-2.201.353-3.103 1.007-.902.655-1.573 1.58-1.918 2.64-.344 1.06-.344 2.202 0 3.262.345 1.06 1.016 1.985 1.918 2.64.902.654 1.989 1.007 3.103 1.007 1.381 0 2.709-.543 3.692-1.511.522-.505.926-1.11 1.194-1.772.269-.661.399-1.376.377-2.099-.022-1.377-.586-2.695-1.571-3.663-.983-.968-2.311-1.511-3.692-1.511z" fill="#039be5"/><path d="M488.1 8l14 14" fill="none" stroke="#039be5" stroke-width="5" stroke-dasharray="0,19.79898987322333" stroke-dashoffset="19.79899" stroke-miterlimit="10"/></g><g><path d="M512 6.3c-.296-.001-.585.092-.825.266-.24.173-.419.419-.511.701-.091.281-.091.585 0 .866.092.282.271.528.511.701.24.174.529.267.825.266.296.001.585-.092.825-.266.24-.173.419-.419.511-.701.091-.281.091-.585 0-.866-.092-.282-.271-.528-.511-.701-.24-.174-.529-.267-.825-.266z" fill="none" stroke="#039be5" stroke-miterlimit="10"/><path d="M512 1.701c-1.266 0-2.501.401-3.527 1.145-1.024.745-1.788 1.795-2.179 3-.392 1.205-.392 2.503 0 3.708.391 1.205 1.155 2.255 2.179 3 1.026.744 2.261 1.145 3.527 1.145 1.583 0 3.104-.626 4.226-1.743.573-.566 1.019-1.238 1.321-1.971.301-.732.455-1.523.446-2.328-.009-1.581-.644-3.098-1.767-4.213-1.122-1.117-2.643-1.743-4.226-1.743z" fill="#039be5"/><path d="M512.1 8l14 14" fill="none" stroke="#039be5" stroke-width="5" stroke-dasharray="0,19.79898987322333" stroke-dashoffset="19.79899" stroke-miterlimit="10"/></g><g><path d="M536 6.3c-.296-.001-.585.092-.825.266-.24.173-.419.419-.511.701-.091.281-.091.585 0 .866.092.282.271.528.511.701.24.174.529.267.825.266.296.001.585-.092.825-.266.24-.173.419-.419.511-.701.091-.281.091-.585 0-.866-.092-.282-.271-.528-.511-.701-.24-.174-.529-.267-.825-.266z" fill="none" stroke="#039be5" stroke-miterlimit="10"/><path d="M536 1.35c-1.34 0-2.647.425-3.733 1.213-1.084.788-1.892 1.9-2.306 3.174-.414 1.276-.414 2.65 0 3.926.414 1.274 1.222 2.386 2.306 3.174 1.086.788 2.393 1.213 3.733 1.213 1.681 0 3.296-.668 4.485-1.856.599-.596 1.065-1.3 1.382-2.068.317-.766.483-1.594.481-2.439-.003-1.68-.673-3.294-1.863-4.481-1.189-1.188-2.804-1.856-4.485-1.856z" fill="#039be5"/><path d="M536.1 8l14 14" fill="none" stroke="#039be5" stroke-width="5" stroke-dasharray="0.18143285984184804,19.617557013381482" stroke-dashoffset="19.79899" stroke-miterlimit="10"/></g><g><path d="M560 6.3c-.296-.001-.585.092-.825.266-.24.173-.419.419-.511.701-.091.281-.091.585 0 .866.092.282.271.528.511.701.24.174.529.267.825.266.296.001.585-.092.825-.266.24-.173.419-.419.511-.701.091-.281.091-.585 0-.866-.092-.282-.271-.528-.511-.701-.24-.174-.529-.267-.825-.266z" fill="none" stroke="#039be5" stroke-miterlimit="10"/><path d="M560 1.213c-1.369 0-2.704.435-3.813 1.239-1.108.805-1.933 1.941-2.356 3.243-.423 1.303-.423 2.707 0 4.01.423 1.302 1.248 2.438 2.356 3.243 1.109.804 2.444 1.239 3.813 1.239 1.719 0 3.371-.684 4.586-1.9.609-.608 1.083-1.325 1.407-2.105.323-.78.494-1.623.493-2.483 0-1.719-.683-3.371-1.9-4.586-1.215-1.216-2.867-1.9-4.586-1.9z" fill="#039be5"/><path d="M560.1 8l14 14" fill="none" stroke="#039be5" stroke-width="5" stroke-dasharray="1.2054556062699038,18.593534266953426" stroke-dashoffset="19.79899" stroke-miterlimit="10"/></g><g><path d="M584 6.3c-.296-.001-.585.092-.825.266-.24.173-.419.419-.511.701-.091.281-.091.585 0 .866.092.282.271.528.511.701.24.174.529.267.825.266.296.001.585-.092.825-.266.24-.173.419-.419.511-.701.091-.281.091-.585 0-.866-.092-.282-.271-.528-.511-.701-.24-.174-.529-.267-.825-.266z" fill="none" stroke="#039be5" stroke-opacity=".90442" stroke-miterlimit="10"/><path d="M584 1.2c-1.368 0-2.703.433-3.811 1.236-.181.136-.355.282-.52.435-.161.158-.313.325-.456.498-.154.171-.298.348-.434.533-.137.187-.264.381-.382.581-.116.191-.222.387-.318.589-.097.201-.184.406-.26.617-.424 1.302-.424 2.704-.003 4.006.421 1.309 1.247 2.45 2.358 3.26 1.111.808 2.451 1.245 3.826 1.245 1.716 0 3.365-.681 4.579-1.893.618-.609 1.099-1.331 1.426-2.12.324-.781.495-1.625.495-2.487 0-1.721-.683-3.374-1.899-4.591C587.383 1.888 585.726 1.2 584 1.2z" fill="#039be5"/><path d="M584.1 8l14 14" fill="none" stroke="#039be5" stroke-width="5" stroke-dasharray="3.69918828028073,16.0998015929426" stroke-dashoffset="19.79899" stroke-miterlimit="10"/></g><g><path d="M608 6.3c-.296-.001-.585.092-.825.266-.24.173-.419.419-.511.701-.091.281-.091.585 0 .866.092.282.271.528.511.701.24.174.529.267.825.266.296.001.585-.092.825-.266.24-.173.419-.419.511-.701.091-.281.091-.585 0-.866-.092-.282-.271-.528-.511-.701-.24-.174-.529-.267-.825-.266z" fill="none" stroke="#039be5" stroke-opacity=".219833" stroke-miterlimit="10"/><path d="M608 1.2c-1.331 0-2.637.418-3.719 1.188-.143.153-.278.315-.406.485-.085.213-.162.434-.23.662-.175.19-.34.386-.496.589-.179.225-.349.457-.509.694-.146.141-.283.287-.41.438-.145.134-.281.271-.406.414-.415 1.263-.422 2.625-.029 3.895.394 1.34 1.213 2.513 2.328 3.347 1.116.832 2.474 1.288 3.877 1.288 1.651 0 3.238-.644 4.415-1.791.693-.608 1.236-1.37 1.589-2.218.324-.781.496-1.626.496-2.491 0-1.702-.669-3.333-1.856-4.54-1.215-1.248-2.889-1.96-4.644-1.96z" fill="#039be5"/><path d="M608.1 8l14 14" fill="none" stroke="#039be5" stroke-width="5" stroke-dasharray="7.853635082736258,11.945354790487071" stroke-dashoffset="19.79899" stroke-miterlimit="10"/></g><g><path d="M632 6.3c-.296-.001-.585.092-.825.266-.24.173-.419.419-.511.701-.091.281-.091.585 0 .866.092.282.271.528.511.701.24.174.529.267.825.266.296.001.585-.092.825-.266.24-.173.419-.419.511-.701.091-.281.091-.585 0-.866-.092-.282-.271-.528-.511-.701-.24-.174-.529-.267-.825-.266z" fill="none" stroke="#039be5" stroke-opacity=".016793" stroke-miterlimit="10"/><path d="M632 1.2c-1.227 0-2.454.375-3.461 1.053-.036.202-.067.41-.092.625.128.367.262.741.403 1.12-.231.243-.454.491-.67.745-.295.332-.583.67-.863 1.012-.229.001-.451.006-.666.016-.278-.055-.549-.107-.812-.154-.393 1.153-.418 2.405-.102 3.583.317 1.43 1.118 2.692 2.244 3.592 1.128.899 2.538 1.408 4.019 1.408 1.47 0 2.883-.541 3.957-1.507.903-.604 1.618-1.476 2.043-2.49.326-.782.5-1.63.5-2.503 0-1.648-.627-3.218-1.734-4.399C635.558 1.979 633.837 1.2 632 1.2z" fill="#039be5"/><path d="M632.1 8l14 14" fill="none" stroke="#039be5" stroke-width="5" stroke-dasharray="11.88715712147525,7.911832751748081" stroke-dashoffset="19.79899" stroke-miterlimit="10"/></g><g><path d="M656 6.3c-.296-.001-.585.092-.825.266-.24.173-.419.419-.511.701-.091.281-.091.585 0 .866.092.282.271.528.511.701.24.174.529.267.825.266.296.001.585-.092.825-.266.24-.173.419-.419.511-.701.091-.281.091-.585 0-.866-.092-.282-.271-.528-.511-.701-.24-.174-.529-.267-.825-.266z" fill="none"/><path d="M656 1.2c-1.074 0-2.184.313-3.081.855.12.273.244.55.371.831.44.594.884 1.192 1.333 1.793-.313.322-.622.647-.927.975-.465.49-.926.982-1.382 1.478-.352-.204-.7-.406-1.042-.605-.476-.331-.946-.661-1.411-.988-.36.991-.412 2.081-.209 3.123.203 1.563.977 2.955 2.121 3.954 1.145.998 2.632 1.584 4.227 1.584 1.204 0 2.361-.39 3.284-1.088 1.211-.599 2.18-1.633 2.711-2.893.328-.781.505-1.635.505-2.519 0-1.57-.566-3.05-1.554-4.191C659.747 2.078 657.956 1.2 656 1.2z" fill="#039be5"/><path d="M656.1 8l14 14" fill="none" stroke="#039be5" stroke-width="5" stroke-dasharray="14.733246638186504,5.065743235036826" stroke-dashoffset="19.79899" stroke-miterlimit="10"/></g><g><path d="M680 6.3c-.296-.001-.585.092-.825.266-.24.173-.419.419-.511.701-.091.281-.091.585 0 .866.092.282.271.528.511.701.24.174.529.267.825.266.296.001.585-.092.825-.266.24-.173.419-.419.511-.701.091-.281.091-.585 0-.866-.092-.282-.271-.528-.511-.701-.24-.174-.529-.267-.825-.266z" fill="none"/><path d="M680 1.2c-.96 0-1.983.266-2.798.707.236.326.475.654.715.985.673.762 1.348 1.528 2.026 2.295-.375.38-.748.761-1.117 1.145-.594.607-1.183 1.215-1.77 1.825-.443-.357-.885-.713-1.323-1.066-.622-.538-1.24-1.074-1.856-1.61-.335.87-.407 1.84-.288 2.782.119 1.661.872 3.15 2.029 4.222 1.157 1.071 2.702 1.715 4.382 1.715 1.006 0 1.973-.277 2.783-.776 1.441-.596 2.598-1.751 3.208-3.192.329-.782.509-1.639.509-2.532 0-1.511-.521-2.924-1.421-4.037C683.888 2.151 682.046 1.2 680 1.2z" fill="#039be5"/><path d="M680.1 8l14 14" fill="none" stroke="#039be5" stroke-width="5" stroke-dasharray="16.646049536513555,3.1529403367097752" stroke-dashoffset="19.79899" stroke-miterlimit="10"/></g><g><path d="M704 6.3c-.296-.001-.585.092-.825.266-.24.173-.419.419-.511.701-.091.281-.091.585 0 .866.092.282.271.528.511.701.24.174.529.267.825.266.296.001.585-.092.825-.266.24-.173.419-.419.511-.701.091-.281.091-.585 0-.866-.092-.282-.271-.528-.511-.701-.24-.174-.529-.267-.825-.266z" fill="none"/><path d="M704 1.2c-.89 0-1.859.237-2.623.616.308.359.617.718.928 1.079.816.867 1.634 1.735 2.453 2.605-.413.416-.825.833-1.235 1.251-.672.679-1.341 1.359-2.009 2.039-.5-.451-.999-.902-1.496-1.352-.712-.665-1.422-1.329-2.131-1.992-.319.795-.404 1.69-.337 2.57.067 1.722.808 3.27 1.972 4.388 1.165 1.117 2.745 1.796 4.478 1.796.883 0 1.733-.207 2.474-.583 1.582-.594 2.856-1.824 3.514-3.378.331-.782.512-1.641.512-2.539 0-1.475-.493-2.847-1.338-3.941C707.976 2.197 706.101 1.2 704 1.2z" fill="#039be5"/><path d="M704.1 8l14 14" fill="none" stroke="#039be5" stroke-width="5" stroke-dasharray="17.93729876142601,1.8616911117973187" stroke-dashoffset="19.79899" stroke-miterlimit="10"/></g><g><path d="M728 6.3c-.296-.001-.585.092-.825.266-.24.173-.419.419-.511.701-.091.281-.091.585 0 .866.092.282.271.528.511.701.24.174.529.267.825.266.296.001.585-.092.825-.266.24-.173.419-.419.511-.701.091-.281.091-.585 0-.866-.092-.282-.271-.528-.511-.701-.24-.174-.529-.267-.825-.266z" fill="none"/><path d="M728 1.2c-.846 0-1.782.219-2.515.56.352.379.705.758 1.059 1.138.905.931 1.811 1.863 2.717 2.795-.437.438-.873.877-1.308 1.316-.72.724-1.438 1.448-2.156 2.172-.535-.509-1.069-1.019-1.603-1.528-.768-.744-1.534-1.486-2.301-2.229-.31.749-.402 1.598-.367 2.439.034 1.76.768 3.345 1.937 4.491 1.17 1.145 2.772 1.846 4.537 1.846.808 0 1.585-.164 2.283-.464 1.67-.593 3.015-1.868 3.704-3.492.331-.782.513-1.642.513-2.544 0-1.453-.476-2.799-1.288-3.882C732.029 2.225 730.135 1.2 728 1.2z" fill="#039be5"/><path d="M728.1 8l14 14" fill="none" stroke="#039be5" stroke-width="5" stroke-dasharray="18.799822060612392,0.9991678126109389" stroke-dashoffset="19.79899" stroke-miterlimit="10"/></g><g><path d="M752 6.3c-.296-.001-.585.092-.825.266-.24.173-.419.419-.511.701-.091.281-.091.585 0 .866.092.282.271.528.511.701.24.174.529.267.825.266.296.001.585-.092.825-.266.24-.173.419-.419.511-.701.091-.281.091-.585 0-.866-.092-.282-.271-.528-.511-.701-.24-.174-.529-.267-.825-.266z" fill="none"/><path d="M752 1.2c-.82 0-1.736.208-2.45.526.379.391.758.782 1.138 1.173.959.97 1.918 1.94 2.877 2.911-.451.451-.902.903-1.352 1.355-.75.751-1.498 1.502-2.245 2.252-.556-.545-1.112-1.09-1.667-1.634-.802-.792-1.603-1.582-2.404-2.373-.304.722-.401 1.543-.386 2.361.015 1.783.744 3.39 1.917 4.552C748.6 13.485 750.215 14.2 752 14.2c.762 0 1.495-.138 2.167-.393 1.723-.591 3.112-1.895 3.819-3.56.331-.782.514-1.644.514-2.547 0-1.439-.465-2.77-1.257-3.847C756.062 2.242 754.155 1.2 752 1.2z" fill="#039be5"/><path d="M752.1 8l14 14" fill="none" stroke="#039be5" stroke-width="5" stroke-dasharray="19.350665013802075,0.4483248594212544" stroke-dashoffset="19.79899" stroke-miterlimit="10"/></g><g><path d="M776 6.3c-.296-.001-.585.092-.825.266-.24.173-.419.419-.511.701-.091.281-.091.585 0 .866.092.282.271.528.511.701.24.174.529.267.825.266.296.001.585-.092.825-.266.24-.173.419-.419.511-.701.091-.281.091-.585 0-.866-.092-.282-.271-.528-.511-.701-.24-.174-.529-.267-.825-.266z" fill="none"/><path d="M776 1.2c-.806 0-1.711.202-2.415.508.394.397.788.794 1.182 1.192l2.964 2.973c-.459.459-.918.918-1.376 1.378-.765.765-1.53 1.53-2.294 2.295-.567-.564-1.135-1.129-1.702-1.692-.821-.818-1.64-1.634-2.46-2.451-.301.706-.4 1.513-.396 2.318.005 1.795.731 3.415 1.905 4.586 1.174 1.171 2.796 1.893 4.592 1.893.737 0 1.446-.124 2.104-.353 1.752-.592 3.164-1.91 3.881-3.599.332-.782.515-1.643.515-2.548 0-1.432-.459-2.755-1.24-3.827C780.08 2.251 778.166 1.2 776 1.2z" fill="#039be5"/><path d="M776.1 8l14 14" fill="none" stroke="#039be5" stroke-width="5" stroke-dasharray="19.66452773664377,0.13446213657956071" stroke-dashoffset="19.79899" stroke-miterlimit="10"/></g><g><path d="M800 6.3c-.296-.001-.585.092-.825.266-.24.173-.419.419-.511.701-.091.281-.091.585 0 .866.092.282.271.528.511.701.24.174.529.267.825.266.296.001.585-.092.825-.266.24-.173.419-.419.511-.701.091-.281.091-.585 0-.866-.092-.282-.271-.528-.511-.701-.24-.174-.529-.267-.825-.266z" fill="none"/><path d="M800 1.2c-.8 0-1.701.2-2.401.5.4.4.8.8 1.199 1.2 1 1 1.999 1.999 2.998 2.999-.462.461-.923.923-1.385 1.385l-2.313 2.313c-.572-.571-1.145-1.144-1.716-1.716-.828-.827-1.654-1.653-2.482-2.481-.3.701-.4 1.501-.4 2.301 0 1.8.725 3.425 1.9 4.599 1.175 1.175 2.8 1.9 4.6 1.9.728 0 1.427-.118 2.079-.338 1.764-.591 3.185-1.916 3.906-3.613.332-.782.515-1.644.515-2.549 0-1.429-.457-2.748-1.233-3.819C804.087 2.255 802.171 1.2 800 1.2z" fill="#039be5"/><path d="M800.1 8l14 14" fill="none" stroke="#039be5" stroke-width="5" stroke-dasharray="19.791664410033384,0.00732546318994607" stroke-dashoffset="19.79899" stroke-miterlimit="10"/></g><g><path d="M824 6.3c-.296-.001-.585.092-.825.266-.24.173-.419.419-.511.701-.091.281-.091.585 0 .866.092.282.271.528.511.701.24.174.529.267.825.266.296.001.585-.092.825-.266.24-.173.419-.419.511-.701.091-.281.091-.585 0-.866-.092-.282-.271-.528-.511-.701-.24-.174-.529-.267-.825-.266z" fill="none"/><path d="M824 1.2c-.8 0-1.7.2-2.4.5l1.2 1.2 3 3-1.386 1.386L822.1 9.6l-1.717-1.717L817.9 5.4c-.3.7-.4 1.5-.4 2.3 0 1.8.725 3.425 1.9 4.6 1.175 1.175 2.8 1.9 4.6 1.9.727 0 1.426-.118 2.078-.337 1.764-.591 3.186-1.916 3.907-3.614.332-.782.515-1.644.515-2.549 0-1.429-.457-2.748-1.233-3.819C828.087 2.255 826.171 1.2 824 1.2z" fill="#039be5"/><path d="M824.1 8l14 14" fill="none" stroke="#039be5" stroke-width="5" stroke-miterlimit="10"/></g><g><path d="M848 6.3c-.296-.001-.585.092-.825.266-.24.173-.419.419-.511.701-.091.281-.091.585 0 .866.092.282.271.528.511.701.24.174.529.267.825.266.296.001.585-.092.825-.266.24-.173.419-.419.511-.701.091-.281.091-.585 0-.866-.092-.282-.271-.528-.511-.701-.24-.174-.529-.267-.825-.266z" fill="none"/><path d="M848 1.2c-.8 0-1.7.2-2.4.5l1.2 1.2 3 3-1.386 1.386L846.1 9.6l-1.717-1.717L841.9 5.4c-.3.7-.4 1.5-.4 2.3 0 1.8.725 3.425 1.9 4.6 1.175 1.175 2.8 1.9 4.6 1.9.727 0 1.426-.118 2.078-.337 1.764-.591 3.186-1.916 3.907-3.614.332-.782.515-1.644.515-2.549 0-1.429-.457-2.748-1.233-3.819C852.087 2.255 850.171 1.2 848 1.2z" fill="#039be5"/><path d="M848.1 8l14 14" fill="none" stroke="#039be5" stroke-width="5" stroke-miterlimit="10"/></g><g><path d="M872 6.3c-.296-.001-.585.092-.825.266-.24.173-.419.419-.511.701-.091.281-.091.585 0 .866.092.282.271.528.511.701.24.174.529.267.825.266.296.001.585-.092.825-.266.24-.173.419-.419.511-.701.091-.281.091-.585 0-.866-.092-.282-.271-.528-.511-.701-.24-.174-.529-.267-.825-.266z" fill="none"/><path d="M872 1.2c-.8 0-1.7.2-2.4.5l1.2 1.2 3 3-1.386 1.386L870.1 9.6l-1.717-1.717L865.9 5.4c-.3.7-.4 1.5-.4 2.3 0 1.8.725 3.425 1.9 4.6 1.175 1.175 2.8 1.9 4.6 1.9.727 0 1.426-.118 2.078-.337 1.764-.591 3.186-1.916 3.907-3.614.332-.782.515-1.644.515-2.549 0-1.429-.457-2.748-1.233-3.819C876.087 2.255 874.171 1.2 872 1.2z" fill="#039be5"/><path d="M872.1 8l14 14" fill="none" stroke="#039be5" stroke-width="5" stroke-miterlimit="10"/></g><g><path d="M896 6.3c-.296-.001-.585.092-.825.266-.24.173-.419.419-.511.701-.091.281-.091.585 0 .866.092.282.271.528.511.701.24.174.529.267.825.266.296.001.585-.092.825-.266.24-.173.419-.419.511-.701.091-.281.091-.585 0-.866-.092-.282-.271-.528-.511-.701-.24-.174-.529-.267-.825-.266z" fill="none"/><path d="M896 1.2c-.8 0-1.7.2-2.4.5l1.2 1.2 3 3-1.386 1.386L894.1 9.6l-1.717-1.717L889.9 5.4c-.3.7-.4 1.5-.4 2.3 0 1.8.725 3.425 1.9 4.6 1.175 1.175 2.8 1.9 4.6 1.9.727 0 1.426-.118 2.078-.337 1.764-.591 3.186-1.916 3.907-3.614.332-.782.515-1.644.515-2.549 0-1.429-.457-2.748-1.233-3.819C900.087 2.255 898.171 1.2 896 1.2z" fill="#039be5"/><path d="M896.1 8l14 14" fill="none" stroke="#039be5" stroke-width="5" stroke-miterlimit="10"/></g><g><path d="M920 6.3c-.296-.001-.585.092-.825.266-.24.173-.419.419-.511.701-.091.281-.091.585 0 .866.092.282.271.528.511.701.24.174.529.267.825.266.296.001.585-.092.825-.266.24-.173.419-.419.511-.701.091-.281.091-.585 0-.866-.092-.282-.271-.528-.511-.701-.24-.174-.529-.267-.825-.266z" fill="none"/><path d="M920 1.2c-.8 0-1.7.2-2.4.5l1.2 1.2 3 3-1.386 1.386L918.1 9.6l-1.717-1.717L913.9 5.4c-.3.7-.4 1.5-.4 2.3 0 1.8.725 3.425 1.9 4.6 1.175 1.175 2.8 1.9 4.6 1.9.727 0 1.426-.118 2.078-.337 1.764-.591 3.186-1.916 3.907-3.614.332-.782.515-1.644.515-2.549 0-1.429-.457-2.748-1.233-3.819C924.087 2.255 922.171 1.2 920 1.2z" fill="#039be5"/><path d="M920.1 8l14 14" fill="none" stroke="#039be5" stroke-width="5" stroke-miterlimit="10"/></g></svg>